<svg width="688" height="763" viewBox="0 0 688 763" fill="none" xmlns="http://www.w3.org/2000/svg">
<rect width="688" height="763" fill="#FAF1E7"/>
<rect x="166" y="204" width="356" height="356" rx="35" fill="#FF4409"/>
<path d="M344.318 316.284C344.318 292.107 184.808 355.667 231.161 361.376C184.808 355.667 245.734 458.513 274.381 434.336C245.734 458.513 442.902 458.513 414.254 434.336C442.902 458.513 503.827 355.672 457.475 361.376C503.827 355.667 344.318 292.107 344.318 316.284Z" fill="#FAF1E7"/>
<path d="M359.049 353.262H318.899C318.899 353.262 318.879 353.272 318.879 353.282V410.04H337.093C341.074 410.04 344.303 406.762 344.303 402.721V394.607C344.303 403.134 351.111 410.045 359.511 410.045H369.727V381.656H359.049C364.947 381.656 369.727 376.804 369.727 370.817V364.106C369.727 358.119 364.947 353.267 359.049 353.267V353.262ZM345.32 384.33C345.32 384.614 345.091 384.846 344.811 384.846H343.794C343.515 384.846 343.286 384.614 343.286 384.33V366.264C343.286 365.98 343.515 365.748 343.794 365.748H344.811C345.091 365.748 345.32 365.98 345.32 366.264V384.33Z" fill="#FF4409"/>
<path d="M299.393 356.875V386.802C299.393 387.086 299.164 387.318 298.884 387.318H297.867C297.588 387.318 297.359 387.086 297.359 386.802V358.826C297.359 355.977 295.259 353.484 292.462 353.277C292.325 353.267 292.187 353.262 292.05 353.262H287.754C287.616 353.262 287.479 353.262 287.342 353.277C284.545 353.484 282.445 355.977 282.445 358.826V386.802C282.445 387.086 282.216 387.318 281.937 387.318H280.92C280.64 387.318 280.411 387.086 280.411 386.802V356.586C280.411 354.748 278.947 353.262 277.137 353.262H264.48V393.007C264.48 393.099 264.491 393.187 264.496 393.28C264.496 393.373 264.48 393.461 264.48 393.554V410.045H279.226C282.908 410.045 286.142 408.151 288.059 405.271C288.633 404.403 288.954 403.381 289.055 402.344V402.298C289.259 400.563 289.487 398.664 289.772 396.945H290.026C290.316 398.659 290.545 400.563 290.743 402.298V402.308C290.84 403.361 291.16 404.393 291.745 405.265C293.662 408.146 296.896 410.04 300.577 410.04H315.323V393.549C315.323 393.409 315.308 393.27 315.303 393.136C315.308 392.996 315.323 392.862 315.323 392.723V353.267H302.952C300.984 353.267 299.393 354.882 299.393 356.88V356.875Z" fill="#FF4409"/>
<path d="M424.125 353.262H409.379C406.115 353.262 403.201 354.753 401.249 357.097C400.267 358.274 399.693 359.745 399.545 361.283C399.342 363.017 399.113 364.917 398.828 366.635H398.574C398.284 364.922 398.056 363.017 397.857 361.283V361.267C397.72 359.755 397.15 358.305 396.189 357.138C394.237 354.769 391.308 353.262 388.023 353.262H373.277V369.753C373.277 369.892 373.293 370.032 373.298 370.166C373.293 370.305 373.277 370.44 373.277 370.579V410.035H385.649C387.616 410.035 389.208 408.419 389.208 406.422V376.845C389.208 376.561 389.437 376.329 389.716 376.329H390.733C391.013 376.329 391.242 376.561 391.242 376.845V404.383C391.242 407.5 393.733 410.03 396.805 410.03H400.593C403.664 410.03 406.156 407.5 406.156 404.383V376.845C406.156 376.561 406.384 376.329 406.664 376.329H407.681C407.961 376.329 408.19 376.561 408.19 376.845V406.705C408.19 408.543 409.654 410.03 411.464 410.03H424.12V370.285C424.12 370.192 424.11 370.104 424.105 370.011C424.105 369.918 424.12 369.831 424.12 369.738V353.246V353.262H424.125Z" fill="#FF4409"/>
</svg>
