<svg width="1405" height="881" viewBox="0 0 1405 881" fill="none" xmlns="http://www.w3.org/2000/svg">
<rect width="1405" height="881" fill="#F7E1CD"/>
<path d="M650.701 182.384C648.909 182.384 647.491 182.011 646.445 181.264C645.421 180.517 644.685 179.472 644.237 178.128C643.811 176.763 643.597 175.195 643.597 173.424V164.72C643.597 162.885 643.832 161.296 644.301 159.952C644.771 158.608 645.571 157.573 646.701 156.848C647.853 156.101 649.411 155.728 651.373 155.728C653.293 155.728 654.797 156.048 655.885 156.688C656.995 157.328 657.784 158.213 658.253 159.344C658.723 160.475 658.957 161.797 658.957 163.312V164.976H653.357V162.864C653.357 162.309 653.315 161.797 653.229 161.328C653.165 160.859 652.995 160.485 652.717 160.208C652.461 159.909 652.035 159.76 651.437 159.76C650.819 159.76 650.371 159.931 650.093 160.272C649.816 160.592 649.635 160.997 649.549 161.488C649.485 161.979 649.453 162.491 649.453 163.024V175.024C649.453 175.6 649.507 176.144 649.613 176.656C649.741 177.147 649.955 177.552 650.253 177.872C650.573 178.171 651.021 178.32 651.597 178.32C652.195 178.32 652.653 178.16 652.973 177.84C653.293 177.52 653.517 177.104 653.645 176.592C653.773 176.08 653.837 175.536 653.837 174.96V171.92H651.501V168.56H658.989V182H655.213L654.893 179.856C654.552 180.581 654.051 181.189 653.389 181.68C652.728 182.149 651.832 182.384 650.701 182.384ZM668.718 182.384C666.777 182.384 665.241 182.043 664.11 181.36C662.98 180.677 662.169 179.696 661.678 178.416C661.188 177.136 660.942 175.611 660.942 173.84V164.208C660.942 162.416 661.188 160.891 661.678 159.632C662.169 158.373 662.98 157.413 664.11 156.752C665.241 156.069 666.777 155.728 668.718 155.728C670.681 155.728 672.228 156.069 673.358 156.752C674.51 157.413 675.332 158.373 675.822 159.632C676.313 160.891 676.558 162.416 676.558 164.208V173.84C676.558 175.611 676.313 177.136 675.822 178.416C675.332 179.696 674.51 180.677 673.358 181.36C672.228 182.043 670.681 182.384 668.718 182.384ZM668.718 178.32C669.316 178.32 669.753 178.171 670.03 177.872C670.308 177.573 670.489 177.189 670.574 176.72C670.66 176.251 670.702 175.771 670.702 175.28V162.8C670.702 162.288 670.66 161.808 670.574 161.36C670.489 160.891 670.308 160.507 670.03 160.208C669.753 159.909 669.316 159.76 668.718 159.76C668.164 159.76 667.748 159.909 667.47 160.208C667.193 160.507 667.012 160.891 666.926 161.36C666.841 161.808 666.798 162.288 666.798 162.8V175.28C666.798 175.771 666.83 176.251 666.894 176.72C666.98 177.189 667.15 177.573 667.406 177.872C667.684 178.171 668.121 178.32 668.718 178.32ZM677.11 182L682.006 156.08H688.534L693.366 182H688.086L687.222 176.528H683.414L682.518 182H677.11ZM683.926 173.104H686.678L685.302 162.992L683.926 173.104ZM694.703 182V156.08H700.431V178.128H706.383V182H694.703Z" fill="#FF4409"/>
<path d="M666.864 203.404V205.132H673.812V206.698H658.116V205.132H665.082V203.404H660.204V197.428H671.724V203.404H666.864ZM669.924 198.94H662.004V201.874H669.924V198.94ZM670.104 210.01H660.042V208.408H671.904V213.952H670.104V210.01ZM686.614 205.366H689.224V206.968H676.84V205.366H679.45V199.804H676.84V198.184H689.224V199.804H686.614V205.366ZM684.868 199.804H681.196V205.366H684.868V199.804ZM686.704 207.922V210.874H690.88V212.53H675.184V210.874H679.378V207.922H681.124V210.874H684.958V207.922H686.704Z" fill="#FF4409"/>
<rect x="192" y="287" width="321.199" height="412.855" rx="16.2222" fill="#FF4409"/>
<rect x="543.211" y="287" width="319.577" height="412.855" rx="16.2222" fill="#FF4409"/>
<rect x="892.797" y="287" width="321.199" height="412.855" rx="16.2222" fill="#FF4409"/>
<path d="M263.734 336.344V341.665H260.489V353.929H255.006V326.221H260.489V336.344H263.734ZM235.41 352.631V326.87H251.534V352.631H235.41ZM240.893 331.964V347.537H246.051V331.964H240.893ZM294.942 336.344V341.665H291.698V353.929H286.215V326.221H291.698V336.344H294.942ZM272.069 347.7H277.747C280.375 347.7 283.23 347.213 284.917 346.434V351.301C283.23 352.144 280.245 352.631 277.584 352.631H266.618V337.252H276.936V331.802H266.553V326.87H282.386V342.119H272.069V347.7ZM313.66 341.34H324.918V345.591H296.886V341.34H308.144V339.621H298.606V326.221H323.231V329.92H304.024V331.218H322.777V334.689H304.024V335.955H323.555V339.621H313.66V341.34ZM304.089 346.791V349.581H323.62V353.929H298.508V346.791H304.089ZM261.268 362.221V375.783H255.785V362.221H261.268ZM243.553 362.254C249.004 362.254 252.475 364.979 252.475 368.97C252.475 372.993 249.004 375.686 243.553 375.686C238.102 375.686 234.631 372.993 234.631 368.97C234.631 364.979 238.102 362.254 243.553 362.254ZM243.553 366.569C241.444 366.569 240.049 367.51 240.049 368.97C240.049 370.43 241.444 371.371 243.553 371.371C245.662 371.371 247.057 370.43 247.057 368.97C247.057 367.51 245.662 366.569 243.553 366.569ZM261.268 376.756V385.03H242.255V386.133H261.56V389.929H236.837V381.656H255.85V380.552H236.772V376.756H261.268ZM275.605 372.863C273.432 375.394 270.122 377.243 266.164 377.34V372.539C269.733 372.344 272.101 369.716 272.653 367.088H266.553V362.546H284.203V366.504H287.123V362.221H292.606V377.73H287.123V371.176H283.424V367.088H278.201C278.136 367.672 278.039 368.224 277.844 368.808L285.241 373.025L282.613 377.048L275.605 372.863ZM280.212 378.119C287.285 378.119 292.866 379.676 292.866 384.186C292.866 388.696 287.285 390.253 280.212 390.253C273.14 390.253 267.559 388.696 267.559 384.186C267.559 379.676 273.14 378.119 280.212 378.119ZM280.212 385.938C283.944 385.938 286.961 385.452 286.961 384.186C286.961 382.953 283.944 382.434 280.212 382.434C276.481 382.434 273.464 382.953 273.464 384.186C273.464 385.452 276.481 385.938 280.212 385.938ZM310.902 361.767C318.17 361.767 323.491 363.13 323.491 366.991C323.491 370.852 318.17 372.214 310.902 372.214C303.635 372.214 298.314 370.852 298.314 366.991C298.314 363.13 303.635 361.767 310.902 361.767ZM310.902 365.693C306.782 365.693 304.121 366.082 304.121 366.991C304.121 367.932 306.782 368.288 310.902 368.288C315.023 368.288 317.683 367.932 317.683 366.991C317.683 366.082 315.023 365.693 310.902 365.693ZM324.918 373.123V377.113H296.886V373.123H324.918ZM323.296 378.184V385.419H303.894V386.36H323.588V389.929H298.541V382.564H317.943V381.623H298.476V378.184H323.296ZM252.897 400.227V404.023H234.404V400.227H240.795V398.378H246.441V400.227H252.897ZM263.734 405.288V410.382H260.554V418.299H255.071V399.221H260.554V405.288H263.734ZM253.481 417.196C251.762 417.942 248.971 418.201 246.214 418.201H234.469V414.211H240.958V413.14C237.648 412.686 235.442 411.291 235.442 408.987C235.442 406.132 238.914 404.64 243.683 404.64C248.452 404.64 251.924 406.132 251.924 408.987C251.924 411.291 249.685 412.686 246.343 413.172V414.211C248.906 414.211 251.762 413.951 253.481 413.205V417.196ZM240.536 408.987C240.536 409.539 241.769 409.798 243.683 409.798C245.597 409.798 246.83 409.539 246.83 408.987C246.83 408.436 245.597 408.176 243.683 408.176C241.769 408.176 240.536 408.436 240.536 408.987ZM235.961 423.328V419.272H260.554V427.253H255.038V423.328H235.961ZM292.476 399.221V419.726H286.993V399.221H292.476ZM274.697 399.254C280.115 399.254 283.814 402.563 283.814 407.56C283.814 412.588 280.115 415.865 274.697 415.865C269.279 415.865 265.58 412.588 265.58 407.56C265.58 402.563 269.279 399.254 274.697 399.254ZM274.697 403.828C272.588 403.828 271.031 405.159 271.031 407.56C271.031 409.96 272.588 411.291 274.697 411.291C276.806 411.291 278.363 409.96 278.363 407.56C278.363 405.159 276.806 403.828 274.697 403.828ZM273.594 417.228V421.997H292.866V426.929H268.013V417.228H273.594ZM309.28 399.124V402.563H315.444V407.56H297.47V402.563H303.667V399.124H309.28ZM326.151 409.344V414.665H322.907V426.929H317.423V399.221H322.907V409.344H326.151ZM306.457 408.695C311.454 408.695 314.503 412.426 314.503 417.325C314.503 422.257 311.454 425.956 306.457 425.956C301.461 425.956 298.411 422.257 298.411 417.325C298.411 412.426 301.461 408.695 306.457 408.695ZM306.457 421.251C308.242 421.251 309.28 419.694 309.28 417.325C309.28 414.957 308.242 413.4 306.457 413.4C304.673 413.4 303.635 414.957 303.635 417.325C303.635 419.694 304.673 421.251 306.457 421.251ZM348.892 418.136V404.964H329.555V399.87H354.602V418.136H348.892ZM342.792 420.829H356.127V425.956H328.095V420.829H337.114V409.993H342.792V420.829Z" fill="#FAF1E7"/>
<path d="M606.801 326.221H612.284V353.929H606.801V341.535H602.778V336.214H606.801V326.221ZM591.909 347.7H597.198C599.826 347.7 602.681 347.18 604.368 346.434V351.301C602.681 352.144 599.566 352.631 596.808 352.631H586.459V337.252H595.997V331.802H586.394V326.87H601.448V342.119H591.909V347.7ZM638.01 326.221H643.493V353.929H638.01V340.237H629.445V334.949H638.01V326.221ZM623.313 347.602H628.406C631.034 347.602 633.889 347.116 635.577 346.337V351.301C633.889 352.144 630.905 352.631 628.244 352.631H617.667V326.708H623.313V347.602ZM674.118 326.221V330.147H654.911V331.899H674.442V335.825H649.46V326.221H674.118ZM675.805 336.993V340.984H647.773V336.993H675.805ZM674.183 342.119V349.452H654.781V350.457H674.475V353.929H649.427V346.564H668.829V345.558H649.363V342.119H674.183ZM708.246 336.084V341.405H705.067V353.929H699.584V326.221H705.067V336.084H708.246ZM690.694 344.358V332.126H679.825V327.033H696.21V344.358H690.694ZM688.034 347.505H690.824C693.387 347.505 696.274 347.18 697.994 346.402V351.528C696.274 352.307 693.484 352.631 690.726 352.631H678.982V347.505H682.518V337.48H688.034V347.505ZM599.209 372.604C595.997 376.854 591.195 379.449 585.907 379.449V374.258C591.423 374.258 596.549 369.456 597.554 362.124L603.135 363C602.875 364.882 602.389 366.666 601.675 368.288L613.387 375.102L610.565 379.579L599.209 372.604ZM602.162 377.697V383.829H613.387V388.956H585.355V383.829H596.581V377.697H602.162ZM633.305 375.621H644.596V379.612H616.564V375.621H627.855V374.42H618.284V362.221H642.909V365.628H623.702V366.796H642.455V369.911H623.702V371.046H643.233V374.42H633.305V375.621ZM630.58 380.39C638.042 380.39 643.266 381.818 643.266 385.354C643.266 388.891 638.042 390.318 630.58 390.318C623.118 390.318 617.894 388.891 617.894 385.354C617.894 381.818 623.118 380.39 630.58 380.39ZM630.58 386.522C634.636 386.522 637.458 386.198 637.458 385.354C637.458 384.543 634.636 384.186 630.58 384.186C626.525 384.186 623.702 384.543 623.702 385.354C623.702 386.198 626.525 386.522 630.58 386.522ZM660.167 362.124V365.563H666.331V370.56H648.357V365.563H654.554V362.124H660.167ZM677.038 372.344V377.665H673.793V389.929H668.31V362.221H673.793V372.344H677.038ZM657.344 371.695C662.34 371.695 665.39 375.426 665.39 380.325C665.39 385.257 662.34 388.956 657.344 388.956C652.347 388.956 649.298 385.257 649.298 380.325C649.298 375.426 652.347 371.695 657.344 371.695ZM657.344 384.251C659.128 384.251 660.167 382.694 660.167 380.325C660.167 377.957 659.128 376.4 657.344 376.4C655.559 376.4 654.521 377.957 654.521 380.325C654.521 382.694 655.559 384.251 657.344 384.251ZM700.492 362.221H705.91V389.929H700.492V382.499H697.378V377.373H700.492V373.09H697.378V367.964H700.492V362.221ZM680.085 388.631V362.87H696.08V388.631H680.085ZM685.503 367.964V383.537H690.662V367.964H685.503ZM612.154 399.221V426.929H606.671V399.221H612.154ZM602.389 399.87V407.365C602.389 418.623 596.127 425.631 586.426 425.631V420.44C593.142 420.375 596.776 415.379 596.776 407.365V404.867H586.426V399.87H602.389ZM633.305 413.529H644.596V417.715H616.564V413.529H627.855V412.102H618.284V404.056H637.556V402.79H618.219V399.221H642.909V407.268H623.637V408.533H643.201V412.102H633.305V413.529ZM618.057 423.165V418.98H642.974V427.253H637.426V423.165H618.057ZM660.167 399.124V402.563H666.331V407.56H648.357V402.563H654.554V399.124H660.167ZM677.038 409.344V414.665H673.793V426.929H668.31V399.221H673.793V409.344H677.038ZM657.344 408.695C662.34 408.695 665.39 412.426 665.39 417.325C665.39 422.257 662.34 425.956 657.344 425.956C652.347 425.956 649.298 422.257 649.298 417.325C649.298 412.426 652.347 408.695 657.344 408.695ZM657.344 421.251C659.128 421.251 660.167 419.694 660.167 417.325C660.167 414.957 659.128 413.4 657.344 413.4C655.559 413.4 654.521 414.957 654.521 417.325C654.521 419.694 655.559 421.251 657.344 421.251ZM699.778 418.136V404.964H680.442V399.87H705.489V418.136H699.778ZM693.679 420.829H707.013V425.956H678.982V420.829H688.001V409.993H693.679V420.829Z" fill="#FAF1E7"/>
<path d="M964.21 336.344V341.665H960.966V353.929H955.483V326.221H960.966V336.344H964.21ZM935.886 352.631V326.87H952.011V352.631H935.886ZM941.369 331.964V347.537H946.528V331.964H941.369ZM995.419 336.344V341.665H992.174V353.929H986.691V326.221H992.174V336.344H995.419ZM972.545 347.7H978.223C980.851 347.7 983.706 347.213 985.393 346.434V351.301C983.706 352.144 980.721 352.631 978.061 352.631H967.095V337.252H977.412V331.802H967.03V326.87H982.863V342.119H972.545V347.7ZM1014.14 341.34H1025.39V345.591H997.363V341.34H1008.62V339.621H999.082V326.221H1023.71V329.92H1004.5V331.218H1023.25V334.689H1004.5V335.955H1024.03V339.621H1014.14V341.34ZM1004.57 346.791V349.581H1024.1V353.929H998.985V346.791H1004.57ZM1051.02 326.221H1056.15V353.929H1051.02V326.221ZM1044.05 336.766V326.351H1049.11V353.442H1044.05V342.022H1042.07C1041.71 349.841 1039.38 352.956 1035.35 352.956C1030.97 352.956 1028.57 349.224 1028.57 339.751C1028.57 330.309 1030.97 326.546 1035.35 326.546C1039.25 326.546 1041.58 329.498 1042.04 336.766H1044.05ZM1035.35 347.992C1036.59 347.992 1037.04 345.493 1037.04 339.751C1037.04 334.008 1036.59 331.51 1035.35 331.51C1034.12 331.51 1033.67 334.008 1033.67 339.751C1033.67 345.493 1034.12 347.992 1035.35 347.992ZM944.257 373.999C942.115 376.302 938.968 377.989 935.27 378.087V373.48C938.482 373.22 940.688 371.111 941.499 368.678H935.594V364.265H941.694V361.735H947.274V364.265H953.374V368.678H947.144C947.015 369.132 946.885 369.586 946.723 370.04L954.087 373.772L951.719 377.86L944.257 373.999ZM964.21 367.25V372.571H960.966V378.216H955.483V362.221H960.966V367.25H964.21ZM936.503 389.929V379.19H960.966V389.929H936.503ZM941.953 383.472V385.646H955.515V383.472H941.953ZM987.697 362.221H993.083V389.929H987.697V383.245H984.55L984.907 378.119H987.697V373.22H984.907L984.55 368.094H987.697V362.221ZM975.368 362.546C980.494 362.546 983.869 366.634 983.869 375.751C983.869 384.868 980.494 388.956 975.368 388.956C970.242 388.956 966.835 384.868 966.835 375.751C966.835 366.634 970.242 362.546 975.368 362.546ZM975.368 383.927C977.153 383.927 978.483 381.98 978.483 375.751C978.483 369.554 977.153 367.575 975.368 367.575C973.551 367.575 972.221 369.554 972.221 375.751C972.221 381.98 973.551 383.927 975.368 383.927ZM1006.87 362.124V365.628H1011.51V370.527H996.714V365.628H1001.42V362.124H1006.87ZM1019.91 362.221H1024.94V389.929H1019.91V377.6H1017.67V389.442H1012.71V362.351H1017.67V372.409H1019.91V362.221ZM1004.24 371.63C1008.1 371.63 1011.05 374.485 1011.05 380.293C1011.05 386.1 1008.1 388.956 1004.24 388.956C1000.38 388.956 997.492 386.1 997.492 380.293C997.492 374.485 1000.38 371.63 1004.24 371.63ZM1004.24 384.251C1005.31 384.251 1006.16 382.856 1006.16 380.293C1006.16 377.73 1005.31 376.335 1004.24 376.335C1003.17 376.335 1002.39 377.73 1002.39 380.293C1002.39 382.856 1003.17 384.251 1004.24 384.251ZM961.744 399.221V414.308H956.261V399.221H961.744ZM953.049 399.546V412.816H935.854V399.546H941.207V401.882H947.696V399.546H953.049ZM941.207 408.5H947.696V406.1H941.207V408.5ZM962.62 422.841L961.29 427.253L948.929 424.204C945.847 426.183 941.272 426.929 936.697 426.929V422.484C940.655 422.484 944.516 421.77 946.366 420.116H936.989V415.833H946.56V413.789H952.141V415.833H961.744V420.116H952.4C952.303 420.31 952.238 420.505 952.173 420.667L962.62 422.841ZM995.419 409.344V414.665H992.174V426.929H986.691V399.221H992.174V409.344H995.419ZM972.708 420.602H978.223C980.851 420.602 983.706 420.148 985.393 419.369V424.333C983.706 425.177 980.721 425.631 978.061 425.631H967.095V399.708H972.708V420.602ZM1024.16 399.221V426.929H1018.68V399.221H1024.16ZM1014.4 399.87V407.365C1014.4 418.623 1008.13 425.631 998.433 425.631V420.44C1005.15 420.375 1008.78 415.379 1008.78 407.365V404.867H998.433V399.87H1014.4ZM1054.92 399.221V406.197H1035.58V407.17H1055.21V410.317H1030.29V403.374H1049.63V402.401H1030.23V399.221H1054.92ZM1056.6 411.258V414.892H1028.57V411.258H1056.6ZM1054.98 415.833V422.776H1035.51V423.749H1055.27V426.929H1030.23V419.953H1049.69V418.98H1030.16V415.833H1054.98ZM1066.82 400.033L1065.33 417.715H1061.3L1059.81 400.033H1066.82ZM1063.32 420.083C1065.3 420.083 1066.76 421.543 1066.76 423.522C1066.76 425.501 1065.3 426.929 1063.32 426.929C1061.34 426.929 1059.88 425.501 1059.88 423.522C1059.88 421.543 1061.34 420.083 1063.32 420.083Z" fill="#FAF1E7"/>
<path d="M1184.79 575.754C1130.02 595.092 1114.42 610.767 1095.17 665.787C1075.92 610.767 1060.31 595.092 1005.54 575.754C1060.31 556.416 1075.92 540.741 1095.17 485.721C1114.42 540.741 1130.02 556.416 1184.79 575.754Z" fill="#FAF1E7"/>
<path d="M474.264 575.755C474.264 583.473 453.497 587.842 451.245 594.785C448.992 601.727 463.071 617.726 458.706 623.752C454.307 629.813 434.948 621.179 428.895 625.584C422.876 629.954 425.163 651.063 417.948 653.424C410.979 655.679 400.455 637.355 392.747 637.355C385.039 637.355 374.515 655.715 367.546 653.424C360.577 651.133 362.583 629.954 356.599 625.584C350.616 621.215 331.187 629.813 326.788 623.752C322.388 617.691 336.572 602.009 334.249 594.785C331.926 587.561 311.23 583.473 311.23 575.755C311.23 568.038 331.997 563.668 334.249 556.726C336.502 549.783 322.423 533.785 326.788 527.758C331.187 521.697 350.546 530.331 356.599 525.926C362.618 521.556 360.331 500.448 367.546 498.086C374.515 495.831 385.039 514.156 392.747 514.156C400.455 514.156 410.979 495.796 417.948 498.086C424.917 500.377 422.911 521.556 428.895 525.926C434.878 530.296 454.307 521.697 458.706 527.758C463.106 533.82 448.922 549.502 451.245 556.726C453.568 563.95 474.264 568.038 474.264 575.755Z" fill="#FAF1E7"/>
<path d="M777.26 539.389C841.552 546.803 841.552 604.709 777.26 612.123C769.81 676.107 711.626 676.107 704.176 612.123C639.884 604.709 639.884 546.803 704.176 539.389C711.626 475.404 769.81 475.404 777.26 539.389Z" fill="#FAF1E7"/>
<path d="M241.117 443.036C241.601 443.036 242.029 443.131 242.4 443.32C242.771 443.509 243.059 443.797 243.263 444.183C243.475 444.569 243.581 445.057 243.581 445.648V449.111H242.491V445.773C242.491 445.19 242.355 444.751 242.082 444.456C241.809 444.16 241.427 444.013 240.935 444.013C240.572 444.013 240.254 444.088 239.981 444.24C239.709 444.391 239.497 444.615 239.345 444.91C239.201 445.205 239.13 445.572 239.13 446.011V449.111H238.039V445.773C238.039 445.19 237.903 444.751 237.631 444.456C237.366 444.16 236.983 444.013 236.484 444.013C236.128 444.013 235.814 444.088 235.541 444.24C235.269 444.391 235.057 444.615 234.905 444.91C234.754 445.205 234.678 445.572 234.678 446.011V449.111H233.588V443.093H234.633V444.694L234.462 444.285C234.652 443.892 234.943 443.585 235.337 443.365C235.73 443.146 236.188 443.036 236.711 443.036C237.286 443.036 237.782 443.18 238.198 443.468C238.615 443.748 238.887 444.175 239.016 444.751L238.573 444.569C238.755 444.107 239.073 443.736 239.527 443.456C239.981 443.176 240.511 443.036 241.117 443.036ZM249.323 449.111V447.84L249.266 447.601V445.432C249.266 444.97 249.13 444.615 248.857 444.365C248.592 444.107 248.191 443.979 247.653 443.979C247.298 443.979 246.949 444.039 246.609 444.16C246.268 444.274 245.98 444.429 245.746 444.626L245.292 443.808C245.602 443.558 245.973 443.369 246.404 443.241C246.843 443.104 247.301 443.036 247.778 443.036C248.604 443.036 249.239 443.237 249.686 443.638C250.133 444.039 250.356 444.652 250.356 445.478V449.111H249.323ZM247.347 449.179C246.9 449.179 246.507 449.104 246.166 448.952C245.833 448.801 245.575 448.593 245.394 448.328C245.212 448.055 245.121 447.749 245.121 447.408C245.121 447.082 245.197 446.787 245.348 446.522C245.507 446.257 245.761 446.045 246.109 445.886C246.465 445.727 246.942 445.648 247.54 445.648H249.448V446.431H247.585C247.04 446.431 246.673 446.522 246.484 446.704C246.295 446.886 246.2 447.105 246.2 447.363C246.2 447.658 246.317 447.896 246.552 448.078C246.787 448.252 247.112 448.339 247.529 448.339C247.937 448.339 248.293 448.248 248.596 448.067C248.906 447.885 249.13 447.62 249.266 447.272L249.482 448.021C249.338 448.377 249.084 448.661 248.721 448.873C248.358 449.077 247.9 449.179 247.347 449.179ZM252.373 449.111V443.093H253.418V444.728L253.316 444.319C253.483 443.903 253.763 443.585 254.156 443.365C254.55 443.146 255.034 443.036 255.61 443.036V444.092C255.564 444.085 255.519 444.081 255.474 444.081C255.436 444.081 255.398 444.081 255.36 444.081C254.777 444.081 254.315 444.255 253.975 444.603C253.634 444.951 253.464 445.455 253.464 446.113V449.111H252.373ZM260.246 449.111V447.84L260.189 447.601V445.432C260.189 444.97 260.053 444.615 259.78 444.365C259.515 444.107 259.114 443.979 258.577 443.979C258.221 443.979 257.872 444.039 257.532 444.16C257.191 444.274 256.903 444.429 256.669 444.626L256.215 443.808C256.525 443.558 256.896 443.369 257.327 443.241C257.766 443.104 258.224 443.036 258.701 443.036C259.527 443.036 260.163 443.237 260.609 443.638C261.056 444.039 261.279 444.652 261.279 445.478V449.111H260.246ZM258.27 449.179C257.823 449.179 257.43 449.104 257.089 448.952C256.756 448.801 256.498 448.593 256.317 448.328C256.135 448.055 256.044 447.749 256.044 447.408C256.044 447.082 256.12 446.787 256.271 446.522C256.43 446.257 256.684 446.045 257.032 445.886C257.388 445.727 257.865 445.648 258.463 445.648H260.371V446.431H258.508C257.963 446.431 257.596 446.522 257.407 446.704C257.218 446.886 257.123 447.105 257.123 447.363C257.123 447.658 257.24 447.896 257.475 448.078C257.71 448.252 258.035 448.339 258.452 448.339C258.86 448.339 259.216 448.248 259.519 448.067C259.829 447.885 260.053 447.62 260.189 447.272L260.405 448.021C260.261 448.377 260.007 448.661 259.644 448.873C259.281 449.077 258.823 449.179 258.27 449.179ZM265.363 449.179C264.758 449.179 264.288 449.017 263.955 448.691C263.622 448.366 263.455 447.9 263.455 447.294V441.776H264.546V447.249C264.546 447.575 264.625 447.824 264.784 447.998C264.951 448.173 265.185 448.26 265.488 448.26C265.829 448.26 266.113 448.165 266.34 447.976L266.68 448.759C266.514 448.903 266.313 449.009 266.079 449.077C265.852 449.145 265.613 449.179 265.363 449.179ZM262.433 443.99V443.093H266.272V443.99H262.433ZM271.212 443.036C271.704 443.036 272.136 443.131 272.507 443.32C272.885 443.509 273.18 443.797 273.392 444.183C273.604 444.569 273.71 445.057 273.71 445.648V449.111H272.62V445.773C272.62 445.19 272.476 444.751 272.189 444.456C271.909 444.16 271.511 444.013 270.996 444.013C270.61 444.013 270.273 444.088 269.986 444.24C269.698 444.391 269.475 444.615 269.316 444.91C269.164 445.205 269.089 445.572 269.089 446.011V449.111H267.998V440.686H269.089V444.717L268.873 444.285C269.07 443.892 269.372 443.585 269.781 443.365C270.19 443.146 270.667 443.036 271.212 443.036ZM278.305 449.179C277.7 449.179 277.162 449.047 276.693 448.782C276.224 448.517 275.853 448.154 275.58 447.692C275.308 447.223 275.171 446.693 275.171 446.102C275.171 445.504 275.308 444.974 275.58 444.512C275.853 444.051 276.224 443.691 276.693 443.434C277.162 443.169 277.7 443.036 278.305 443.036C278.903 443.036 279.437 443.169 279.907 443.434C280.383 443.691 280.754 444.051 281.019 444.512C281.292 444.967 281.428 445.496 281.428 446.102C281.428 446.7 281.292 447.23 281.019 447.692C280.754 448.154 280.383 448.517 279.907 448.782C279.437 449.047 278.903 449.179 278.305 449.179ZM278.305 448.226C278.692 448.226 279.036 448.139 279.339 447.964C279.649 447.79 279.891 447.544 280.066 447.226C280.24 446.901 280.327 446.526 280.327 446.102C280.327 445.671 280.24 445.3 280.066 444.989C279.891 444.671 279.649 444.425 279.339 444.251C279.036 444.077 278.692 443.99 278.305 443.99C277.919 443.99 277.575 444.077 277.272 444.251C276.969 444.425 276.727 444.671 276.545 444.989C276.364 445.3 276.273 445.671 276.273 446.102C276.273 446.526 276.364 446.901 276.545 447.226C276.727 447.544 276.969 447.79 277.272 447.964C277.575 448.139 277.919 448.226 278.305 448.226ZM286.149 443.036C286.642 443.036 287.073 443.131 287.444 443.32C287.822 443.509 288.118 443.797 288.33 444.183C288.542 444.569 288.648 445.057 288.648 445.648V449.111H287.558V445.773C287.558 445.19 287.414 444.751 287.126 444.456C286.846 444.16 286.448 444.013 285.934 444.013C285.548 444.013 285.211 444.088 284.923 444.24C284.635 444.391 284.412 444.615 284.253 444.91C284.102 445.205 284.026 445.572 284.026 446.011V449.111H282.936V443.093H283.981V444.717L283.81 444.285C284.007 443.892 284.31 443.585 284.719 443.365C285.127 443.146 285.604 443.036 286.149 443.036ZM295.441 449.179C294.941 449.179 294.464 449.111 294.01 448.975C293.563 448.839 293.211 448.672 292.954 448.475L293.408 447.612C293.666 447.787 293.983 447.934 294.362 448.055C294.74 448.176 295.127 448.237 295.52 448.237C296.027 448.237 296.391 448.165 296.61 448.021C296.837 447.877 296.951 447.677 296.951 447.419C296.951 447.23 296.883 447.082 296.747 446.976C296.61 446.871 296.429 446.791 296.202 446.738C295.982 446.685 295.736 446.64 295.463 446.602C295.191 446.556 294.918 446.503 294.646 446.443C294.373 446.375 294.124 446.284 293.896 446.17C293.669 446.049 293.488 445.886 293.351 445.682C293.215 445.47 293.147 445.19 293.147 444.842C293.147 444.478 293.249 444.16 293.454 443.888C293.658 443.615 293.946 443.407 294.317 443.263C294.695 443.112 295.142 443.036 295.657 443.036C296.05 443.036 296.448 443.085 296.849 443.184C297.258 443.275 297.591 443.407 297.848 443.581L297.383 444.444C297.11 444.263 296.826 444.138 296.531 444.069C296.236 444.001 295.94 443.967 295.645 443.967C295.168 443.967 294.812 444.047 294.578 444.206C294.343 444.357 294.226 444.554 294.226 444.796C294.226 445.001 294.294 445.16 294.43 445.273C294.574 445.379 294.756 445.462 294.975 445.523C295.202 445.584 295.452 445.637 295.725 445.682C295.997 445.72 296.27 445.773 296.542 445.841C296.815 445.901 297.061 445.989 297.28 446.102C297.507 446.216 297.689 446.375 297.825 446.579C297.969 446.783 298.041 447.056 298.041 447.397C298.041 447.76 297.935 448.074 297.723 448.339C297.511 448.604 297.212 448.812 296.826 448.964C296.44 449.108 295.978 449.179 295.441 449.179ZM302.027 449.179C301.413 449.179 300.865 449.047 300.38 448.782C299.903 448.517 299.528 448.154 299.256 447.692C298.983 447.23 298.847 446.7 298.847 446.102C298.847 445.504 298.983 444.974 299.256 444.512C299.528 444.051 299.903 443.691 300.38 443.434C300.865 443.169 301.413 443.036 302.027 443.036C302.572 443.036 303.056 443.146 303.48 443.365C303.912 443.577 304.245 443.895 304.479 444.319L303.651 444.853C303.454 444.558 303.211 444.342 302.924 444.206C302.644 444.062 302.341 443.99 302.015 443.99C301.622 443.99 301.27 444.077 300.959 444.251C300.649 444.425 300.403 444.671 300.221 444.989C300.039 445.3 299.949 445.671 299.949 446.102C299.949 446.534 300.039 446.908 300.221 447.226C300.403 447.544 300.649 447.79 300.959 447.964C301.27 448.139 301.622 448.226 302.015 448.226C302.341 448.226 302.644 448.157 302.924 448.021C303.211 447.877 303.454 447.658 303.651 447.363L304.479 447.885C304.245 448.301 303.912 448.623 303.48 448.85C303.056 449.07 302.572 449.179 302.027 449.179ZM309.027 443.036C309.519 443.036 309.95 443.131 310.321 443.32C310.7 443.509 310.995 443.797 311.207 444.183C311.419 444.569 311.525 445.057 311.525 445.648V449.111H310.435V445.773C310.435 445.19 310.291 444.751 310.003 444.456C309.723 444.16 309.326 444.013 308.811 444.013C308.425 444.013 308.088 444.088 307.8 444.24C307.513 444.391 307.289 444.615 307.13 444.91C306.979 445.205 306.903 445.572 306.903 446.011V449.111H305.813V440.686H306.903V444.717L306.688 444.285C306.884 443.892 307.187 443.585 307.596 443.365C308.005 443.146 308.482 443.036 309.027 443.036ZM316.222 449.179C315.579 449.179 315.011 449.047 314.519 448.782C314.035 448.517 313.656 448.154 313.384 447.692C313.119 447.23 312.986 446.7 312.986 446.102C312.986 445.504 313.115 444.974 313.372 444.512C313.637 444.051 313.997 443.691 314.451 443.434C314.913 443.169 315.431 443.036 316.007 443.036C316.59 443.036 317.104 443.165 317.551 443.422C317.998 443.68 318.346 444.043 318.596 444.512C318.853 444.974 318.982 445.515 318.982 446.136C318.982 446.182 318.978 446.235 318.97 446.295C318.97 446.356 318.967 446.412 318.959 446.465H313.838V445.682H318.391L317.948 445.954C317.956 445.568 317.877 445.224 317.71 444.921C317.543 444.618 317.313 444.384 317.017 444.217C316.73 444.043 316.393 443.956 316.007 443.956C315.628 443.956 315.291 444.043 314.996 444.217C314.701 444.384 314.47 444.622 314.303 444.932C314.137 445.235 314.054 445.584 314.054 445.977V446.159C314.054 446.56 314.144 446.92 314.326 447.238C314.515 447.548 314.777 447.79 315.11 447.964C315.443 448.139 315.825 448.226 316.257 448.226C316.612 448.226 316.934 448.165 317.222 448.044C317.517 447.923 317.774 447.741 317.994 447.499L318.596 448.203C318.323 448.521 317.983 448.763 317.574 448.93C317.173 449.096 316.722 449.179 316.222 449.179ZM322.982 449.179C322.4 449.179 321.877 449.051 321.415 448.793C320.961 448.536 320.602 448.176 320.337 447.715C320.072 447.253 319.939 446.715 319.939 446.102C319.939 445.489 320.072 444.955 320.337 444.501C320.602 444.039 320.961 443.68 321.415 443.422C321.877 443.165 322.4 443.036 322.982 443.036C323.49 443.036 323.948 443.15 324.356 443.377C324.765 443.604 325.091 443.945 325.333 444.399C325.583 444.853 325.708 445.421 325.708 446.102C325.708 446.783 325.587 447.351 325.344 447.805C325.11 448.26 324.788 448.604 324.379 448.839C323.97 449.066 323.505 449.179 322.982 449.179ZM323.073 448.226C323.452 448.226 323.792 448.139 324.095 447.964C324.406 447.79 324.648 447.544 324.822 447.226C325.004 446.901 325.095 446.526 325.095 446.102C325.095 445.671 325.004 445.3 324.822 444.989C324.648 444.671 324.406 444.425 324.095 444.251C323.792 444.077 323.452 443.99 323.073 443.99C322.687 443.99 322.343 444.077 322.04 444.251C321.737 444.425 321.495 444.671 321.313 444.989C321.131 445.3 321.041 445.671 321.041 446.102C321.041 446.526 321.131 446.901 321.313 447.226C321.495 447.544 321.737 447.79 322.04 447.964C322.343 448.139 322.687 448.226 323.073 448.226ZM325.129 449.111V447.487L325.197 446.091L325.083 444.694V440.686H326.173V449.111H325.129ZM330.768 449.179C330.253 449.179 329.799 449.085 329.406 448.896C329.02 448.706 328.717 448.419 328.497 448.033C328.285 447.639 328.179 447.147 328.179 446.556V443.093H329.269V446.431C329.269 447.022 329.409 447.465 329.689 447.76C329.977 448.055 330.378 448.203 330.893 448.203C331.272 448.203 331.601 448.127 331.881 447.976C332.161 447.817 332.377 447.59 332.528 447.294C332.68 446.992 332.755 446.628 332.755 446.204V443.093H333.846V449.111H332.812V447.487L332.983 447.919C332.786 448.32 332.491 448.631 332.097 448.85C331.703 449.07 331.26 449.179 330.768 449.179ZM335.921 449.111V440.686H337.011V449.111H335.921ZM341.772 449.179C341.129 449.179 340.561 449.047 340.069 448.782C339.585 448.517 339.206 448.154 338.934 447.692C338.669 447.23 338.536 446.7 338.536 446.102C338.536 445.504 338.665 444.974 338.922 444.512C339.187 444.051 339.547 443.691 340.001 443.434C340.463 443.169 340.981 443.036 341.557 443.036C342.14 443.036 342.654 443.165 343.101 443.422C343.548 443.68 343.896 444.043 344.146 444.512C344.403 444.974 344.532 445.515 344.532 446.136C344.532 446.182 344.528 446.235 344.52 446.295C344.52 446.356 344.517 446.412 344.509 446.465H339.388V445.682H343.941L343.498 445.954C343.506 445.568 343.427 445.224 343.26 444.921C343.093 444.618 342.863 444.384 342.567 444.217C342.28 444.043 341.943 443.956 341.557 443.956C341.178 443.956 340.841 444.043 340.546 444.217C340.251 444.384 340.02 444.622 339.853 444.932C339.687 445.235 339.603 445.584 339.603 445.977V446.159C339.603 446.56 339.694 446.92 339.876 447.238C340.065 447.548 340.326 447.79 340.66 447.964C340.993 448.139 341.375 448.226 341.806 448.226C342.162 448.226 342.484 448.165 342.772 448.044C343.067 447.923 343.324 447.741 343.544 447.499L344.146 448.203C343.873 448.521 343.533 448.763 343.124 448.93C342.722 449.096 342.272 449.179 341.772 449.179ZM351.718 449.179C351.105 449.179 350.556 449.047 350.072 448.782C349.595 448.517 349.22 448.154 348.947 447.692C348.675 447.23 348.539 446.7 348.539 446.102C348.539 445.504 348.675 444.974 348.947 444.512C349.22 444.051 349.595 443.691 350.072 443.434C350.556 443.169 351.105 443.036 351.718 443.036C352.263 443.036 352.748 443.146 353.172 443.365C353.603 443.577 353.936 443.895 354.171 444.319L353.342 444.853C353.145 444.558 352.903 444.342 352.615 444.206C352.335 444.062 352.032 443.99 351.707 443.99C351.313 443.99 350.961 444.077 350.651 444.251C350.34 444.425 350.094 444.671 349.913 444.989C349.731 445.3 349.64 445.671 349.64 446.102C349.64 446.534 349.731 446.908 349.913 447.226C350.094 447.544 350.34 447.79 350.651 447.964C350.961 448.139 351.313 448.226 351.707 448.226C352.032 448.226 352.335 448.157 352.615 448.021C352.903 447.877 353.145 447.658 353.342 447.363L354.171 447.885C353.936 448.301 353.603 448.623 353.172 448.85C352.748 449.07 352.263 449.179 351.718 449.179ZM358.718 443.036C359.21 443.036 359.642 443.131 360.013 443.32C360.391 443.509 360.687 443.797 360.899 444.183C361.111 444.569 361.217 445.057 361.217 445.648V449.111H360.126V445.773C360.126 445.19 359.983 444.751 359.695 444.456C359.415 444.16 359.017 444.013 358.503 444.013C358.117 444.013 357.78 444.088 357.492 444.24C357.204 444.391 356.981 444.615 356.822 444.91C356.671 445.205 356.595 445.572 356.595 446.011V449.111H355.505V440.686H356.595V444.717L356.379 444.285C356.576 443.892 356.879 443.585 357.288 443.365C357.696 443.146 358.173 443.036 358.718 443.036ZM365.914 449.179C365.271 449.179 364.703 449.047 364.211 448.782C363.726 448.517 363.348 448.154 363.075 447.692C362.81 447.23 362.678 446.7 362.678 446.102C362.678 445.504 362.806 444.974 363.064 444.512C363.329 444.051 363.688 443.691 364.143 443.434C364.604 443.169 365.123 443.036 365.698 443.036C366.281 443.036 366.796 443.165 367.243 443.422C367.689 443.68 368.037 444.043 368.287 444.512C368.545 444.974 368.673 445.515 368.673 446.136C368.673 446.182 368.67 446.235 368.662 446.295C368.662 446.356 368.658 446.412 368.651 446.465H363.529V445.682H368.083L367.64 445.954C367.648 445.568 367.568 445.224 367.402 444.921C367.235 444.618 367.004 444.384 366.709 444.217C366.421 444.043 366.084 443.956 365.698 443.956C365.32 443.956 364.983 444.043 364.688 444.217C364.392 444.384 364.161 444.622 363.995 444.932C363.828 445.235 363.745 445.584 363.745 445.977V446.159C363.745 446.56 363.836 446.92 364.018 447.238C364.207 447.548 364.468 447.79 364.801 447.964C365.134 448.139 365.517 448.226 365.948 448.226C366.304 448.226 366.626 448.165 366.913 448.044C367.209 447.923 367.466 447.741 367.685 447.499L368.287 448.203C368.015 448.521 367.674 448.763 367.265 448.93C366.864 449.096 366.414 449.179 365.914 449.179ZM372.81 449.179C372.197 449.179 371.648 449.047 371.164 448.782C370.687 448.517 370.312 448.154 370.04 447.692C369.767 447.23 369.631 446.7 369.631 446.102C369.631 445.504 369.767 444.974 370.04 444.512C370.312 444.051 370.687 443.691 371.164 443.434C371.648 443.169 372.197 443.036 372.81 443.036C373.355 443.036 373.84 443.146 374.264 443.365C374.695 443.577 375.028 443.895 375.263 444.319L374.434 444.853C374.237 444.558 373.995 444.342 373.707 444.206C373.427 444.062 373.124 443.99 372.799 443.99C372.405 443.99 372.053 444.077 371.743 444.251C371.432 444.425 371.186 444.671 371.005 444.989C370.823 445.3 370.732 445.671 370.732 446.102C370.732 446.534 370.823 446.908 371.005 447.226C371.186 447.544 371.432 447.79 371.743 447.964C372.053 448.139 372.405 448.226 372.799 448.226C373.124 448.226 373.427 448.157 373.707 448.021C373.995 447.877 374.237 447.658 374.434 447.363L375.263 447.885C375.028 448.301 374.695 448.623 374.264 448.85C373.84 449.07 373.355 449.179 372.81 449.179ZM377.483 447.658L377.505 446.261L380.969 443.093H382.286L379.629 445.705L379.038 446.204L377.483 447.658ZM376.597 449.111V440.686H377.687V449.111H376.597ZM381.196 449.111L378.834 446.182L379.538 445.307L382.536 449.111H381.196Z" fill="#FAF1E7"/>
<path d="M588.512 450.013C587.907 450.013 587.346 449.914 586.832 449.717C586.324 449.513 585.882 449.229 585.503 448.866C585.132 448.495 584.841 448.063 584.629 447.571C584.417 447.079 584.311 446.538 584.311 445.947C584.311 445.357 584.417 444.816 584.629 444.324C584.841 443.832 585.136 443.404 585.514 443.04C585.893 442.669 586.336 442.386 586.843 442.189C587.358 441.984 587.918 441.882 588.524 441.882C589.137 441.882 589.701 441.988 590.216 442.2C590.738 442.405 591.181 442.711 591.544 443.12L590.806 443.835C590.503 443.517 590.163 443.283 589.784 443.131C589.406 442.972 589.001 442.893 588.569 442.893C588.122 442.893 587.706 442.969 587.32 443.12C586.941 443.271 586.612 443.483 586.332 443.756C586.052 444.028 585.832 444.354 585.673 444.732C585.522 445.103 585.446 445.508 585.446 445.947C585.446 446.387 585.522 446.795 585.673 447.174C585.832 447.545 586.052 447.867 586.332 448.139C586.612 448.412 586.941 448.624 587.32 448.775C587.706 448.926 588.122 449.002 588.569 449.002C589.001 449.002 589.406 448.926 589.784 448.775C590.163 448.616 590.503 448.374 590.806 448.048L591.544 448.764C591.181 449.172 590.738 449.483 590.216 449.695C589.701 449.907 589.133 450.013 588.512 450.013ZM595.328 449.99C594.722 449.99 594.185 449.858 593.715 449.593C593.246 449.328 592.875 448.964 592.602 448.502C592.33 448.033 592.194 447.503 592.194 446.913C592.194 446.315 592.33 445.785 592.602 445.323C592.875 444.861 593.246 444.501 593.715 444.244C594.185 443.979 594.722 443.847 595.328 443.847C595.926 443.847 596.46 443.979 596.929 444.244C597.406 444.501 597.777 444.861 598.042 445.323C598.314 445.777 598.451 446.307 598.451 446.913C598.451 447.511 598.314 448.041 598.042 448.502C597.777 448.964 597.406 449.328 596.929 449.593C596.46 449.858 595.926 449.99 595.328 449.99ZM595.328 449.036C595.714 449.036 596.058 448.949 596.361 448.775C596.672 448.601 596.914 448.355 597.088 448.037C597.262 447.711 597.349 447.337 597.349 446.913C597.349 446.481 597.262 446.11 597.088 445.8C596.914 445.482 596.672 445.236 596.361 445.062C596.058 444.888 595.714 444.801 595.328 444.801C594.942 444.801 594.597 444.888 594.294 445.062C593.992 445.236 593.749 445.482 593.568 445.8C593.386 446.11 593.295 446.481 593.295 446.913C593.295 447.337 593.386 447.711 593.568 448.037C593.749 448.355 593.992 448.601 594.294 448.775C594.597 448.949 594.942 449.036 595.328 449.036ZM607.487 443.847C607.971 443.847 608.399 443.941 608.77 444.131C609.141 444.32 609.429 444.607 609.633 444.994C609.845 445.38 609.951 445.868 609.951 446.458V449.922H608.861V446.583C608.861 446 608.725 445.561 608.452 445.266C608.18 444.971 607.797 444.823 607.305 444.823C606.942 444.823 606.624 444.899 606.351 445.05C606.079 445.202 605.867 445.425 605.715 445.72C605.572 446.016 605.5 446.383 605.5 446.822V449.922H604.41V446.583C604.41 446 604.273 445.561 604.001 445.266C603.736 444.971 603.353 444.823 602.854 444.823C602.498 444.823 602.184 444.899 601.911 445.05C601.639 445.202 601.427 445.425 601.275 445.72C601.124 446.016 601.048 446.383 601.048 446.822V449.922H599.958V443.903H601.003V445.505L600.833 445.096C601.022 444.702 601.313 444.396 601.707 444.176C602.101 443.956 602.559 443.847 603.081 443.847C603.656 443.847 604.152 443.991 604.569 444.278C604.985 444.558 605.257 444.986 605.386 445.561L604.943 445.38C605.125 444.918 605.443 444.547 605.897 444.267C606.351 443.987 606.881 443.847 607.487 443.847ZM619.486 443.847C619.97 443.847 620.398 443.941 620.769 444.131C621.14 444.32 621.427 444.607 621.632 444.994C621.844 445.38 621.95 445.868 621.95 446.458V449.922H620.86V446.583C620.86 446 620.723 445.561 620.451 445.266C620.178 444.971 619.796 444.823 619.304 444.823C618.941 444.823 618.623 444.899 618.35 445.05C618.078 445.202 617.866 445.425 617.714 445.72C617.57 446.016 617.498 446.383 617.498 446.822V449.922H616.408V446.583C616.408 446 616.272 445.561 615.999 445.266C615.735 444.971 615.352 444.823 614.853 444.823C614.497 444.823 614.183 444.899 613.91 445.05C613.638 445.202 613.426 445.425 613.274 445.72C613.123 446.016 613.047 446.383 613.047 446.822V449.922H611.957V443.903H613.002V445.505L612.831 445.096C613.021 444.702 613.312 444.396 613.706 444.176C614.099 443.956 614.557 443.847 615.08 443.847C615.655 443.847 616.151 443.991 616.567 444.278C616.984 444.558 617.256 444.986 617.385 445.561L616.942 445.38C617.124 444.918 617.442 444.547 617.896 444.267C618.35 443.987 618.88 443.847 619.486 443.847ZM626.488 449.99C625.973 449.99 625.519 449.895 625.125 449.706C624.739 449.517 624.436 449.229 624.217 448.843C624.005 448.449 623.899 447.957 623.899 447.367V443.903H624.989V447.242C624.989 447.832 625.129 448.275 625.409 448.571C625.697 448.866 626.098 449.013 626.613 449.013C626.991 449.013 627.321 448.938 627.601 448.786C627.881 448.627 628.097 448.4 628.248 448.105C628.399 447.802 628.475 447.439 628.475 447.015V443.903H629.565V449.922H628.532V448.298L628.702 448.73C628.505 449.131 628.21 449.441 627.816 449.661C627.423 449.88 626.98 449.99 626.488 449.99ZM634.854 443.847C635.346 443.847 635.778 443.941 636.149 444.131C636.527 444.32 636.822 444.607 637.034 444.994C637.246 445.38 637.352 445.868 637.352 446.458V449.922H636.262V446.583C636.262 446 636.118 445.561 635.831 445.266C635.551 444.971 635.153 444.823 634.638 444.823C634.252 444.823 633.915 444.899 633.628 445.05C633.34 445.202 633.117 445.425 632.958 445.72C632.806 446.016 632.731 446.383 632.731 446.822V449.922H631.641V443.903H632.685V445.527L632.515 445.096C632.712 444.702 633.015 444.396 633.423 444.176C633.832 443.956 634.309 443.847 634.854 443.847ZM639.37 449.922V443.903H640.46V449.922H639.37ZM639.915 442.745C639.703 442.745 639.525 442.677 639.381 442.541C639.245 442.405 639.177 442.238 639.177 442.041C639.177 441.837 639.245 441.666 639.381 441.53C639.525 441.394 639.703 441.326 639.915 441.326C640.127 441.326 640.301 441.394 640.437 441.53C640.581 441.659 640.653 441.822 640.653 442.018C640.653 442.223 640.585 442.397 640.449 442.541C640.312 442.677 640.134 442.745 639.915 442.745ZM645.165 449.99C644.551 449.99 644.003 449.858 643.518 449.593C643.041 449.328 642.666 448.964 642.394 448.502C642.121 448.041 641.985 447.511 641.985 446.913C641.985 446.315 642.121 445.785 642.394 445.323C642.666 444.861 643.041 444.501 643.518 444.244C644.003 443.979 644.551 443.847 645.165 443.847C645.71 443.847 646.194 443.956 646.618 444.176C647.05 444.388 647.383 444.706 647.617 445.13L646.788 445.664C646.592 445.368 646.349 445.153 646.062 445.016C645.782 444.872 645.479 444.801 645.153 444.801C644.76 444.801 644.408 444.888 644.097 445.062C643.787 445.236 643.541 445.482 643.359 445.8C643.177 446.11 643.086 446.481 643.086 446.913C643.086 447.344 643.177 447.719 643.359 448.037C643.541 448.355 643.787 448.601 644.097 448.775C644.408 448.949 644.76 449.036 645.153 449.036C645.479 449.036 645.782 448.968 646.062 448.832C646.349 448.688 646.592 448.468 646.788 448.173L647.617 448.695C647.383 449.112 647.05 449.434 646.618 449.661C646.194 449.88 645.71 449.99 645.165 449.99ZM652.765 449.922V448.65L652.708 448.412V446.243C652.708 445.781 652.572 445.425 652.299 445.175C652.034 444.918 651.633 444.789 651.095 444.789C650.74 444.789 650.391 444.85 650.051 444.971C649.71 445.084 649.422 445.24 649.188 445.436L648.733 444.619C649.044 444.369 649.415 444.18 649.846 444.051C650.285 443.915 650.743 443.847 651.22 443.847C652.046 443.847 652.681 444.047 653.128 444.449C653.575 444.85 653.798 445.463 653.798 446.288V449.922H652.765ZM650.789 449.99C650.342 449.99 649.949 449.914 649.608 449.763C649.275 449.611 649.017 449.403 648.836 449.138C648.654 448.866 648.563 448.559 648.563 448.219C648.563 447.893 648.639 447.598 648.79 447.333C648.949 447.068 649.203 446.856 649.551 446.697C649.907 446.538 650.384 446.458 650.982 446.458H652.89V447.242H651.027C650.482 447.242 650.115 447.333 649.926 447.515C649.737 447.696 649.642 447.916 649.642 448.173C649.642 448.468 649.759 448.707 649.994 448.889C650.229 449.063 650.554 449.15 650.971 449.15C651.379 449.15 651.735 449.059 652.038 448.877C652.348 448.695 652.572 448.431 652.708 448.082L652.924 448.832C652.78 449.188 652.526 449.471 652.163 449.683C651.799 449.888 651.341 449.99 650.789 449.99ZM657.882 449.99C657.277 449.99 656.807 449.827 656.474 449.502C656.141 449.176 655.974 448.711 655.974 448.105V442.586H657.065V448.06C657.065 448.385 657.144 448.635 657.303 448.809C657.47 448.983 657.704 449.07 658.007 449.07C658.348 449.07 658.632 448.976 658.859 448.786L659.199 449.57C659.033 449.714 658.832 449.82 658.598 449.888C658.37 449.956 658.132 449.99 657.882 449.99ZM654.952 444.801V443.903H658.791V444.801H654.952ZM662.998 449.99C662.354 449.99 661.786 449.858 661.294 449.593C660.81 449.328 660.431 448.964 660.159 448.502C659.894 448.041 659.761 447.511 659.761 446.913C659.761 446.315 659.89 445.785 660.147 445.323C660.412 444.861 660.772 444.501 661.226 444.244C661.688 443.979 662.207 443.847 662.782 443.847C663.365 443.847 663.88 443.975 664.326 444.233C664.773 444.49 665.121 444.854 665.371 445.323C665.628 445.785 665.757 446.326 665.757 446.947C665.757 446.992 665.753 447.045 665.746 447.106C665.746 447.166 665.742 447.223 665.734 447.276H660.613V446.493H665.167L664.724 446.765C664.731 446.379 664.652 446.034 664.485 445.732C664.319 445.429 664.088 445.194 663.793 445.028C663.505 444.854 663.168 444.766 662.782 444.766C662.403 444.766 662.066 444.854 661.771 445.028C661.476 445.194 661.245 445.433 661.079 445.743C660.912 446.046 660.829 446.394 660.829 446.788V446.969C660.829 447.371 660.92 447.73 661.101 448.048C661.291 448.359 661.552 448.601 661.885 448.775C662.218 448.949 662.6 449.036 663.032 449.036C663.387 449.036 663.709 448.976 663.997 448.854C664.292 448.733 664.55 448.552 664.769 448.309L665.371 449.013C665.098 449.331 664.758 449.574 664.349 449.74C663.948 449.907 663.497 449.99 662.998 449.99ZM674.056 449.922V448.65L674 448.412V446.243C674 445.781 673.863 445.425 673.591 445.175C673.326 444.918 672.925 444.789 672.387 444.789C672.031 444.789 671.683 444.85 671.342 444.971C671.002 445.084 670.714 445.24 670.479 445.436L670.025 444.619C670.335 444.369 670.706 444.18 671.138 444.051C671.577 443.915 672.035 443.847 672.512 443.847C673.337 443.847 673.973 444.047 674.42 444.449C674.866 444.85 675.09 445.463 675.09 446.288V449.922H674.056ZM672.08 449.99C671.634 449.99 671.24 449.914 670.899 449.763C670.566 449.611 670.309 449.403 670.127 449.138C669.946 448.866 669.855 448.559 669.855 448.219C669.855 447.893 669.93 447.598 670.082 447.333C670.241 447.068 670.494 446.856 670.843 446.697C671.199 446.538 671.675 446.458 672.274 446.458H674.181V447.242H672.319C671.774 447.242 671.407 447.333 671.217 447.515C671.028 447.696 670.934 447.916 670.934 448.173C670.934 448.468 671.051 448.707 671.286 448.889C671.52 449.063 671.846 449.15 672.262 449.15C672.671 449.15 673.027 449.059 673.33 448.877C673.64 448.695 673.863 448.431 674 448.082L674.215 448.832C674.071 449.188 673.818 449.471 673.454 449.683C673.091 449.888 672.633 449.99 672.08 449.99ZM680.321 443.847C680.813 443.847 681.244 443.941 681.615 444.131C681.994 444.32 682.289 444.607 682.501 444.994C682.713 445.38 682.819 445.868 682.819 446.458V449.922H681.729V446.583C681.729 446 681.585 445.561 681.297 445.266C681.017 444.971 680.62 444.823 680.105 444.823C679.719 444.823 679.382 444.899 679.094 445.05C678.807 445.202 678.583 445.425 678.424 445.72C678.273 446.016 678.197 446.383 678.197 446.822V449.922H677.107V443.903H678.152V445.527L677.981 445.096C678.178 444.702 678.481 444.396 678.89 444.176C679.299 443.956 679.776 443.847 680.321 443.847ZM687.323 449.99C686.74 449.99 686.218 449.861 685.756 449.604C685.302 449.347 684.942 448.987 684.677 448.525C684.412 448.063 684.28 447.526 684.28 446.913C684.28 446.299 684.412 445.766 684.677 445.312C684.942 444.85 685.302 444.49 685.756 444.233C686.218 443.975 686.74 443.847 687.323 443.847C687.83 443.847 688.288 443.96 688.697 444.187C689.106 444.414 689.432 444.755 689.674 445.209C689.924 445.664 690.049 446.231 690.049 446.913C690.049 447.594 689.927 448.162 689.685 448.616C689.45 449.07 689.129 449.415 688.72 449.649C688.311 449.876 687.846 449.99 687.323 449.99ZM687.414 449.036C687.793 449.036 688.133 448.949 688.436 448.775C688.746 448.601 688.989 448.355 689.163 448.037C689.345 447.711 689.435 447.337 689.435 446.913C689.435 446.481 689.345 446.11 689.163 445.8C688.989 445.482 688.746 445.236 688.436 445.062C688.133 444.888 687.793 444.801 687.414 444.801C687.028 444.801 686.684 444.888 686.381 445.062C686.078 445.236 685.836 445.482 685.654 445.8C685.472 446.11 685.381 446.481 685.381 446.913C685.381 447.337 685.472 447.711 685.654 448.037C685.836 448.355 686.078 448.601 686.381 448.775C686.684 448.949 687.028 449.036 687.414 449.036ZM689.469 449.922V448.298L689.538 446.901L689.424 445.505V441.496H690.514V449.922H689.469ZM695.626 449.922V443.903H696.671V445.539L696.569 445.13C696.735 444.713 697.015 444.396 697.409 444.176C697.803 443.956 698.287 443.847 698.863 443.847V444.903C698.817 444.895 698.772 444.891 698.726 444.891C698.689 444.891 698.651 444.891 698.613 444.891C698.03 444.891 697.568 445.065 697.227 445.414C696.887 445.762 696.716 446.265 696.716 446.924V449.922H695.626ZM702.831 449.99C702.187 449.99 701.619 449.858 701.127 449.593C700.643 449.328 700.264 448.964 699.992 448.502C699.727 448.041 699.594 447.511 699.594 446.913C699.594 446.315 699.723 445.785 699.98 445.323C700.245 444.861 700.605 444.501 701.059 444.244C701.521 443.979 702.04 443.847 702.615 443.847C703.198 443.847 703.713 443.975 704.159 444.233C704.606 444.49 704.954 444.854 705.204 445.323C705.461 445.785 705.59 446.326 705.59 446.947C705.59 446.992 705.586 447.045 705.579 447.106C705.579 447.166 705.575 447.223 705.567 447.276H700.446V446.493H705L704.557 446.765C704.564 446.379 704.485 446.034 704.318 445.732C704.152 445.429 703.921 445.194 703.626 445.028C703.338 444.854 703.001 444.766 702.615 444.766C702.236 444.766 701.9 444.854 701.604 445.028C701.309 445.194 701.078 445.433 700.912 445.743C700.745 446.046 700.662 446.394 700.662 446.788V446.969C700.662 447.371 700.753 447.73 700.934 448.048C701.124 448.359 701.385 448.601 701.718 448.775C702.051 448.949 702.433 449.036 702.865 449.036C703.221 449.036 703.542 448.976 703.83 448.854C704.125 448.733 704.383 448.552 704.602 448.309L705.204 449.013C704.931 449.331 704.591 449.574 704.182 449.74C703.781 449.907 703.33 449.99 702.831 449.99ZM709.727 449.99C709.114 449.99 708.565 449.858 708.08 449.593C707.603 449.328 707.229 448.964 706.956 448.502C706.684 448.041 706.547 447.511 706.547 446.913C706.547 446.315 706.684 445.785 706.956 445.323C707.229 444.861 707.603 444.501 708.08 444.244C708.565 443.979 709.114 443.847 709.727 443.847C710.272 443.847 710.757 443.956 711.18 444.176C711.612 444.388 711.945 444.706 712.18 445.13L711.351 445.664C711.154 445.368 710.912 445.153 710.624 445.016C710.344 444.872 710.041 444.801 709.716 444.801C709.322 444.801 708.97 444.888 708.66 445.062C708.349 445.236 708.103 445.482 707.921 445.8C707.74 446.11 707.649 446.481 707.649 446.913C707.649 447.344 707.74 447.719 707.921 448.037C708.103 448.355 708.349 448.601 708.66 448.775C708.97 448.949 709.322 449.036 709.716 449.036C710.041 449.036 710.344 448.968 710.624 448.832C710.912 448.688 711.154 448.468 711.351 448.173L712.18 448.695C711.945 449.112 711.612 449.434 711.18 449.661C710.757 449.88 710.272 449.99 709.727 449.99ZM716.08 449.99C715.475 449.99 714.937 449.858 714.468 449.593C713.998 449.328 713.627 448.964 713.355 448.502C713.082 448.033 712.946 447.503 712.946 446.913C712.946 446.315 713.082 445.785 713.355 445.323C713.627 444.861 713.998 444.501 714.468 444.244C714.937 443.979 715.475 443.847 716.08 443.847C716.678 443.847 717.212 443.979 717.681 444.244C718.158 444.501 718.529 444.861 718.794 445.323C719.067 445.777 719.203 446.307 719.203 446.913C719.203 447.511 719.067 448.041 718.794 448.502C718.529 448.964 718.158 449.328 717.681 449.593C717.212 449.858 716.678 449.99 716.08 449.99ZM716.08 449.036C716.466 449.036 716.811 448.949 717.113 448.775C717.424 448.601 717.666 448.355 717.84 448.037C718.014 447.711 718.101 447.337 718.101 446.913C718.101 446.481 718.014 446.11 717.84 445.8C717.666 445.482 717.424 445.236 717.113 445.062C716.811 444.888 716.466 444.801 716.08 444.801C715.694 444.801 715.35 444.888 715.047 445.062C714.744 445.236 714.502 445.482 714.32 445.8C714.138 446.11 714.047 446.481 714.047 446.913C714.047 447.337 714.138 447.711 714.32 448.037C714.502 448.355 714.744 448.601 715.047 448.775C715.35 448.949 715.694 449.036 716.08 449.036ZM720.711 449.922V443.903H721.755V445.539L721.653 445.13C721.82 444.713 722.1 444.396 722.493 444.176C722.887 443.956 723.372 443.847 723.947 443.847V444.903C723.901 444.895 723.856 444.891 723.811 444.891C723.773 444.891 723.735 444.891 723.697 444.891C723.114 444.891 722.652 445.065 722.312 445.414C721.971 445.762 721.801 446.265 721.801 446.924V449.922H720.711ZM727.722 449.99C727.139 449.99 726.617 449.861 726.155 449.604C725.701 449.347 725.341 448.987 725.076 448.525C724.811 448.063 724.679 447.526 724.679 446.913C724.679 446.299 724.811 445.766 725.076 445.312C725.341 444.85 725.701 444.49 726.155 444.233C726.617 443.975 727.139 443.847 727.722 443.847C728.229 443.847 728.687 443.96 729.096 444.187C729.505 444.414 729.83 444.755 730.072 445.209C730.322 445.664 730.447 446.231 730.447 446.913C730.447 447.594 730.326 448.162 730.084 448.616C729.849 449.07 729.527 449.415 729.119 449.649C728.71 449.876 728.244 449.99 727.722 449.99ZM727.813 449.036C728.191 449.036 728.532 448.949 728.835 448.775C729.145 448.601 729.387 448.355 729.561 448.037C729.743 447.711 729.834 447.337 729.834 446.913C729.834 446.481 729.743 446.11 729.561 445.8C729.387 445.482 729.145 445.236 728.835 445.062C728.532 444.888 728.191 444.801 727.813 444.801C727.427 444.801 727.082 444.888 726.779 445.062C726.477 445.236 726.234 445.482 726.053 445.8C725.871 446.11 725.78 446.481 725.78 446.913C725.78 447.337 725.871 447.711 726.053 448.037C726.234 448.355 726.477 448.601 726.779 448.775C727.082 448.949 727.427 449.036 727.813 449.036ZM729.868 449.922V448.298L729.936 446.901L729.823 445.505V441.496H730.913V449.922H729.868ZM737.297 449.922L735.06 443.903H736.093L738.08 449.354H737.592L739.659 443.903H740.579L742.6 449.354H742.123L744.156 443.903H745.132L742.884 449.922H741.839L739.943 444.948H740.261L738.342 449.922H737.297ZM746.238 449.922V443.903H747.328V449.922H746.238ZM746.783 442.745C746.571 442.745 746.394 442.677 746.25 442.541C746.113 442.405 746.045 442.238 746.045 442.041C746.045 441.837 746.113 441.666 746.25 441.53C746.394 441.394 746.571 441.326 746.783 441.326C746.995 441.326 747.169 441.394 747.306 441.53C747.45 441.659 747.521 441.822 747.521 442.018C747.521 442.223 747.453 442.397 747.317 442.541C747.181 442.677 747.003 442.745 746.783 442.745ZM751.477 449.99C750.871 449.99 750.402 449.827 750.069 449.502C749.735 449.176 749.569 448.711 749.569 448.105V442.586H750.659V448.06C750.659 448.385 750.738 448.635 750.897 448.809C751.064 448.983 751.299 449.07 751.601 449.07C751.942 449.07 752.226 448.976 752.453 448.786L752.794 449.57C752.627 449.714 752.427 449.82 752.192 449.888C751.965 449.956 751.726 449.99 751.477 449.99ZM748.547 444.801V443.903H752.385V444.801H748.547ZM757.325 443.847C757.817 443.847 758.249 443.941 758.62 444.131C758.998 444.32 759.294 444.607 759.506 444.994C759.718 445.38 759.824 445.868 759.824 446.458V449.922H758.733V446.583C758.733 446 758.59 445.561 758.302 445.266C758.022 444.971 757.624 444.823 757.11 444.823C756.724 444.823 756.387 444.899 756.099 445.05C755.811 445.202 755.588 445.425 755.429 445.72C755.278 446.016 755.202 446.383 755.202 446.822V449.922H754.112V441.496H755.202V445.527L754.986 445.096C755.183 444.702 755.486 444.396 755.895 444.176C756.303 443.956 756.78 443.847 757.325 443.847ZM764.891 449.922V443.903H765.935V445.539L765.833 445.13C766 444.713 766.28 444.396 766.673 444.176C767.067 443.956 767.552 443.847 768.127 443.847V444.903C768.082 444.895 768.036 444.891 767.991 444.891C767.953 444.891 767.915 444.891 767.877 444.891C767.294 444.891 766.832 445.065 766.492 445.414C766.151 445.762 765.981 446.265 765.981 446.924V449.922H764.891ZM772.08 449.99C771.566 449.99 771.111 449.895 770.718 449.706C770.332 449.517 770.029 449.229 769.809 448.843C769.597 448.449 769.491 447.957 769.491 447.367V443.903H770.582V447.242C770.582 447.832 770.722 448.275 771.002 448.571C771.289 448.866 771.691 449.013 772.205 449.013C772.584 449.013 772.913 448.938 773.193 448.786C773.473 448.627 773.689 448.4 773.841 448.105C773.992 447.802 774.068 447.439 774.068 447.015V443.903H775.158V449.922H774.124V448.298L774.295 448.73C774.098 449.131 773.803 449.441 773.409 449.661C773.015 449.88 772.573 449.99 772.08 449.99ZM780.447 443.847C780.939 443.847 781.37 443.941 781.741 444.131C782.12 444.32 782.415 444.607 782.627 444.994C782.839 445.38 782.945 445.868 782.945 446.458V449.922H781.855V446.583C781.855 446 781.711 445.561 781.423 445.266C781.143 444.971 780.746 444.823 780.231 444.823C779.845 444.823 779.508 444.899 779.22 445.05C778.933 445.202 778.709 445.425 778.55 445.72C778.399 446.016 778.323 446.383 778.323 446.822V449.922H777.233V443.903H778.278V445.527L778.108 445.096C778.304 444.702 778.607 444.396 779.016 444.176C779.425 443.956 779.902 443.847 780.447 443.847ZM788.176 443.847C788.668 443.847 789.1 443.941 789.471 444.131C789.849 444.32 790.144 444.607 790.356 444.994C790.568 445.38 790.674 445.868 790.674 446.458V449.922H789.584V446.583C789.584 446 789.44 445.561 789.153 445.266C788.873 444.971 788.475 444.823 787.96 444.823C787.574 444.823 787.237 444.899 786.95 445.05C786.662 445.202 786.439 445.425 786.28 445.72C786.128 446.016 786.053 446.383 786.053 446.822V449.922H784.962V443.903H786.007V445.527L785.837 445.096C786.034 444.702 786.336 444.396 786.745 444.176C787.154 443.956 787.631 443.847 788.176 443.847ZM795.372 449.99C794.728 449.99 794.16 449.858 793.668 449.593C793.184 449.328 792.805 448.964 792.533 448.502C792.268 448.041 792.135 447.511 792.135 446.913C792.135 446.315 792.264 445.785 792.521 445.323C792.786 444.861 793.146 444.501 793.6 444.244C794.062 443.979 794.581 443.847 795.156 443.847C795.739 443.847 796.254 443.975 796.7 444.233C797.147 444.49 797.495 444.854 797.745 445.323C798.002 445.785 798.131 446.326 798.131 446.947C798.131 446.992 798.127 447.045 798.12 447.106C798.12 447.166 798.116 447.223 798.108 447.276H792.987V446.493H797.541L797.098 446.765C797.105 446.379 797.026 446.034 796.859 445.732C796.693 445.429 796.462 445.194 796.167 445.028C795.879 444.854 795.542 444.766 795.156 444.766C794.777 444.766 794.441 444.854 794.145 445.028C793.85 445.194 793.619 445.433 793.453 445.743C793.286 446.046 793.203 446.394 793.203 446.788V446.969C793.203 447.371 793.294 447.73 793.475 448.048C793.665 448.359 793.926 448.601 794.259 448.775C794.592 448.949 794.974 449.036 795.406 449.036C795.762 449.036 796.083 448.976 796.371 448.854C796.666 448.733 796.924 448.552 797.143 448.309L797.745 449.013C797.472 449.331 797.132 449.574 796.723 449.74C796.322 449.907 795.871 449.99 795.372 449.99ZM799.645 449.922V443.903H800.69V445.539L800.587 445.13C800.754 444.713 801.034 444.396 801.428 444.176C801.821 443.956 802.306 443.847 802.881 443.847V444.903C802.836 444.895 802.79 444.891 802.745 444.891C802.707 444.891 802.669 444.891 802.631 444.891C802.048 444.891 801.587 445.065 801.246 445.414C800.905 445.762 800.735 446.265 800.735 446.924V449.922H799.645ZM806.017 449.99C805.518 449.99 805.041 449.922 804.587 449.786C804.14 449.649 803.788 449.483 803.53 449.286L803.985 448.423C804.242 448.597 804.56 448.745 804.939 448.866C805.317 448.987 805.703 449.047 806.097 449.047C806.604 449.047 806.967 448.976 807.187 448.832C807.414 448.688 807.528 448.487 807.528 448.23C807.528 448.041 807.459 447.893 807.323 447.787C807.187 447.681 807.005 447.602 806.778 447.549C806.559 447.496 806.313 447.45 806.04 447.412C805.767 447.367 805.495 447.314 805.222 447.253C804.95 447.185 804.7 447.094 804.473 446.981C804.246 446.86 804.064 446.697 803.928 446.493C803.792 446.281 803.723 446 803.723 445.652C803.723 445.289 803.826 444.971 804.03 444.698C804.234 444.426 804.522 444.218 804.893 444.074C805.272 443.922 805.718 443.847 806.233 443.847C806.627 443.847 807.024 443.896 807.425 443.994C807.834 444.085 808.167 444.218 808.425 444.392L807.959 445.255C807.687 445.073 807.403 444.948 807.107 444.88C806.812 444.812 806.517 444.778 806.222 444.778C805.745 444.778 805.389 444.857 805.154 445.016C804.92 445.168 804.802 445.365 804.802 445.607C804.802 445.811 804.87 445.97 805.007 446.084C805.15 446.19 805.332 446.273 805.552 446.334C805.779 446.394 806.029 446.447 806.301 446.493C806.574 446.53 806.846 446.583 807.119 446.651C807.391 446.712 807.637 446.799 807.857 446.913C808.084 447.026 808.266 447.185 808.402 447.39C808.546 447.594 808.618 447.867 808.618 448.207C808.618 448.571 808.512 448.885 808.3 449.15C808.088 449.415 807.789 449.623 807.403 449.774C807.017 449.918 806.555 449.99 806.017 449.99Z" fill="#FAF1E7"/>
<path d="M934.548 459.656V451.707H937.648C938.344 451.707 938.939 451.817 939.431 452.037C939.923 452.256 940.301 452.574 940.566 452.991C940.831 453.407 940.964 453.903 940.964 454.478C940.964 455.053 940.831 455.549 940.566 455.966C940.301 456.375 939.923 456.692 939.431 456.92C938.939 457.139 938.344 457.249 937.648 457.249H935.172L935.683 456.715V459.656H934.548ZM935.683 456.829L935.172 456.261H937.614C938.341 456.261 938.889 456.106 939.26 455.795C939.639 455.485 939.828 455.046 939.828 454.478C939.828 453.91 939.639 453.471 939.26 453.161C938.889 452.85 938.341 452.695 937.614 452.695H935.172L935.683 452.128V456.829ZM946.154 459.656V458.384L946.097 458.146V455.977C946.097 455.515 945.96 455.159 945.688 454.91C945.423 454.652 945.022 454.524 944.484 454.524C944.128 454.524 943.78 454.584 943.44 454.705C943.099 454.819 942.811 454.974 942.577 455.171L942.122 454.353C942.433 454.103 942.804 453.914 943.235 453.785C943.674 453.649 944.132 453.581 944.609 453.581C945.434 453.581 946.07 453.782 946.517 454.183C946.964 454.584 947.187 455.197 947.187 456.022V459.656H946.154ZM944.178 459.724C943.731 459.724 943.337 459.649 942.997 459.497C942.664 459.346 942.406 459.138 942.224 458.873C942.043 458.6 941.952 458.294 941.952 457.953C941.952 457.627 942.028 457.332 942.179 457.067C942.338 456.802 942.592 456.59 942.94 456.431C943.296 456.272 943.773 456.193 944.371 456.193H946.278V456.976H944.416C943.871 456.976 943.504 457.067 943.315 457.249C943.125 457.431 943.031 457.65 943.031 457.907C943.031 458.203 943.148 458.441 943.383 458.623C943.617 458.797 943.943 458.884 944.359 458.884C944.768 458.884 945.124 458.793 945.427 458.612C945.737 458.43 945.96 458.165 946.097 457.817L946.312 458.566C946.169 458.922 945.915 459.206 945.552 459.418C945.188 459.622 944.73 459.724 944.178 459.724ZM949.204 459.656V453.638H950.249V455.273L950.147 454.864C950.313 454.448 950.593 454.13 950.987 453.91C951.381 453.691 951.865 453.581 952.441 453.581V454.637C952.395 454.63 952.35 454.626 952.304 454.626C952.266 454.626 952.229 454.626 952.191 454.626C951.608 454.626 951.146 454.8 950.805 455.148C950.465 455.496 950.294 456 950.294 456.658V459.656H949.204ZM956.095 459.724C955.489 459.724 955.02 459.562 954.687 459.236C954.354 458.911 954.187 458.445 954.187 457.839V452.321H955.277V457.794C955.277 458.119 955.357 458.369 955.516 458.543C955.682 458.718 955.917 458.805 956.22 458.805C956.56 458.805 956.844 458.71 957.071 458.521L957.412 459.304C957.246 459.448 957.045 459.554 956.81 459.622C956.583 459.69 956.345 459.724 956.095 459.724ZM953.165 454.535V453.638H957.003V454.535H953.165ZM958.73 459.656V453.638H959.82V459.656H958.73ZM959.275 452.48C959.063 452.48 958.885 452.411 958.741 452.275C958.605 452.139 958.537 451.972 958.537 451.776C958.537 451.571 958.605 451.401 958.741 451.265C958.885 451.128 959.063 451.06 959.275 451.06C959.487 451.06 959.661 451.128 959.797 451.265C959.941 451.393 960.013 451.556 960.013 451.753C960.013 451.957 959.945 452.131 959.809 452.275C959.673 452.411 959.495 452.48 959.275 452.48ZM964.525 459.724C963.912 459.724 963.363 459.592 962.878 459.327C962.401 459.062 962.027 458.699 961.754 458.237C961.481 457.775 961.345 457.245 961.345 456.647C961.345 456.049 961.481 455.519 961.754 455.057C962.027 454.595 962.401 454.236 962.878 453.978C963.363 453.714 963.912 453.581 964.525 453.581C965.07 453.581 965.554 453.691 965.978 453.91C966.41 454.122 966.743 454.44 966.978 454.864L966.149 455.398C965.952 455.103 965.709 454.887 965.422 454.751C965.142 454.607 964.839 454.535 964.513 454.535C964.12 454.535 963.768 454.622 963.457 454.796C963.147 454.97 962.901 455.216 962.719 455.534C962.538 455.845 962.447 456.216 962.447 456.647C962.447 457.079 962.538 457.453 962.719 457.771C962.901 458.089 963.147 458.335 963.457 458.509C963.768 458.683 964.12 458.771 964.513 458.771C964.839 458.771 965.142 458.702 965.422 458.566C965.709 458.422 965.952 458.203 966.149 457.907L966.978 458.43C966.743 458.846 966.41 459.168 965.978 459.395C965.554 459.615 965.07 459.724 964.525 459.724ZM968.311 459.656V453.638H969.401V459.656H968.311ZM968.856 452.48C968.644 452.48 968.466 452.411 968.323 452.275C968.186 452.139 968.118 451.972 968.118 451.776C968.118 451.571 968.186 451.401 968.323 451.265C968.466 451.128 968.644 451.06 968.856 451.06C969.068 451.06 969.242 451.128 969.379 451.265C969.523 451.393 969.594 451.556 969.594 451.753C969.594 451.957 969.526 452.131 969.39 452.275C969.254 452.411 969.076 452.48 968.856 452.48ZM974.674 459.724C974.174 459.724 973.716 459.611 973.3 459.384C972.891 459.149 972.562 458.805 972.312 458.35C972.07 457.896 971.948 457.328 971.948 456.647C971.948 455.966 972.066 455.398 972.3 454.944C972.543 454.489 972.868 454.149 973.277 453.922C973.693 453.695 974.159 453.581 974.674 453.581C975.264 453.581 975.787 453.71 976.241 453.967C976.695 454.225 977.055 454.584 977.32 455.046C977.585 455.5 977.717 456.034 977.717 456.647C977.717 457.26 977.585 457.798 977.32 458.26C977.055 458.721 976.695 459.081 976.241 459.338C975.787 459.596 975.264 459.724 974.674 459.724ZM971.483 461.859V453.638H972.528V455.262L972.459 456.658L972.573 458.055V461.859H971.483ZM974.583 458.771C974.969 458.771 975.313 458.683 975.616 458.509C975.927 458.335 976.169 458.089 976.343 457.771C976.525 457.446 976.616 457.071 976.616 456.647C976.616 456.216 976.525 455.845 976.343 455.534C976.169 455.216 975.927 454.97 975.616 454.796C975.313 454.622 974.969 454.535 974.583 454.535C974.204 454.535 973.86 454.622 973.55 454.796C973.247 454.97 973.004 455.216 972.823 455.534C972.649 455.845 972.562 456.216 972.562 456.647C972.562 457.071 972.649 457.446 972.823 457.771C973.004 458.089 973.247 458.335 973.55 458.509C973.86 458.683 974.204 458.771 974.583 458.771ZM982.904 459.656V458.384L982.847 458.146V455.977C982.847 455.515 982.711 455.159 982.438 454.91C982.173 454.652 981.772 454.524 981.234 454.524C980.879 454.524 980.53 454.584 980.19 454.705C979.849 454.819 979.561 454.974 979.327 455.171L978.873 454.353C979.183 454.103 979.554 453.914 979.985 453.785C980.424 453.649 980.882 453.581 981.359 453.581C982.185 453.581 982.82 453.782 983.267 454.183C983.714 454.584 983.937 455.197 983.937 456.022V459.656H982.904ZM980.928 459.724C980.481 459.724 980.088 459.649 979.747 459.497C979.414 459.346 979.156 459.138 978.975 458.873C978.793 458.6 978.702 458.294 978.702 457.953C978.702 457.627 978.778 457.332 978.929 457.067C979.088 456.802 979.342 456.59 979.69 456.431C980.046 456.272 980.523 456.193 981.121 456.193H983.029V456.976H981.166C980.621 456.976 980.254 457.067 980.065 457.249C979.876 457.431 979.781 457.65 979.781 457.907C979.781 458.203 979.898 458.441 980.133 458.623C980.368 458.797 980.693 458.884 981.11 458.884C981.518 458.884 981.874 458.793 982.177 458.612C982.487 458.43 982.711 458.165 982.847 457.817L983.063 458.566C982.919 458.922 982.665 459.206 982.302 459.418C981.939 459.622 981.481 459.724 980.928 459.724ZM988.021 459.724C987.416 459.724 986.946 459.562 986.613 459.236C986.28 458.911 986.113 458.445 986.113 457.839V452.321H987.204V457.794C987.204 458.119 987.283 458.369 987.442 458.543C987.609 458.718 987.843 458.805 988.146 458.805C988.487 458.805 988.771 458.71 988.998 458.521L989.338 459.304C989.172 459.448 988.971 459.554 988.737 459.622C988.509 459.69 988.271 459.724 988.021 459.724ZM985.091 454.535V453.638H988.93V454.535H985.091ZM993.137 459.724C992.493 459.724 991.925 459.592 991.433 459.327C990.949 459.062 990.57 458.699 990.298 458.237C990.033 457.775 989.9 457.245 989.9 456.647C989.9 456.049 990.029 455.519 990.286 455.057C990.551 454.595 990.911 454.236 991.365 453.978C991.827 453.714 992.346 453.581 992.921 453.581C993.504 453.581 994.019 453.71 994.465 453.967C994.912 454.225 995.26 454.588 995.51 455.057C995.767 455.519 995.896 456.06 995.896 456.681C995.896 456.727 995.892 456.78 995.885 456.84C995.885 456.901 995.881 456.957 995.873 457.01H990.752V456.227H995.306L994.863 456.499C994.87 456.113 994.791 455.769 994.624 455.466C994.458 455.163 994.227 454.929 993.932 454.762C993.644 454.588 993.307 454.501 992.921 454.501C992.542 454.501 992.206 454.588 991.91 454.762C991.615 454.929 991.384 455.167 991.218 455.477C991.051 455.78 990.968 456.128 990.968 456.522V456.704C990.968 457.105 991.059 457.465 991.24 457.783C991.43 458.093 991.691 458.335 992.024 458.509C992.357 458.683 992.739 458.771 993.171 458.771C993.527 458.771 993.848 458.71 994.136 458.589C994.431 458.468 994.689 458.286 994.908 458.044L995.51 458.748C995.237 459.066 994.897 459.308 994.488 459.475C994.087 459.641 993.636 459.724 993.137 459.724ZM1000.46 459.656V453.638H1001.55V459.656H1000.46ZM1001 452.48C1000.79 452.48 1000.61 452.411 1000.47 452.275C1000.33 452.139 1000.27 451.972 1000.27 451.776C1000.27 451.571 1000.33 451.401 1000.47 451.265C1000.61 451.128 1000.79 451.06 1001 451.06C1001.22 451.06 1001.39 451.128 1001.53 451.265C1001.67 451.393 1001.74 451.556 1001.74 451.753C1001.74 451.957 1001.67 452.131 1001.54 452.275C1001.4 452.411 1001.22 452.48 1001 452.48ZM1006.84 453.581C1007.34 453.581 1007.77 453.676 1008.14 453.865C1008.52 454.054 1008.81 454.342 1009.02 454.728C1009.24 455.114 1009.34 455.602 1009.34 456.193V459.656H1008.25V456.318C1008.25 455.735 1008.11 455.296 1007.82 455C1007.54 454.705 1007.14 454.558 1006.63 454.558C1006.24 454.558 1005.91 454.633 1005.62 454.785C1005.33 454.936 1005.11 455.159 1004.95 455.455C1004.8 455.75 1004.72 456.117 1004.72 456.556V459.656H1003.63V453.638H1004.68V455.262L1004.51 454.83C1004.7 454.436 1005 454.13 1005.41 453.91C1005.82 453.691 1006.3 453.581 1006.84 453.581ZM1016.48 459.724C1015.87 459.724 1015.4 459.562 1015.07 459.236C1014.74 458.911 1014.57 458.445 1014.57 457.839V452.321H1015.66V457.794C1015.66 458.119 1015.74 458.369 1015.9 458.543C1016.06 458.718 1016.3 458.805 1016.6 458.805C1016.94 458.805 1017.23 458.71 1017.45 458.521L1017.79 459.304C1017.63 459.448 1017.43 459.554 1017.19 459.622C1016.96 459.69 1016.73 459.724 1016.48 459.724ZM1013.55 454.535V453.638H1017.39V454.535H1013.55ZM1022.33 453.581C1022.82 453.581 1023.25 453.676 1023.62 453.865C1024 454.054 1024.29 454.342 1024.51 454.728C1024.72 455.114 1024.82 455.602 1024.82 456.193V459.656H1023.73V456.318C1023.73 455.735 1023.59 455.296 1023.3 455C1023.02 454.705 1022.62 454.558 1022.11 454.558C1021.72 454.558 1021.39 454.633 1021.1 454.785C1020.81 454.936 1020.59 455.159 1020.43 455.455C1020.28 455.75 1020.2 456.117 1020.2 456.556V459.656H1019.11V451.23H1020.2V455.262L1019.99 454.83C1020.18 454.436 1020.49 454.13 1020.89 453.91C1021.3 453.691 1021.78 453.581 1022.33 453.581ZM1029.52 459.724C1028.88 459.724 1028.31 459.592 1027.82 459.327C1027.33 459.062 1026.95 458.699 1026.68 458.237C1026.42 457.775 1026.28 457.245 1026.28 456.647C1026.28 456.049 1026.41 455.519 1026.67 455.057C1026.94 454.595 1027.3 454.236 1027.75 453.978C1028.21 453.714 1028.73 453.581 1029.31 453.581C1029.89 453.581 1030.4 453.71 1030.85 453.967C1031.3 454.225 1031.64 454.588 1031.89 455.057C1032.15 455.519 1032.28 456.06 1032.28 456.681C1032.28 456.727 1032.28 456.78 1032.27 456.84C1032.27 456.901 1032.27 456.957 1032.26 457.01H1027.14V456.227H1031.69L1031.25 456.499C1031.25 456.113 1031.18 455.769 1031.01 455.466C1030.84 455.163 1030.61 454.929 1030.32 454.762C1030.03 454.588 1029.69 454.501 1029.31 454.501C1028.93 454.501 1028.59 454.588 1028.29 454.762C1028 454.929 1027.77 455.167 1027.6 455.477C1027.44 455.78 1027.35 456.128 1027.35 456.522V456.704C1027.35 457.105 1027.44 457.465 1027.62 457.783C1027.81 458.093 1028.08 458.335 1028.41 458.509C1028.74 458.683 1029.12 458.771 1029.56 458.771C1029.91 458.771 1030.23 458.71 1030.52 458.589C1030.82 458.468 1031.07 458.286 1031.29 458.044L1031.89 458.748C1031.62 459.066 1031.28 459.308 1030.87 459.475C1030.47 459.641 1030.02 459.724 1029.52 459.724ZM1044.37 453.581C1044.86 453.581 1045.28 453.676 1045.66 453.865C1046.03 454.054 1046.31 454.342 1046.52 454.728C1046.73 455.114 1046.84 455.602 1046.84 456.193V459.656H1045.75V456.318C1045.75 455.735 1045.61 455.296 1045.34 455C1045.07 454.705 1044.68 454.558 1044.19 454.558C1043.83 454.558 1043.51 454.633 1043.24 454.785C1042.96 454.936 1042.75 455.159 1042.6 455.455C1042.46 455.75 1042.39 456.117 1042.39 456.556V459.656H1041.3V456.318C1041.3 455.735 1041.16 455.296 1040.89 455C1040.62 454.705 1040.24 454.558 1039.74 454.558C1039.38 454.558 1039.07 454.633 1038.8 454.785C1038.52 454.936 1038.31 455.159 1038.16 455.455C1038.01 455.75 1037.93 456.117 1037.93 456.556V459.656H1036.84V453.638H1037.89V455.239L1037.72 454.83C1037.91 454.436 1038.2 454.13 1038.59 453.91C1038.99 453.691 1039.44 453.581 1039.97 453.581C1040.54 453.581 1041.04 453.725 1041.45 454.013C1041.87 454.293 1042.14 454.72 1042.27 455.296L1041.83 455.114C1042.01 454.652 1042.33 454.281 1042.78 454.001C1043.24 453.721 1043.77 453.581 1044.37 453.581ZM1052.58 459.656V458.384L1052.52 458.146V455.977C1052.52 455.515 1052.39 455.159 1052.11 454.91C1051.85 454.652 1051.45 454.524 1050.91 454.524C1050.55 454.524 1050.21 454.584 1049.86 454.705C1049.52 454.819 1049.24 454.974 1049 455.171L1048.55 454.353C1048.86 454.103 1049.23 453.914 1049.66 453.785C1050.1 453.649 1050.56 453.581 1051.03 453.581C1051.86 453.581 1052.5 453.782 1052.94 454.183C1053.39 454.584 1053.61 455.197 1053.61 456.022V459.656H1052.58ZM1050.6 459.724C1050.16 459.724 1049.76 459.649 1049.42 459.497C1049.09 459.346 1048.83 459.138 1048.65 458.873C1048.47 458.6 1048.38 458.294 1048.38 457.953C1048.38 457.627 1048.45 457.332 1048.6 457.067C1048.76 456.802 1049.02 456.59 1049.36 456.431C1049.72 456.272 1050.2 456.193 1050.8 456.193H1052.7V456.976H1050.84C1050.3 456.976 1049.93 457.067 1049.74 457.249C1049.55 457.431 1049.46 457.65 1049.46 457.907C1049.46 458.203 1049.57 458.441 1049.81 458.623C1050.04 458.797 1050.37 458.884 1050.78 458.884C1051.19 458.884 1051.55 458.793 1051.85 458.612C1052.16 458.43 1052.39 458.165 1052.52 457.817L1052.74 458.566C1052.59 458.922 1052.34 459.206 1051.98 459.418C1051.61 459.622 1051.16 459.724 1050.6 459.724ZM1055.63 459.656V453.638H1056.67V455.273L1056.57 454.864C1056.74 454.448 1057.02 454.13 1057.41 453.91C1057.81 453.691 1058.29 453.581 1058.87 453.581V454.637C1058.82 454.63 1058.77 454.626 1058.73 454.626C1058.69 454.626 1058.65 454.626 1058.62 454.626C1058.03 454.626 1057.57 454.8 1057.23 455.148C1056.89 455.496 1056.72 456 1056.72 456.658V459.656H1055.63ZM1063.5 459.656V458.384L1063.44 458.146V455.977C1063.44 455.515 1063.31 455.159 1063.04 454.91C1062.77 454.652 1062.37 454.524 1061.83 454.524C1061.48 454.524 1061.13 454.584 1060.79 454.705C1060.45 454.819 1060.16 454.974 1059.92 455.171L1059.47 454.353C1059.78 454.103 1060.15 453.914 1060.58 453.785C1061.02 453.649 1061.48 453.581 1061.96 453.581C1062.78 453.581 1063.42 453.782 1063.86 454.183C1064.31 454.584 1064.53 455.197 1064.53 456.022V459.656H1063.5ZM1061.53 459.724C1061.08 459.724 1060.69 459.649 1060.34 459.497C1060.01 459.346 1059.75 459.138 1059.57 458.873C1059.39 458.6 1059.3 458.294 1059.3 457.953C1059.3 457.627 1059.38 457.332 1059.53 457.067C1059.69 456.802 1059.94 456.59 1060.29 456.431C1060.64 456.272 1061.12 456.193 1061.72 456.193H1063.63V456.976H1061.76C1061.22 456.976 1060.85 457.067 1060.66 457.249C1060.47 457.431 1060.38 457.65 1060.38 457.907C1060.38 458.203 1060.5 458.441 1060.73 458.623C1060.97 458.797 1061.29 458.884 1061.71 458.884C1062.12 458.884 1062.47 458.793 1062.77 458.612C1063.09 458.43 1063.31 458.165 1063.44 457.817L1063.66 458.566C1063.52 458.922 1063.26 459.206 1062.9 459.418C1062.54 459.622 1062.08 459.724 1061.53 459.724ZM1068.62 459.724C1068.01 459.724 1067.54 459.562 1067.21 459.236C1066.88 458.911 1066.71 458.445 1066.71 457.839V452.321H1067.8V457.794C1067.8 458.119 1067.88 458.369 1068.04 458.543C1068.21 458.718 1068.44 458.805 1068.74 458.805C1069.08 458.805 1069.37 458.71 1069.6 458.521L1069.94 459.304C1069.77 459.448 1069.57 459.554 1069.33 459.622C1069.11 459.69 1068.87 459.724 1068.62 459.724ZM1065.69 454.535V453.638H1069.53V454.535H1065.69ZM1074.47 453.581C1074.96 453.581 1075.39 453.676 1075.76 453.865C1076.14 454.054 1076.44 454.342 1076.65 454.728C1076.86 455.114 1076.97 455.602 1076.97 456.193V459.656H1075.88V456.318C1075.88 455.735 1075.73 455.296 1075.44 455C1075.16 454.705 1074.77 454.558 1074.25 454.558C1073.87 454.558 1073.53 454.633 1073.24 454.785C1072.95 454.936 1072.73 455.159 1072.57 455.455C1072.42 455.75 1072.34 456.117 1072.34 456.556V459.656H1071.25V451.23H1072.34V455.262L1072.13 454.83C1072.33 454.436 1072.63 454.13 1073.04 453.91C1073.45 453.691 1073.92 453.581 1074.47 453.581ZM1081.56 459.724C1080.96 459.724 1080.42 459.592 1079.95 459.327C1079.48 459.062 1079.11 458.699 1078.84 458.237C1078.56 457.767 1078.43 457.238 1078.43 456.647C1078.43 456.049 1078.56 455.519 1078.84 455.057C1079.11 454.595 1079.48 454.236 1079.95 453.978C1080.42 453.714 1080.96 453.581 1081.56 453.581C1082.16 453.581 1082.69 453.714 1083.16 453.978C1083.64 454.236 1084.01 454.595 1084.28 455.057C1084.55 455.511 1084.68 456.041 1084.68 456.647C1084.68 457.245 1084.55 457.775 1084.28 458.237C1084.01 458.699 1083.64 459.062 1083.16 459.327C1082.69 459.592 1082.16 459.724 1081.56 459.724ZM1081.56 458.771C1081.95 458.771 1082.29 458.683 1082.59 458.509C1082.9 458.335 1083.15 458.089 1083.32 457.771C1083.5 457.446 1083.58 457.071 1083.58 456.647C1083.58 456.216 1083.5 455.845 1083.32 455.534C1083.15 455.216 1082.9 454.97 1082.59 454.796C1082.29 454.622 1081.95 454.535 1081.56 454.535C1081.17 454.535 1080.83 454.622 1080.53 454.796C1080.22 454.97 1079.98 455.216 1079.8 455.534C1079.62 455.845 1079.53 456.216 1079.53 456.647C1079.53 457.071 1079.62 457.446 1079.8 457.771C1079.98 458.089 1080.22 458.335 1080.53 458.509C1080.83 458.683 1081.17 458.771 1081.56 458.771ZM1089.41 453.581C1089.9 453.581 1090.33 453.676 1090.7 453.865C1091.08 454.054 1091.37 454.342 1091.59 454.728C1091.8 455.114 1091.9 455.602 1091.9 456.193V459.656H1090.81V456.318C1090.81 455.735 1090.67 455.296 1090.38 455C1090.1 454.705 1089.7 454.558 1089.19 454.558C1088.8 454.558 1088.47 454.633 1088.18 454.785C1087.89 454.936 1087.67 455.159 1087.51 455.455C1087.36 455.75 1087.28 456.117 1087.28 456.556V459.656H1086.19V453.638H1087.24V455.262L1087.07 454.83C1087.26 454.436 1087.57 454.13 1087.97 453.91C1088.38 453.691 1088.86 453.581 1089.41 453.581ZM1100.71 459.656V458.384L1100.65 458.146V455.977C1100.65 455.515 1100.51 455.159 1100.24 454.91C1099.98 454.652 1099.57 454.524 1099.04 454.524C1098.68 454.524 1098.33 454.584 1097.99 454.705C1097.65 454.819 1097.36 454.974 1097.13 455.171L1096.68 454.353C1096.99 454.103 1097.36 453.914 1097.79 453.785C1098.23 453.649 1098.69 453.581 1099.16 453.581C1099.99 453.581 1100.62 453.782 1101.07 454.183C1101.52 454.584 1101.74 455.197 1101.74 456.022V459.656H1100.71ZM1098.73 459.724C1098.28 459.724 1097.89 459.649 1097.55 459.497C1097.22 459.346 1096.96 459.138 1096.78 458.873C1096.6 458.6 1096.5 458.294 1096.5 457.953C1096.5 457.627 1096.58 457.332 1096.73 457.067C1096.89 456.802 1097.14 456.59 1097.49 456.431C1097.85 456.272 1098.33 456.193 1098.92 456.193H1100.83V456.976H1098.97C1098.42 456.976 1098.06 457.067 1097.87 457.249C1097.68 457.431 1097.58 457.65 1097.58 457.907C1097.58 458.203 1097.7 458.441 1097.94 458.623C1098.17 458.797 1098.5 458.884 1098.91 458.884C1099.32 458.884 1099.68 458.793 1099.98 458.612C1100.29 458.43 1100.51 458.165 1100.65 457.817L1100.87 458.566C1100.72 458.922 1100.47 459.206 1100.1 459.418C1099.74 459.622 1099.28 459.724 1098.73 459.724ZM1106.97 453.581C1107.46 453.581 1107.89 453.676 1108.27 453.865C1108.64 454.054 1108.94 454.342 1109.15 454.728C1109.36 455.114 1109.47 455.602 1109.47 456.193V459.656H1108.38V456.318C1108.38 455.735 1108.23 455.296 1107.95 455C1107.67 454.705 1107.27 454.558 1106.75 454.558C1106.37 454.558 1106.03 454.633 1105.74 454.785C1105.46 454.936 1105.23 455.159 1105.07 455.455C1104.92 455.75 1104.85 456.117 1104.85 456.556V459.656H1103.76V453.638H1104.8V455.262L1104.63 454.83C1104.83 454.436 1105.13 454.13 1105.54 453.91C1105.95 453.691 1106.43 453.581 1106.97 453.581ZM1113.97 459.724C1113.39 459.724 1112.87 459.596 1112.41 459.338C1111.95 459.081 1111.59 458.721 1111.33 458.26C1111.06 457.798 1110.93 457.26 1110.93 456.647C1110.93 456.034 1111.06 455.5 1111.33 455.046C1111.59 454.584 1111.95 454.225 1112.41 453.967C1112.87 453.71 1113.39 453.581 1113.97 453.581C1114.48 453.581 1114.94 453.695 1115.35 453.922C1115.76 454.149 1116.08 454.489 1116.32 454.944C1116.57 455.398 1116.7 455.966 1116.7 456.647C1116.7 457.328 1116.58 457.896 1116.34 458.35C1116.1 458.805 1115.78 459.149 1115.37 459.384C1114.96 459.611 1114.5 459.724 1113.97 459.724ZM1114.06 458.771C1114.44 458.771 1114.78 458.683 1115.09 458.509C1115.4 458.335 1115.64 458.089 1115.81 457.771C1115.99 457.446 1116.09 457.071 1116.09 456.647C1116.09 456.216 1115.99 455.845 1115.81 455.534C1115.64 455.216 1115.4 454.97 1115.09 454.796C1114.78 454.622 1114.44 454.535 1114.06 454.535C1113.68 454.535 1113.33 454.622 1113.03 454.796C1112.73 454.97 1112.49 455.216 1112.3 455.534C1112.12 455.845 1112.03 456.216 1112.03 456.647C1112.03 457.071 1112.12 457.446 1112.3 457.771C1112.49 458.089 1112.73 458.335 1113.03 458.509C1113.33 458.683 1113.68 458.771 1114.06 458.771ZM1116.12 459.656V458.032L1116.19 456.636L1116.07 455.239V451.23H1117.16V459.656H1116.12ZM1124 459.724C1123.5 459.724 1123.03 459.656 1122.57 459.52C1122.12 459.384 1121.77 459.217 1121.52 459.02L1121.97 458.157C1122.23 458.331 1122.55 458.479 1122.92 458.6C1123.3 458.721 1123.69 458.782 1124.08 458.782C1124.59 458.782 1124.95 458.71 1125.17 458.566C1125.4 458.422 1125.51 458.222 1125.51 457.964C1125.51 457.775 1125.44 457.627 1125.31 457.521C1125.17 457.415 1124.99 457.336 1124.76 457.283C1124.54 457.23 1124.3 457.185 1124.03 457.147C1123.75 457.101 1123.48 457.048 1123.21 456.988C1122.93 456.92 1122.69 456.829 1122.46 456.715C1122.23 456.594 1122.05 456.431 1121.91 456.227C1121.78 456.015 1121.71 455.735 1121.71 455.387C1121.71 455.023 1121.81 454.705 1122.02 454.433C1122.22 454.16 1122.51 453.952 1122.88 453.808C1123.26 453.657 1123.7 453.581 1124.22 453.581C1124.61 453.581 1125.01 453.63 1125.41 453.729C1125.82 453.82 1126.15 453.952 1126.41 454.126L1125.94 454.989C1125.67 454.807 1125.39 454.683 1125.09 454.614C1124.8 454.546 1124.5 454.512 1124.21 454.512C1123.73 454.512 1123.37 454.592 1123.14 454.751C1122.9 454.902 1122.79 455.099 1122.79 455.341C1122.79 455.546 1122.86 455.705 1122.99 455.818C1123.14 455.924 1123.32 456.007 1123.54 456.068C1123.76 456.128 1124.01 456.181 1124.29 456.227C1124.56 456.265 1124.83 456.318 1125.1 456.386C1125.38 456.446 1125.62 456.533 1125.84 456.647C1126.07 456.761 1126.25 456.92 1126.39 457.124C1126.53 457.328 1126.6 457.601 1126.6 457.942C1126.6 458.305 1126.5 458.619 1126.28 458.884C1126.07 459.149 1125.77 459.357 1125.39 459.509C1125 459.652 1124.54 459.724 1124 459.724ZM1131.18 453.581C1131.67 453.581 1132.1 453.676 1132.47 453.865C1132.85 454.054 1133.15 454.342 1133.36 454.728C1133.57 455.114 1133.68 455.602 1133.68 456.193V459.656H1132.59V456.318C1132.59 455.735 1132.44 455.296 1132.16 455C1131.88 454.705 1131.48 454.558 1130.96 454.558C1130.58 454.558 1130.24 454.633 1129.95 454.785C1129.66 454.936 1129.44 455.159 1129.28 455.455C1129.13 455.75 1129.06 456.117 1129.06 456.556V459.656H1127.97V451.23H1129.06V455.262L1128.84 454.83C1129.04 454.436 1129.34 454.13 1129.75 453.91C1130.16 453.691 1130.63 453.581 1131.18 453.581ZM1135.69 459.656V453.638H1136.78V459.656H1135.69ZM1136.24 452.48C1136.03 452.48 1135.85 452.411 1135.71 452.275C1135.57 452.139 1135.5 451.972 1135.5 451.776C1135.5 451.571 1135.57 451.401 1135.71 451.265C1135.85 451.128 1136.03 451.06 1136.24 451.06C1136.45 451.06 1136.63 451.128 1136.76 451.265C1136.91 451.393 1136.98 451.556 1136.98 451.753C1136.98 451.957 1136.91 452.131 1136.77 452.275C1136.64 452.411 1136.46 452.48 1136.24 452.48ZM1142.08 453.581C1142.57 453.581 1143 453.676 1143.37 453.865C1143.75 454.054 1144.05 454.342 1144.26 454.728C1144.47 455.114 1144.58 455.602 1144.58 456.193V459.656H1143.49V456.318C1143.49 455.735 1143.34 455.296 1143.06 455C1142.78 454.705 1142.38 454.558 1141.86 454.558C1141.48 454.558 1141.14 454.633 1140.85 454.785C1140.57 454.936 1140.34 455.159 1140.18 455.455C1140.03 455.75 1139.96 456.117 1139.96 456.556V459.656H1138.87V453.638H1139.91V455.262L1139.74 454.83C1139.94 454.436 1140.24 454.13 1140.65 453.91C1141.06 453.691 1141.53 453.581 1142.08 453.581ZM1149.28 459.724C1148.63 459.724 1148.06 459.592 1147.57 459.327C1147.09 459.062 1146.71 458.699 1146.44 458.237C1146.17 457.775 1146.04 457.245 1146.04 456.647C1146.04 456.049 1146.17 455.519 1146.43 455.057C1146.69 454.595 1147.05 454.236 1147.5 453.978C1147.97 453.714 1148.48 453.581 1149.06 453.581C1149.64 453.581 1150.16 453.71 1150.6 453.967C1151.05 454.225 1151.4 454.588 1151.65 455.057C1151.91 455.519 1152.03 456.06 1152.03 456.681C1152.03 456.727 1152.03 456.78 1152.02 456.84C1152.02 456.901 1152.02 456.957 1152.01 457.01H1146.89V456.227H1151.44L1151 456.499C1151.01 456.113 1150.93 455.769 1150.76 455.466C1150.6 455.163 1150.37 454.929 1150.07 454.762C1149.78 454.588 1149.45 454.501 1149.06 454.501C1148.68 454.501 1148.34 454.588 1148.05 454.762C1147.75 454.929 1147.52 455.167 1147.36 455.477C1147.19 455.78 1147.11 456.128 1147.11 456.522V456.704C1147.11 457.105 1147.2 457.465 1147.38 457.783C1147.57 458.093 1147.83 458.335 1148.16 458.509C1148.5 458.683 1148.88 458.771 1149.31 458.771C1149.67 458.771 1149.99 458.71 1150.27 458.589C1150.57 458.468 1150.83 458.286 1151.05 458.044L1151.65 458.748C1151.38 459.066 1151.04 459.308 1150.63 459.475C1150.23 459.641 1149.77 459.724 1149.28 459.724Z" fill="#FAF1E7"/>
</svg>
