<svg width="1405" height="527" viewBox="0 0 1405 527" fill="none" xmlns="http://www.w3.org/2000/svg">
<rect width="640" height="527" fill="#FF4409"/>
<rect x="1063" width="342" height="335" fill="#F7E1CD"/>
<rect x="1063" y="335" width="342" height="192" fill="#FFA14C"/>
<rect x="640" width="423" height="527" fill="#FAF1E7"/>
<path d="M45.11 69L41.085 40.65H45.425L47.77 59.025L50.71 40.72H54.245L57.255 59.025L59.565 40.65H63.835L59.88 69H55.68L52.53 49.995L49.415 69H45.11ZM67.052 69V40.65H73.842C75.7553 40.65 77.3653 40.8833 78.672 41.35C80.002 41.7933 81.0053 42.5633 81.682 43.66C82.382 44.7567 82.732 46.25 82.732 48.14C82.732 49.2833 82.627 50.31 82.417 51.22C82.207 52.13 81.8453 52.9117 81.332 53.565C80.842 54.195 80.1537 54.685 79.267 55.035L83.222 69H78.042L74.612 56.015H72.232V69H67.052ZM72.232 52.76H73.842C74.8453 52.76 75.6387 52.62 76.222 52.34C76.8287 52.0367 77.2603 51.57 77.517 50.94C77.7737 50.2867 77.902 49.4583 77.902 48.455C77.902 47.0317 77.6337 45.97 77.097 45.27C76.5837 44.5467 75.592 44.185 74.122 44.185H72.232V52.76ZM86.6011 69L87.0911 40.65H92.4461L96.4711 60.285L100.671 40.65H105.851L106.376 69H102.526L102.106 49.295L98.0811 69H94.9661L90.8711 49.225L90.4861 69H86.6011ZM119.073 69V40.65H125.863C127.777 40.65 129.387 40.8833 130.693 41.35C132.023 41.7933 133.027 42.5633 133.703 43.66C134.403 44.7567 134.753 46.25 134.753 48.14C134.753 49.2833 134.648 50.31 134.438 51.22C134.228 52.13 133.867 52.9117 133.353 53.565C132.863 54.195 132.175 54.685 131.288 55.035L135.243 69H130.063L126.633 56.015H124.253V69H119.073ZM124.253 52.76H125.863C126.867 52.76 127.66 52.62 128.243 52.34C128.85 52.0367 129.282 51.57 129.538 50.94C129.795 50.2867 129.923 49.4583 129.923 48.455C129.923 47.0317 129.655 45.97 129.118 45.27C128.605 44.5467 127.613 44.185 126.143 44.185H124.253V52.76ZM143.99 69.315C142.473 69.315 141.237 69.035 140.28 68.475C139.323 67.8917 138.612 67.0517 138.145 65.955C137.702 64.835 137.48 63.4933 137.48 61.93V55.84C137.48 54.23 137.702 52.8767 138.145 51.78C138.612 50.6833 139.323 49.855 140.28 49.295C141.26 48.735 142.497 48.455 143.99 48.455C145.6 48.455 146.848 48.7583 147.735 49.365C148.645 49.9717 149.287 50.8583 149.66 52.025C150.057 53.1683 150.255 54.5683 150.255 56.225V59.095H142.205V63.085C142.205 63.7383 142.263 64.275 142.38 64.695C142.52 65.115 142.73 65.4183 143.01 65.605C143.29 65.7917 143.628 65.885 144.025 65.885C144.445 65.885 144.783 65.7917 145.04 65.605C145.297 65.395 145.483 65.1033 145.6 64.73C145.717 64.3333 145.775 63.8433 145.775 63.26V61.58H150.22V62.945C150.22 64.9983 149.707 66.5733 148.68 67.67C147.653 68.7667 146.09 69.315 143.99 69.315ZM142.205 56.75H145.775V54.825C145.775 54.125 145.717 53.565 145.6 53.145C145.483 52.7017 145.297 52.3867 145.04 52.2C144.783 51.99 144.422 51.885 143.955 51.885C143.535 51.885 143.197 51.99 142.94 52.2C142.683 52.41 142.497 52.76 142.38 53.25C142.263 53.74 142.205 54.44 142.205 55.35V56.75ZM158.035 69.315C156.425 69.315 155.2 68.7433 154.36 67.6C153.543 66.4567 153.135 64.625 153.135 62.105V55.91C153.135 54.51 153.287 53.25 153.59 52.13C153.917 51.01 154.43 50.1233 155.13 49.47C155.83 48.7933 156.775 48.455 157.965 48.455C158.688 48.455 159.353 48.6067 159.96 48.91C160.59 49.19 161.162 49.5633 161.675 50.03V40.65H166.435V69H161.675V67.565C161.138 68.1017 160.567 68.5333 159.96 68.86C159.353 69.1633 158.712 69.315 158.035 69.315ZM159.785 66.025C160.042 66.025 160.333 65.9667 160.66 65.85C160.987 65.7333 161.325 65.57 161.675 65.36V52.375C161.395 52.1883 161.092 52.0367 160.765 51.92C160.438 51.78 160.1 51.71 159.75 51.71C159.073 51.71 158.595 52.025 158.315 52.655C158.058 53.2617 157.93 54.0083 157.93 54.895V62.455C157.93 63.1317 157.977 63.7383 158.07 64.275C158.163 64.8117 158.338 65.2433 158.595 65.57C158.875 65.8733 159.272 66.025 159.785 66.025Z" fill="white"/>
<path d="M684.11 69L680.085 40.65H684.425L686.77 59.025L689.71 40.72H693.245L696.255 59.025L698.565 40.65H702.835L698.88 69H694.68L691.53 49.995L688.415 69H684.11ZM706.052 69V40.65H712.842C714.755 40.65 716.365 40.8833 717.672 41.35C719.002 41.7933 720.005 42.5633 720.682 43.66C721.382 44.7567 721.732 46.25 721.732 48.14C721.732 49.2833 721.627 50.31 721.417 51.22C721.207 52.13 720.845 52.9117 720.332 53.565C719.842 54.195 719.154 54.685 718.267 55.035L722.222 69H717.042L713.612 56.015H711.232V69H706.052ZM711.232 52.76H712.842C713.845 52.76 714.639 52.62 715.222 52.34C715.829 52.0367 716.26 51.57 716.517 50.94C716.774 50.2867 716.902 49.4583 716.902 48.455C716.902 47.0317 716.634 45.97 716.097 45.27C715.584 44.5467 714.592 44.185 713.122 44.185H711.232V52.76ZM725.601 69L726.091 40.65H731.446L735.471 60.285L739.671 40.65H744.851L745.376 69H741.526L741.106 49.295L737.081 69H733.966L729.871 49.225L729.486 69H725.601ZM761.048 69L757.023 40.65H761.363L763.708 59.025L766.648 40.72H770.183L773.193 59.025L775.503 40.65H779.773L775.818 69H771.618L768.468 49.995L765.353 69H761.048ZM782.745 69V40.65H787.505V50.695C788.205 49.995 788.964 49.4467 789.78 49.05C790.62 48.6533 791.53 48.455 792.51 48.455C793.327 48.455 793.98 48.665 794.47 49.085C794.96 49.4817 795.322 50.0183 795.555 50.695C795.789 51.3717 795.905 52.1067 795.905 52.9V69H791.145V53.845C791.145 53.2383 791.052 52.7717 790.865 52.445C790.679 52.1183 790.317 51.955 789.78 51.955C789.454 51.955 789.08 52.0483 788.66 52.235C788.264 52.4217 787.879 52.6667 787.505 52.97V69H782.745ZM799.529 69V48.77H804.289V69H799.529ZM799.529 45.55V41.595H804.289V45.55H799.529ZM813.951 69.245C812.668 69.245 811.653 69.035 810.906 68.615C810.183 68.195 809.669 67.5883 809.366 66.795C809.063 66.0017 808.911 65.0567 808.911 63.96V51.92H806.881V48.77H808.911V42.715H813.706V48.77H816.786V51.92H813.706V63.54C813.706 64.24 813.858 64.7417 814.161 65.045C814.464 65.325 814.919 65.465 815.526 65.465C815.783 65.465 816.028 65.4533 816.261 65.43C816.518 65.4067 816.763 65.3833 816.996 65.36V69C816.599 69.0467 816.133 69.0933 815.596 69.14C815.083 69.21 814.534 69.245 813.951 69.245ZM825.749 69.315C824.232 69.315 822.995 69.035 822.039 68.475C821.082 67.8917 820.37 67.0517 819.904 65.955C819.46 64.835 819.239 63.4933 819.239 61.93V55.84C819.239 54.23 819.46 52.8767 819.904 51.78C820.37 50.6833 821.082 49.855 822.039 49.295C823.019 48.735 824.255 48.455 825.749 48.455C827.359 48.455 828.607 48.7583 829.494 49.365C830.404 49.9717 831.045 50.8583 831.419 52.025C831.815 53.1683 832.014 54.5683 832.014 56.225V59.095H823.964V63.085C823.964 63.7383 824.022 64.275 824.139 64.695C824.279 65.115 824.489 65.4183 824.769 65.605C825.049 65.7917 825.387 65.885 825.784 65.885C826.204 65.885 826.542 65.7917 826.799 65.605C827.055 65.395 827.242 65.1033 827.359 64.73C827.475 64.3333 827.534 63.8433 827.534 63.26V61.58H831.979V62.945C831.979 64.9983 831.465 66.5733 830.439 67.67C829.412 68.7667 827.849 69.315 825.749 69.315ZM823.964 56.75H827.534V54.825C827.534 54.125 827.475 53.565 827.359 53.145C827.242 52.7017 827.055 52.3867 826.799 52.2C826.542 51.99 826.18 51.885 825.714 51.885C825.294 51.885 824.955 51.99 824.699 52.2C824.442 52.41 824.255 52.76 824.139 53.25C824.022 53.74 823.964 54.44 823.964 55.35V56.75Z" fill="#FF4409"/>
<path d="M1108.11 69L1104.09 40.65H1108.43L1110.77 59.025L1113.71 40.72H1117.25L1120.26 59.025L1122.57 40.65H1126.84L1122.88 69H1118.68L1115.53 49.995L1112.42 69H1108.11ZM1130.05 69V40.65H1136.84C1138.76 40.65 1140.37 40.8833 1141.67 41.35C1143 41.7933 1144.01 42.5633 1144.68 43.66C1145.38 44.7567 1145.73 46.25 1145.73 48.14C1145.73 49.2833 1145.63 50.31 1145.42 51.22C1145.21 52.13 1144.85 52.9117 1144.33 53.565C1143.84 54.195 1143.15 54.685 1142.27 55.035L1146.22 69H1141.04L1137.61 56.015H1135.23V69H1130.05ZM1135.23 52.76H1136.84C1137.85 52.76 1138.64 52.62 1139.22 52.34C1139.83 52.0367 1140.26 51.57 1140.52 50.94C1140.77 50.2867 1140.9 49.4583 1140.9 48.455C1140.9 47.0317 1140.63 45.97 1140.1 45.27C1139.58 44.5467 1138.59 44.185 1137.12 44.185H1135.23V52.76ZM1149.6 69L1150.09 40.65H1155.45L1159.47 60.285L1163.67 40.65H1168.85L1169.38 69H1165.53L1165.11 49.295L1161.08 69H1157.97L1153.87 49.225L1153.49 69H1149.6ZM1182.07 69V40.65H1189.04C1190.3 40.65 1191.43 40.7667 1192.43 41C1193.46 41.2333 1194.34 41.63 1195.06 42.19C1195.81 42.7267 1196.38 43.4617 1196.77 44.395C1197.17 45.3283 1197.37 46.5067 1197.37 47.93C1197.37 49.0733 1197.21 50.0533 1196.88 50.87C1196.58 51.6867 1196.12 52.34 1195.51 52.83C1194.91 53.2967 1194.15 53.6117 1193.24 53.775C1194.36 53.9617 1195.28 54.3583 1196 54.965C1196.75 55.5483 1197.3 56.3183 1197.65 57.275C1198.02 58.2317 1198.21 59.3867 1198.21 60.74C1198.21 62.0933 1198.03 63.295 1197.68 64.345C1197.36 65.3717 1196.86 66.235 1196.18 66.935C1195.53 67.6117 1194.7 68.125 1193.69 68.475C1192.71 68.825 1191.56 69 1190.23 69H1182.07ZM1187.25 65.36H1189.21C1190.78 65.36 1191.84 64.9867 1192.4 64.24C1192.96 63.47 1193.24 62.2917 1193.24 60.705C1193.24 59.5617 1193.1 58.64 1192.82 57.94C1192.56 57.2167 1192.12 56.68 1191.49 56.33C1190.88 55.98 1190.07 55.805 1189.04 55.805H1187.25V65.36ZM1187.25 52.235H1189C1190.03 52.235 1190.82 52.0833 1191.38 51.78C1191.94 51.4767 1192.33 51.01 1192.54 50.38C1192.77 49.75 1192.89 48.9567 1192.89 48C1192.89 46.9967 1192.71 46.2267 1192.36 45.69C1192.04 45.13 1191.54 44.7567 1190.86 44.57C1190.18 44.36 1189.32 44.255 1188.27 44.255H1187.25V52.235ZM1207.37 69.315C1205.85 69.315 1204.61 69.035 1203.66 68.475C1202.7 67.8917 1201.99 67.0517 1201.52 65.955C1201.08 64.835 1200.86 63.4933 1200.86 61.93V55.84C1200.86 54.23 1201.08 52.8767 1201.52 51.78C1201.99 50.6833 1202.7 49.855 1203.66 49.295C1204.64 48.735 1205.87 48.455 1207.37 48.455C1208.98 48.455 1210.22 48.7583 1211.11 49.365C1212.02 49.9717 1212.66 50.8583 1213.04 52.025C1213.43 53.1683 1213.63 54.5683 1213.63 56.225V59.095H1205.58V63.085C1205.58 63.7383 1205.64 64.275 1205.76 64.695C1205.9 65.115 1206.11 65.4183 1206.39 65.605C1206.67 65.7917 1207 65.885 1207.4 65.885C1207.82 65.885 1208.16 65.7917 1208.42 65.605C1208.67 65.395 1208.86 65.1033 1208.98 64.73C1209.09 64.3333 1209.15 63.8433 1209.15 63.26V61.58H1213.6V62.945C1213.6 64.9983 1213.08 66.5733 1212.06 67.67C1211.03 68.7667 1209.47 69.315 1207.37 69.315ZM1205.58 56.75H1209.15V54.825C1209.15 54.125 1209.09 53.565 1208.98 53.145C1208.86 52.7017 1208.67 52.3867 1208.42 52.2C1208.16 51.99 1207.8 51.885 1207.33 51.885C1206.91 51.885 1206.57 51.99 1206.32 52.2C1206.06 52.41 1205.87 52.76 1205.76 53.25C1205.64 53.74 1205.58 54.44 1205.58 55.35V56.75ZM1217 69V48.77H1221.76V69H1217ZM1217 45.55V41.595H1221.76V45.55H1217ZM1231.56 75.685C1230.19 75.685 1228.96 75.5333 1227.89 75.23C1226.84 74.95 1226.01 74.5183 1225.4 73.935C1224.82 73.3517 1224.53 72.605 1224.53 71.695C1224.53 70.995 1224.68 70.3767 1224.98 69.84C1225.31 69.3033 1225.74 68.8483 1226.28 68.475C1226.84 68.0783 1227.43 67.7633 1228.06 67.53L1230.06 67.845C1229.78 68.0783 1229.51 68.3233 1229.25 68.58C1229.02 68.8367 1228.82 69.105 1228.66 69.385C1228.49 69.665 1228.41 69.98 1228.41 70.33C1228.41 70.89 1228.68 71.31 1229.22 71.59C1229.78 71.87 1230.73 72.01 1232.09 72.01C1233.32 72.01 1234.26 71.8817 1234.89 71.625C1235.52 71.3683 1235.83 70.925 1235.83 70.295C1235.83 69.9217 1235.75 69.6183 1235.59 69.385C1235.42 69.175 1235.14 69 1234.75 68.86C1234.37 68.72 1233.84 68.615 1233.14 68.545L1228.38 67.95C1227.4 67.81 1226.63 67.4717 1226.07 66.935C1225.53 66.375 1225.26 65.7217 1225.26 64.975C1225.26 64.135 1225.51 63.4 1226 62.77C1226.51 62.1167 1227.18 61.44 1227.99 60.74L1229.6 61.79C1229.39 62.0233 1229.19 62.2917 1229.01 62.595C1228.82 62.875 1228.73 63.1783 1228.73 63.505C1228.73 63.7617 1228.87 63.9717 1229.15 64.135C1229.43 64.2983 1229.89 64.415 1230.55 64.485L1234.68 64.975C1236.33 65.1383 1237.55 65.6633 1238.32 66.55C1239.11 67.4133 1239.51 68.5917 1239.51 70.085C1239.51 71.3217 1239.23 72.3483 1238.67 73.165C1238.13 74.005 1237.28 74.635 1236.11 75.055C1234.95 75.475 1233.43 75.685 1231.56 75.685ZM1231.81 62.595C1230.31 62.595 1229.08 62.3033 1228.1 61.72C1227.14 61.1367 1226.42 60.32 1225.93 59.27C1225.44 58.22 1225.19 56.9833 1225.19 55.56C1225.19 54.02 1225.45 52.725 1225.96 51.675C1226.48 50.6017 1227.22 49.7967 1228.2 49.26C1229.18 48.7233 1230.38 48.455 1231.81 48.455C1233.23 48.455 1234.41 48.7583 1235.34 49.365C1236.28 49.9717 1236.98 50.8117 1237.44 51.885C1237.93 52.9583 1238.18 54.195 1238.18 55.595C1238.18 57.0183 1237.94 58.255 1237.48 59.305C1237.03 60.355 1236.35 61.1717 1235.41 61.755C1234.5 62.315 1233.3 62.595 1231.81 62.595ZM1231.81 59.55C1232.23 59.55 1232.55 59.4683 1232.79 59.305C1233.04 59.1417 1233.23 58.8967 1233.35 58.57C1233.49 58.2433 1233.58 57.835 1233.63 57.345C1233.7 56.8317 1233.73 56.2367 1233.73 55.56C1233.73 54.86 1233.71 54.265 1233.66 53.775C1233.62 53.2617 1233.52 52.8417 1233.38 52.515C1233.24 52.165 1233.04 51.9083 1232.79 51.745C1232.55 51.5817 1232.24 51.5 1231.84 51.5C1231.42 51.5 1231.08 51.5817 1230.83 51.745C1230.57 51.9083 1230.36 52.1533 1230.2 52.48C1230.06 52.8067 1229.96 53.2267 1229.92 53.74C1229.87 54.2533 1229.85 54.86 1229.85 55.56C1229.85 56.19 1229.87 56.7617 1229.92 57.275C1229.96 57.765 1230.06 58.185 1230.2 58.535C1230.34 58.8617 1230.54 59.1183 1230.79 59.305C1231.05 59.4683 1231.39 59.55 1231.81 59.55ZM1237.2 52.06L1236.15 50.59C1236.43 50.0767 1236.86 49.5983 1237.44 49.155C1238.03 48.7117 1238.73 48.3033 1239.54 47.93L1240.73 50.52C1240.45 50.59 1240.06 50.7183 1239.54 50.905C1239.05 51.0917 1238.57 51.3017 1238.11 51.535C1237.66 51.745 1237.36 51.92 1237.2 52.06ZM1248.07 69.315C1246.56 69.315 1245.32 69.035 1244.36 68.475C1243.41 67.8917 1242.7 67.0517 1242.23 65.955C1241.79 64.835 1241.56 63.4933 1241.56 61.93V55.84C1241.56 54.23 1241.79 52.8767 1242.23 51.78C1242.7 50.6833 1243.41 49.855 1244.36 49.295C1245.34 48.735 1246.58 48.455 1248.07 48.455C1249.68 48.455 1250.93 48.7583 1251.82 49.365C1252.73 49.9717 1253.37 50.8583 1253.74 52.025C1254.14 53.1683 1254.34 54.5683 1254.34 56.225V59.095H1246.29V63.085C1246.29 63.7383 1246.35 64.275 1246.46 64.695C1246.6 65.115 1246.81 65.4183 1247.09 65.605C1247.37 65.7917 1247.71 65.885 1248.11 65.885C1248.53 65.885 1248.87 65.7917 1249.12 65.605C1249.38 65.395 1249.57 65.1033 1249.68 64.73C1249.8 64.3333 1249.86 63.8433 1249.86 63.26V61.58H1254.3V62.945C1254.3 64.9983 1253.79 66.5733 1252.76 67.67C1251.74 68.7667 1250.17 69.315 1248.07 69.315ZM1246.29 56.75H1249.86V54.825C1249.86 54.125 1249.8 53.565 1249.68 53.145C1249.57 52.7017 1249.38 52.3867 1249.12 52.2C1248.87 51.99 1248.51 51.885 1248.04 51.885C1247.62 51.885 1247.28 51.99 1247.02 52.2C1246.77 52.41 1246.58 52.76 1246.46 53.25C1246.35 53.74 1246.29 54.44 1246.29 55.35V56.75Z" fill="#FF4409"/>
<path d="M1108.11 404L1104.09 375.65H1108.43L1110.77 394.025L1113.71 375.72H1117.25L1120.26 394.025L1122.57 375.65H1126.84L1122.88 404H1118.68L1115.53 384.995L1112.42 404H1108.11ZM1130.05 404V375.65H1136.84C1138.76 375.65 1140.37 375.883 1141.67 376.35C1143 376.793 1144.01 377.563 1144.68 378.66C1145.38 379.757 1145.73 381.25 1145.73 383.14C1145.73 384.283 1145.63 385.31 1145.42 386.22C1145.21 387.13 1144.85 387.912 1144.33 388.565C1143.84 389.195 1143.15 389.685 1142.27 390.035L1146.22 404H1141.04L1137.61 391.015H1135.23V404H1130.05ZM1135.23 387.76H1136.84C1137.85 387.76 1138.64 387.62 1139.22 387.34C1139.83 387.037 1140.26 386.57 1140.52 385.94C1140.77 385.287 1140.9 384.458 1140.9 383.455C1140.9 382.032 1140.63 380.97 1140.1 380.27C1139.58 379.547 1138.59 379.185 1137.12 379.185H1135.23V387.76ZM1149.6 404L1150.09 375.65H1155.45L1159.47 395.285L1163.67 375.65H1168.85L1169.38 404H1165.53L1165.11 384.295L1161.08 404H1157.97L1153.87 384.225L1153.49 404H1149.6ZM1189.77 404.385C1187.77 404.385 1186.17 404.012 1184.98 403.265C1183.79 402.518 1182.94 401.445 1182.42 400.045C1181.91 398.645 1181.65 396.988 1181.65 395.075V384.47C1181.65 382.557 1181.91 380.923 1182.42 379.57C1182.94 378.193 1183.79 377.143 1184.98 376.42C1186.17 375.697 1187.77 375.335 1189.77 375.335C1191.83 375.335 1193.44 375.697 1194.6 376.42C1195.79 377.143 1196.65 378.193 1197.16 379.57C1197.7 380.923 1197.96 382.557 1197.96 384.47V395.11C1197.96 397 1197.7 398.645 1197.16 400.045C1196.65 401.422 1195.79 402.495 1194.6 403.265C1193.44 404.012 1191.83 404.385 1189.77 404.385ZM1189.77 400.57C1190.64 400.57 1191.27 400.383 1191.66 400.01C1192.08 399.637 1192.36 399.123 1192.5 398.47C1192.64 397.817 1192.71 397.105 1192.71 396.335V383.28C1192.71 382.487 1192.64 381.775 1192.5 381.145C1192.36 380.515 1192.08 380.025 1191.66 379.675C1191.27 379.302 1190.64 379.115 1189.77 379.115C1188.96 379.115 1188.34 379.302 1187.92 379.675C1187.5 380.025 1187.22 380.515 1187.08 381.145C1186.94 381.775 1186.87 382.487 1186.87 383.28V396.335C1186.87 397.105 1186.93 397.817 1187.04 398.47C1187.18 399.123 1187.46 399.637 1187.88 400.01C1188.3 400.383 1188.93 400.57 1189.77 400.57ZM1201.59 404V383.77H1206.35V386.885C1207.05 385.695 1207.75 384.843 1208.45 384.33C1209.15 383.793 1209.92 383.525 1210.76 383.525C1210.9 383.525 1211.01 383.537 1211.11 383.56C1211.22 383.56 1211.35 383.572 1211.49 383.595V388.53C1211.21 388.413 1210.9 388.32 1210.55 388.25C1210.22 388.157 1209.88 388.11 1209.53 388.11C1208.9 388.11 1208.33 388.262 1207.82 388.565C1207.3 388.868 1206.81 389.37 1206.35 390.07V404H1201.59ZM1216.73 404.315C1215.82 404.315 1215.03 404.082 1214.35 403.615C1213.7 403.125 1213.2 402.518 1212.85 401.795C1212.5 401.048 1212.32 400.278 1212.32 399.485C1212.32 398.225 1212.56 397.163 1213.02 396.3C1213.49 395.437 1214.11 394.713 1214.88 394.13C1215.67 393.547 1216.55 393.045 1217.5 392.625C1218.48 392.182 1219.49 391.785 1220.51 391.435V389.685C1220.51 389.102 1220.47 388.612 1220.37 388.215C1220.3 387.818 1220.15 387.515 1219.92 387.305C1219.69 387.095 1219.35 386.99 1218.9 386.99C1218.48 386.99 1218.15 387.083 1217.89 387.27C1217.66 387.457 1217.48 387.725 1217.36 388.075C1217.27 388.402 1217.22 388.787 1217.22 389.23L1217.15 390.455L1212.6 390.28C1212.7 387.947 1213.28 386.232 1214.35 385.135C1215.43 384.015 1217.07 383.455 1219.29 383.455C1221.32 383.455 1222.8 384.015 1223.73 385.135C1224.67 386.255 1225.13 387.772 1225.13 389.685V399.03C1225.13 399.777 1225.15 400.453 1225.17 401.06C1225.22 401.667 1225.26 402.215 1225.31 402.705C1225.38 403.195 1225.44 403.627 1225.48 404H1221.18C1221.11 403.533 1221.03 403.008 1220.93 402.425C1220.84 401.818 1220.77 401.375 1220.72 401.095C1220.49 401.912 1220.05 402.658 1219.39 403.335C1218.74 403.988 1217.85 404.315 1216.73 404.315ZM1218.48 400.78C1218.79 400.78 1219.07 400.71 1219.32 400.57C1219.58 400.407 1219.81 400.22 1220.02 400.01C1220.23 399.8 1220.4 399.613 1220.51 399.45V393.815C1219.98 394.118 1219.48 394.422 1219.01 394.725C1218.57 395.028 1218.18 395.367 1217.85 395.74C1217.53 396.09 1217.27 396.475 1217.08 396.895C1216.9 397.315 1216.8 397.805 1216.8 398.365C1216.8 399.112 1216.94 399.707 1217.22 400.15C1217.53 400.57 1217.95 400.78 1218.48 400.78ZM1228.58 404V383.77H1233.34V385.8C1234.07 385.1 1234.83 384.54 1235.62 384.12C1236.44 383.677 1237.31 383.455 1238.24 383.455C1239.08 383.455 1239.75 383.665 1240.24 384.085C1240.73 384.482 1241.09 385.018 1241.32 385.695C1241.56 386.372 1241.67 387.107 1241.67 387.9V404H1236.91V388.845C1236.91 388.238 1236.82 387.772 1236.63 387.445C1236.45 387.118 1236.09 386.955 1235.55 386.955C1235.22 386.955 1234.86 387.048 1234.46 387.235C1234.09 387.422 1233.72 387.655 1233.34 387.935V404H1228.58ZM1251.18 410.685C1249.81 410.685 1248.58 410.533 1247.51 410.23C1246.46 409.95 1245.63 409.518 1245.02 408.935C1244.44 408.352 1244.15 407.605 1244.15 406.695C1244.15 405.995 1244.3 405.377 1244.6 404.84C1244.93 404.303 1245.36 403.848 1245.9 403.475C1246.46 403.078 1247.05 402.763 1247.68 402.53L1249.68 402.845C1249.4 403.078 1249.13 403.323 1248.87 403.58C1248.64 403.837 1248.44 404.105 1248.28 404.385C1248.11 404.665 1248.03 404.98 1248.03 405.33C1248.03 405.89 1248.3 406.31 1248.84 406.59C1249.4 406.87 1250.35 407.01 1251.71 407.01C1252.94 407.01 1253.88 406.882 1254.51 406.625C1255.14 406.368 1255.45 405.925 1255.45 405.295C1255.45 404.922 1255.37 404.618 1255.21 404.385C1255.04 404.175 1254.76 404 1254.37 403.86C1253.99 403.72 1253.46 403.615 1252.76 403.545L1248 402.95C1247.02 402.81 1246.25 402.472 1245.69 401.935C1245.15 401.375 1244.88 400.722 1244.88 399.975C1244.88 399.135 1245.13 398.4 1245.62 397.77C1246.13 397.117 1246.8 396.44 1247.61 395.74L1249.22 396.79C1249.01 397.023 1248.81 397.292 1248.63 397.595C1248.44 397.875 1248.35 398.178 1248.35 398.505C1248.35 398.762 1248.49 398.972 1248.77 399.135C1249.05 399.298 1249.51 399.415 1250.17 399.485L1254.3 399.975C1255.95 400.138 1257.17 400.663 1257.94 401.55C1258.73 402.413 1259.13 403.592 1259.13 405.085C1259.13 406.322 1258.85 407.348 1258.29 408.165C1257.75 409.005 1256.9 409.635 1255.73 410.055C1254.57 410.475 1253.05 410.685 1251.18 410.685ZM1251.43 397.595C1249.93 397.595 1248.7 397.303 1247.72 396.72C1246.76 396.137 1246.04 395.32 1245.55 394.27C1245.06 393.22 1244.81 391.983 1244.81 390.56C1244.81 389.02 1245.07 387.725 1245.58 386.675C1246.1 385.602 1246.84 384.797 1247.82 384.26C1248.8 383.723 1250 383.455 1251.43 383.455C1252.85 383.455 1254.03 383.758 1254.96 384.365C1255.9 384.972 1256.6 385.812 1257.06 386.885C1257.55 387.958 1257.8 389.195 1257.8 390.595C1257.8 392.018 1257.56 393.255 1257.1 394.305C1256.65 395.355 1255.97 396.172 1255.03 396.755C1254.12 397.315 1252.92 397.595 1251.43 397.595ZM1251.43 394.55C1251.85 394.55 1252.17 394.468 1252.41 394.305C1252.66 394.142 1252.85 393.897 1252.97 393.57C1253.11 393.243 1253.2 392.835 1253.25 392.345C1253.32 391.832 1253.35 391.237 1253.35 390.56C1253.35 389.86 1253.33 389.265 1253.28 388.775C1253.24 388.262 1253.14 387.842 1253 387.515C1252.86 387.165 1252.66 386.908 1252.41 386.745C1252.17 386.582 1251.86 386.5 1251.46 386.5C1251.04 386.5 1250.7 386.582 1250.45 386.745C1250.19 386.908 1249.98 387.153 1249.82 387.48C1249.68 387.807 1249.58 388.227 1249.54 388.74C1249.49 389.253 1249.47 389.86 1249.47 390.56C1249.47 391.19 1249.49 391.762 1249.54 392.275C1249.58 392.765 1249.68 393.185 1249.82 393.535C1249.96 393.862 1250.16 394.118 1250.41 394.305C1250.67 394.468 1251.01 394.55 1251.43 394.55ZM1256.82 387.06L1255.77 385.59C1256.05 385.077 1256.48 384.598 1257.06 384.155C1257.65 383.712 1258.35 383.303 1259.16 382.93L1260.35 385.52C1260.07 385.59 1259.68 385.718 1259.16 385.905C1258.67 386.092 1258.19 386.302 1257.73 386.535C1257.28 386.745 1256.98 386.92 1256.82 387.06ZM1267.69 404.315C1266.18 404.315 1264.94 404.035 1263.98 403.475C1263.03 402.892 1262.31 402.052 1261.85 400.955C1261.4 399.835 1261.18 398.493 1261.18 396.93V390.84C1261.18 389.23 1261.4 387.877 1261.85 386.78C1262.31 385.683 1263.03 384.855 1263.98 384.295C1264.96 383.735 1266.2 383.455 1267.69 383.455C1269.3 383.455 1270.55 383.758 1271.44 384.365C1272.35 384.972 1272.99 385.858 1273.36 387.025C1273.76 388.168 1273.96 389.568 1273.96 391.225V394.095H1265.91V398.085C1265.91 398.738 1265.97 399.275 1266.08 399.695C1266.22 400.115 1266.43 400.418 1266.71 400.605C1266.99 400.792 1267.33 400.885 1267.73 400.885C1268.15 400.885 1268.49 400.792 1268.74 400.605C1269 400.395 1269.19 400.103 1269.3 399.73C1269.42 399.333 1269.48 398.843 1269.48 398.26V396.58H1273.92V397.945C1273.92 399.998 1273.41 401.573 1272.38 402.67C1271.36 403.767 1269.79 404.315 1267.69 404.315ZM1265.91 391.75H1269.48V389.825C1269.48 389.125 1269.42 388.565 1269.3 388.145C1269.19 387.702 1269 387.387 1268.74 387.2C1268.49 386.99 1268.12 386.885 1267.66 386.885C1267.24 386.885 1266.9 386.99 1266.64 387.2C1266.39 387.41 1266.2 387.76 1266.08 388.25C1265.97 388.74 1265.91 389.44 1265.91 390.35V391.75Z" fill="#FAF1E7"/>
<path d="M40.68 109L41.5 103.2H40.64V101.6H41.74L42.02 99.66H40.68V98.04H42.24L43 92.8H45.14L44.38 98.04H46.18L46.94 92.8H49.06L48.3 98.04H49.12V99.66H48.08L47.78 101.6H49.06V103.2H47.56L46.72 109H44.58L45.42 103.2H43.64L42.82 109H40.68ZM43.86 101.6H45.66L45.94 99.66H44.16L43.86 101.6ZM50.5466 109V107.48L54.6666 101.06C54.9732 100.58 55.2532 100.133 55.5066 99.72C55.7732 99.3067 55.9866 98.8733 56.1466 98.42C56.3199 97.9533 56.4066 97.42 56.4066 96.82C56.4066 96.0733 56.2866 95.4867 56.0466 95.06C55.8066 94.6333 55.3866 94.42 54.7866 94.42C54.2799 94.42 53.8866 94.56 53.6066 94.84C53.3266 95.12 53.1332 95.4867 53.0266 95.94C52.9199 96.3933 52.8666 96.88 52.8666 97.4V97.94H50.7266V97.38C50.7266 96.4067 50.8532 95.5733 51.1066 94.88C51.3732 94.1733 51.7932 93.6267 52.3666 93.24C52.9532 92.8533 53.7266 92.66 54.6866 92.66C55.9932 92.66 56.9666 93.0333 57.6066 93.78C58.2466 94.5133 58.5666 95.5333 58.5666 96.84C58.5666 97.5333 58.4799 98.14 58.3066 98.66C58.1466 99.18 57.9332 99.6667 57.6666 100.12C57.3999 100.573 57.1066 101.04 56.7866 101.52L53.0666 107.2H58.1866V109H50.5466ZM64.4573 109.18C63.5373 109.18 62.7773 108.973 62.1773 108.56C61.5907 108.147 61.1507 107.58 60.8573 106.86C60.5773 106.14 60.4373 105.32 60.4373 104.4V97.42C60.4373 96.4733 60.5773 95.6467 60.8573 94.94C61.1373 94.22 61.5707 93.66 62.1573 93.26C62.7573 92.86 63.524 92.66 64.4573 92.66C65.3907 92.66 66.1507 92.86 66.7373 93.26C67.324 93.66 67.7573 94.22 68.0373 94.94C68.3173 95.6467 68.4573 96.4733 68.4573 97.42V104.4C68.4573 105.333 68.3107 106.16 68.0173 106.88C67.7373 107.6 67.304 108.167 66.7173 108.58C66.1307 108.98 65.3773 109.18 64.4573 109.18ZM64.4573 107.42C64.964 107.42 65.344 107.273 65.5973 106.98C65.864 106.687 66.044 106.313 66.1373 105.86C66.244 105.393 66.2973 104.913 66.2973 104.42V97.4C66.2973 96.88 66.2507 96.3933 66.1573 95.94C66.064 95.4733 65.884 95.1 65.6173 94.82C65.364 94.54 64.9773 94.4 64.4573 94.4C63.9373 94.4 63.544 94.54 63.2773 94.82C63.0107 95.1 62.8307 95.4733 62.7373 95.94C62.644 96.3933 62.5973 96.88 62.5973 97.4V104.42C62.5973 104.913 62.644 105.393 62.7373 105.86C62.844 106.313 63.0307 106.687 63.2973 106.98C63.5773 107.273 63.964 107.42 64.4573 107.42ZM73.0294 109V95.6C73.016 95.6133 72.8627 95.6533 72.5694 95.72C72.2894 95.7867 71.9694 95.8533 71.6094 95.92C71.2494 95.9867 70.9294 96.0467 70.6494 96.1C70.3694 96.1533 70.2227 96.18 70.2094 96.18V94.56C70.436 94.5067 70.696 94.4333 70.9894 94.34C71.296 94.2467 71.6027 94.1333 71.9094 94C72.2294 93.8667 72.5294 93.7 72.8094 93.5C73.1027 93.3 73.3494 93.0667 73.5494 92.8H75.1694V109H73.0294ZM78.7741 109L81.6941 94.48H77.3541V92.8H83.8341V93.84L80.8341 109H78.7741ZM89.4648 109V104.66H84.7648V102.42L88.9848 92.8H91.5048V102.76H93.3248V104.66H91.5048V109H89.4648ZM86.8248 102.76H89.4648V95.4L86.8248 102.76ZM98.5328 109.18C97.6928 109.18 96.9728 109.027 96.3728 108.72C95.7861 108.4 95.3395 107.94 95.0328 107.34C94.7261 106.74 94.5661 106.013 94.5528 105.16C94.5528 105.133 94.5528 105.107 94.5528 105.08C94.5528 105.04 94.5528 105.007 94.5528 104.98H96.6928C96.6928 105.753 96.8195 106.353 97.0728 106.78C97.3261 107.193 97.8195 107.4 98.5528 107.4C98.9528 107.4 99.2861 107.28 99.5528 107.04C99.8195 106.787 100.019 106.407 100.153 105.9C100.286 105.38 100.353 104.727 100.353 103.94V101.48C100.153 101.813 99.8528 102.087 99.4528 102.3C99.0661 102.5 98.5795 102.6 97.9928 102.6C97.0995 102.6 96.3995 102.407 95.8928 102.02C95.3861 101.62 95.0261 101.073 94.8128 100.38C94.6128 99.6733 94.5128 98.8533 94.5128 97.92C94.5128 96.9333 94.6461 96.0467 94.9128 95.26C95.1795 94.46 95.6061 93.8267 96.1928 93.36C96.7928 92.8933 97.5728 92.66 98.5328 92.66C99.4661 92.66 100.226 92.9 100.813 93.38C101.399 93.8467 101.826 94.48 102.093 95.28C102.373 96.08 102.513 96.9733 102.513 97.96V103.4C102.513 104.44 102.393 105.4 102.153 106.28C101.913 107.16 101.506 107.867 100.933 108.4C100.359 108.92 99.5595 109.18 98.5328 109.18ZM98.5328 100.98C98.9995 100.98 99.3795 100.867 99.6728 100.64C99.9661 100.4 100.193 100.14 100.353 99.86V97.46C100.353 96.9 100.299 96.3933 100.193 95.94C100.086 95.4733 99.8995 95.1067 99.6328 94.84C99.3661 94.56 98.9995 94.42 98.5328 94.42C98.0661 94.42 97.6928 94.56 97.4128 94.84C97.1461 95.12 96.9528 95.4867 96.8328 95.94C96.7261 96.38 96.6728 96.8667 96.6728 97.4C96.6728 98.04 96.6995 98.6333 96.7528 99.18C96.8195 99.7267 96.9795 100.167 97.2328 100.5C97.4995 100.82 97.9328 100.98 98.5328 100.98Z" fill="white"/>
<path d="M679.68 109L680.5 103.2H679.64V101.6H680.74L681.02 99.66H679.68V98.04H681.24L682 92.8H684.14L683.38 98.04H685.18L685.94 92.8H688.06L687.3 98.04H688.12V99.66H687.08L686.78 101.6H688.06V103.2H686.56L685.72 109H683.58L684.42 103.2H682.64L681.82 109H679.68ZM682.86 101.6H684.66L684.94 99.66H683.16L682.86 101.6ZM689.547 109V107.48L693.667 101.06C693.973 100.58 694.253 100.133 694.507 99.72C694.773 99.3067 694.987 98.8733 695.147 98.42C695.32 97.9533 695.407 97.42 695.407 96.82C695.407 96.0733 695.287 95.4867 695.047 95.06C694.807 94.6333 694.387 94.42 693.787 94.42C693.28 94.42 692.887 94.56 692.607 94.84C692.327 95.12 692.133 95.4867 692.027 95.94C691.92 96.3933 691.867 96.88 691.867 97.4V97.94H689.727V97.38C689.727 96.4067 689.853 95.5733 690.107 94.88C690.373 94.1733 690.793 93.6267 691.367 93.24C691.953 92.8533 692.727 92.66 693.687 92.66C694.993 92.66 695.967 93.0333 696.607 93.78C697.247 94.5133 697.567 95.5333 697.567 96.84C697.567 97.5333 697.48 98.14 697.307 98.66C697.147 99.18 696.933 99.6667 696.667 100.12C696.4 100.573 696.107 101.04 695.787 101.52L692.067 107.2H697.187V109H689.547ZM703.457 109.18C702.537 109.18 701.777 108.973 701.177 108.56C700.591 108.147 700.151 107.58 699.857 106.86C699.577 106.14 699.437 105.32 699.437 104.4V97.42C699.437 96.4733 699.577 95.6467 699.857 94.94C700.137 94.22 700.571 93.66 701.157 93.26C701.757 92.86 702.524 92.66 703.457 92.66C704.391 92.66 705.151 92.86 705.737 93.26C706.324 93.66 706.757 94.22 707.037 94.94C707.317 95.6467 707.457 96.4733 707.457 97.42V104.4C707.457 105.333 707.311 106.16 707.017 106.88C706.737 107.6 706.304 108.167 705.717 108.58C705.131 108.98 704.377 109.18 703.457 109.18ZM703.457 107.42C703.964 107.42 704.344 107.273 704.597 106.98C704.864 106.687 705.044 106.313 705.137 105.86C705.244 105.393 705.297 104.913 705.297 104.42V97.4C705.297 96.88 705.251 96.3933 705.157 95.94C705.064 95.4733 704.884 95.1 704.617 94.82C704.364 94.54 703.977 94.4 703.457 94.4C702.937 94.4 702.544 94.54 702.277 94.82C702.011 95.1 701.831 95.4733 701.737 95.94C701.644 96.3933 701.597 96.88 701.597 97.4V104.42C701.597 104.913 701.644 105.393 701.737 105.86C701.844 106.313 702.031 106.687 702.297 106.98C702.577 107.273 702.964 107.42 703.457 107.42ZM712.029 109V95.6C712.016 95.6133 711.863 95.6533 711.569 95.72C711.289 95.7867 710.969 95.8533 710.609 95.92C710.249 95.9867 709.929 96.0467 709.649 96.1C709.369 96.1533 709.223 96.18 709.209 96.18V94.56C709.436 94.5067 709.696 94.4333 709.989 94.34C710.296 94.2467 710.603 94.1333 710.909 94C711.229 93.8667 711.529 93.7 711.809 93.5C712.103 93.3 712.349 93.0667 712.549 92.8H714.169V109H712.029ZM717.774 109L720.694 94.48H716.354V92.8H722.834V93.84L719.834 109H717.774ZM728.465 109V104.66H723.765V102.42L727.985 92.8H730.505V102.76H732.325V104.66H730.505V109H728.465ZM725.825 102.76H728.465V95.4L725.825 102.76ZM737.533 109.18C736.693 109.18 735.973 109.027 735.373 108.72C734.786 108.4 734.339 107.94 734.033 107.34C733.726 106.74 733.566 106.013 733.553 105.16C733.553 105.133 733.553 105.107 733.553 105.08C733.553 105.04 733.553 105.007 733.553 104.98H735.693C735.693 105.753 735.819 106.353 736.073 106.78C736.326 107.193 736.819 107.4 737.553 107.4C737.953 107.4 738.286 107.28 738.553 107.04C738.819 106.787 739.019 106.407 739.153 105.9C739.286 105.38 739.353 104.727 739.353 103.94V101.48C739.153 101.813 738.853 102.087 738.453 102.3C738.066 102.5 737.579 102.6 736.993 102.6C736.099 102.6 735.399 102.407 734.893 102.02C734.386 101.62 734.026 101.073 733.813 100.38C733.613 99.6733 733.513 98.8533 733.513 97.92C733.513 96.9333 733.646 96.0467 733.913 95.26C734.179 94.46 734.606 93.8267 735.193 93.36C735.793 92.8933 736.573 92.66 737.533 92.66C738.466 92.66 739.226 92.9 739.813 93.38C740.399 93.8467 740.826 94.48 741.093 95.28C741.373 96.08 741.513 96.9733 741.513 97.96V103.4C741.513 104.44 741.393 105.4 741.153 106.28C740.913 107.16 740.506 107.867 739.933 108.4C739.359 108.92 738.559 109.18 737.533 109.18ZM737.533 100.98C737.999 100.98 738.379 100.867 738.673 100.64C738.966 100.4 739.193 100.14 739.353 99.86V97.46C739.353 96.9 739.299 96.3933 739.193 95.94C739.086 95.4733 738.899 95.1067 738.633 94.84C738.366 94.56 737.999 94.42 737.533 94.42C737.066 94.42 736.693 94.56 736.413 94.84C736.146 95.12 735.953 95.4867 735.833 95.94C735.726 96.38 735.673 96.8667 735.673 97.4C735.673 98.04 735.699 98.6333 735.753 99.18C735.819 99.7267 735.979 100.167 736.233 100.5C736.499 100.82 736.933 100.98 737.533 100.98Z" fill="#FF4409"/>
<path d="M1103.68 109L1104.5 103.2H1103.64V101.6H1104.74L1105.02 99.66H1103.68V98.04H1105.24L1106 92.8H1108.14L1107.38 98.04H1109.18L1109.94 92.8H1112.06L1111.3 98.04H1112.12V99.66H1111.08L1110.78 101.6H1112.06V103.2H1110.56L1109.72 109H1107.58L1108.42 103.2H1106.64L1105.82 109H1103.68ZM1106.86 101.6H1108.66L1108.94 99.66H1107.16L1106.86 101.6ZM1113.55 109V107.48L1117.67 101.06C1117.97 100.58 1118.25 100.133 1118.51 99.72C1118.77 99.3067 1118.99 98.8733 1119.15 98.42C1119.32 97.9533 1119.41 97.42 1119.41 96.82C1119.41 96.0733 1119.29 95.4867 1119.05 95.06C1118.81 94.6333 1118.39 94.42 1117.79 94.42C1117.28 94.42 1116.89 94.56 1116.61 94.84C1116.33 95.12 1116.13 95.4867 1116.03 95.94C1115.92 96.3933 1115.87 96.88 1115.87 97.4V97.94H1113.73V97.38C1113.73 96.4067 1113.85 95.5733 1114.11 94.88C1114.37 94.1733 1114.79 93.6267 1115.37 93.24C1115.95 92.8533 1116.73 92.66 1117.69 92.66C1118.99 92.66 1119.97 93.0333 1120.61 93.78C1121.25 94.5133 1121.57 95.5333 1121.57 96.84C1121.57 97.5333 1121.48 98.14 1121.31 98.66C1121.15 99.18 1120.93 99.6667 1120.67 100.12C1120.4 100.573 1120.11 101.04 1119.79 101.52L1116.07 107.2H1121.19V109H1113.55ZM1127.46 109.18C1126.54 109.18 1125.78 108.973 1125.18 108.56C1124.59 108.147 1124.15 107.58 1123.86 106.86C1123.58 106.14 1123.44 105.32 1123.44 104.4V97.42C1123.44 96.4733 1123.58 95.6467 1123.86 94.94C1124.14 94.22 1124.57 93.66 1125.16 93.26C1125.76 92.86 1126.52 92.66 1127.46 92.66C1128.39 92.66 1129.15 92.86 1129.74 93.26C1130.32 93.66 1130.76 94.22 1131.04 94.94C1131.32 95.6467 1131.46 96.4733 1131.46 97.42V104.4C1131.46 105.333 1131.31 106.16 1131.02 106.88C1130.74 107.6 1130.3 108.167 1129.72 108.58C1129.13 108.98 1128.38 109.18 1127.46 109.18ZM1127.46 107.42C1127.96 107.42 1128.34 107.273 1128.6 106.98C1128.86 106.687 1129.04 106.313 1129.14 105.86C1129.24 105.393 1129.3 104.913 1129.3 104.42V97.4C1129.3 96.88 1129.25 96.3933 1129.16 95.94C1129.06 95.4733 1128.88 95.1 1128.62 94.82C1128.36 94.54 1127.98 94.4 1127.46 94.4C1126.94 94.4 1126.54 94.54 1126.28 94.82C1126.01 95.1 1125.83 95.4733 1125.74 95.94C1125.64 96.3933 1125.6 96.88 1125.6 97.4V104.42C1125.6 104.913 1125.64 105.393 1125.74 105.86C1125.84 106.313 1126.03 106.687 1126.3 106.98C1126.58 107.273 1126.96 107.42 1127.46 107.42ZM1136.03 109V95.6C1136.02 95.6133 1135.86 95.6533 1135.57 95.72C1135.29 95.7867 1134.97 95.8533 1134.61 95.92C1134.25 95.9867 1133.93 96.0467 1133.65 96.1C1133.37 96.1533 1133.22 96.18 1133.21 96.18V94.56C1133.44 94.5067 1133.7 94.4333 1133.99 94.34C1134.3 94.2467 1134.6 94.1333 1134.91 94C1135.23 93.8667 1135.53 93.7 1135.81 93.5C1136.1 93.3 1136.35 93.0667 1136.55 92.8H1138.17V109H1136.03ZM1141.77 109L1144.69 94.48H1140.35V92.8H1146.83V93.84L1143.83 109H1141.77ZM1152.46 109V104.66H1147.76V102.42L1151.98 92.8H1154.5V102.76H1156.32V104.66H1154.5V109H1152.46ZM1149.82 102.76H1152.46V95.4L1149.82 102.76ZM1161.53 109.18C1160.69 109.18 1159.97 109.027 1159.37 108.72C1158.79 108.4 1158.34 107.94 1158.03 107.34C1157.73 106.74 1157.57 106.013 1157.55 105.16C1157.55 105.133 1157.55 105.107 1157.55 105.08C1157.55 105.04 1157.55 105.007 1157.55 104.98H1159.69C1159.69 105.753 1159.82 106.353 1160.07 106.78C1160.33 107.193 1160.82 107.4 1161.55 107.4C1161.95 107.4 1162.29 107.28 1162.55 107.04C1162.82 106.787 1163.02 106.407 1163.15 105.9C1163.29 105.38 1163.35 104.727 1163.35 103.94V101.48C1163.15 101.813 1162.85 102.087 1162.45 102.3C1162.07 102.5 1161.58 102.6 1160.99 102.6C1160.1 102.6 1159.4 102.407 1158.89 102.02C1158.39 101.62 1158.03 101.073 1157.81 100.38C1157.61 99.6733 1157.51 98.8533 1157.51 97.92C1157.51 96.9333 1157.65 96.0467 1157.91 95.26C1158.18 94.46 1158.61 93.8267 1159.19 93.36C1159.79 92.8933 1160.57 92.66 1161.53 92.66C1162.47 92.66 1163.23 92.9 1163.81 93.38C1164.4 93.8467 1164.83 94.48 1165.09 95.28C1165.37 96.08 1165.51 96.9733 1165.51 97.96V103.4C1165.51 104.44 1165.39 105.4 1165.15 106.28C1164.91 107.16 1164.51 107.867 1163.93 108.4C1163.36 108.92 1162.56 109.18 1161.53 109.18ZM1161.53 100.98C1162 100.98 1162.38 100.867 1162.67 100.64C1162.97 100.4 1163.19 100.14 1163.35 99.86V97.46C1163.35 96.9 1163.3 96.3933 1163.19 95.94C1163.09 95.4733 1162.9 95.1067 1162.63 94.84C1162.37 94.56 1162 94.42 1161.53 94.42C1161.07 94.42 1160.69 94.56 1160.41 94.84C1160.15 95.12 1159.95 95.4867 1159.83 95.94C1159.73 96.38 1159.67 96.8667 1159.67 97.4C1159.67 98.04 1159.7 98.6333 1159.75 99.18C1159.82 99.7267 1159.98 100.167 1160.23 100.5C1160.5 100.82 1160.93 100.98 1161.53 100.98Z" fill="#FF4409"/>
<path d="M1103.68 444L1104.5 438.2H1103.64V436.6H1104.74L1105.02 434.66H1103.68V433.04H1105.24L1106 427.8H1108.14L1107.38 433.04H1109.18L1109.94 427.8H1112.06L1111.3 433.04H1112.12V434.66H1111.08L1110.78 436.6H1112.06V438.2H1110.56L1109.72 444H1107.58L1108.42 438.2H1106.64L1105.82 444H1103.68ZM1106.86 436.6H1108.66L1108.94 434.66H1107.16L1106.86 436.6ZM1113.55 444V442.48L1117.67 436.06C1117.97 435.58 1118.25 435.133 1118.51 434.72C1118.77 434.307 1118.99 433.873 1119.15 433.42C1119.32 432.953 1119.41 432.42 1119.41 431.82C1119.41 431.073 1119.29 430.487 1119.05 430.06C1118.81 429.633 1118.39 429.42 1117.79 429.42C1117.28 429.42 1116.89 429.56 1116.61 429.84C1116.33 430.12 1116.13 430.487 1116.03 430.94C1115.92 431.393 1115.87 431.88 1115.87 432.4V432.94H1113.73V432.38C1113.73 431.407 1113.85 430.573 1114.11 429.88C1114.37 429.173 1114.79 428.627 1115.37 428.24C1115.95 427.853 1116.73 427.66 1117.69 427.66C1118.99 427.66 1119.97 428.033 1120.61 428.78C1121.25 429.513 1121.57 430.533 1121.57 431.84C1121.57 432.533 1121.48 433.14 1121.31 433.66C1121.15 434.18 1120.93 434.667 1120.67 435.12C1120.4 435.573 1120.11 436.04 1119.79 436.52L1116.07 442.2H1121.19V444H1113.55ZM1127.46 444.18C1126.54 444.18 1125.78 443.973 1125.18 443.56C1124.59 443.147 1124.15 442.58 1123.86 441.86C1123.58 441.14 1123.44 440.32 1123.44 439.4V432.42C1123.44 431.473 1123.58 430.647 1123.86 429.94C1124.14 429.22 1124.57 428.66 1125.16 428.26C1125.76 427.86 1126.52 427.66 1127.46 427.66C1128.39 427.66 1129.15 427.86 1129.74 428.26C1130.32 428.66 1130.76 429.22 1131.04 429.94C1131.32 430.647 1131.46 431.473 1131.46 432.42V439.4C1131.46 440.333 1131.31 441.16 1131.02 441.88C1130.74 442.6 1130.3 443.167 1129.72 443.58C1129.13 443.98 1128.38 444.18 1127.46 444.18ZM1127.46 442.42C1127.96 442.42 1128.34 442.273 1128.6 441.98C1128.86 441.687 1129.04 441.313 1129.14 440.86C1129.24 440.393 1129.3 439.913 1129.3 439.42V432.4C1129.3 431.88 1129.25 431.393 1129.16 430.94C1129.06 430.473 1128.88 430.1 1128.62 429.82C1128.36 429.54 1127.98 429.4 1127.46 429.4C1126.94 429.4 1126.54 429.54 1126.28 429.82C1126.01 430.1 1125.83 430.473 1125.74 430.94C1125.64 431.393 1125.6 431.88 1125.6 432.4V439.42C1125.6 439.913 1125.64 440.393 1125.74 440.86C1125.84 441.313 1126.03 441.687 1126.3 441.98C1126.58 442.273 1126.96 442.42 1127.46 442.42ZM1136.03 444V430.6C1136.02 430.613 1135.86 430.653 1135.57 430.72C1135.29 430.787 1134.97 430.853 1134.61 430.92C1134.25 430.987 1133.93 431.047 1133.65 431.1C1133.37 431.153 1133.22 431.18 1133.21 431.18V429.56C1133.44 429.507 1133.7 429.433 1133.99 429.34C1134.3 429.247 1134.6 429.133 1134.91 429C1135.23 428.867 1135.53 428.7 1135.81 428.5C1136.1 428.3 1136.35 428.067 1136.55 427.8H1138.17V444H1136.03ZM1141.77 444L1144.69 429.48H1140.35V427.8H1146.83V428.84L1143.83 444H1141.77ZM1152.46 444V439.66H1147.76V437.42L1151.98 427.8H1154.5V437.76H1156.32V439.66H1154.5V444H1152.46ZM1149.82 437.76H1152.46V430.4L1149.82 437.76ZM1161.53 444.18C1160.69 444.18 1159.97 444.027 1159.37 443.72C1158.79 443.4 1158.34 442.94 1158.03 442.34C1157.73 441.74 1157.57 441.013 1157.55 440.16C1157.55 440.133 1157.55 440.107 1157.55 440.08C1157.55 440.04 1157.55 440.007 1157.55 439.98H1159.69C1159.69 440.753 1159.82 441.353 1160.07 441.78C1160.33 442.193 1160.82 442.4 1161.55 442.4C1161.95 442.4 1162.29 442.28 1162.55 442.04C1162.82 441.787 1163.02 441.407 1163.15 440.9C1163.29 440.38 1163.35 439.727 1163.35 438.94V436.48C1163.15 436.813 1162.85 437.087 1162.45 437.3C1162.07 437.5 1161.58 437.6 1160.99 437.6C1160.1 437.6 1159.4 437.407 1158.89 437.02C1158.39 436.62 1158.03 436.073 1157.81 435.38C1157.61 434.673 1157.51 433.853 1157.51 432.92C1157.51 431.933 1157.65 431.047 1157.91 430.26C1158.18 429.46 1158.61 428.827 1159.19 428.36C1159.79 427.893 1160.57 427.66 1161.53 427.66C1162.47 427.66 1163.23 427.9 1163.81 428.38C1164.4 428.847 1164.83 429.48 1165.09 430.28C1165.37 431.08 1165.51 431.973 1165.51 432.96V438.4C1165.51 439.44 1165.39 440.4 1165.15 441.28C1164.91 442.16 1164.51 442.867 1163.93 443.4C1163.36 443.92 1162.56 444.18 1161.53 444.18ZM1161.53 435.98C1162 435.98 1162.38 435.867 1162.67 435.64C1162.97 435.4 1163.19 435.14 1163.35 434.86V432.46C1163.35 431.9 1163.3 431.393 1163.19 430.94C1163.09 430.473 1162.9 430.107 1162.63 429.84C1162.37 429.56 1162 429.42 1161.53 429.42C1161.07 429.42 1160.69 429.56 1160.41 429.84C1160.15 430.12 1159.95 430.487 1159.83 430.94C1159.73 431.38 1159.67 431.867 1159.67 432.4C1159.67 433.04 1159.7 433.633 1159.75 434.18C1159.82 434.727 1159.98 435.167 1160.23 435.5C1160.5 435.82 1160.93 435.98 1161.53 435.98Z" fill="#FAF1E7"/>
<path d="M528.009 412.026C528.009 398.635 439.66 433.84 465.334 437.002C439.66 433.84 473.406 490.804 489.273 477.413C473.406 490.804 582.612 490.804 566.745 477.413C582.612 490.804 616.358 433.843 590.684 437.002C616.358 433.84 528.009 398.635 528.009 412.026Z" fill="#FAF1E7"/>
<path d="M536.167 432.506H513.929C513.929 432.506 513.918 432.512 513.918 432.517V463.954H524.006C526.211 463.954 528 462.139 528 459.9V455.406C528 460.129 531.771 463.957 536.423 463.957H542.081V448.233H536.167C539.434 448.233 542.081 445.545 542.081 442.229V438.512C542.081 435.196 539.434 432.509 536.167 432.509V432.506ZM528.563 449.714C528.563 449.871 528.436 450 528.281 450H527.718C527.563 450 527.436 449.871 527.436 449.714V439.707C527.436 439.55 527.563 439.422 527.718 439.422H528.281C528.436 439.422 528.563 439.55 528.563 439.707V449.714Z" fill="#FF4409"/>
<path d="M503.126 434.507V451.083C503.126 451.24 502.999 451.369 502.844 451.369H502.281C502.126 451.369 502 451.24 502 451.083V435.588C502 434.01 500.836 432.629 499.287 432.514C499.211 432.509 499.135 432.506 499.059 432.506H496.679C496.603 432.506 496.527 432.506 496.451 432.514C494.902 432.629 493.739 434.01 493.739 435.588V451.083C493.739 451.24 493.612 451.369 493.458 451.369H492.894C492.739 451.369 492.613 451.24 492.613 451.083V434.347C492.613 433.329 491.802 432.506 490.799 432.506H483.789V454.52C483.789 454.571 483.795 454.62 483.798 454.671C483.798 454.723 483.789 454.771 483.789 454.823V463.957H491.956C493.996 463.957 495.787 462.908 496.848 461.312C497.167 460.832 497.344 460.266 497.4 459.691V459.666C497.513 458.705 497.64 457.653 497.798 456.701H497.938C498.099 457.65 498.226 458.705 498.336 459.666V459.671C498.389 460.255 498.566 460.826 498.89 461.31C499.952 462.905 501.743 463.954 503.782 463.954H511.95V454.82C511.95 454.743 511.941 454.665 511.938 454.591C511.941 454.514 511.95 454.44 511.95 454.362V432.509H505.098C504.008 432.509 503.126 433.404 503.126 434.51V434.507Z" fill="#FF4409"/>
<path d="M572.214 432.507H564.047C562.239 432.507 560.625 433.333 559.544 434.631C559 435.283 558.682 436.097 558.6 436.949C558.487 437.91 558.361 438.962 558.203 439.914H558.062C557.902 438.965 557.775 437.91 557.665 436.949V436.941C557.589 436.103 557.274 435.3 556.741 434.654C555.66 433.341 554.038 432.507 552.218 432.507H544.051V441.641C544.051 441.718 544.059 441.795 544.062 441.87C544.059 441.947 544.051 442.021 544.051 442.098V463.952H550.903C551.993 463.952 552.874 463.057 552.874 461.951V445.569C552.874 445.412 553.001 445.283 553.156 445.283H553.719C553.874 445.283 554.001 445.412 554.001 445.569V460.821C554.001 462.548 555.381 463.949 557.082 463.949H559.18C560.881 463.949 562.261 462.548 562.261 460.821V445.569C562.261 445.412 562.388 445.283 562.543 445.283H563.106C563.261 445.283 563.388 445.412 563.388 445.569V462.108C563.388 463.126 564.199 463.949 565.202 463.949H572.211V441.935C572.211 441.884 572.206 441.835 572.203 441.784C572.203 441.732 572.211 441.684 572.211 441.632V432.498V432.507H572.214Z" fill="#FF4409"/>
<path d="M951.009 412.026C951.009 398.635 862.66 433.84 888.334 437.002C862.66 433.84 896.406 490.804 912.273 477.413C896.406 490.804 1005.61 490.804 989.745 477.413C1005.61 490.804 1039.36 433.843 1013.68 437.002C1039.36 433.84 951.009 398.635 951.009 412.026Z" fill="#FF4409"/>
<path d="M959.167 432.506H936.929C936.929 432.506 936.918 432.512 936.918 432.517V463.954H947.006C949.211 463.954 951 462.139 951 459.9V455.406C951 460.129 954.771 463.957 959.423 463.957H965.081V448.233H959.167C962.434 448.233 965.081 445.545 965.081 442.229V438.512C965.081 435.196 962.434 432.509 959.167 432.509V432.506ZM951.563 449.714C951.563 449.871 951.436 450 951.281 450H950.718C950.563 450 950.436 449.871 950.436 449.714V439.707C950.436 439.55 950.563 439.422 950.718 439.422H951.281C951.436 439.422 951.563 439.55 951.563 439.707V449.714Z" fill="#FAF1E7"/>
<path d="M926.126 434.507V451.083C926.126 451.24 925.999 451.369 925.844 451.369H925.281C925.126 451.369 925 451.24 925 451.083V435.588C925 434.01 923.836 432.629 922.287 432.514C922.211 432.509 922.135 432.506 922.059 432.506H919.679C919.603 432.506 919.527 432.506 919.451 432.514C917.902 432.629 916.739 434.01 916.739 435.588V451.083C916.739 451.24 916.612 451.369 916.458 451.369H915.894C915.739 451.369 915.613 451.24 915.613 451.083V434.347C915.613 433.329 914.802 432.506 913.799 432.506H906.789V454.52C906.789 454.571 906.795 454.62 906.798 454.671C906.798 454.723 906.789 454.771 906.789 454.823V463.957H914.956C916.996 463.957 918.787 462.908 919.848 461.312C920.167 460.832 920.344 460.266 920.4 459.691V459.666C920.513 458.705 920.64 457.653 920.798 456.701H920.938C921.099 457.65 921.226 458.705 921.336 459.666V459.671C921.389 460.255 921.566 460.826 921.89 461.31C922.952 462.905 924.743 463.954 926.782 463.954H934.95V454.82C934.95 454.743 934.941 454.665 934.938 454.591C934.941 454.514 934.95 454.44 934.95 454.362V432.509H928.098C927.008 432.509 926.126 433.404 926.126 434.51V434.507Z" fill="#FAF1E7"/>
<path d="M995.214 432.507H987.047C985.239 432.507 983.625 433.333 982.544 434.631C982 435.283 981.682 436.097 981.6 436.949C981.487 437.91 981.361 438.962 981.203 439.914H981.062C980.902 438.965 980.775 437.91 980.665 436.949V436.941C980.589 436.103 980.274 435.3 979.741 434.654C978.66 433.341 977.038 432.507 975.218 432.507H967.051V441.641C967.051 441.718 967.059 441.795 967.062 441.87C967.059 441.947 967.051 442.021 967.051 442.098V463.952H973.903C974.993 463.952 975.874 463.057 975.874 461.951V445.569C975.874 445.412 976.001 445.283 976.156 445.283H976.719C976.874 445.283 977.001 445.412 977.001 445.569V460.821C977.001 462.548 978.381 463.949 980.082 463.949H982.18C983.881 463.949 985.261 462.548 985.261 460.821V445.569C985.261 445.412 985.388 445.283 985.543 445.283H986.106C986.261 445.283 986.388 445.412 986.388 445.569V462.108C986.388 463.126 987.199 463.949 988.202 463.949H995.211V441.935C995.211 441.884 995.206 441.835 995.203 441.784C995.203 441.732 995.211 441.684 995.211 441.632V432.498V432.507H995.214Z" fill="#FAF1E7"/>
<path d="M1316.51 244.168C1316.51 233.287 1244.72 261.892 1265.58 264.461C1244.72 261.892 1272.14 308.177 1285.04 297.296C1272.14 308.177 1360.88 308.177 1347.98 297.296C1360.88 308.177 1388.29 261.894 1367.43 264.461C1388.29 261.892 1316.51 233.287 1316.51 244.168Z" fill="#FF4409"/>
<path d="M1323.14 260.809H1305.07C1305.07 260.809 1305.06 260.813 1305.06 260.818V286.361H1313.26C1315.05 286.361 1316.5 284.886 1316.5 283.067V279.415C1316.5 283.253 1319.57 286.363 1323.35 286.363H1327.95V273.587H1323.14C1325.79 273.587 1327.95 271.404 1327.95 268.709V265.689C1327.95 262.994 1325.79 260.811 1323.14 260.811V260.809ZM1316.96 274.79C1316.96 274.918 1316.86 275.023 1316.73 275.023H1316.28C1316.15 275.023 1316.05 274.918 1316.05 274.79V266.66C1316.05 266.532 1316.15 266.428 1316.28 266.428H1316.73C1316.86 266.428 1316.96 266.532 1316.96 266.66V274.79Z" fill="#F7E1CD"/>
<path d="M1296.29 262.435V275.903C1296.29 276.031 1296.19 276.135 1296.06 276.135H1295.61C1295.48 276.135 1295.38 276.031 1295.38 275.903V263.313C1295.38 262.03 1294.43 260.908 1293.17 260.816C1293.11 260.811 1293.05 260.809 1292.99 260.809H1291.06C1290.99 260.809 1290.93 260.809 1290.87 260.816C1289.61 260.908 1288.67 262.03 1288.67 263.313V275.903C1288.67 276.031 1288.56 276.135 1288.44 276.135H1287.98C1287.85 276.135 1287.75 276.031 1287.75 275.903V262.305C1287.75 261.478 1287.09 260.809 1286.28 260.809H1280.58V278.695C1280.58 278.737 1280.59 278.777 1280.59 278.818C1280.59 278.86 1280.58 278.9 1280.58 278.942V286.363H1287.22C1288.88 286.363 1290.33 285.511 1291.19 284.215C1291.45 283.824 1291.6 283.364 1291.64 282.897V282.877C1291.73 282.096 1291.84 281.241 1291.96 280.468H1292.08C1292.21 281.239 1292.31 282.096 1292.4 282.877V282.881C1292.44 283.355 1292.59 283.82 1292.85 284.212C1293.71 285.508 1295.17 286.361 1296.83 286.361H1303.46V278.939C1303.46 278.876 1303.46 278.814 1303.45 278.753C1303.46 278.691 1303.46 278.63 1303.46 278.568V260.811H1297.9C1297.01 260.811 1296.29 261.538 1296.29 262.437V262.435Z" fill="#F7E1CD"/>
<path d="M1352.43 260.81H1345.79C1344.33 260.81 1343.01 261.481 1342.14 262.536C1341.69 263.065 1341.43 263.727 1341.37 264.42C1341.28 265.2 1341.17 266.055 1341.05 266.828H1340.93C1340.8 266.057 1340.7 265.2 1340.61 264.42V264.413C1340.55 263.732 1340.29 263.079 1339.86 262.554C1338.98 261.488 1337.66 260.81 1336.18 260.81H1329.55V268.232C1329.55 268.294 1329.55 268.357 1329.56 268.417C1329.55 268.48 1329.55 268.54 1329.55 268.603V286.36H1335.11C1336 286.36 1336.72 285.633 1336.72 284.734V271.423C1336.72 271.295 1336.82 271.191 1336.95 271.191H1337.4C1337.53 271.191 1337.63 271.295 1337.63 271.423V283.816C1337.63 285.219 1338.75 286.357 1340.14 286.357H1341.84C1343.22 286.357 1344.34 285.219 1344.34 283.816V271.423C1344.34 271.295 1344.45 271.191 1344.57 271.191H1345.03C1345.16 271.191 1345.26 271.295 1345.26 271.423V284.861C1345.26 285.688 1345.92 286.357 1346.73 286.357H1352.43V268.471C1352.43 268.429 1352.42 268.389 1352.42 268.348C1352.42 268.306 1352.43 268.266 1352.43 268.225V260.803V260.81H1352.43Z" fill="#F7E1CD"/>
<path d="M1332.01 452.405C1332.01 444.407 1279.24 465.434 1294.57 467.322C1279.24 465.434 1299.4 499.457 1308.87 491.459C1299.4 499.457 1364.62 499.457 1355.14 491.459C1364.62 499.457 1384.78 465.435 1369.44 467.322C1384.78 465.434 1332.01 444.407 1332.01 452.405Z" fill="#FAF1E7"/>
<path d="M1336.88 464.637H1323.6C1323.6 464.637 1323.59 464.64 1323.59 464.644V483.42H1329.62C1330.94 483.42 1332 482.336 1332 480.999V478.314C1332 481.135 1334.26 483.422 1337.04 483.422H1340.42V474.03H1336.88C1338.83 474.03 1340.42 472.425 1340.42 470.444V468.224C1340.42 466.244 1338.83 464.638 1336.88 464.638V464.637ZM1332.34 474.915C1332.34 475.008 1332.27 475.085 1332.17 475.085H1331.84C1331.74 475.085 1331.67 475.008 1331.67 474.915V468.938C1331.67 468.844 1331.74 468.767 1331.84 468.767H1332.17C1332.27 468.767 1332.34 468.844 1332.34 468.938V474.915Z" fill="#FFA14C"/>
<path d="M1317.15 465.832V475.732C1317.15 475.826 1317.07 475.903 1316.98 475.903H1316.64C1316.55 475.903 1316.47 475.826 1316.47 475.732V466.477C1316.47 465.535 1315.78 464.71 1314.85 464.642C1314.81 464.638 1314.76 464.637 1314.72 464.637H1313.3C1313.25 464.637 1313.21 464.637 1313.16 464.642C1312.24 464.71 1311.54 465.535 1311.54 466.477V475.732C1311.54 475.826 1311.46 475.903 1311.37 475.903H1311.04C1310.94 475.903 1310.87 475.826 1310.87 475.732V465.736C1310.87 465.128 1310.38 464.637 1309.78 464.637H1305.6V477.785C1305.6 477.816 1305.6 477.845 1305.6 477.875C1305.6 477.906 1305.6 477.935 1305.6 477.966V483.422H1310.48C1311.69 483.422 1312.76 482.795 1313.4 481.842C1313.59 481.555 1313.69 481.217 1313.73 480.874V480.859C1313.79 480.285 1313.87 479.656 1313.96 479.088H1314.05C1314.14 479.655 1314.22 480.285 1314.29 480.859V480.862C1314.32 481.21 1314.42 481.552 1314.62 481.84C1315.25 482.793 1316.32 483.42 1317.54 483.42H1322.42V477.964C1322.42 477.918 1322.41 477.872 1322.41 477.828C1322.41 477.781 1322.42 477.737 1322.42 477.691V464.638H1318.32C1317.67 464.638 1317.15 465.173 1317.15 465.834V465.832Z" fill="#FFA14C"/>
<path d="M1358.41 464.638H1353.53C1352.45 464.638 1351.49 465.131 1350.84 465.907C1350.52 466.296 1350.33 466.783 1350.28 467.291C1350.21 467.865 1350.14 468.494 1350.04 469.062H1349.96C1349.86 468.495 1349.79 467.865 1349.72 467.291V467.286C1349.68 466.786 1349.49 466.306 1349.17 465.92C1348.52 465.137 1347.55 464.638 1346.47 464.638H1341.59V470.094C1341.59 470.14 1341.59 470.186 1341.6 470.23C1341.59 470.276 1341.59 470.321 1341.59 470.367V483.419H1345.68C1346.33 483.419 1346.86 482.885 1346.86 482.224V472.44C1346.86 472.346 1346.94 472.269 1347.03 472.269H1347.36C1347.46 472.269 1347.53 472.346 1347.53 472.44V481.55C1347.53 482.581 1348.36 483.418 1349.37 483.418H1350.63C1351.64 483.418 1352.47 482.581 1352.47 481.55V472.44C1352.47 472.346 1352.54 472.269 1352.63 472.269H1352.97C1353.06 472.269 1353.14 472.346 1353.14 472.44V482.318C1353.14 482.926 1353.62 483.418 1354.22 483.418H1358.41V470.269C1358.41 470.239 1358.41 470.21 1358.4 470.179C1358.4 470.148 1358.41 470.119 1358.41 470.088V464.633V464.638H1358.41Z" fill="#FFA14C"/>
</svg>
