<svg width="1401" height="852" viewBox="0 0 1401 852" fill="none" xmlns="http://www.w3.org/2000/svg">
<rect width="1401" height="852" fill="#FAF1E7"/>
<line x1="909.709" y1="157.746" x2="909.709" y2="267.344" stroke="#FF4409" stroke-width="0.606155"/>
<line x1="796.363" y1="158.78" x2="605.429" y2="158.78" stroke="#FF4409" stroke-width="0.689293"/>
<line x1="890.797" y1="218.749" x2="510.307" y2="218.749" stroke="#FF4409" stroke-width="0.689293"/>
<line x1="890.797" y1="267.688" x2="510.307" y2="267.688" stroke="#FF4409" stroke-width="0.689293"/>
<rect x="399.332" y="248.732" width="184.897" height="45.4462" rx="9.33825" fill="white"/>
<path d="M456.031 276.807V265.293H457.272V276.807H456.031ZM456.838 270.752V269.623H459.059V270.752H456.838ZM448.264 274.946V266.137H453.86V274.946H448.264ZM449.505 273.805H452.619V267.278H449.505V273.805ZM467.796 276.807V265.293H469.037V276.807H467.796ZM468.603 270.752V269.623H470.824V270.752H468.603ZM460.092 275.169V270.045H464.211V267.254H460.092V266.137H465.439V271.137H461.332V274.053H462.424C463.069 274.053 463.756 274.024 464.484 273.966C465.22 273.908 465.931 273.825 466.618 273.718L466.767 274.785C466.113 274.909 465.394 275.004 464.608 275.07C463.822 275.136 463.02 275.169 462.201 275.169H460.092ZM476.385 272.688V270.405H477.614V272.688H476.385ZM471.584 273.097V272.018H482.403V273.097H471.584ZM473.023 276.807V273.916H474.264V275.691H481.261V276.807H473.023ZM473.023 270.802V265.541H480.964V266.571H474.264V269.772H481.199V270.802H473.023ZM473.606 268.656V267.638H480.964V268.656H473.606ZM495.236 276.807V265.293H496.44V276.807H495.236ZM492.594 276.571V265.467H493.76V276.571H492.594ZM493.239 270.752V269.623H495.696V270.752H493.239ZM486.837 274.934V266.137H491.154V267.278H488.077V273.805H488.586C489.628 273.805 490.666 273.726 491.7 273.569L491.824 274.673C491.295 274.772 490.757 274.843 490.211 274.884C489.674 274.917 489.074 274.934 488.412 274.934H486.837ZM506.778 276.807V265.293H508.019V276.807H506.778ZM501.381 274.76V272.179H502.609V274.76H501.381ZM498.329 275.38L498.267 274.251H500.351C501.079 274.251 501.952 274.218 502.969 274.152C503.987 274.086 504.934 273.999 505.81 273.891L505.947 274.996C505.095 275.12 504.148 275.215 503.106 275.281C502.063 275.347 501.108 275.38 500.24 275.38H498.329ZM502.001 272.899C501.166 272.899 500.475 272.709 499.929 272.328C499.392 271.939 499.123 271.398 499.123 270.703V270.517C499.123 269.83 499.392 269.297 499.929 268.916C500.475 268.527 501.166 268.333 502.001 268.333C502.829 268.333 503.511 268.527 504.049 268.916C504.595 269.297 504.867 269.83 504.867 270.517V270.703C504.867 271.389 504.595 271.927 504.049 272.316C503.511 272.705 502.829 272.899 502.001 272.899ZM502.001 271.906C502.473 271.906 502.866 271.799 503.18 271.584C503.494 271.36 503.652 271.063 503.652 270.69V270.529C503.652 270.157 503.494 269.863 503.18 269.648C502.866 269.433 502.473 269.326 502.001 269.326C501.513 269.326 501.112 269.433 500.798 269.648C500.484 269.863 500.326 270.157 500.326 270.529V270.69C500.326 271.063 500.484 271.36 500.798 271.584C501.112 271.799 501.513 271.906 502.001 271.906ZM498.589 267.638V266.608H505.389V267.638H498.589ZM501.369 267.229V265.306H502.609V267.229H501.369ZM521.597 270.914V265.293H522.825V270.914H521.597ZM515.22 276.869V273.705H521.597V272.663H515.158V271.633H522.825V274.723H516.46V275.815H523.26V276.869H515.22ZM516.498 270.653C515.588 270.653 514.843 270.438 514.264 270.008C513.694 269.578 513.408 268.962 513.408 268.159V267.973C513.408 267.171 513.694 266.555 514.264 266.125C514.843 265.694 515.588 265.479 516.498 265.479C517.399 265.479 518.135 265.694 518.706 266.125C519.285 266.555 519.575 267.171 519.575 267.973V268.159C519.575 268.962 519.285 269.578 518.706 270.008C518.135 270.438 517.399 270.653 516.498 270.653ZM516.498 269.561C517.043 269.561 517.486 269.437 517.825 269.189C518.164 268.941 518.334 268.589 518.334 268.135V267.998C518.334 267.543 518.164 267.192 517.825 266.943C517.486 266.695 517.043 266.571 516.498 266.571C515.943 266.571 515.497 266.695 515.158 266.943C514.818 267.192 514.649 267.543 514.649 267.998V268.135C514.649 268.589 514.818 268.941 515.158 269.189C515.497 269.437 515.943 269.561 516.498 269.561ZM533.35 271.571V265.293H534.59V271.571H533.35ZM529.479 276.931C528.933 276.931 528.449 276.828 528.027 276.621C527.613 276.423 527.295 276.141 527.072 275.777C526.848 275.422 526.737 275.012 526.737 274.549C526.737 274.094 526.848 273.689 527.072 273.333C527.295 272.969 527.613 272.688 528.027 272.489C528.449 272.283 528.933 272.179 529.479 272.179H531.985C532.539 272.179 533.023 272.283 533.436 272.489C533.85 272.688 534.169 272.969 534.392 273.333C534.623 273.689 534.739 274.094 534.739 274.549C534.739 275.012 534.623 275.422 534.392 275.777C534.169 276.141 533.85 276.423 533.436 276.621C533.023 276.828 532.539 276.931 531.985 276.931H529.479ZM531.799 275.815C532.353 275.815 532.775 275.699 533.064 275.467C533.354 275.236 533.499 274.93 533.499 274.549C533.499 274.169 533.354 273.863 533.064 273.631C532.775 273.399 532.353 273.284 531.799 273.284H529.677C529.123 273.284 528.697 273.399 528.399 273.631C528.11 273.863 527.965 274.169 527.965 274.549C527.965 274.93 528.11 275.236 528.399 275.467C528.697 275.699 529.123 275.815 529.677 275.815H531.799ZM524.851 270.703C525.86 270.132 526.6 269.549 527.072 268.953C527.551 268.358 527.791 267.684 527.791 266.931V266.373H528.995V266.931C528.995 267.924 528.705 268.805 528.126 269.574C527.547 270.335 526.65 271.042 525.434 271.695L524.851 270.703ZM531.34 271.509L527.642 269.077L528.275 268.159L531.96 270.492L531.34 271.509ZM525.31 266.943V265.839H531.513V266.943H525.31ZM531.104 268.854V267.787H533.982V268.854H531.104Z" fill="#FF4409"/>
<rect x="399.332" y="194.969" width="184.897" height="45.4462" rx="9.33825" fill="white"/>
<path d="M470.508 223.044V211.53H471.749V223.044H470.508ZM471.314 216.989V215.86H473.535V216.989H471.314ZM462.741 221.182V212.373H468.337V221.182H462.741ZM463.982 220.041H467.096V213.515H463.982V220.041ZM482.918 223.044V211.53H484.159V223.044H482.918ZM477.794 221.542C476.884 221.542 476.144 221.228 475.573 220.599C475.011 219.962 474.729 218.99 474.729 217.684V215.934C474.729 214.627 475.011 213.659 475.573 213.031C476.144 212.394 476.884 212.076 477.794 212.076C478.696 212.076 479.428 212.394 479.99 213.031C480.553 213.659 480.834 214.627 480.834 215.934V217.684C480.834 218.99 480.553 219.962 479.99 220.599C479.428 221.228 478.696 221.542 477.794 221.542ZM477.794 220.413C478.34 220.413 478.778 220.194 479.109 219.756C479.44 219.309 479.605 218.614 479.605 217.671V215.947C479.605 214.995 479.44 214.301 479.109 213.862C478.778 213.424 478.34 213.205 477.794 213.205C477.24 213.205 476.797 213.424 476.466 213.862C476.136 214.301 475.97 214.995 475.97 215.947V217.671C475.97 218.614 476.136 219.309 476.466 219.756C476.806 220.194 477.248 220.413 477.794 220.413ZM485.973 221.182L485.911 220.041H487.475C488.095 220.041 488.79 220.016 489.559 219.967C490.328 219.917 491.056 219.842 491.743 219.743L491.854 220.847C491.184 220.955 490.452 221.038 489.658 221.096C488.864 221.153 488.099 221.182 487.363 221.182H485.973ZM486.916 220.364V212.944H488.021V220.364H486.916ZM489.423 220.302V212.944H490.527V220.302H489.423ZM485.998 213.515V212.373H491.433V213.515H485.998ZM494.894 223.044V211.53H496.098V223.044H494.894ZM492.487 222.808V211.703H493.666V222.808H492.487ZM491.11 217.1V215.971H492.996V217.1H491.11ZM506.448 223.044V211.53H507.689V223.044H506.448ZM501.324 221.542C500.414 221.542 499.674 221.228 499.103 220.599C498.541 219.962 498.26 218.99 498.26 217.684V215.934C498.26 214.627 498.541 213.659 499.103 213.031C499.674 212.394 500.414 212.076 501.324 212.076C502.226 212.076 502.958 212.394 503.52 213.031C504.083 213.659 504.364 214.627 504.364 215.934V217.684C504.364 218.99 504.083 219.962 503.52 220.599C502.958 221.228 502.226 221.542 501.324 221.542ZM501.324 220.413C501.87 220.413 502.309 220.194 502.639 219.756C502.97 219.309 503.136 218.614 503.136 217.671V215.947C503.136 214.995 502.97 214.301 502.639 213.862C502.309 213.424 501.87 213.205 501.324 213.205C500.77 213.205 500.328 213.424 499.997 213.862C499.666 214.301 499.5 214.995 499.5 215.947V217.671C499.5 218.614 499.666 219.309 499.997 219.756C500.336 220.194 500.778 220.413 501.324 220.413ZM518.214 223.044V211.53H519.454V223.044H518.214ZM509.715 220.649C510.393 219.946 510.951 219.259 511.39 218.589C511.836 217.919 512.171 217.212 512.395 216.468C512.626 215.723 512.742 214.917 512.742 214.048V213.093H513.958V214.048C513.958 215.446 513.681 216.745 513.127 217.944C512.572 219.135 511.729 220.314 510.595 221.48L509.715 220.649ZM516.104 221.356L512.481 217.051L513.362 216.232L517.01 220.537L516.104 221.356ZM510.174 213.564V212.435H516.551V213.564H510.174Z" fill="#FF4409"/>
<rect x="817.043" y="135" width="184.897" height="45.4462" rx="9.33825" fill="#FFCEA1"/>
<path d="M888.219 163.075V151.561H889.46V163.075H888.219ZM889.025 157.02V155.891H891.246V157.02H889.025ZM880.452 161.214V152.405H886.048V161.214H880.452ZM881.693 160.072H884.807V153.546H881.693V160.072ZM900.629 163.075V151.561H901.87V163.075H900.629ZM895.505 161.574C894.595 161.574 893.855 161.259 893.284 160.631C892.722 159.994 892.44 159.022 892.44 157.715V155.965C892.44 154.659 892.722 153.691 893.284 153.062C893.855 152.425 894.595 152.107 895.505 152.107C896.407 152.107 897.139 152.425 897.701 153.062C898.264 153.691 898.545 154.659 898.545 155.965V157.715C898.545 159.022 898.264 159.994 897.701 160.631C897.139 161.259 896.407 161.574 895.505 161.574ZM895.505 160.444C896.051 160.444 896.489 160.225 896.82 159.787C897.151 159.34 897.316 158.645 897.316 157.702V155.978C897.316 155.027 897.151 154.332 896.82 153.893C896.489 153.455 896.051 153.236 895.505 153.236C894.951 153.236 894.508 153.455 894.177 153.893C893.847 154.332 893.681 155.027 893.681 155.978V157.702C893.681 158.645 893.847 159.34 894.177 159.787C894.517 160.225 894.959 160.444 895.505 160.444ZM903.684 161.214L903.622 160.072H905.186C905.806 160.072 906.501 160.047 907.27 159.998C908.039 159.948 908.767 159.874 909.454 159.774L909.565 160.879C908.895 160.986 908.163 161.069 907.369 161.127C906.575 161.185 905.81 161.214 905.074 161.214H903.684ZM904.627 160.395V152.975H905.732V160.395H904.627ZM907.134 160.333V152.975H908.238V160.333H907.134ZM903.709 153.546V152.405H909.144V153.546H903.709ZM912.605 163.075V151.561H913.809V163.075H912.605ZM910.198 162.839V151.735H911.377V162.839H910.198ZM908.821 157.132V156.003H910.707V157.132H908.821ZM924.159 163.075V151.561H925.4V163.075H924.159ZM919.035 161.574C918.125 161.574 917.385 161.259 916.814 160.631C916.252 159.994 915.971 159.022 915.971 157.715V155.965C915.971 154.659 916.252 153.691 916.814 153.062C917.385 152.425 918.125 152.107 919.035 152.107C919.937 152.107 920.669 152.425 921.231 153.062C921.794 153.691 922.075 154.659 922.075 155.965V157.715C922.075 159.022 921.794 159.994 921.231 160.631C920.669 161.259 919.937 161.574 919.035 161.574ZM919.035 160.444C919.581 160.444 920.019 160.225 920.35 159.787C920.681 159.34 920.847 158.645 920.847 157.702V155.978C920.847 155.027 920.681 154.332 920.35 153.893C920.019 153.455 919.581 153.236 919.035 153.236C918.481 153.236 918.038 153.455 917.708 153.893C917.377 154.332 917.211 155.027 917.211 155.978V157.702C917.211 158.645 917.377 159.34 917.708 159.787C918.047 160.225 918.489 160.444 919.035 160.444ZM935.924 163.075V151.561H937.165V163.075H935.924ZM927.425 160.68C928.104 159.977 928.662 159.291 929.1 158.621C929.547 157.951 929.882 157.243 930.105 156.499C930.337 155.754 930.453 154.948 930.453 154.08V153.124H931.669V154.08C931.669 155.477 931.392 156.776 930.837 157.975C930.283 159.166 929.44 160.345 928.306 161.511L927.425 160.68ZM933.815 161.387L930.192 157.082L931.073 156.263L934.721 160.569L933.815 161.387ZM927.885 153.596V152.467H934.262V153.596H927.885Z" fill="#FF4409"/>
<rect x="817.043" y="194.967" width="184.897" height="45.4462" rx="9.33825" fill="white"/>
<path d="M896.761 222.528V219.103H897.99V222.528H896.761ZM891.96 222.875V221.733H902.779V222.875H891.96ZM893.287 219.575V215.728H900.223V214.103H893.225V212.986H901.464V216.82H894.528V218.483H901.699V219.575H893.287ZM903.725 222.875V221.733H914.544V222.875H903.725ZM911.256 220.046C911.438 219.062 911.583 218.053 911.69 217.019C911.806 215.985 911.864 215.145 911.864 214.5V213.718L912.323 214.239H904.928V213.11H913.105V214.165C913.105 215.017 913.047 215.981 912.931 217.056C912.815 218.123 912.662 219.19 912.472 220.257L911.256 220.046ZM924.125 220.84V212.217H925.366V220.84H924.125ZM917.748 223.731V219.996H918.989V222.602H925.85V223.731H917.748ZM919.026 218.954C918.439 218.954 917.909 218.838 917.438 218.607C916.975 218.375 916.607 218.028 916.334 217.565C916.069 217.101 915.937 216.535 915.937 215.865V215.629C915.937 214.951 916.069 214.38 916.334 213.917C916.607 213.445 916.975 213.098 917.438 212.875C917.909 212.643 918.439 212.527 919.026 212.527C919.605 212.527 920.126 212.643 920.589 212.875C921.061 213.098 921.429 213.445 921.694 213.917C921.967 214.38 922.103 214.951 922.103 215.629V215.865C922.103 216.535 921.967 217.101 921.694 217.565C921.429 218.028 921.061 218.375 920.589 218.607C920.126 218.838 919.605 218.954 919.026 218.954ZM919.026 217.862C919.564 217.862 920.002 217.689 920.341 217.341C920.689 216.994 920.862 216.493 920.862 215.84V215.641C920.862 214.988 920.689 214.488 920.341 214.14C920.002 213.793 919.564 213.619 919.026 213.619C918.48 213.619 918.033 213.793 917.686 214.14C917.347 214.488 917.177 214.988 917.177 215.641V215.84C917.177 216.493 917.347 216.994 917.686 217.341C918.033 217.689 918.48 217.862 919.026 217.862Z" fill="#FF4409"/>
<rect x="817.043" y="248.732" width="184.897" height="45.4462" rx="9.33825" fill="white"/>
<path d="M895.067 277.497V265.983H896.308V277.497H895.067ZM889.67 275.449V272.869H890.898V275.449H889.67ZM886.618 276.07L886.556 274.941H888.64C889.368 274.941 890.241 274.908 891.258 274.842C892.276 274.775 893.223 274.688 894.099 274.581L894.236 275.685C893.384 275.809 892.437 275.904 891.395 275.971C890.352 276.037 889.397 276.07 888.529 276.07H886.618ZM890.29 273.588C889.455 273.588 888.764 273.398 888.218 273.018C887.681 272.629 887.412 272.087 887.412 271.392V271.206C887.412 270.52 887.681 269.986 888.218 269.606C888.764 269.217 889.455 269.022 890.29 269.022C891.118 269.022 891.8 269.217 892.338 269.606C892.884 269.986 893.156 270.52 893.156 271.206V271.392C893.156 272.079 892.884 272.616 892.338 273.005C891.8 273.394 891.118 273.588 890.29 273.588ZM890.29 272.596C890.762 272.596 891.155 272.488 891.469 272.273C891.783 272.05 891.941 271.752 891.941 271.38V271.219C891.941 270.846 891.783 270.553 891.469 270.338C891.155 270.123 890.762 270.015 890.29 270.015C889.802 270.015 889.401 270.123 889.087 270.338C888.773 270.553 888.615 270.846 888.615 271.219V271.38C888.615 271.752 888.773 272.05 889.087 272.273C889.401 272.488 889.802 272.596 890.29 272.596ZM886.878 268.328V267.298H893.678V268.328H886.878ZM889.658 267.918V265.995H890.898V267.918H889.658ZM906.845 275.152V265.983H908.073V275.152H906.845ZM898.383 272.571L898.333 271.529H900.405C901.133 271.529 902.006 271.496 903.023 271.43C904.041 271.363 904.996 271.276 905.889 271.169L906.013 272.186C905.161 272.31 904.214 272.406 903.172 272.472C902.13 272.538 901.175 272.571 900.306 272.571H898.383ZM901.088 274.345C901.187 273.353 901.249 272.592 901.274 272.062H902.465C902.424 272.865 902.362 273.655 902.279 274.432L901.088 274.345ZM903.631 274.172V273.229H907.415V274.172H903.631ZM900.343 277.497V274.842H901.572V276.368H908.557V277.497H900.343ZM901.993 270.611C901.084 270.611 900.339 270.429 899.76 270.065C899.181 269.692 898.892 269.171 898.892 268.501V268.352C898.892 267.674 899.181 267.153 899.76 266.789C900.339 266.417 901.084 266.231 901.993 266.231C902.903 266.231 903.644 266.417 904.214 266.789C904.793 267.153 905.083 267.674 905.083 268.352V268.501C905.083 269.171 904.793 269.692 904.214 270.065C903.635 270.429 902.895 270.611 901.993 270.611ZM901.993 269.593C902.564 269.593 903.023 269.494 903.371 269.295C903.726 269.097 903.904 268.824 903.904 268.477V268.377C903.904 268.022 903.726 267.745 903.371 267.546C903.023 267.348 902.564 267.248 901.993 267.248C901.423 267.248 900.96 267.348 900.604 267.546C900.248 267.745 900.07 268.022 900.07 268.377V268.477C900.07 268.824 900.248 269.097 900.604 269.295C900.96 269.494 901.423 269.593 901.993 269.593ZM917.952 277.497V265.983H919.193V277.497H917.952ZM918.759 271.442V270.313H920.98V271.442H918.759ZM910.136 275.139C911.087 274.511 911.897 273.812 912.567 273.042C913.237 272.265 913.742 271.463 914.081 270.635C914.429 269.8 914.602 268.973 914.602 268.154V267.608L914.999 268.018H910.396V266.888H915.843V267.906C915.843 269.511 915.413 271.012 914.553 272.41C913.701 273.799 912.485 275.036 910.905 276.119L910.136 275.139ZM930.362 271.963V265.983H931.603V271.963H930.362ZM923.985 277.497V272.571H925.226V276.392H930.362V272.571H931.603V277.497H923.985ZM924.792 274.99V273.899H930.822V274.99H924.792ZM925.263 271.702C924.676 271.702 924.146 271.603 923.675 271.405C923.212 271.206 922.844 270.908 922.571 270.511C922.306 270.114 922.174 269.63 922.174 269.06V268.874C922.174 268.013 922.459 267.36 923.03 266.913C923.609 266.458 924.353 266.231 925.263 266.231C925.85 266.231 926.376 266.33 926.839 266.529C927.302 266.727 927.666 267.025 927.931 267.422C928.204 267.811 928.34 268.295 928.34 268.874V269.06C928.34 269.63 928.204 270.114 927.931 270.511C927.666 270.908 927.302 271.206 926.839 271.405C926.376 271.603 925.85 271.702 925.263 271.702ZM925.263 270.611C925.809 270.611 926.252 270.474 926.591 270.201C926.938 269.928 927.112 269.544 927.112 269.047V268.886C927.112 268.381 926.938 267.997 926.591 267.732C926.252 267.459 925.809 267.323 925.263 267.323C924.717 267.323 924.271 267.459 923.923 267.732C923.584 267.997 923.414 268.381 923.414 268.886V269.047C923.414 269.544 923.584 269.928 923.923 270.201C924.271 270.474 924.717 270.611 925.263 270.611Z" fill="#FF4409"/>
<line x1="702.924" y1="157.746" x2="702.924" y2="485.85" stroke="#FF4409" stroke-width="0.606155"/>
<line x1="583.028" y1="485.85" x2="583.028" y2="697.463" stroke="#FF4409" stroke-width="0.689293"/>
<line x1="344.536" y1="485.85" x2="344.536" y2="593.379" stroke="#FF4409" stroke-width="0.689293"/>
<line x1="821.524" y1="485.85" x2="821.524" y2="592.69" stroke="#FF4409" stroke-width="0.689293"/>
<line x1="1060.02" y1="485.85" x2="1060.02" y2="706.423" stroke="#FF4409" stroke-width="0.689293"/>
<rect x="487.562" y="505.148" width="189.878" height="46.6913" rx="9.33825" fill="#FF4409"/>
<path d="M554.379 535.549V520.098H556.497V535.549H554.379ZM555.835 527.609V525.69H558.73V527.609H555.835ZM544.156 533.101V521.157H551.914V533.101H544.156ZM546.273 531.165H549.813V523.092H546.273V531.165ZM570.926 535.549V520.098H573.044V535.549H570.926ZM564.375 533.581C563.118 533.581 562.098 533.156 561.315 532.307C560.543 531.458 560.157 530.14 560.157 528.353V525.987C560.157 524.201 560.543 522.883 561.315 522.034C562.098 521.184 563.118 520.76 564.375 520.76C565.621 520.76 566.63 521.184 567.402 522.034C568.186 522.883 568.577 524.201 568.577 525.987V528.353C568.577 530.14 568.186 531.458 567.402 532.307C566.63 533.156 565.621 533.581 564.375 533.581ZM564.375 531.662C565.004 531.662 565.506 531.403 565.881 530.884C566.267 530.366 566.46 529.522 566.46 528.353V525.987C566.46 524.818 566.267 523.975 565.881 523.456C565.506 522.938 565.004 522.679 564.375 522.679C563.746 522.679 563.239 522.944 562.853 523.473C562.467 523.991 562.274 524.829 562.274 525.987V528.353C562.274 529.511 562.467 530.355 562.853 530.884C563.239 531.403 563.746 531.662 564.375 531.662ZM575.231 533.101L575.132 531.165H577.25C578.11 531.165 579.036 531.138 580.029 531.083C581.021 531.017 581.959 530.923 582.841 530.801L583.04 532.671C582.168 532.814 581.203 532.919 580.145 532.985C579.097 533.062 578.06 533.101 577.035 533.101H575.231ZM576.34 531.695V522.116H578.176V531.695H576.34ZM579.599 531.662V522.116H581.468V531.662H579.599ZM575.248 523.092V521.157H582.51V523.092H575.248ZM586.944 535.549V520.098H588.995V535.549H586.944ZM583.734 535.185V520.346H585.72V535.185H583.734ZM582.13 527.774V525.839H584.595V527.774H582.13ZM602.3 535.549V520.098H604.417V535.549H602.3ZM595.749 533.581C594.491 533.581 593.471 533.156 592.688 532.307C591.916 531.458 591.53 530.14 591.53 528.353V525.987C591.53 524.201 591.916 522.883 592.688 522.034C593.471 521.184 594.491 520.76 595.749 520.76C596.995 520.76 598.004 521.184 598.776 522.034C599.559 522.883 599.951 524.201 599.951 525.987V528.353C599.951 530.14 599.559 531.458 598.776 532.307C598.004 533.156 596.995 533.581 595.749 533.581ZM595.749 531.662C596.377 531.662 596.879 531.403 597.254 530.884C597.64 530.366 597.833 529.522 597.833 528.353V525.987C597.833 524.818 597.64 523.975 597.254 523.456C596.879 522.938 596.377 522.679 595.749 522.679C595.12 522.679 594.613 522.944 594.227 523.473C593.841 523.991 593.648 524.829 593.648 525.987V528.353C593.648 529.511 593.841 530.355 594.227 530.884C594.613 531.403 595.12 531.662 595.749 531.662ZM617.987 535.549V520.098H620.104V535.549H617.987ZM606.803 532.075C607.697 531.171 608.425 530.283 608.987 529.412C609.561 528.53 609.991 527.614 610.277 526.666C610.564 525.706 610.708 524.681 610.708 523.589V522.398H612.775V523.589C612.775 525.431 612.401 527.162 611.651 528.783C610.912 530.404 609.792 531.971 608.292 533.481L606.803 532.075ZM615.174 533.333L610.41 527.625L611.932 526.219L616.729 531.943L615.174 533.333ZM607.416 523.175V521.24H616.117V523.175H607.416Z" fill="white"/>
<rect x="247" y="505.148" width="189.878" height="46.6913" rx="9.33825" fill="#FF4409"/>
<path d="M306.407 532.217V520.786H308.525V532.217H306.407ZM298.037 536.237V531.241H300.154V534.318H309.087V536.237H298.037ZM295.241 528.941C296.564 528.081 297.518 527.21 298.103 526.328C298.698 525.434 298.996 524.436 298.996 523.333V522.49H301.064V523.333C301.064 524.822 300.678 526.157 299.906 527.337C299.145 528.506 297.959 529.581 296.349 530.563L295.241 528.941ZM303.678 530.314L298.831 526.609L300.005 525.054L304.852 528.66L303.678 530.314ZM295.853 523.399V521.53H304.273V523.399H295.853ZM303.711 526.46V524.657H307.483V526.46H303.711ZM322.425 536.237V520.786H324.476V536.237H322.425ZM319.067 535.873V521.034H321.068V535.873H319.067ZM316.883 528.462V526.526H319.977V528.462H316.883ZM310.597 532.961C311.622 531.649 312.356 530.348 312.797 529.057C313.238 527.767 313.459 526.372 313.459 524.872V524.326H315.46V524.872C315.46 526.592 315.196 528.208 314.666 529.719C314.137 531.23 313.282 532.713 312.102 534.169L310.597 532.961ZM316.9 534.02L313.194 528.66L314.699 527.37L318.471 532.829L316.9 534.02ZM311.093 525.004V523.085H318.008V525.004H311.093ZM313.492 524.045V520.802H315.477V524.045H313.492ZM338.128 536.237V520.786H340.18V536.237H338.128ZM334.588 535.873V521.034H336.59V535.873H334.588ZM335.829 528.296V526.377H338.873V528.296H335.829ZM327.044 533.788V521.844H332.967V523.78H329.195V531.853H329.724C331.059 531.853 332.311 531.765 333.48 531.588L333.678 533.458C333.017 533.579 332.349 533.662 331.677 533.706C331.015 533.761 330.265 533.788 329.427 533.788H327.044ZM353.468 536.237V520.786H355.585V536.237H353.468ZM346.271 533.425V529.835H348.389V533.425H346.271ZM342.434 534.467L342.334 532.531H345.113C346.095 532.531 347.253 532.493 348.588 532.415C349.922 532.327 351.174 532.211 352.343 532.068L352.591 533.97C351.4 534.125 350.109 534.246 348.72 534.334C347.33 534.423 346.062 534.467 344.915 534.467H342.434ZM347.347 531.042C346.189 531.042 345.24 530.783 344.501 530.265C343.762 529.746 343.393 529.013 343.393 528.065V527.833C343.393 526.885 343.762 526.151 344.501 525.633C345.24 525.114 346.189 524.855 347.347 524.855C348.483 524.855 349.415 525.12 350.143 525.649C350.881 526.168 351.251 526.896 351.251 527.833V528.065C351.251 529.002 350.881 529.735 350.143 530.265C349.415 530.783 348.483 531.042 347.347 531.042ZM347.347 529.388C347.876 529.388 348.317 529.272 348.67 529.041C349.023 528.798 349.2 528.467 349.2 528.048V527.85C349.2 527.43 349.023 527.105 348.67 526.873C348.317 526.631 347.876 526.51 347.347 526.51C346.795 526.51 346.338 526.631 345.974 526.873C345.621 527.105 345.444 527.43 345.444 527.85V528.048C345.444 528.467 345.621 528.798 345.974 529.041C346.338 529.272 346.795 529.388 347.347 529.388ZM342.731 524.078V522.374H351.896V524.078H342.731ZM346.255 523.499V520.802H348.389V523.499H346.255ZM369.155 528.313V520.786H371.272V528.313H369.155ZM360.784 536.32V531.82H369.155V530.877H360.718V529.156H371.272V533.524H362.901V534.549H371.768V536.32H360.784ZM362.653 528.065C361.396 528.065 360.37 527.772 359.576 527.188C358.782 526.592 358.385 525.738 358.385 524.624V524.409C358.385 523.295 358.777 522.445 359.56 521.861C360.354 521.265 361.385 520.968 362.653 520.968C363.899 520.968 364.914 521.265 365.697 521.861C366.491 522.445 366.888 523.295 366.888 524.409V524.624C366.888 525.727 366.491 526.576 365.697 527.171C364.914 527.767 363.899 528.065 362.653 528.065ZM362.653 526.212C363.293 526.212 363.806 526.074 364.192 525.798C364.589 525.522 364.787 525.12 364.787 524.591V524.425C364.787 523.896 364.589 523.493 364.192 523.217C363.795 522.942 363.282 522.804 362.653 522.804C362.013 522.804 361.495 522.942 361.098 523.217C360.701 523.493 360.503 523.896 360.503 524.425V524.591C360.503 525.12 360.701 525.522 361.098 525.798C361.495 526.074 362.013 526.212 362.653 526.212ZM384.841 529.206V520.802H386.959V529.206H384.841ZM379.878 536.402C379.151 536.402 378.5 536.264 377.926 535.989C377.364 535.724 376.923 535.344 376.603 534.847C376.294 534.362 376.14 533.794 376.14 533.143C376.14 532.504 376.294 531.936 376.603 531.439C376.923 530.943 377.364 530.563 377.926 530.298C378.5 530.022 379.151 529.884 379.878 529.884H383.386C384.113 529.884 384.764 530.022 385.338 530.298C385.911 530.563 386.352 530.943 386.661 531.439C386.981 531.936 387.141 532.504 387.141 533.143C387.141 533.794 386.981 534.362 386.661 534.847C386.352 535.344 385.911 535.724 385.338 535.989C384.775 536.264 384.124 536.402 383.386 536.402H379.878ZM383.088 534.516C383.705 534.516 384.18 534.39 384.51 534.136C384.852 533.882 385.023 533.546 385.023 533.127C385.023 532.708 384.852 532.377 384.51 532.134C384.18 531.881 383.705 531.754 383.088 531.754H380.176C379.559 531.754 379.084 531.881 378.753 532.134C378.423 532.377 378.257 532.708 378.257 533.127C378.257 533.557 378.423 533.893 378.753 534.136C379.084 534.39 379.559 534.516 380.176 534.516H383.088ZM373.658 527.734C374.993 527.039 375.958 526.322 376.553 525.583C377.149 524.833 377.447 523.995 377.447 523.069V522.357H379.498V523.069C379.498 524.436 379.106 525.633 378.323 526.658C377.54 527.684 376.316 528.611 374.651 529.438L373.658 527.734ZM382.244 529.19L377.314 526.113L378.356 524.541L383.27 527.452L382.244 529.19ZM374.27 523.3V521.447H382.707V523.3H374.27ZM382.128 525.782V523.978H385.917V525.782H382.128Z" fill="white"/>
<path d="M315.157 590.914V582.341H316.745V590.914H315.157ZM308.879 593.929V590.182H310.467V592.49H317.167V593.929H308.879ZM306.782 588.457C307.775 587.812 308.49 587.159 308.929 586.497C309.375 585.827 309.599 585.079 309.599 584.251V583.619H311.149V584.251C311.149 585.368 310.86 586.369 310.281 587.254C309.71 588.131 308.821 588.937 307.613 589.673L306.782 588.457ZM313.11 589.487L309.475 586.708L310.355 585.542L313.991 588.247L313.11 589.487ZM307.241 584.301V582.899H313.557V584.301H307.241ZM313.135 586.596V585.244H315.964V586.596H313.135ZM327.17 593.929V582.341H328.709V593.929H327.17ZM324.652 593.656V582.527H326.153V593.656H324.652ZM323.014 588.098V586.646H325.334V588.098H323.014ZM318.299 591.472C319.068 590.488 319.618 589.512 319.949 588.544C320.28 587.577 320.446 586.53 320.446 585.405V584.996H321.947V585.405C321.947 586.696 321.748 587.907 321.351 589.041C320.954 590.174 320.313 591.286 319.428 592.378L318.299 591.472ZM323.026 592.267L320.247 588.247L321.376 587.279L324.205 591.373L323.026 592.267ZM318.671 585.505V584.065H323.858V585.505H318.671ZM320.47 584.785V582.353H321.959V584.785H320.47ZM338.948 593.929V582.341H340.486V593.929H338.948ZM336.293 593.656V582.527H337.794V593.656H336.293ZM337.223 587.974V586.534H339.506V587.974H337.223ZM330.635 592.093V583.135H335.077V584.586H332.248V590.641H332.645C333.646 590.641 334.585 590.575 335.461 590.443L335.61 591.845C335.114 591.936 334.614 591.998 334.109 592.031C333.613 592.072 333.05 592.093 332.422 592.093H330.635ZM350.452 593.929V582.341H352.04V593.929H350.452ZM345.055 591.82V589.127H346.643V591.82H345.055ZM342.177 592.602L342.102 591.15H344.187C344.923 591.15 345.791 591.121 346.792 591.063C347.793 590.997 348.732 590.91 349.609 590.802L349.795 592.229C348.901 592.345 347.934 592.436 346.891 592.502C345.849 592.568 344.898 592.602 344.038 592.602H342.177ZM345.862 590.033C344.993 590.033 344.282 589.839 343.728 589.45C343.173 589.061 342.896 588.511 342.896 587.8V587.626C342.896 586.915 343.173 586.365 343.728 585.976C344.282 585.587 344.993 585.393 345.862 585.393C346.714 585.393 347.413 585.591 347.958 585.988C348.513 586.377 348.79 586.923 348.79 587.626V587.8C348.79 588.503 348.513 589.053 347.958 589.45C347.413 589.839 346.714 590.033 345.862 590.033ZM345.862 588.792C346.259 588.792 346.59 588.706 346.854 588.532C347.119 588.35 347.251 588.102 347.251 587.787V587.639C347.251 587.324 347.119 587.08 346.854 586.907C346.59 586.725 346.259 586.634 345.862 586.634C345.448 586.634 345.105 586.725 344.832 586.907C344.567 587.08 344.435 587.324 344.435 587.639V587.787C344.435 588.102 344.567 588.35 344.832 588.532C345.105 588.706 345.448 588.792 345.862 588.792ZM342.4 584.81V583.532H349.274V584.81H342.4ZM345.043 584.375V582.353H346.643V584.375H345.043ZM362.217 587.986V582.341H363.806V587.986H362.217ZM355.939 593.991V590.616H362.217V589.909H355.89V588.619H363.806V591.894H357.527V592.664H364.178V593.991H355.939ZM357.341 587.8C356.398 587.8 355.629 587.581 355.034 587.142C354.438 586.696 354.14 586.055 354.14 585.219V585.058C354.14 584.222 354.434 583.586 355.021 583.147C355.617 582.701 356.39 582.477 357.341 582.477C358.276 582.477 359.037 582.701 359.624 583.147C360.22 583.586 360.518 584.222 360.518 585.058V585.219C360.518 586.046 360.22 586.683 359.624 587.13C359.037 587.577 358.276 587.8 357.341 587.8ZM357.341 586.41C357.821 586.41 358.206 586.307 358.495 586.1C358.793 585.893 358.942 585.591 358.942 585.194V585.07C358.942 584.673 358.793 584.371 358.495 584.165C358.197 583.958 357.813 583.854 357.341 583.854C356.862 583.854 356.473 583.958 356.175 584.165C355.877 584.371 355.728 584.673 355.728 585.07V585.194C355.728 585.591 355.877 585.893 356.175 586.1C356.473 586.307 356.862 586.41 357.341 586.41ZM373.983 588.656V582.353H375.571V588.656H373.983ZM370.26 594.053C369.714 594.053 369.226 593.95 368.796 593.743C368.374 593.544 368.044 593.259 367.804 592.887C367.572 592.523 367.456 592.097 367.456 591.609C367.456 591.129 367.572 590.703 367.804 590.331C368.044 589.959 368.374 589.673 368.796 589.475C369.226 589.268 369.714 589.165 370.26 589.165H372.891C373.437 589.165 373.925 589.268 374.355 589.475C374.785 589.673 375.116 589.959 375.347 590.331C375.587 590.703 375.707 591.129 375.707 591.609C375.707 592.097 375.587 592.523 375.347 592.887C375.116 593.259 374.785 593.544 374.355 593.743C373.933 593.95 373.445 594.053 372.891 594.053H370.26ZM372.667 592.639C373.131 592.639 373.486 592.544 373.734 592.353C373.991 592.163 374.119 591.911 374.119 591.597C374.119 591.282 373.991 591.034 373.734 590.852C373.486 590.662 373.131 590.567 372.667 590.567H370.484C370.02 590.567 369.665 590.662 369.417 590.852C369.169 591.034 369.044 591.282 369.044 591.597C369.044 591.919 369.169 592.171 369.417 592.353C369.665 592.544 370.02 592.639 370.484 592.639H372.667ZM365.595 587.552C366.596 587.031 367.32 586.493 367.767 585.939C368.213 585.376 368.436 584.748 368.436 584.053V583.519H369.975V584.053C369.975 585.079 369.681 585.976 369.094 586.745C368.507 587.515 367.589 588.209 366.34 588.83L365.595 587.552ZM372.035 588.644L368.337 586.336L369.119 585.157L372.804 587.341L372.035 588.644ZM366.054 584.227V582.837H372.382V584.227H366.054ZM371.948 586.088V584.735H374.789V586.088H371.948Z" fill="#121212"/>
<rect x="249.754" y="565.115" width="184.897" height="45.4462" rx="9.33825" fill="white"/>
<path d="M305.766 593.879V582.366H307.006V593.879H305.766ZM306.572 587.825V586.696H308.793V587.825H306.572ZM297.999 592.018V583.209H303.594V592.018H297.999ZM299.24 590.877H302.354V584.351H299.24V590.877ZM317.531 593.879V582.366H318.772V593.879H317.531ZM318.337 587.825V586.696H320.558V587.825H318.337ZM309.826 592.242V587.118H313.945V584.326H309.826V583.209H315.173V588.209H311.067V591.125H312.159C312.804 591.125 313.49 591.096 314.218 591.038C314.954 590.98 315.666 590.898 316.352 590.79L316.501 591.857C315.848 591.981 315.128 592.076 314.342 592.142C313.556 592.209 312.754 592.242 311.935 592.242H309.826ZM326.12 589.76V587.477H327.348V589.76H326.12ZM321.318 590.17V589.09H332.137V590.17H321.318ZM322.757 593.879V590.989H323.998V592.763H330.996V593.879H322.757ZM322.757 587.874V582.614H330.698V583.643H323.998V586.845H330.934V587.874H322.757ZM323.34 585.728V584.71H330.698V585.728H323.34ZM344.971 593.879V582.366H346.174V593.879H344.971ZM342.328 593.644V582.539H343.494V593.644H342.328ZM342.973 587.825V586.696H345.43V587.825H342.973ZM336.571 592.006V583.209H340.889V584.351H337.812V590.877H338.321C339.363 590.877 340.401 590.798 341.435 590.641L341.559 591.745C341.029 591.845 340.492 591.915 339.946 591.956C339.408 591.989 338.809 592.006 338.147 592.006H336.571ZM356.513 593.879V582.366H357.753V593.879H356.513ZM351.115 591.832V589.252H352.344V591.832H351.115ZM348.063 592.453L348.001 591.324H350.086C350.814 591.324 351.686 591.29 352.704 591.224C353.721 591.158 354.668 591.071 355.545 590.964L355.681 592.068C354.829 592.192 353.882 592.287 352.84 592.353C351.798 592.42 350.842 592.453 349.974 592.453H348.063ZM351.736 589.971C350.9 589.971 350.21 589.781 349.664 589.4C349.126 589.012 348.857 588.47 348.857 587.775V587.589C348.857 586.902 349.126 586.369 349.664 585.988C350.21 585.6 350.9 585.405 351.736 585.405C352.563 585.405 353.245 585.6 353.783 585.988C354.329 586.369 354.602 586.902 354.602 587.589V587.775C354.602 588.462 354.329 588.999 353.783 589.388C353.245 589.777 352.563 589.971 351.736 589.971ZM351.736 588.979C352.207 588.979 352.6 588.871 352.914 588.656C353.229 588.433 353.386 588.135 353.386 587.763V587.601C353.386 587.229 353.229 586.936 352.914 586.72C352.6 586.505 352.207 586.398 351.736 586.398C351.248 586.398 350.847 586.505 350.532 586.72C350.218 586.936 350.061 587.229 350.061 587.601V587.763C350.061 588.135 350.218 588.433 350.532 588.656C350.847 588.871 351.248 588.979 351.736 588.979ZM348.324 584.71V583.681H355.123V584.71H348.324ZM351.103 584.301V582.378H352.344V584.301H351.103ZM371.331 587.986V582.366H372.56V587.986H371.331ZM364.954 593.942V590.778H371.331V589.735H364.892V588.706H372.56V591.795H366.195V592.887H372.994V593.942H364.954ZM366.232 587.725C365.322 587.725 364.578 587.51 363.999 587.08C363.428 586.65 363.143 586.034 363.143 585.232V585.045C363.143 584.243 363.428 583.627 363.999 583.197C364.578 582.767 365.322 582.552 366.232 582.552C367.134 582.552 367.87 582.767 368.44 583.197C369.019 583.627 369.309 584.243 369.309 585.045V585.232C369.309 586.034 369.019 586.65 368.44 587.08C367.87 587.51 367.134 587.725 366.232 587.725ZM366.232 586.634C366.778 586.634 367.22 586.51 367.56 586.261C367.899 586.013 368.068 585.662 368.068 585.207V585.07C368.068 584.615 367.899 584.264 367.56 584.016C367.22 583.768 366.778 583.643 366.232 583.643C365.678 583.643 365.231 583.768 364.892 584.016C364.553 584.264 364.383 584.615 364.383 585.07V585.207C364.383 585.662 364.553 586.013 364.892 586.261C365.231 586.51 365.678 586.634 366.232 586.634ZM383.084 588.644V582.366H384.325V588.644H383.084ZM379.213 594.004C378.667 594.004 378.183 593.9 377.761 593.693C377.348 593.495 377.029 593.214 376.806 592.85C376.583 592.494 376.471 592.085 376.471 591.621C376.471 591.166 376.583 590.761 376.806 590.405C377.029 590.041 377.348 589.76 377.761 589.562C378.183 589.355 378.667 589.252 379.213 589.252H381.719C382.273 589.252 382.757 589.355 383.171 589.562C383.584 589.76 383.903 590.041 384.126 590.405C384.358 590.761 384.474 591.166 384.474 591.621C384.474 592.085 384.358 592.494 384.126 592.85C383.903 593.214 383.584 593.495 383.171 593.693C382.757 593.9 382.273 594.004 381.719 594.004H379.213ZM381.533 592.887C382.087 592.887 382.509 592.771 382.799 592.539C383.088 592.308 383.233 592.002 383.233 591.621C383.233 591.241 383.088 590.935 382.799 590.703C382.509 590.472 382.087 590.356 381.533 590.356H379.411C378.857 590.356 378.431 590.472 378.134 590.703C377.844 590.935 377.699 591.241 377.699 591.621C377.699 592.002 377.844 592.308 378.134 592.539C378.431 592.771 378.857 592.887 379.411 592.887H381.533ZM374.585 587.775C375.594 587.204 376.334 586.621 376.806 586.026C377.286 585.43 377.526 584.756 377.526 584.003V583.445H378.729V584.003C378.729 584.996 378.44 585.877 377.861 586.646C377.282 587.407 376.384 588.114 375.168 588.768L374.585 587.775ZM381.074 588.582L377.377 586.15L378.009 585.232L381.694 587.564L381.074 588.582ZM375.044 584.016V582.911H381.248V584.016H375.044ZM380.838 585.926V584.859H383.717V585.926H380.838Z" fill="#FF4409"/>
<rect x="490.32" y="672.553" width="184.897" height="45.4462" rx="9.33825" fill="white"/>
<path d="M573.972 696.143V689.803H575.188V696.143H573.972ZM567.508 701.317V696.863H575.188V701.317H567.508ZM568.748 700.213H573.947V697.955H568.748V700.213ZM569.158 696.081L566.987 693.463L567.781 692.669L569.207 694.468C569.571 694.079 569.848 693.616 570.039 693.079C570.237 692.533 570.336 691.933 570.336 691.279V690.82H571.453V691.279C571.453 692.247 571.271 693.136 570.907 693.947C570.543 694.758 569.96 695.469 569.158 696.081ZM565.212 695.324C565.857 694.737 566.341 694.1 566.664 693.414C566.995 692.727 567.16 692.02 567.16 691.292V690.82H568.277V691.292C568.277 692.144 568.078 692.996 567.681 693.848C567.293 694.7 566.705 695.457 565.92 696.118L565.212 695.324ZM572.421 695.982L570.175 693.289L571.019 692.607L573.227 695.237L572.421 695.982ZM565.721 691.416V690.349H568.984V691.416H565.721ZM569.542 691.416V690.349H572.806V691.416H569.542ZM581.804 695.969V693.649H583.032V695.969H581.804ZM577.002 696.441V695.361H587.821V696.441H577.002ZM578.441 694.17V690.051H586.382V694.17H578.441ZM579.682 693.116H585.141V691.093H579.682V693.116ZM585.265 701.441V698.724H578.33V697.62H586.506V701.441H585.265ZM593.569 696.565V694.791H594.797V696.565H593.569ZM588.767 697.123V696.118H599.586V697.123H588.767ZM597.031 701.441V699.158H590.095V698.091H598.271V701.441H597.031ZM590.207 695.101V692.086H596.906V691.069H590.157V690.051H598.147V693.079H591.447V694.096H598.383V695.101H590.207Z" fill="#FF4409"/>
<rect x="490.32" y="565.115" width="184.897" height="45.4462" rx="9.33825" fill="white"/>
<path d="M563.781 589.673V582.366H564.947V589.673H563.781ZM561.188 588.619V582.49H562.342V588.619H561.188ZM561.758 586.125V585.021H564.215V586.125H561.758ZM556.374 592.912C557.631 592.498 558.615 592.031 559.327 591.51C560.038 590.98 560.394 590.41 560.394 589.797V589.252H561.647V589.797C561.647 590.699 561.217 591.51 560.356 592.229C559.504 592.949 558.322 593.54 556.808 594.004L556.374 592.912ZM565.046 593.942L560.381 591.869L560.791 590.765L565.543 592.837L565.046 593.942ZM555.232 588.259V582.862H556.324V587.18H558.806V582.862H559.922V588.259H555.232ZM555.791 585.554V584.462H559.364V585.554H555.791ZM575.285 593.879V582.366H576.526V593.879H575.285ZM566.786 591.485C567.465 590.782 568.023 590.095 568.461 589.425C568.908 588.755 569.243 588.048 569.466 587.304C569.698 586.559 569.814 585.753 569.814 584.884V583.929H571.03V584.884C571.03 586.282 570.753 587.581 570.198 588.78C569.644 589.971 568.801 591.15 567.667 592.316L566.786 591.485ZM573.176 592.192L569.553 587.887L570.434 587.068L574.082 591.373L573.176 592.192ZM567.246 584.4V583.271H573.623V584.4H567.246ZM578.328 590.852C578.328 590.397 578.432 590 578.638 589.661C578.845 589.322 579.11 589.036 579.432 588.805C579.755 588.573 580.169 588.325 580.673 588.06L581.964 587.378C582.543 587.064 582.973 586.749 583.254 586.435C583.543 586.121 583.688 585.765 583.688 585.368C583.688 584.963 583.539 584.636 583.241 584.388C582.952 584.14 582.559 584.016 582.063 584.016C581.55 584.016 581.145 584.14 580.847 584.388C580.557 584.636 580.413 584.963 580.413 585.368C580.413 585.608 580.471 585.84 580.586 586.063C580.702 586.286 580.851 586.505 581.033 586.72C581.215 586.936 581.488 587.229 581.852 587.601L582.063 587.812L587.348 593.209H585.785L581.008 588.333C580.967 588.292 580.93 588.255 580.897 588.222C580.863 588.18 580.826 588.139 580.785 588.098C580.38 587.692 580.073 587.37 579.867 587.13C579.668 586.882 579.507 586.613 579.383 586.323C579.259 586.026 579.197 585.691 579.197 585.318C579.197 584.872 579.317 584.471 579.557 584.115C579.805 583.759 580.144 583.482 580.574 583.284C581.012 583.077 581.509 582.973 582.063 582.973C582.609 582.973 583.093 583.077 583.514 583.284C583.945 583.482 584.28 583.759 584.519 584.115C584.759 584.471 584.879 584.872 584.879 585.318C584.879 585.955 584.685 586.501 584.296 586.956C583.907 587.411 583.378 587.812 582.708 588.16L581.418 588.83L581.232 588.929C580.851 589.136 580.541 589.326 580.301 589.5C580.061 589.673 579.871 589.864 579.73 590.07C579.598 590.269 579.532 590.496 579.532 590.753C579.532 591.216 579.722 591.597 580.102 591.894C580.491 592.184 581.078 592.329 581.864 592.329C582.782 592.329 583.548 591.956 584.16 591.212C584.772 590.467 585.223 589.347 585.512 587.85L586.678 588.122C586.339 589.942 585.768 591.274 584.966 592.118C584.164 592.97 583.13 593.396 581.864 593.396C581.103 593.396 580.458 593.284 579.929 593.061C579.399 592.846 578.998 592.548 578.725 592.167C578.461 591.787 578.328 591.348 578.328 590.852ZM596.332 593.879V582.366H597.56V593.879H596.332ZM588.255 592.018V583.209H593.962V592.018H588.255ZM589.496 590.877H592.734V584.351H589.496V590.877ZM608.097 590.989V582.366H609.325V590.989H608.097ZM605.839 584.996V583.991H608.73V584.996H605.839ZM605.839 587.341V586.336H608.73V587.341H605.839ZM601.72 593.879V590.269H602.948V592.75H609.809V593.879H601.72ZM599.598 588.482C600.574 587.796 601.29 587.068 601.745 586.299C602.208 585.521 602.439 584.661 602.439 583.718V582.8H603.655V583.718C603.655 584.876 603.382 585.918 602.836 586.845C602.291 587.771 601.447 588.631 600.305 589.425L599.598 588.482ZM605.74 589.252L602.328 586.348L603.097 585.48L606.472 588.333L605.74 589.252Z" fill="#FF4409"/>
<rect x="490.32" y="618.834" width="184.897" height="45.4462" rx="9.33825" fill="white"/>
<path d="M560.117 646.909V635.395H561.358V646.909H560.117ZM560.924 640.854V639.725H563.145V640.854H560.924ZM552.35 645.048V636.239H557.946V645.048H552.35ZM553.591 643.906H556.705V637.38H553.591V643.906ZM571.882 646.909V635.395H573.123V646.909H571.882ZM572.689 640.854V639.725H574.91V640.854H572.689ZM564.178 645.271V640.147H568.297V637.355H564.178V636.239H569.525V641.239H565.418V644.154H566.51C567.155 644.154 567.842 644.125 568.57 644.068C569.306 644.01 570.017 643.927 570.704 643.819L570.853 644.886C570.199 645.01 569.48 645.106 568.694 645.172C567.908 645.238 567.106 645.271 566.287 645.271H564.178ZM580.471 642.79V640.507H581.7V642.79H580.471ZM575.67 643.199V642.12H586.489V643.199H575.67ZM577.109 646.909V644.018H578.35V645.792H585.347V646.909H577.109ZM577.109 640.904V635.643H585.05V636.673H578.35V639.874H585.285V640.904H577.109ZM577.692 638.757V637.74H585.05V638.757H577.692ZM599.111 646.909V635.395H600.34V646.909H599.111ZM590.997 644.551C591.973 643.923 592.8 643.224 593.479 642.455C594.165 641.677 594.682 640.875 595.029 640.048C595.385 639.212 595.563 638.385 595.563 637.566V637.02L595.96 637.43H591.245V636.301H596.804V637.318C596.804 638.931 596.365 640.436 595.489 641.834C594.612 643.232 593.363 644.465 591.742 645.532L590.997 644.551ZM607.043 642.157V640.383H608.271V642.157H607.043ZM602.241 642.715V641.71H613.06V642.715H602.241ZM610.504 647.033V644.75H603.569V643.683H611.745V647.033H610.504ZM603.68 640.693V637.678H610.38V636.66H603.631V635.643H611.621V638.67H604.921V639.688H611.857V640.693H603.68Z" fill="#FF4409"/>
<rect x="726.055" y="505.148" width="189.878" height="46.6913" rx="9.33825" fill="#FF4409"/>
<path d="M799.466 535.965V531.615H801.584V533.997H810.732V535.965H799.466ZM797.613 530.126V528.207H812.171V530.126H797.613ZM803.271 529.133V526.321H805.388V529.133H803.271ZM799.317 525.709L799.234 523.988H800.442C801.611 523.988 803.061 523.944 804.793 523.856C806.524 523.768 807.903 523.657 808.929 523.525L809.144 525.229C808.14 525.383 806.762 525.505 805.008 525.593C803.265 525.67 801.666 525.709 800.211 525.709H799.317ZM807.82 527.429C807.953 526.591 808.057 525.703 808.135 524.766C808.223 523.828 808.267 523.106 808.267 522.599V521.887L809.028 522.566H799.317V520.812H810.401V521.953C810.401 522.725 810.351 523.641 810.252 524.7C810.164 525.747 810.048 526.734 809.905 527.661L807.82 527.429ZM824.996 532.094V520.514H826.998V532.094H824.996ZM821.72 531.615V520.68H823.656V531.615H821.72ZM820.182 525.709V523.905H822.498V525.709H820.182ZM816.212 535.965V531.3H818.329V534.046H827.544V535.965H816.212ZM813.697 530.225V521.259H819.768V523.145H815.748V528.322H816.724C817.916 528.322 819.145 528.223 820.414 528.025L820.629 529.861C820.033 529.982 819.399 530.076 818.726 530.142C818.053 530.197 817.259 530.225 816.344 530.225H813.697ZM814.64 526.602V524.766H819.653V526.602H814.64ZM828.987 534.874V532.955H843.545V534.874H828.987ZM829.748 528.802C831.623 528.03 833.012 527.242 833.917 526.437C834.821 525.631 835.273 524.848 835.273 524.087V523.343H837.374V524.087C837.374 525.334 836.823 526.519 835.72 527.644C834.628 528.769 832.952 529.784 830.691 530.688L829.748 528.802ZM841.742 530.688L835.19 527.115L836.117 525.279L842.784 528.852L841.742 530.688ZM830.691 524.319V522.4H841.857V524.319H830.691ZM835.273 523.062V520.663H837.374V523.062H835.273Z" fill="white"/>
<rect x="728.812" y="565.119" width="184.897" height="45.4462" rx="9.33825" fill="white"/>
<path d="M809.603 588.648V582.369H810.831V588.648H809.603ZM806.811 584.764V583.759H810.236V584.764H806.811ZM806.811 586.985V585.98H810.236V586.985H806.811ZM805.72 594.007C805.174 594.007 804.694 593.904 804.28 593.697C803.867 593.499 803.544 593.218 803.313 592.854C803.089 592.498 802.978 592.088 802.978 591.625C802.978 591.17 803.089 590.765 803.313 590.409C803.544 590.045 803.867 589.764 804.28 589.566C804.694 589.359 805.174 589.255 805.72 589.255H808.238C808.784 589.255 809.264 589.359 809.677 589.566C810.099 589.764 810.422 590.045 810.645 590.409C810.869 590.765 810.98 591.17 810.98 591.625C810.98 592.088 810.869 592.498 810.645 592.854C810.422 593.218 810.099 593.499 809.677 593.697C809.264 593.904 808.784 594.007 808.238 594.007H805.72ZM808.04 592.891C808.594 592.891 809.016 592.775 809.305 592.543C809.603 592.312 809.752 592.006 809.752 591.625C809.752 591.245 809.603 590.939 809.305 590.707C809.016 590.476 808.594 590.36 808.04 590.36H805.93C805.376 590.36 804.95 590.476 804.653 590.707C804.363 590.939 804.218 591.245 804.218 591.625C804.218 592.006 804.363 592.312 804.653 592.543C804.95 592.775 805.376 592.891 805.93 592.891H808.04ZM804.466 588.263C803.887 588.263 803.366 588.164 802.903 587.965C802.448 587.758 802.084 587.452 801.811 587.047C801.547 586.633 801.414 586.133 801.414 585.546V585.347C801.414 584.752 801.547 584.251 801.811 583.846C802.076 583.432 802.44 583.126 802.903 582.928C803.366 582.721 803.887 582.618 804.466 582.618C805.045 582.618 805.562 582.721 806.017 582.928C806.481 583.126 806.844 583.432 807.109 583.846C807.374 584.251 807.506 584.752 807.506 585.347V585.546C807.506 586.133 807.374 586.633 807.109 587.047C806.844 587.452 806.481 587.758 806.017 587.965C805.562 588.164 805.045 588.263 804.466 588.263ZM804.466 587.183C805.004 587.183 805.438 587.043 805.769 586.762C806.108 586.472 806.278 586.059 806.278 585.521V585.36C806.278 584.83 806.108 584.425 805.769 584.144C805.438 583.854 805.004 583.709 804.466 583.709C803.921 583.709 803.478 583.854 803.139 584.144C802.808 584.425 802.643 584.83 802.643 585.36V585.521C802.643 586.059 802.808 586.472 803.139 586.762C803.478 587.043 803.921 587.183 804.466 587.183ZM820.711 588.648V582.369H821.951V588.648H820.711ZM821.517 585.905V584.776H823.738V585.905H821.517ZM817.05 594.007C816.513 594.007 816.037 593.904 815.624 593.697C815.21 593.499 814.892 593.218 814.668 592.854C814.445 592.498 814.333 592.088 814.333 591.625C814.333 591.17 814.445 590.765 814.668 590.409C814.892 590.045 815.21 589.764 815.624 589.566C816.037 589.359 816.513 589.255 817.05 589.255H819.482C820.028 589.255 820.508 589.359 820.921 589.566C821.335 589.764 821.654 590.045 821.877 590.409C822.1 590.765 822.212 591.17 822.212 591.625C822.212 592.088 822.1 592.498 821.877 592.854C821.654 593.218 821.335 593.499 820.921 593.697C820.508 593.904 820.028 594.007 819.482 594.007H817.05ZM819.284 592.891C819.83 592.891 820.247 592.775 820.537 592.543C820.826 592.312 820.971 592.006 820.971 591.625C820.971 591.245 820.826 590.939 820.537 590.707C820.247 590.476 819.83 590.36 819.284 590.36H817.261C816.715 590.36 816.294 590.476 815.996 590.707C815.706 590.939 815.562 591.245 815.562 591.625C815.562 592.006 815.706 592.312 815.996 592.543C816.294 592.775 816.715 592.891 817.261 592.891H819.284ZM812.497 587.63C813.506 587.035 814.25 586.402 814.73 585.732C815.21 585.062 815.45 584.317 815.45 583.498V582.742H816.653V583.498C816.653 584.566 816.368 585.513 815.797 586.34C815.227 587.167 814.346 587.928 813.155 588.623L812.497 587.63ZM818.899 588.375L815.351 585.943L816.058 585.025L819.569 587.407L818.899 588.375ZM824.15 594.95L828.493 581.923H829.808L825.466 594.95H824.15ZM830.398 587.394V586.352H841.218V587.394H830.398ZM831.726 593.945V590.682H838.662V589.528H831.664V588.499H839.902V591.7H832.967V592.903H840.2V593.945H831.726ZM838.079 586.848C838.186 586.269 838.269 585.682 838.327 585.087C838.393 584.491 838.426 584.028 838.426 583.697V583.25L838.873 583.771H831.726V582.68H839.654V583.35C839.654 583.887 839.621 584.475 839.555 585.111C839.497 585.748 839.406 586.373 839.282 586.985L838.079 586.848Z" fill="#FF4409"/>
<rect x="964.547" y="505.148" width="189.878" height="46.6913" rx="9.33825" fill="#FF4409"/>
<path d="M1039.81 535.965V520.514H1041.92V535.965H1039.81ZM1028.97 532.673C1030.33 531.846 1031.47 530.925 1032.39 529.911C1033.33 528.896 1034.03 527.854 1034.48 526.784C1034.94 525.703 1035.17 524.639 1035.17 523.591V522.929L1035.8 523.591H1029.42V521.656H1037.31V523.178C1037.31 525.427 1036.7 527.495 1035.47 529.381C1034.26 531.267 1032.51 532.927 1030.23 534.361L1028.97 532.673ZM1029.2 528.339L1029.09 526.42H1029.37C1030.26 526.42 1031.31 526.392 1032.53 526.337C1033.74 526.271 1034.7 526.188 1035.41 526.089L1035.6 527.925C1034.88 528.036 1033.92 528.129 1032.74 528.207C1031.57 528.284 1030.51 528.328 1029.55 528.339H1029.2ZM1035.49 528.356V526.42H1040.88V528.356H1035.49ZM1047.7 536.147V530.308H1049.82V536.147H1047.7ZM1045.91 528.025V521.159H1057.08V528.025H1045.91ZM1048.02 526.188H1054.96V522.996H1048.02V526.188ZM1044.21 531.863V529.944H1058.77V531.863H1044.21ZM1053.18 536.147V530.308H1055.29V536.147H1053.18ZM1071.18 535.965V520.514H1073.3V535.965H1071.18ZM1060.82 533.517V521.573H1062.96V531.581H1064.13C1064.97 531.581 1065.86 531.543 1066.8 531.466C1067.73 531.377 1068.7 531.256 1069.69 531.102L1069.94 532.971C1068.96 533.148 1067.94 533.28 1066.89 533.368C1065.86 533.467 1064.82 533.517 1063.78 533.517H1060.82ZM1086.87 535.965V520.514H1088.98V535.965H1086.87ZM1076.34 533.831V521.573H1084.22V523.475H1078.45V531.929H1079.9C1080.75 531.929 1081.64 531.89 1082.58 531.813C1083.52 531.736 1084.45 531.626 1085.36 531.482L1085.63 533.302C1084.74 533.478 1083.78 533.611 1082.73 533.699C1081.69 533.787 1080.63 533.831 1079.54 533.831H1076.34ZM1077.29 528.538V526.685H1084.05V528.538H1077.29Z" fill="white"/>
<rect x="967.309" y="565.115" width="184.897" height="45.4462" rx="9.33825" fill="white"/>
<path d="M1038 588.892V582.366H1039.18V588.892H1038ZM1035.42 588.768V582.49H1036.56V588.768H1035.42ZM1036.04 586.001V584.897H1038.43V586.001H1036.04ZM1033.97 594.004C1033.41 594.004 1032.92 593.908 1032.5 593.718C1032.09 593.536 1031.77 593.272 1031.53 592.924C1031.31 592.585 1031.2 592.192 1031.2 591.745C1031.2 591.299 1031.31 590.906 1031.53 590.567C1031.77 590.228 1032.09 589.963 1032.5 589.773C1032.92 589.582 1033.41 589.487 1033.97 589.487H1036.56C1037.12 589.487 1037.61 589.582 1038.02 589.773C1038.44 589.963 1038.76 590.228 1038.98 590.567C1039.21 590.906 1039.33 591.299 1039.33 591.745C1039.33 592.192 1039.21 592.585 1038.99 592.924C1038.77 593.272 1038.45 593.536 1038.02 593.718C1037.61 593.908 1037.12 594.004 1036.56 594.004H1033.97ZM1036.36 592.899C1036.92 592.899 1037.35 592.792 1037.65 592.577C1037.95 592.37 1038.1 592.089 1038.1 591.733C1038.1 591.386 1037.95 591.109 1037.65 590.902C1037.35 590.695 1036.92 590.592 1036.36 590.592H1034.17C1033.6 590.592 1033.17 590.695 1032.87 590.902C1032.59 591.109 1032.44 591.386 1032.44 591.733C1032.44 592.089 1032.59 592.37 1032.87 592.577C1033.17 592.792 1033.6 592.899 1034.17 592.899H1036.36ZM1029.51 588.582V585.182H1032.81V583.991H1029.51V582.911H1033.97V586.224H1030.65V587.502H1031.47C1032.02 587.502 1032.53 587.486 1033 587.453C1033.47 587.411 1033.97 587.349 1034.51 587.266L1034.65 588.296C1034.14 588.395 1033.63 588.47 1033.11 588.52C1032.59 588.561 1031.97 588.582 1031.25 588.582H1029.51ZM1049.53 588.644V582.366H1050.76V588.644H1049.53ZM1045.64 594.004C1045.1 594.004 1044.62 593.9 1044.19 593.693C1043.78 593.495 1043.46 593.214 1043.24 592.85C1043.01 592.494 1042.9 592.085 1042.9 591.621C1042.9 591.166 1043.01 590.761 1043.24 590.405C1043.46 590.041 1043.78 589.76 1044.19 589.562C1044.62 589.355 1045.1 589.252 1045.64 589.252H1048.16C1048.71 589.252 1049.19 589.355 1049.6 589.562C1050.02 589.76 1050.35 590.041 1050.57 590.405C1050.79 590.761 1050.91 591.166 1050.91 591.621C1050.91 592.085 1050.79 592.494 1050.57 592.85C1050.35 593.214 1050.02 593.495 1049.6 593.693C1049.19 593.9 1048.71 594.004 1048.16 594.004H1045.64ZM1047.96 592.887C1048.52 592.887 1048.94 592.771 1049.23 592.539C1049.53 592.308 1049.68 592.002 1049.68 591.621C1049.68 591.241 1049.53 590.935 1049.23 590.703C1048.94 590.472 1048.52 590.356 1047.96 590.356H1045.86C1045.3 590.356 1044.88 590.472 1044.58 590.703C1044.29 590.935 1044.14 591.241 1044.14 591.621C1044.14 592.002 1044.29 592.308 1044.58 592.539C1044.88 592.771 1045.3 592.887 1045.86 592.887H1047.96ZM1041.41 587.912C1042.97 587.506 1044.16 586.956 1045 586.261C1045.84 585.558 1046.27 584.768 1046.27 583.892V583.47L1046.66 583.966H1041.64V582.911H1047.39V583.606C1047.39 584.897 1046.91 585.98 1045.95 586.857C1045 587.725 1043.61 588.412 1041.79 588.917L1041.41 587.912ZM1041.45 586.175L1041.4 585.194H1041.65C1042.32 585.194 1043.13 585.174 1044.08 585.132C1045.03 585.091 1045.78 585.037 1046.31 584.971L1046.41 585.877C1045.87 585.959 1045.13 586.03 1044.19 586.088C1043.27 586.146 1042.44 586.175 1041.72 586.175H1041.45ZM1064.32 593.879V582.366H1065.56V593.879H1064.32ZM1055.69 591.485C1056.74 590.426 1057.51 589.347 1057.99 588.247C1058.49 587.138 1058.74 585.902 1058.74 584.537V583.036H1059.94V584.537C1059.94 586.026 1059.67 587.407 1059.11 588.681C1058.57 589.946 1057.71 591.158 1056.56 592.316L1055.69 591.485ZM1062.08 592.192L1058.48 587.85L1059.38 587.068L1063.01 591.398L1062.08 592.192ZM1067.46 593.011V591.882H1078.28V593.011H1067.46ZM1068.02 588.482C1069.51 587.771 1070.6 587.039 1071.29 586.286C1071.97 585.525 1072.32 584.71 1072.32 583.842V582.961H1073.56V583.842C1073.56 584.95 1073.16 585.98 1072.35 586.931C1071.56 587.883 1070.31 588.755 1068.59 589.549L1068.02 588.482ZM1077.06 589.549L1072.22 586.274L1072.76 585.207L1077.73 588.52L1077.06 589.549ZM1088.1 588.83V582.366H1089.28V588.83H1088.1ZM1085.67 588.83V582.477H1086.81V588.83H1085.67ZM1081.6 593.879V589.549H1089.28V593.879H1081.6ZM1082.83 592.775H1088.04V590.641H1082.83V592.775ZM1084.32 585.864V584.797H1086.12V585.864H1084.32ZM1079.55 588.544V582.911H1083.98V583.991H1080.76V587.477H1081.52C1082.45 587.477 1083.48 587.395 1084.61 587.229L1084.75 588.259C1084.24 588.358 1083.71 588.433 1083.17 588.482C1082.64 588.524 1082.01 588.544 1081.29 588.544H1079.55ZM1080.09 586.212V585.157H1083.88V586.212H1080.09Z" fill="#FF4409"/>
<rect x="967.309" y="618.834" width="184.897" height="45.4462" rx="9.33825" fill="white"/>
<path d="M1040.83 647.033C1040.22 647.033 1039.69 646.938 1039.25 646.747C1038.81 646.557 1038.48 646.293 1038.25 645.953C1038.02 645.623 1037.91 645.242 1037.91 644.812C1037.91 644.39 1038.02 644.014 1038.25 643.683C1038.48 643.352 1038.81 643.091 1039.25 642.901C1039.69 642.711 1040.22 642.616 1040.83 642.616H1043.42C1044.03 642.616 1044.55 642.711 1044.99 642.901C1045.42 643.091 1045.75 643.352 1045.98 643.683C1046.21 644.014 1046.33 644.39 1046.33 644.812C1046.33 645.234 1046.21 645.614 1045.98 645.953C1045.75 646.293 1045.42 646.557 1044.99 646.747C1044.55 646.938 1044.03 647.033 1043.42 647.033H1040.83ZM1043.15 645.966C1043.79 645.966 1044.28 645.862 1044.6 645.656C1044.93 645.449 1045.1 645.168 1045.1 644.812C1045.1 644.456 1044.93 644.179 1044.6 643.981C1044.28 643.774 1043.79 643.67 1043.15 643.67H1041.1C1040.46 643.67 1039.97 643.774 1039.64 643.981C1039.32 644.179 1039.15 644.456 1039.15 644.812C1039.15 645.168 1039.32 645.449 1039.64 645.656C1039.97 645.862 1040.46 645.966 1041.1 645.966H1043.15ZM1036.71 641.462V640.37H1047.53V641.462H1036.71ZM1041.03 640.842V638.199H1042.26V640.842H1041.03ZM1044.48 639.576C1044.58 639.055 1044.65 638.53 1044.71 638C1044.77 637.463 1044.8 637.045 1044.8 636.747V636.363L1045.25 636.884H1038.1V635.767H1046.03V636.4C1046.03 636.888 1046 637.425 1045.94 638.013C1045.88 638.592 1045.8 639.158 1045.69 639.713L1044.48 639.576ZM1057.1 646.909V635.395H1058.34V646.909H1057.1ZM1048.6 644.514C1049.28 643.811 1049.84 643.125 1050.27 642.455C1050.72 641.785 1051.06 641.077 1051.28 640.333C1051.51 639.588 1051.63 638.782 1051.63 637.913V636.958H1052.84V637.913C1052.84 639.311 1052.57 640.61 1052.01 641.809C1051.46 643 1050.61 644.179 1049.48 645.345L1048.6 644.514ZM1054.99 645.221L1051.37 640.916L1052.25 640.097L1055.89 644.402L1054.99 645.221ZM1049.06 637.43V636.301H1055.44V637.43H1049.06ZM1068.22 646.909V635.395H1069.46V646.909H1068.22ZM1069.02 640.854V639.725H1071.23V640.854H1069.02ZM1059.95 644.527C1060.96 643.476 1061.7 642.397 1062.16 641.288C1062.63 640.172 1062.87 638.931 1062.87 637.566V636.065H1064.09V637.566C1064.09 639.055 1063.82 640.436 1063.29 641.71C1062.76 642.976 1061.94 644.187 1060.84 645.345L1059.95 644.527ZM1066.1 645.221L1062.63 640.879L1063.57 640.11L1067.03 644.44L1066.1 645.221ZM1079.98 642.07V635.395H1081.22V642.07H1079.98ZM1076.34 647.033C1075.79 647.033 1075.31 646.942 1074.9 646.76C1074.48 646.586 1074.16 646.334 1073.94 646.003C1073.72 645.672 1073.61 645.288 1073.61 644.849C1073.61 644.411 1073.72 644.03 1073.94 643.708C1074.16 643.377 1074.48 643.12 1074.9 642.938C1075.31 642.756 1075.79 642.665 1076.34 642.665H1078.77C1079.31 642.665 1079.79 642.756 1080.19 642.938C1080.61 643.12 1080.93 643.377 1081.15 643.708C1081.37 644.03 1081.48 644.411 1081.48 644.849C1081.48 645.288 1081.37 645.672 1081.15 646.003C1080.93 646.334 1080.61 646.586 1080.19 646.76C1079.79 646.942 1079.31 647.033 1078.77 647.033H1076.34ZM1078.57 645.929C1079.11 645.929 1079.53 645.829 1079.82 645.631C1080.11 645.441 1080.26 645.18 1080.26 644.849C1080.26 644.51 1080.11 644.245 1079.82 644.055C1079.53 643.857 1079.11 643.757 1078.57 643.757H1076.53C1075.98 643.757 1075.56 643.857 1075.27 644.055C1074.98 644.245 1074.83 644.51 1074.83 644.849C1074.83 645.18 1074.98 645.441 1075.27 645.631C1075.56 645.829 1075.98 645.929 1076.53 645.929H1078.57ZM1075.42 642.02C1074.58 642.02 1073.9 641.855 1073.36 641.524C1072.83 641.185 1072.56 640.705 1072.56 640.085V639.936C1072.56 639.324 1072.83 638.848 1073.36 638.509C1073.9 638.17 1074.58 638 1075.42 638C1076.24 638 1076.92 638.17 1077.45 638.509C1077.99 638.848 1078.26 639.324 1078.26 639.936V640.085C1078.26 640.705 1077.99 641.185 1077.45 641.524C1076.92 641.855 1076.24 642.02 1075.42 642.02ZM1075.42 641.003C1075.89 641.003 1076.28 640.92 1076.58 640.755C1076.9 640.581 1077.05 640.354 1077.05 640.072V639.961C1077.05 639.679 1076.9 639.452 1076.58 639.278C1076.28 639.105 1075.89 639.018 1075.42 639.018C1074.95 639.018 1074.55 639.105 1074.24 639.278C1073.93 639.444 1073.78 639.671 1073.78 639.961V640.072C1073.78 640.354 1073.93 640.581 1074.24 640.755C1074.54 640.92 1074.94 641.003 1075.42 641.003ZM1072.03 637.43V636.425H1078.77V637.43H1072.03ZM1074.77 637.045V635.258H1076.03V637.045H1074.77ZM1080.79 639.291V638.162H1083.01V639.291H1080.79Z" fill="#FF4409"/>
<rect x="967.309" y="672.553" width="184.897" height="45.4462" rx="9.33825" fill="white"/>
<path d="M1003.62 700.461V699.319H1014.44V700.461H1003.62ZM1004.89 695.275L1004.83 694.17H1005.75C1006.65 694.17 1007.76 694.141 1009.07 694.084C1010.39 694.017 1011.44 693.935 1012.25 693.835L1012.4 694.927C1011.61 695.035 1010.55 695.122 1009.21 695.188C1007.88 695.246 1006.68 695.275 1005.63 695.275H1004.89ZM1011.27 697.818C1011.45 696.859 1011.6 695.829 1011.71 694.729C1011.83 693.629 1011.89 692.748 1011.89 692.086V691.304L1012.33 691.825H1004.89V690.696H1013.13V691.751C1013.13 692.619 1013.07 693.62 1012.95 694.754C1012.84 695.878 1012.69 696.966 1012.5 698.017L1011.27 697.818ZM1016.72 695.969V692.644H1023.65V691.404H1016.65V690.349H1024.89V693.674H1017.96V694.94H1025.13V695.969H1016.72ZM1015.39 698.314V697.223H1026.21V698.314H1015.39ZM1020.19 701.453V697.545H1021.42V701.453H1020.19ZM1028.48 696.627V690.572H1036.66V696.627H1028.48ZM1029.72 695.51H1035.42V691.701H1029.72V695.51ZM1031.96 700.176V696.019H1033.18V700.176H1031.96ZM1027.15 700.461V699.319H1037.97V700.461H1027.15ZM1047.54 695.783V689.803H1048.78V695.783H1047.54ZM1041.16 701.317V696.391H1042.39V700.213H1047.54V696.391H1048.78V701.317H1041.16ZM1041.96 698.811V697.719H1048V698.811H1041.96ZM1039.04 695.002C1040.09 694.464 1040.85 693.91 1041.34 693.339C1041.83 692.768 1042.08 692.119 1042.08 691.391V690.87H1043.29V691.391C1043.29 692.367 1042.98 693.227 1042.38 693.972C1041.79 694.716 1040.86 695.399 1039.6 696.019L1039.04 695.002ZM1045.76 695.783L1041.93 693.451L1042.53 692.52L1046.33 694.741L1045.76 695.783ZM1039.5 691.441V690.349H1045.88V691.441H1039.5ZM1050.34 702.384L1054.68 689.356H1055.99L1051.65 702.384H1050.34ZM1064.56 701.317V689.803H1065.8V701.317H1064.56ZM1065.37 695.262V694.133H1067.58V695.262H1065.37ZM1056.36 698.935C1057.02 698.232 1057.55 697.545 1057.97 696.875C1058.4 696.205 1058.71 695.498 1058.93 694.754C1059.15 694.009 1059.26 693.203 1059.26 692.334V691.366H1060.47V692.334C1060.47 693.732 1060.2 695.026 1059.66 696.218C1059.13 697.409 1058.33 698.587 1057.24 699.754L1056.36 698.935ZM1062.49 699.63L1059 695.324L1059.92 694.518L1063.42 698.823L1062.49 699.63ZM1056.81 691.838V690.709H1062.96V691.838H1056.81ZM1071.1 701.441V697.173H1072.35V701.441H1071.1ZM1068.35 698.091V696.962H1079.17V698.091H1068.35ZM1075.19 701.441V697.173H1076.43V701.441H1075.19ZM1072.85 695.498C1072.19 695.498 1071.61 695.39 1071.1 695.175C1070.6 694.952 1070.21 694.638 1069.94 694.232C1069.67 693.827 1069.53 693.356 1069.53 692.818C1069.53 692.289 1069.67 691.825 1069.94 691.428C1070.21 691.031 1070.6 690.725 1071.1 690.51C1071.61 690.287 1072.19 690.175 1072.85 690.175H1074.67C1075.34 690.175 1075.92 690.287 1076.43 690.51C1076.93 690.725 1077.32 691.031 1077.59 691.428C1077.87 691.825 1078 692.289 1078 692.818C1078 693.356 1077.87 693.827 1077.59 694.232C1077.32 694.638 1076.93 694.952 1076.43 695.175C1075.92 695.39 1075.34 695.498 1074.67 695.498H1072.85ZM1074.45 694.419C1075.17 694.419 1075.74 694.274 1076.15 693.984C1076.57 693.695 1076.77 693.31 1076.77 692.83C1076.77 692.342 1076.57 691.958 1076.15 691.677C1075.74 691.395 1075.17 691.255 1074.45 691.255H1073.08C1072.35 691.255 1071.78 691.395 1071.38 691.677C1070.97 691.958 1070.77 692.342 1070.77 692.83C1070.77 693.318 1070.97 693.707 1071.38 693.997C1071.78 694.278 1072.35 694.419 1073.08 694.419H1074.45ZM1088.95 701.317V689.803H1090.17V701.317H1088.95ZM1086.46 701.081V689.977H1087.63V701.081H1086.46ZM1080.34 699.034C1081.45 698.025 1082.29 696.908 1082.88 695.684C1083.47 694.452 1083.76 693.215 1083.76 691.974V691.428L1084.16 691.838H1080.61V690.709H1084.97V691.726C1084.97 693.314 1084.65 694.791 1084.01 696.156C1083.37 697.52 1082.45 698.782 1081.23 699.94L1080.34 699.034ZM1083.97 695.498V694.369H1086.98V695.498H1083.97ZM1100.5 701.317V689.803H1101.74V701.317H1100.5ZM1091.87 698.922C1092.92 697.864 1093.69 696.784 1094.18 695.684C1094.67 694.576 1094.92 693.339 1094.92 691.974V690.473H1096.12V691.974C1096.12 693.463 1095.85 694.845 1095.29 696.118C1094.75 697.384 1093.89 698.596 1092.74 699.754L1091.87 698.922ZM1098.26 699.63L1094.66 695.287L1095.57 694.505L1099.19 698.836L1098.26 699.63ZM1111.62 698.426V689.803H1112.86V698.426H1111.62ZM1112.43 693.811V692.694H1114.65V693.811H1112.43ZM1105.48 701.317V697.831H1106.72V700.188H1113.46V701.317H1105.48ZM1103.57 696.59L1103.51 695.498H1105.41C1106.15 695.498 1107 695.465 1107.95 695.399C1108.91 695.324 1109.82 695.225 1110.68 695.101L1110.82 696.168C1109.98 696.309 1109.08 696.416 1108.1 696.491C1107.12 696.557 1106.19 696.59 1105.31 696.59H1103.57ZM1104.85 695.808V690.969H1106.05V695.808H1104.85ZM1107.94 695.759V690.969H1109.13V695.759H1107.94ZM1103.66 691.503V690.411H1110.31V691.503H1103.66Z" fill="#FF4409"/>
<path d="M344.492 485.535L1059.8 485.535" stroke="#FF4409" stroke-width="0.689293"/>
<rect x="608.188" y="194.967" width="184.897" height="45.4462" rx="9.33825" fill="#FFCEA1"/>
<path d="M680.22 223.042V211.528H681.435V223.042H680.22ZM677.738 222.806V211.701H678.904V222.806H677.738ZM671.708 221.18V212.371H676.311V221.18H671.708ZM672.85 220.039H675.157V213.513H672.85V220.039ZM675.778 217.098V215.969H678.247V217.098H675.778ZM691.786 220.151V211.528H693.027V220.151H691.786ZM685.409 223.042V219.307H686.649V221.913H693.511V223.042H685.409ZM686.687 218.265C686.099 218.265 685.57 218.149 685.099 217.917C684.635 217.686 684.267 217.338 683.994 216.875C683.73 216.412 683.597 215.845 683.597 215.175V214.94C683.597 214.261 683.73 213.691 683.994 213.227C684.267 212.756 684.635 212.409 685.099 212.185C685.57 211.954 686.099 211.838 686.687 211.838C687.266 211.838 687.787 211.954 688.25 212.185C688.722 212.409 689.09 212.756 689.354 213.227C689.627 213.691 689.764 214.261 689.764 214.94V215.175C689.764 215.845 689.627 216.412 689.354 216.875C689.09 217.338 688.722 217.686 688.25 217.917C687.787 218.149 687.266 218.265 686.687 218.265ZM686.687 217.173C687.224 217.173 687.663 216.999 688.002 216.652C688.349 216.304 688.523 215.804 688.523 215.151V214.952C688.523 214.299 688.349 213.798 688.002 213.451C687.663 213.103 687.224 212.93 686.687 212.93C686.141 212.93 685.694 213.103 685.347 213.451C685.008 213.798 684.838 214.299 684.838 214.952V215.151C684.838 215.804 685.008 216.304 685.347 216.652C685.694 216.999 686.141 217.173 686.687 217.173ZM703.539 223.042V211.528H704.78V223.042H703.539ZM698.415 221.54C697.505 221.54 696.764 221.226 696.194 220.597C695.631 219.96 695.35 218.989 695.35 217.682V215.932C695.35 214.625 695.631 213.658 696.194 213.029C696.764 212.392 697.505 212.074 698.415 212.074C699.316 212.074 700.048 212.392 700.611 213.029C701.173 213.658 701.454 214.625 701.454 215.932V217.682C701.454 218.989 701.173 219.96 700.611 220.597C700.048 221.226 699.316 221.54 698.415 221.54ZM698.415 220.411C698.961 220.411 699.399 220.192 699.73 219.754C700.061 219.307 700.226 218.612 700.226 217.669V215.945C700.226 214.993 700.061 214.299 699.73 213.86C699.399 213.422 698.961 213.203 698.415 213.203C697.86 213.203 697.418 213.422 697.087 213.86C696.756 214.299 696.591 214.993 696.591 215.945V217.669C696.591 218.612 696.756 219.307 697.087 219.754C697.426 220.192 697.869 220.411 698.415 220.411ZM715.316 223.042V211.528H716.545V223.042H715.316ZM707.239 221.18V212.371H712.947V221.18H707.239ZM708.48 220.039H711.718V213.513H708.48V220.039ZM727.069 223.042V211.528H728.31V223.042H727.069ZM718.57 220.647C719.248 219.944 719.807 219.257 720.245 218.587C720.692 217.917 721.027 217.21 721.25 216.466C721.482 215.721 721.597 214.915 721.597 214.046V213.091H722.813V214.046C722.813 215.444 722.536 216.743 721.982 217.942C721.428 219.133 720.584 220.312 719.451 221.478L718.57 220.647ZM724.96 221.354L721.337 217.049L722.218 216.23L725.865 220.535L724.96 221.354ZM719.029 213.562V212.433H725.406V213.562H719.029Z" fill="#FF4409"/>
<rect x="608.188" y="248.732" width="184.897" height="45.4462" rx="9.33825" fill="#FFCEA1"/>
<path d="M678.642 274.606V265.983H679.87V274.606H678.642ZM672.252 277.497V273.886H673.493V276.368H680.354V277.497H672.252ZM670.131 272.273C671.14 271.578 671.88 270.884 672.352 270.189C672.831 269.486 673.071 268.692 673.071 267.807V267.149H674.287V267.807C674.287 268.907 674.002 269.895 673.431 270.772C672.86 271.64 671.984 272.459 670.801 273.229L670.131 272.273ZM676.558 273.042L672.898 270.152L673.605 269.246L677.252 272.075L676.558 273.042ZM670.59 267.695V266.591H676.806V267.695H670.59ZM676.384 270.09V269.022H679.275V270.09H676.384ZM690.606 277.497V265.983H691.809V277.497H690.606ZM688.112 277.261V266.156H689.291V277.261H688.112ZM686.276 271.554V270.425H688.621V271.554H686.276ZM681.635 275.201C682.429 274.192 683.008 273.195 683.372 272.211C683.736 271.219 683.918 270.139 683.918 268.973V268.563H685.097V268.973C685.097 270.263 684.89 271.467 684.477 272.583C684.071 273.7 683.422 274.813 682.529 275.921L681.635 275.201ZM686.524 275.809L683.72 271.715L684.588 270.933L687.467 275.102L686.524 275.809ZM681.983 268.948V267.819H687.107V268.948H681.983ZM683.931 268.328V265.995H685.109V268.328H683.931ZM704.556 277.497V265.983H705.797V277.497H704.556ZM705.362 271.442V270.313H707.583V271.442H705.362ZM696.789 275.636V266.826H702.385V275.636H696.789ZM698.03 274.494H701.144V267.968H698.03V274.494ZM716.321 277.497V265.983H717.562V277.497H716.321ZM717.128 271.442V270.313H719.348V271.442H717.128ZM708.616 275.859V270.735H712.735V267.943H708.616V266.826H713.964V271.827H709.857V274.742H710.949C711.594 274.742 712.28 274.713 713.008 274.655C713.744 274.597 714.456 274.515 715.142 274.407L715.291 275.474C714.638 275.598 713.918 275.693 713.132 275.76C712.347 275.826 711.544 275.859 710.725 275.859H708.616ZM724.91 273.377V271.095H726.138V273.377H724.91ZM720.108 273.787V272.707H730.927V273.787H720.108ZM721.548 277.497V274.606H722.788V276.38H729.786V277.497H721.548ZM721.548 271.492V266.231H729.488V267.261H722.788V270.462H729.724V271.492H721.548ZM722.131 269.345V268.328H729.488V269.345H722.131Z" fill="#FF4409"/>
<rect x="608.188" y="302.402" width="184.897" height="45.4462" rx="9.33825" fill="#FFCEA1"/>
<path d="M671.781 330.477V318.963H673.022V330.477H671.781ZM672.588 324.422V323.293H674.809V324.422H672.588ZM664.014 328.616V319.807H669.61V328.616H664.014ZM665.255 327.475H668.369V320.948H665.255V327.475ZM683.546 330.477V318.963H684.787V330.477H683.546ZM684.353 324.422V323.293H686.574V324.422H684.353ZM675.842 328.839V323.715H679.961V320.924H675.842V319.807H681.189V324.807H677.082V327.723H678.174C678.819 327.723 679.506 327.694 680.234 327.636C680.97 327.578 681.681 327.495 682.368 327.388L682.517 328.455C681.863 328.579 681.144 328.674 680.358 328.74C679.572 328.806 678.77 328.839 677.951 328.839H675.842ZM692.135 326.358V324.075H693.364V326.358H692.135ZM687.334 326.767V325.688H698.153V326.767H687.334ZM688.773 330.477V327.586H690.014V329.36H697.011V330.477H688.773ZM688.773 324.472V319.211H696.714V320.241H690.014V323.442H696.949V324.472H688.773ZM689.356 322.326V321.308H696.714V322.326H689.356ZM703.468 325.787V319.732H711.644V325.787H703.468ZM704.708 324.671H710.403V320.861H704.708V324.671ZM706.942 329.336V325.179H708.17V329.336H706.942ZM702.14 329.621V328.48H712.959V329.621H702.14ZM713.905 325.316V324.249H724.724V325.316H713.905ZM715.245 330.477V326.47H723.409V330.477H715.245ZM716.473 329.435H722.168V327.512H716.473V329.435ZM718.409 323.231C717.408 323.231 716.618 323.058 716.039 322.71C715.46 322.354 715.171 321.833 715.171 321.147C715.171 320.469 715.46 319.956 716.039 319.608C716.618 319.261 717.408 319.087 718.409 319.087H720.233C721.234 319.087 722.02 319.261 722.59 319.608C723.169 319.956 723.459 320.469 723.459 321.147C723.459 321.833 723.169 322.354 722.59 322.71C722.02 323.058 721.234 323.231 720.233 323.231H718.409ZM720.01 322.214C720.721 322.214 721.267 322.123 721.647 321.941C722.036 321.759 722.23 321.498 722.23 321.159C722.23 320.82 722.04 320.564 721.66 320.39C721.279 320.208 720.729 320.117 720.01 320.117H718.632C717.913 320.117 717.363 320.208 716.982 320.39C716.602 320.564 716.411 320.82 716.411 321.159C716.411 321.498 716.602 321.759 716.982 321.941C717.371 322.123 717.921 322.214 718.632 322.214H720.01ZM734.293 324.943V318.963H735.534V324.943H734.293ZM727.916 330.477V325.551H729.144V329.373H734.293V325.551H735.534V330.477H727.916ZM728.71 327.971V326.879H734.752V327.971H728.71ZM725.794 324.162C726.837 323.624 727.602 323.07 728.09 322.499C728.586 321.929 728.834 321.279 728.834 320.551V320.03H730.038V320.551C730.038 321.527 729.736 322.388 729.132 323.132C728.536 323.876 727.61 324.559 726.353 325.179L725.794 324.162ZM732.507 324.943L728.685 322.611L729.281 321.68L733.077 323.901L732.507 324.943ZM726.253 320.601V319.509H732.631V320.601H726.253Z" fill="#FF4409"/>
<rect x="608.188" y="356.123" width="184.897" height="45.4462" rx="9.33825" fill="#FFCEA1"/>
<path d="M675.518 384.031V382.89H686.337V384.031H675.518ZM676.784 378.845L676.722 377.741H677.64C678.542 377.741 679.65 377.712 680.965 377.654C682.28 377.588 683.339 377.505 684.141 377.406L684.29 378.498C683.505 378.605 682.442 378.692 681.102 378.758C679.77 378.816 678.579 378.845 677.528 378.845H676.784ZM683.161 381.388C683.343 380.429 683.492 379.399 683.608 378.299C683.724 377.199 683.782 376.318 683.782 375.656V374.875L684.228 375.396H676.784V374.267H685.022V375.321C685.022 376.19 684.964 377.191 684.849 378.324C684.733 379.449 684.58 380.536 684.39 381.587L683.161 381.388ZM688.611 379.54V376.215H695.547V374.974H688.549V373.919H696.787V377.244H689.852V378.51H697.023V379.54H688.611ZM687.283 381.885V380.793H698.103V381.885H687.283ZM692.085 385.024V381.115H693.313V385.024H692.085ZM710.961 379.9V373.373H712.14V379.9H710.961ZM708.38 379.775V373.497H709.522V379.775H708.38ZM709.001 377.009V375.904H711.395V377.009H709.001ZM706.929 385.011C706.374 385.011 705.886 384.916 705.465 384.726C705.051 384.544 704.728 384.279 704.497 383.932C704.273 383.593 704.162 383.2 704.162 382.753C704.162 382.307 704.273 381.914 704.497 381.575C704.728 381.235 705.051 380.971 705.465 380.78C705.886 380.59 706.374 380.495 706.929 380.495H709.522C710.084 380.495 710.572 380.59 710.986 380.78C711.399 380.971 711.718 381.235 711.941 381.575C712.173 381.914 712.289 382.307 712.289 382.753C712.289 383.2 712.177 383.593 711.954 383.932C711.73 384.279 711.408 384.544 710.986 384.726C710.572 384.916 710.084 385.011 709.522 385.011H706.929ZM709.323 383.907C709.886 383.907 710.316 383.8 710.614 383.585C710.911 383.378 711.06 383.096 711.06 382.741C711.06 382.393 710.911 382.116 710.614 381.91C710.316 381.703 709.886 381.599 709.323 381.599H707.127C706.565 381.599 706.135 381.703 705.837 381.91C705.547 382.116 705.403 382.393 705.403 382.741C705.403 383.096 705.547 383.378 705.837 383.585C706.135 383.8 706.565 383.907 707.127 383.907H709.323ZM702.474 379.589V376.19H705.775V374.999H702.474V373.919H706.929V377.232H703.616V378.51H704.435C704.981 378.51 705.489 378.493 705.961 378.46C706.432 378.419 706.937 378.357 707.475 378.274L707.611 379.304C707.106 379.403 706.594 379.478 706.073 379.527C705.551 379.569 704.931 379.589 704.211 379.589H702.474ZM722.49 379.651V373.373H723.719V379.651H722.49ZM718.607 385.011C718.061 385.011 717.577 384.908 717.155 384.701C716.742 384.503 716.423 384.221 716.2 383.857C715.977 383.502 715.865 383.092 715.865 382.629C715.865 382.174 715.977 381.769 716.2 381.413C716.423 381.049 716.742 380.768 717.155 380.57C717.577 380.363 718.061 380.259 718.607 380.259H721.126C721.671 380.259 722.151 380.363 722.565 380.57C722.987 380.768 723.309 381.049 723.533 381.413C723.756 381.769 723.868 382.174 723.868 382.629C723.868 383.092 723.756 383.502 723.533 383.857C723.309 384.221 722.987 384.503 722.565 384.701C722.151 384.908 721.671 385.011 721.126 385.011H718.607ZM720.927 383.895C721.481 383.895 721.903 383.779 722.193 383.547C722.49 383.316 722.639 383.01 722.639 382.629C722.639 382.249 722.49 381.943 722.193 381.711C721.903 381.479 721.481 381.364 720.927 381.364H718.818C718.264 381.364 717.838 381.479 717.54 381.711C717.25 381.943 717.106 382.249 717.106 382.629C717.106 383.01 717.25 383.316 717.54 383.547C717.838 383.779 718.264 383.895 718.818 383.895H720.927ZM714.376 378.919C715.931 378.514 717.126 377.964 717.962 377.269C718.805 376.566 719.227 375.776 719.227 374.899V374.478L719.624 374.974H714.599V373.919H720.356V374.614C720.356 375.904 719.877 376.988 718.917 377.865C717.966 378.733 716.576 379.42 714.748 379.924L714.376 378.919ZM714.413 377.182L714.364 376.202H714.612C715.282 376.202 716.092 376.182 717.044 376.14C717.995 376.099 718.739 376.045 719.277 375.979L719.376 376.885C718.83 376.967 718.09 377.038 717.155 377.096C716.229 377.153 715.406 377.182 714.686 377.182H714.413Z" fill="#FF4409"/>
<rect x="608.188" y="409.842" width="184.897" height="45.4462" rx="9.33825" fill="#FFCEA1"/>
<path d="M689.304 435.492V434.375H700.123V435.492H689.304ZM694.105 438.743V434.71H695.333V438.743H694.105ZM690.445 428.717V427.638H698.981V428.717H690.445ZM690.445 432.849V431.77H698.981V432.849H690.445ZM692.244 432.266V428.072H693.448V432.266H692.244ZM695.979 432.266V428.072H697.182V432.266H695.979ZM707.806 432.663V431.534H710.337V432.663H707.806ZM709.704 438.606V427.092H710.932V438.606H709.704ZM701.689 436.968V427.936H707.347V429.052H702.93V435.852H704.046C704.716 435.852 705.424 435.823 706.168 435.765C706.921 435.699 707.64 435.612 708.327 435.504L708.476 436.571C707.831 436.695 707.099 436.79 706.28 436.857C705.469 436.931 704.654 436.968 703.835 436.968H701.689ZM702.235 432.936V431.844H707.223V432.936H702.235Z" fill="#FF4409"/>
<rect x="605.43" y="135" width="189.878" height="46.6913" rx="9.33825" fill="#FF4409"/>
<path d="M675.196 165.56V151.396H677.076V165.56H675.196ZM672.117 165.226V151.624H673.952V165.226H672.117ZM664.884 163.316V152.367H670.662V163.316H664.884ZM666.673 161.541H668.887V154.141H666.673V161.541ZM669.888 158.433V156.659H672.951V158.433H669.888ZM689.257 161.875V151.396H691.198V161.875H689.257ZM681.584 165.56V160.92H683.525V163.801H691.729V165.56H681.584ZM683.297 159.752C682.549 159.752 681.882 159.611 681.296 159.327C680.709 159.034 680.244 158.6 679.9 158.023C679.557 157.437 679.385 156.714 679.385 155.855V155.627C679.385 154.768 679.557 154.045 679.9 153.459C680.244 152.862 680.709 152.423 681.296 152.14C681.882 151.846 682.549 151.7 683.297 151.7C684.035 151.7 684.697 151.846 685.284 152.14C685.87 152.423 686.33 152.857 686.664 153.444C687.007 154.03 687.179 154.758 687.179 155.627V155.855C687.179 156.714 687.007 157.437 686.664 158.023C686.33 158.6 685.87 159.034 685.284 159.327C684.697 159.611 684.035 159.752 683.297 159.752ZM683.297 158.054C683.863 158.054 684.328 157.867 684.692 157.493C685.066 157.108 685.253 156.557 685.253 155.84V155.627C685.253 154.899 685.066 154.348 684.692 153.974C684.328 153.59 683.863 153.398 683.297 153.398C682.721 153.398 682.246 153.59 681.872 153.974C681.508 154.348 681.326 154.899 681.326 155.627V155.84C681.326 156.568 681.508 157.119 681.872 157.493C682.246 157.867 682.721 158.054 683.297 158.054ZM693.203 163.316L693.112 161.541H695.053C695.842 161.541 696.691 161.516 697.601 161.466C698.511 161.405 699.37 161.319 700.179 161.208L700.361 162.921C699.562 163.053 698.678 163.149 697.707 163.21C696.747 163.28 695.796 163.316 694.856 163.316H693.203ZM694.219 162.027V153.247H695.903V162.027H694.219ZM697.207 161.996V153.247H698.92V161.996H697.207ZM693.218 154.141V152.367H699.876V154.141H693.218ZM703.94 165.56V151.396H705.82V165.56H703.94ZM700.998 165.226V151.624H702.818V165.226H700.998ZM699.527 158.433V156.659H701.786V158.433H699.527ZM718.016 165.56V151.396H719.957V165.56H718.016ZM712.011 163.755C710.858 163.755 709.923 163.366 709.205 162.588C708.498 161.809 708.144 160.601 708.144 158.964V156.795C708.144 155.157 708.498 153.949 709.205 153.171C709.923 152.392 710.858 152.003 712.011 152.003C713.153 152.003 714.078 152.392 714.786 153.171C715.504 153.949 715.863 155.157 715.863 156.795V158.964C715.863 160.601 715.504 161.809 714.786 162.588C714.078 163.366 713.153 163.755 712.011 163.755ZM712.011 161.996C712.587 161.996 713.047 161.759 713.391 161.284C713.745 160.809 713.922 160.035 713.922 158.964V156.795C713.922 155.723 713.745 154.95 713.391 154.475C713.047 154 712.587 153.762 712.011 153.762C711.435 153.762 710.97 154.005 710.616 154.49C710.262 154.965 710.085 155.733 710.085 156.795V158.964C710.085 160.025 710.262 160.798 710.616 161.284C710.97 161.759 711.435 161.996 712.011 161.996ZM732.396 165.56V151.396H734.337V165.56H732.396ZM722.144 162.376C722.963 161.547 723.63 160.733 724.146 159.934C724.672 159.125 725.066 158.286 725.329 157.417C725.592 156.537 725.723 155.597 725.723 154.596V153.504H727.619V154.596C727.619 156.284 727.275 157.872 726.588 159.358C725.91 160.844 724.884 162.279 723.509 163.664L722.144 162.376ZM729.818 163.528L725.45 158.296L726.845 157.007L731.243 162.254L729.818 163.528ZM722.705 154.217V152.443H730.682V154.217H722.705Z" fill="white"/>
</svg>
