<svg width="1400" height="861" viewBox="0 0 1400 861" fill="none" xmlns="http://www.w3.org/2000/svg">
<rect width="1400" height="861" fill="#FAF1E7"/>
<path d="M395.486 425H339.703L326.637 308.409H323.873L309.801 425H254.018L237.183 234.786H277.136L285.679 364.192H288.443L305.781 234.786H345.482L363.071 364.192H365.835L374.127 234.786H411.818L395.486 425ZM513.991 425H473.284L470.018 381.027H450.921L447.906 425H408.204L428.557 234.786H494.894L513.991 425ZM468.259 342.582L461.726 274.487H458.962L452.68 342.582H468.259ZM585.66 425H543.195V355.648L508.519 236.042V234.786H549.226C560.031 282.277 561.287 288.307 562.795 296.348H565.307C566.815 288.307 568.071 282.277 579.379 234.786H618.829V236.042L585.66 355.146V425ZM931.974 425H890.012C888.002 418.718 887.248 414.949 882.222 370.976C880.463 353.387 878.202 350.874 873.176 350.874H867.146V425H827.696V234.786H885.238C919.411 234.786 928.205 249.36 928.205 286.046C928.205 325.244 922.677 328.008 911.873 334.29V335.798C913.883 337.557 916.144 339.064 917.903 343.587C920.667 349.618 923.431 360.925 926.195 383.037C929.964 413.944 930.216 418.216 931.974 423.744V425ZM867.146 315.445H878.202C885.489 315.445 888.253 310.419 888.253 292.83C888.253 277.754 884.986 273.984 877.197 273.984H867.146V315.445ZM1003.12 366.453V234.786H1042.32V366.453C1041.56 397.862 1038.55 405.903 1033.27 414.447C1026.74 425 1015.43 428.267 991.306 428.267C966.933 428.267 955.626 425 949.093 414.447C943.564 405.903 939.795 397.862 939.795 366.453V234.786H980.25V366.453C980.25 384.294 982.009 385.801 991.809 385.801C1001.61 385.801 1003.12 384.294 1003.12 366.453ZM1160.39 425H1139.79L1094.81 322.983H1093.3V425H1057.37V234.786H1096.07L1122.7 300.871H1124.21V234.786H1160.39V425ZM340.688 648H304.505V533.922H302.997L274.101 648H256.763L227.615 533.922H226.107V648H190.175V457.786H245.958L263.547 540.455H265.306L284.905 457.786H340.437L340.688 648ZM441.219 648H357.294V457.786H441.471V497.99H396.744V531.409H440.717V569.854H396.744V605.786H441.219V648ZM557.669 648H516.963L513.696 604.027H494.599L491.584 648H451.883L472.236 457.786H538.572L557.669 648ZM511.937 565.582L505.404 497.487H502.64L496.358 565.582H511.937ZM921.142 648H900.538L855.56 545.983H854.052V648H818.12V457.786H856.816L883.451 523.871H884.959V457.786H921.142V648ZM978.586 648H938.131V457.786H978.586V648ZM1099.05 648H1078.44L1033.46 545.983H1031.96V648H996.024V457.786H1034.72L1061.35 523.871H1062.86V457.786H1099.05V648ZM1178.85 583.423V574.377H1160.51V536.183H1214.28C1214.53 542.716 1214.79 556.034 1214.79 573.623C1214.79 615.334 1211.77 625.637 1205.99 635.688C1199.46 647.497 1188.15 651.267 1164.03 651.267C1139.65 651.267 1128.35 647.497 1121.81 635.688C1115.28 624.129 1112.52 612.57 1112.52 551.26C1112.52 492.462 1115.28 481.154 1121.81 469.596C1128.35 458.288 1140.16 454.519 1164.03 454.519C1191.67 454.519 1204.73 461.052 1210.26 478.139C1212.52 485.426 1213.53 494.723 1213.53 506.03C1213.53 510.805 1213.53 512.563 1213.28 515.83H1176.59C1176.84 514.825 1176.84 513.569 1176.84 512.563C1176.84 504.271 1176.09 500.754 1175.34 498.241C1174.58 494.974 1171.06 493.467 1163.78 493.467C1156.99 493.467 1154.23 494.974 1152.97 498.241C1151.46 503.266 1150.71 509.548 1150.71 550.757C1150.71 594.227 1151.21 599.253 1152.72 603.776C1154.23 607.796 1158.25 609.304 1164.78 609.304C1171.31 609.304 1174.08 607.796 1176.09 604.53C1178.35 601.012 1178.85 598.499 1178.85 583.423Z" fill="#FF4409"/>
<path d="M549.272 308.285C534.206 279.766 528.581 247.138 527.043 214.93C515.612 214.94 504.18 214.962 492.706 214.983C481.21 216.489 496.416 283.132 498.47 291.111C508.912 331.471 536.12 370.283 573.178 390.403C581.319 394.823 649.123 417.364 652.683 403.555C658.35 381.617 654.425 379.768 633.218 372.476C624.486 369.476 615.205 367.96 606.72 364.271C581.889 353.506 561.747 331.934 549.25 308.296L549.272 308.285Z" fill="#FAF1E7"/>
<path d="M554.842 305.038C553.347 302.199 551.938 299.328 550.616 296.413C550.358 295.833 550.089 295.241 549.831 294.66C549.669 294.295 549.508 293.929 549.358 293.563L549.261 293.348C548.981 292.692 549.013 292.757 549.347 293.563C549.142 293.52 548.594 291.735 548.529 291.563C548.207 290.746 547.884 289.929 547.562 289.111C545.325 283.293 543.4 277.346 541.765 271.335C540.131 265.323 538.786 259.344 537.668 253.268C537.098 250.182 536.592 247.085 536.141 243.977C536.033 243.256 535.936 242.546 535.84 241.826C535.786 241.428 535.571 240.277 535.84 241.869C535.786 241.557 535.754 241.224 535.711 240.912C535.506 239.309 535.313 237.718 535.141 236.115C534.356 229.082 533.829 222.017 533.485 214.951C533.312 211.467 530.667 208.499 527.032 208.499C520.064 208.499 513.095 208.521 506.126 208.531C502.642 208.531 499.147 208.531 495.663 208.542C493.103 208.542 490.716 208.456 488.447 209.757C483.392 212.65 482.435 219.156 482.102 224.404C481.715 230.556 482.317 236.782 483.027 242.88C483.93 250.612 485.145 258.312 486.554 265.979C488.522 276.69 490.587 287.509 493.673 297.973C500.039 319.545 510.675 339.645 524.602 357.27C531.355 365.809 538.958 373.67 547.368 380.596C551.799 384.242 556.412 387.683 561.219 390.812C564.359 392.855 567.596 394.942 570.995 396.523C575.49 398.609 580.189 400.254 584.878 401.846C591.309 404.04 597.815 406.029 604.375 407.836C611.355 409.75 618.398 411.471 625.528 412.718C631.712 413.804 638.218 414.858 644.52 414.342C650.402 413.858 656.758 411.933 658.791 405.696C660.146 401.545 660.888 396.996 661.329 392.673C661.662 389.468 661.565 385.962 660.393 382.93C658.941 379.144 656.554 376.38 653.263 374.047C650.263 371.917 646.692 370.573 643.294 369.261C638.53 367.433 633.691 365.766 628.787 364.379C622.582 362.637 616.28 361.206 610.268 358.83C609.967 358.711 609.645 358.604 609.354 358.464C610.774 359.152 609.483 358.507 609.204 358.389C608.688 358.163 608.171 357.926 607.666 357.69C606.322 357.066 604.999 356.41 603.687 355.722C601.246 354.442 598.858 353.066 596.525 351.592C594.191 350.119 592.03 348.624 589.857 347.022C589.545 346.796 587.642 345.269 589.126 346.484C588.631 346.075 588.115 345.699 587.62 345.29C586.459 344.355 585.308 343.398 584.179 342.408C580.028 338.806 576.124 334.913 572.489 330.794C571.586 329.772 570.704 328.751 569.833 327.708C568.962 326.664 567.79 325.557 567.145 324.374C567.779 325.546 567.639 325.03 567.371 324.664C567.155 324.385 566.94 324.094 566.725 323.815C566.338 323.298 565.962 322.793 565.575 322.266C564.736 321.115 563.918 319.954 563.112 318.782C560.09 314.373 557.326 309.781 554.821 305.06C553.24 302.07 548.841 300.908 545.992 302.747C542.959 304.705 541.98 308.383 543.679 311.576C554.122 331.256 569.123 348.807 587.685 361.228C592.083 364.174 596.707 366.788 601.525 369.003C607.515 371.767 613.72 373.681 620.076 375.391C625.582 376.864 630.991 378.499 636.368 380.413C638.229 381.08 640.079 381.768 641.907 382.51C642.789 382.865 641.122 382.166 641.132 382.187C641.261 382.317 641.584 382.381 641.745 382.456C642.1 382.618 642.455 382.779 642.799 382.94C643.52 383.284 644.23 383.639 644.929 384.037C645.488 384.36 646.047 384.693 646.585 385.07C646.692 385.145 646.811 385.231 646.918 385.306C647.703 385.822 645.628 384.252 646.165 384.715C646.434 384.941 646.714 385.166 646.972 385.403C647.327 385.726 647.692 386.371 648.101 386.607C647.757 386.403 647.004 385.027 647.617 386.016C647.8 386.317 647.994 386.607 648.155 386.93C648.262 387.134 648.348 387.36 648.467 387.575C647.37 385.564 647.983 386.382 648.198 387.048C648.381 387.629 648.488 388.221 648.607 388.812C648.768 389.533 648.402 386.833 648.467 387.801C648.467 387.941 648.499 388.081 648.51 388.21C648.542 388.565 648.564 388.93 648.564 389.285C648.585 390.027 648.563 390.78 648.51 391.522C648.488 391.909 648.445 392.286 648.413 392.673C648.391 392.845 648.37 393.028 648.359 393.2C648.262 394.307 648.596 391.63 648.467 392.447C648.305 393.436 648.155 394.426 647.961 395.415C647.542 397.587 646.961 399.717 646.466 401.867C646.466 401.9 646.316 402.373 646.305 402.373C646.273 402.362 647.219 400.351 646.703 401.34C646.628 401.48 646.509 401.599 646.445 401.728C647.262 399.953 647.617 400.383 647.047 400.9C646.961 400.975 646.692 401.158 646.649 401.265C646.714 401.125 648.37 400.104 647.499 400.588C647.144 400.781 646.789 400.975 646.434 401.168C648.617 399.942 647.531 400.738 646.714 400.986C646.241 401.125 645.757 401.244 645.273 401.34C645.036 401.383 644.8 401.426 644.563 401.459C643.498 401.652 646.585 401.233 645.37 401.351C644.778 401.405 644.187 401.469 643.595 401.502C640.939 401.642 638.272 401.491 635.626 401.233C634.917 401.168 634.207 401.082 633.497 400.996C633.164 400.953 631.755 400.77 633.142 400.953C634.529 401.136 632.83 400.91 632.518 400.857C630.927 400.62 629.346 400.362 627.765 400.071C624.313 399.437 620.883 398.695 617.463 397.888C605.063 394.942 592.75 391.275 580.835 386.747C579.91 386.392 578.985 386.027 578.06 385.65C576.565 385.037 579.77 386.392 578.404 385.801C578.082 385.661 577.77 385.521 577.447 385.371C574.124 383.822 570.962 381.779 567.887 379.789C565.682 378.359 563.521 376.875 561.402 375.316C560.843 374.907 560.284 374.498 559.735 374.079C559.52 373.918 559.294 373.735 559.079 373.573C560.38 374.498 559.681 374.047 559.402 373.821C558.316 372.961 557.229 372.1 556.154 371.218C552.078 367.842 548.196 364.25 544.507 360.454C540.819 356.657 537.291 352.646 533.979 348.484C533.807 348.269 533.635 348.043 533.463 347.828C533.377 347.721 532.484 346.667 533.194 347.484C533.904 348.302 533.011 347.248 532.925 347.14C532.753 346.914 532.581 346.688 532.42 346.473C531.57 345.355 530.742 344.226 529.936 343.086C528.387 340.914 526.892 338.709 525.44 336.472C522.591 332.063 519.956 327.514 517.526 322.847C516.3 320.492 515.127 318.115 514.02 315.706C513.493 314.566 512.977 313.426 512.482 312.275C512.31 311.867 511.514 309.92 512.235 311.706C511.976 311.06 511.697 310.426 511.439 309.781C506.664 298.005 503.674 285.842 501.115 273.432C499.749 266.786 498.491 260.118 497.415 253.419C497.125 251.644 496.856 249.87 496.598 248.085C496.48 247.246 496.362 246.407 496.243 245.579C496.587 248.052 496.329 246.17 496.254 245.633C496.2 245.17 496.136 244.719 496.082 244.256C495.673 240.944 495.329 237.621 495.114 234.298C494.931 231.437 494.824 228.566 494.931 225.705C494.974 224.587 495.318 223.254 495.2 222.146C495.232 222.469 494.888 224.189 495.093 223.028C495.136 222.759 495.179 222.501 495.232 222.232C495.318 221.77 495.426 221.307 495.555 220.855C495.663 220.468 495.802 220.092 495.931 219.716C496.233 218.823 495.05 221.522 495.544 220.64C495.641 220.458 495.727 220.264 495.835 220.092C495.91 219.963 496.039 219.823 496.093 219.694C496.286 219.242 494.792 221.296 495.426 220.576C495.512 220.479 495.663 220.393 495.727 220.275C495.921 219.995 494.049 221.436 494.856 220.963C495.749 220.447 493.372 221.554 493.791 221.382C493.92 221.329 494.05 221.307 494.179 221.275C494.781 221.103 493.329 221.952 493.221 221.468C493.221 221.49 494.383 221.468 494.297 221.468C495.189 221.468 496.093 221.468 496.985 221.468C500.384 221.468 503.782 221.468 507.18 221.458C513.794 221.458 520.408 221.436 527.021 221.425L520.569 214.973C521.806 240.643 525.441 266.592 534.431 290.778C537.076 297.897 540.141 304.866 543.679 311.587C545.249 314.577 549.669 315.728 552.508 313.899C555.552 311.942 556.509 308.275 554.821 305.07L554.842 305.038Z" fill="#FA4008"/>
<path d="M849.285 501.729C864.061 529.7 867.448 559.123 871.75 589.944C871.986 591.676 872.352 593.611 873.793 594.601C874.858 595.332 876.256 595.343 877.546 595.321C887.117 595.171 896.688 595.02 906.26 594.87C908.765 526.969 889.924 454.712 825.357 419.633C817.227 415.213 749.412 392.672 745.842 406.48C740.174 428.419 744.099 430.268 765.306 437.56C774.039 440.56 783.319 442.076 791.804 445.765C816.635 456.53 836.778 478.102 849.274 501.74L849.285 501.729Z" fill="#FAF1E7"/>
<path d="M843.713 504.988C844.746 506.945 845.735 508.935 846.681 510.946C847.101 511.827 847.498 512.709 847.896 513.602C848.122 514.118 848.348 514.634 848.574 515.161C848.638 515.301 848.95 516.064 848.628 515.279C848.305 514.494 848.703 515.473 848.768 515.624C850.381 519.527 851.832 523.506 853.134 527.517C855.715 535.475 857.693 543.616 859.328 551.811C860.973 560.081 862.253 568.415 863.447 576.76C864.049 580.997 864.63 585.245 865.221 589.482C865.555 591.848 865.845 593.967 866.888 596.15C868.146 598.795 870.803 600.839 873.652 601.419C876.481 602 879.46 601.731 882.331 601.688C884.987 601.645 887.654 601.602 890.31 601.559C895.634 601.473 900.946 601.387 906.269 601.312C909.85 601.258 912.593 598.397 912.722 594.859C913.356 577.481 912.517 560.113 910.109 542.896C907.786 526.345 903.817 509.978 897.677 494.427C891.536 478.877 882.793 463.122 871.77 449.626C860.683 436.054 846.993 424.58 831.819 415.837C823.786 411.213 814.742 408.427 805.945 405.674C794.18 401.986 782.168 398.684 769.973 396.834C764.692 396.039 759.219 395.254 753.874 395.738C748.927 396.178 743.55 397.501 740.797 402.082C740.012 403.394 739.635 404.825 739.27 406.276C738.797 408.169 738.367 410.073 738.012 411.987C737.42 415.202 736.861 418.568 737.141 421.848C737.409 424.967 738.109 428.064 739.904 430.699C741.7 433.334 744.012 435.334 746.722 436.936C749.712 438.711 753.024 439.969 756.272 441.184C760.402 442.733 764.574 444.184 768.811 445.41C774.21 446.97 779.705 448.228 785.028 450.035C786.276 450.454 787.512 450.927 788.738 451.411C789.05 451.54 789.868 451.723 788.566 451.336C788.825 451.411 789.104 451.573 789.341 451.68C789.921 451.938 790.502 452.196 791.072 452.476C793.18 453.465 795.255 454.53 797.288 455.67C801.493 458.025 805.526 460.67 809.365 463.563C809.591 463.735 809.816 463.918 810.042 464.079C809.913 463.993 808.87 463.165 809.752 463.854C810.193 464.208 810.644 464.563 811.085 464.918C812.032 465.682 812.957 466.456 813.871 467.241C815.656 468.779 817.398 470.36 819.086 471.994C822.581 475.371 825.883 478.952 828.969 482.695C829.701 483.576 830.41 484.469 831.12 485.362C831.346 485.641 831.916 486.233 830.894 485.071C831.077 485.286 831.249 485.534 831.41 485.749C831.798 486.254 832.185 486.77 832.561 487.287C833.991 489.233 835.379 491.212 836.712 493.223C839.229 497.03 841.562 500.966 843.702 505.009C845.283 507.999 849.682 509.16 852.531 507.321C855.564 505.364 856.543 501.686 854.844 498.492C845.95 481.716 833.701 466.306 818.689 454.594C810.644 448.314 802.063 443.045 792.61 439.162C787.556 437.087 782.275 435.71 777.006 434.291C772.21 433 767.488 431.538 762.81 429.882C761.187 429.312 759.563 428.72 757.96 428.086C757.595 427.946 757.24 427.795 756.885 427.656C755.476 427.075 758.057 428.182 757.154 427.763C756.487 427.462 755.82 427.172 755.164 426.849C754.057 426.301 752.971 425.698 751.949 424.989C751.454 424.644 750.744 423.913 752.444 425.397C752.25 425.225 752.046 425.075 751.841 424.902C751.443 424.558 751.089 424.171 750.723 423.795C749.906 422.934 751.293 424.322 751.218 424.472C751.239 424.419 750.852 423.956 750.809 423.892C750.691 423.698 750.207 422.526 750.056 422.494C750.282 422.547 750.788 424.386 750.379 423.193C750.314 422.988 750.25 422.784 750.196 422.569C750.131 422.322 750.067 422.074 750.024 421.827C750.002 421.698 749.981 421.569 749.949 421.44C749.734 420.515 750.099 422.408 750.078 422.461C750.228 422.149 749.959 421.128 749.959 420.762C749.938 420.095 749.959 419.439 750.002 418.773C750.046 418.106 750.121 417.396 750.196 416.708C750.271 415.944 749.959 418.364 750.078 417.601C750.11 417.407 750.131 417.224 750.164 417.031C750.228 416.59 750.304 416.149 750.379 415.708C750.701 413.869 751.11 412.051 751.562 410.234C751.745 409.481 751.97 408.728 752.143 407.976C752.347 407.051 751.809 408.954 751.68 409.03C751.766 408.976 751.874 408.664 751.927 408.578C752.508 407.578 750.508 410.04 751.508 409.148C751.594 409.062 751.702 408.976 751.788 408.89C752.261 408.352 750.174 409.965 750.97 409.524C751.25 409.374 751.519 409.202 751.788 409.04C752.669 408.535 751.024 409.417 750.82 409.427C750.992 409.427 751.218 409.277 751.379 409.212C752.153 408.943 752.949 408.782 753.745 408.632C754.928 408.406 753.003 408.879 752.842 408.739C752.906 408.793 753.411 408.675 753.519 408.664C754.024 408.61 754.53 408.578 755.035 408.546C757.283 408.438 759.531 408.535 761.767 408.718C763.101 408.825 764.434 408.986 765.768 409.148C766.725 409.266 763.854 408.879 765.155 409.062C765.488 409.105 765.822 409.159 766.155 409.202C766.875 409.309 767.596 409.417 768.317 409.546C771.263 410.03 774.188 410.61 777.103 411.256C783.157 412.578 789.158 414.159 795.105 415.88C800.482 417.439 805.827 419.117 811.118 420.934C813.215 421.655 815.312 422.408 817.387 423.193C818.226 423.504 819.054 423.827 819.893 424.171C820.216 424.3 820.549 424.44 820.871 424.569C821.495 424.827 818.968 423.752 819.925 424.171C820.108 424.246 820.291 424.332 820.474 424.408C822.635 425.365 824.668 426.591 826.7 427.795C830.389 429.978 833.981 432.312 837.454 434.818C838.293 435.42 839.132 436.033 839.96 436.657C840.315 436.925 840.68 437.205 841.035 437.474C839.433 436.28 841.164 437.582 841.552 437.893C843.143 439.162 844.713 440.464 846.251 441.808C849.381 444.529 852.381 447.4 855.252 450.39C858.081 453.347 860.78 456.423 863.35 459.606C863.662 459.993 863.963 460.38 864.275 460.767C864.425 460.961 864.576 461.154 864.726 461.348C864.673 461.273 863.759 460.079 864.393 460.918C865.028 461.757 865.651 462.585 866.275 463.434C867.469 465.069 868.63 466.725 869.759 468.413C874.233 475.092 878.169 482.125 881.578 489.394C882.438 491.233 883.266 493.083 884.062 494.954C884.224 495.32 884.471 496.083 883.847 494.438C883.933 494.664 884.041 494.89 884.127 495.116C884.32 495.567 884.503 496.03 884.686 496.481C885.052 497.395 885.417 498.31 885.772 499.234C887.245 503.041 888.579 506.902 889.805 510.806C892.268 518.667 894.236 526.689 895.773 534.787C896.537 538.809 897.193 542.842 897.752 546.896C897.967 548.488 897.569 545.466 897.774 547.058C897.838 547.563 897.903 548.058 897.967 548.563C898.096 549.628 898.225 550.692 898.344 551.757C898.58 553.833 898.784 555.908 898.967 557.984C899.688 566.232 900.043 574.513 900.053 582.793C900.053 586.826 899.989 590.848 899.838 594.881L906.291 588.428C897.161 588.568 888.031 588.719 878.9 588.859C878.384 588.859 877.868 588.88 877.352 588.88C877.061 588.88 875.696 588.74 876.685 588.934C877.674 589.127 876.836 588.977 876.685 588.912C876.674 588.912 877.889 589.493 877.255 589.16C876.556 588.794 877.965 589.794 878.105 589.945C878.836 590.697 878.008 589.45 878.384 590.429C878.761 591.407 878.352 590.203 878.287 589.945C878.201 589.568 878.126 589.192 878.072 588.815C877.911 587.826 877.793 586.826 877.653 585.837C877.072 581.675 876.502 577.513 875.911 573.362C873.609 557.22 870.942 541.057 866.038 525.474C863.113 516.194 859.403 507.117 854.876 498.503C853.306 495.513 848.886 494.363 846.047 496.191C843.003 498.159 842.046 501.815 843.735 505.02L843.713 504.988Z" fill="#FA4008"/>
<path d="M915.867 599.711C923.707 586.132 915.894 566.944 898.416 556.853C880.938 546.762 860.414 549.59 852.574 563.169C844.734 576.748 852.548 595.936 870.025 606.027C887.503 616.118 908.027 613.29 915.867 599.711Z" fill="#FA4008"/>
<path d="M910.291 596.449C909.915 597.084 909.517 597.686 909.098 598.299C909.001 598.439 908.883 598.557 908.797 598.708C908.764 598.772 909.743 597.578 909.291 598.062C909.023 598.342 908.797 598.665 908.539 598.944C908.055 599.482 907.549 599.987 907.022 600.482C906.732 600.74 906.442 600.987 906.151 601.246C905.409 601.912 907.377 600.375 906.269 601.16C905.076 601.998 903.839 602.773 902.527 603.418C902.183 603.59 901.774 603.719 901.441 603.923C901.376 603.966 902.839 603.386 902.194 603.601C902.032 603.654 901.871 603.73 901.71 603.794C900.946 604.085 900.172 604.343 899.398 604.569C898.72 604.762 898.032 604.934 897.333 605.085C896.924 605.171 896.516 605.257 896.096 605.321C895.913 605.354 895.741 605.375 895.558 605.407C894.666 605.569 895.999 605.343 896.193 605.332C894.515 605.472 892.87 605.633 891.182 605.612C890.418 605.612 889.654 605.569 888.891 605.515C888.439 605.483 887.988 605.44 887.547 605.397C887.353 605.375 887.16 605.354 886.966 605.332C886.116 605.246 888.364 605.558 887.514 605.407C885.729 605.096 883.976 604.751 882.223 604.267C881.428 604.042 880.643 603.794 879.868 603.525C879.406 603.364 878.954 603.203 878.503 603.031C878.309 602.955 878.115 602.88 877.911 602.805C877.115 602.504 877.986 602.826 878.287 602.977C876.621 602.127 874.911 601.407 873.276 600.471C871.642 599.536 870.168 598.493 868.652 597.428C868.071 597.019 869.179 597.847 869.157 597.826C869.007 597.697 868.845 597.578 868.684 597.449C868.319 597.159 867.964 596.869 867.609 596.568C866.964 596.019 866.329 595.449 865.716 594.858C864.469 593.664 863.296 592.406 862.199 591.072C862.081 590.932 861.963 590.782 861.845 590.631C861.393 590.094 862.307 591.244 862.275 591.201C862.07 590.9 861.834 590.61 861.608 590.309C861.113 589.61 860.629 588.9 860.178 588.179C859.328 586.814 858.586 585.394 857.898 583.942C857.823 583.792 857.769 583.609 857.683 583.458C857.64 583.383 858.231 584.846 857.995 584.2C857.876 583.878 857.737 583.555 857.618 583.233C857.339 582.491 857.091 581.727 856.865 580.963C856.661 580.264 856.489 579.565 856.339 578.856C856.274 578.533 856.209 578.21 856.145 577.877C856.037 577.286 856.037 575.855 856.134 577.963C856.07 576.554 855.908 575.189 855.962 573.769C855.973 573.446 855.994 573.135 856.016 572.812C856.037 572.489 856.199 571.177 856.037 572.403C855.876 573.629 856.037 572.446 856.091 572.167C856.156 571.801 856.231 571.446 856.317 571.081C856.468 570.414 856.65 569.747 856.865 569.102C856.962 568.801 857.08 568.5 857.177 568.209C857.64 566.886 856.543 569.521 857.134 568.284C857.726 567.048 858.468 565.768 859.285 564.574C860.049 563.456 858.489 565.499 859.188 564.682C859.403 564.434 859.619 564.176 859.844 563.929C860.361 563.348 860.909 562.8 861.49 562.284C861.737 562.058 861.995 561.854 862.242 561.628C863.06 560.896 861.092 562.445 861.984 561.811C862.619 561.359 863.264 560.907 863.931 560.509C864.555 560.133 865.2 559.778 865.867 559.455C866.168 559.305 866.49 559.176 866.791 559.025C867.394 558.713 865.963 559.359 866.039 559.337C866.307 559.251 866.576 559.122 866.845 559.025C868.275 558.488 869.738 558.068 871.233 557.756C871.588 557.681 871.932 557.616 872.287 557.552C872.523 557.509 872.76 557.477 872.997 557.434C873.706 557.305 872.093 557.541 872.179 557.541C873.04 557.466 873.889 557.358 874.749 557.315C876.384 557.229 878.029 557.251 879.675 557.38C880.062 557.412 880.449 557.444 880.836 557.487C881.03 557.509 881.223 557.53 881.417 557.552C882.266 557.638 880.019 557.337 880.868 557.477C881.718 557.616 882.568 557.756 883.406 557.939C885.202 558.326 886.977 558.821 888.708 559.434C889.106 559.574 889.493 559.713 889.88 559.864C890.3 560.025 891.698 560.714 890.095 559.929C890.923 560.337 891.784 560.681 892.612 561.101C894.322 561.95 895.967 562.907 897.559 563.961C898.236 564.413 898.903 564.886 899.559 565.359C900.484 566.026 898.559 564.553 899.688 565.456C900.054 565.747 900.409 566.037 900.763 566.338C902.097 567.478 903.366 568.693 904.549 569.973C905.065 570.532 905.56 571.102 906.044 571.683C906.345 572.038 907.173 573.242 906.087 571.693C906.334 572.048 906.603 572.382 906.85 572.737C907.764 574.016 908.603 575.35 909.345 576.737C909.711 577.415 910.055 578.092 910.378 578.791C910.453 578.952 910.517 579.114 910.593 579.264C910.904 579.877 910.259 578.447 910.281 578.522C910.42 578.952 910.625 579.383 910.786 579.813C911.292 581.189 911.7 582.598 912.001 584.028C912.077 584.405 912.152 584.781 912.216 585.168C912.259 585.448 912.432 586.652 912.27 585.448C912.109 584.243 912.259 585.448 912.281 585.727C912.324 586.158 912.346 586.588 912.367 587.018C912.389 587.663 912.399 588.298 912.367 588.943C912.356 589.319 912.335 589.685 912.302 590.061C912.281 590.363 912.12 591.707 912.281 590.47C912.442 589.233 912.249 590.61 912.195 590.868C912.141 591.18 912.077 591.492 912.001 591.793C911.84 592.513 911.636 593.223 911.399 593.922C911.302 594.223 911.184 594.514 911.076 594.815C910.722 595.836 911.711 593.47 911.238 594.449C910.915 595.127 910.582 595.793 910.216 596.449C908.549 599.385 909.42 603.633 912.528 605.278C915.636 606.924 919.572 606.096 921.357 602.966C929.305 588.964 924.046 572.21 913.787 560.982C902.398 548.529 884.105 541.679 867.437 545.4C859.672 547.131 852.897 551.519 848.219 557.939C844.079 563.628 842.38 571.199 843.208 578.135C845.219 594.868 857.694 608.203 872.857 614.602C887.224 620.667 906.624 620.42 917.701 607.945C919.067 606.408 920.314 604.741 921.357 602.966C923.067 600.052 922.121 595.761 919.045 594.137C915.97 592.513 912.044 593.341 910.216 596.449H910.291Z" fill="#FA4008"/>
<path d="M607.51 165.887L495.061 194.947C491.323 195.913 489.076 199.726 490.042 203.464L492.784 214.074C493.75 217.812 497.563 220.059 501.301 219.093L613.75 190.032C617.488 189.066 619.735 185.253 618.769 181.515L616.027 170.905C615.061 167.168 611.248 164.921 607.51 165.887Z" fill="#FA4008"/>
<path d="M551.829 162.62C547.28 160.491 541.763 162.093 537.709 166.201C535.332 163.674 532.514 161.577 529.267 160.061C512.856 152.393 492.015 162.319 482.713 182.236C473.41 202.152 479.174 224.499 495.596 232.167C512.007 239.834 532.848 229.908 542.15 209.992C545.043 203.797 546.473 197.367 546.592 191.204C550.549 189.914 554.27 186.634 556.442 181.978C560.088 174.17 558.023 165.502 551.84 162.62H551.829Z" fill="#FA4008"/>
<path d="M555.074 157.05C551.17 155.319 547.234 154.77 543.04 155.803C539.287 156.728 535.857 158.943 533.136 161.632H542.266C536.351 155.437 528.522 151.888 520.059 151.125C513.058 150.49 506.003 152.329 499.755 155.373C486.022 162.072 476.043 176.236 472.978 191.044C469.913 205.852 472.978 222.37 484.57 232.501C490.313 237.523 497.217 240.394 504.799 241.082C511.853 241.717 518.973 239.856 525.264 236.759C539.599 229.683 549.944 214.423 552.31 198.754C552.687 196.249 552.977 193.743 553.031 191.205L548.299 197.432C556.504 194.646 562.828 187.162 564.236 178.58C565.645 169.998 563.086 160.965 555.085 157.061C552.052 155.588 547.966 156.136 546.256 159.373C544.729 162.277 545.331 166.621 548.568 168.202C549.127 168.482 549.632 168.815 550.159 169.138C550.794 169.525 549.03 168.106 549.761 168.858C549.998 169.095 550.245 169.321 550.46 169.568C550.633 169.762 551.332 170.536 550.59 169.686C549.847 168.837 550.514 169.633 550.654 169.869C550.837 170.16 550.998 170.461 551.16 170.762C551.278 170.988 551.762 171.955 551.256 170.934C550.751 169.912 551.213 170.891 551.299 171.149C551.407 171.493 551.504 171.837 551.59 172.181C551.665 172.472 551.708 172.773 551.772 173.074C551.945 173.859 551.633 171.493 551.708 172.644C551.751 173.343 551.783 174.031 551.762 174.73C551.751 175.053 551.719 175.375 551.697 175.698C551.622 177.085 552.02 174.182 551.719 175.547C551.568 176.214 551.439 176.87 551.245 177.526C551.127 177.924 550.987 178.311 550.858 178.709C550.482 179.827 551.299 177.827 550.944 178.548C550.59 179.268 550.245 179.967 549.837 180.655C549.654 180.957 549.46 181.247 549.256 181.537C548.697 182.355 548.944 181.763 549.396 181.397C548.847 181.838 548.406 182.537 547.89 183.032C547.654 183.258 547.396 183.473 547.159 183.699C546.18 184.634 548.363 182.914 547.245 183.645C546.718 183.989 546.202 184.344 545.643 184.645C545.331 184.817 544.954 184.946 544.653 185.129L545.524 184.753C545.299 184.839 545.073 184.914 544.847 184.989C542.083 185.925 540.18 188.237 540.115 191.216C540.094 192.141 540.051 193.076 539.975 194.001C539.932 194.474 539.889 194.937 539.835 195.41C539.814 195.582 539.717 196.389 539.835 195.496C539.954 194.55 539.803 195.636 539.782 195.819C539.448 197.894 538.964 199.948 538.351 201.959C538.061 202.916 537.738 203.852 537.394 204.788C537.308 205.013 536.728 206.379 537.072 205.659C537.416 204.938 537.05 205.702 536.996 205.82C536.857 206.132 536.717 206.444 536.577 206.755C535.867 208.283 535.071 209.767 534.211 211.208C533.351 212.649 532.361 214.057 531.351 215.434C530.931 216.004 531.802 214.864 531.77 214.896C531.641 215.036 531.533 215.197 531.404 215.348C531.168 215.649 530.92 215.939 530.673 216.23C530.135 216.854 529.587 217.467 529.017 218.058C527.942 219.176 526.823 220.241 525.64 221.252C525.361 221.489 525.081 221.725 524.791 221.951C524.651 222.069 524.5 222.177 524.36 222.295C524.307 222.338 525.511 221.435 524.941 221.833C524.253 222.317 523.586 222.822 522.876 223.284C521.64 224.091 520.371 224.833 519.059 225.5C518.446 225.812 517.768 226.048 517.177 226.392C517.101 226.435 518.564 225.833 517.919 226.08C517.757 226.145 517.596 226.21 517.446 226.274C517.069 226.425 516.704 226.554 516.327 226.693C515.004 227.167 513.649 227.554 512.273 227.855C511.563 228.005 510.853 228.113 510.144 228.242C509.434 228.371 511.155 228.124 511.036 228.124C510.875 228.124 510.703 228.167 510.542 228.178C510.154 228.21 509.778 228.253 509.391 228.274C508.025 228.371 506.659 228.36 505.294 228.274C504.971 228.253 504.638 228.221 504.315 228.188C504.164 228.178 503.971 228.178 503.831 228.135C503.691 228.092 505.433 228.403 504.734 228.253C504.035 228.102 503.336 228.005 502.637 227.844C501.229 227.511 499.917 226.952 498.54 226.532C498.454 226.511 499.917 227.167 499.314 226.855C499.164 226.78 499.002 226.715 498.852 226.65C498.54 226.5 498.217 226.349 497.906 226.188C497.239 225.844 496.583 225.478 495.948 225.08C495.368 224.715 494.808 224.328 494.249 223.93C494.109 223.833 493.98 223.715 493.84 223.629C493.776 223.586 494.97 224.564 494.475 224.113C494.185 223.844 493.862 223.607 493.561 223.338C492.453 222.36 491.432 221.295 490.496 220.166C490.388 220.037 490.281 219.897 490.173 219.768C489.732 219.262 490.7 220.467 490.657 220.402C490.485 220.112 490.249 219.843 490.055 219.574C489.625 218.961 489.227 218.338 488.84 217.703C488.087 216.445 487.549 215.111 486.861 213.832C486.829 213.767 487.399 215.208 487.173 214.563C487.119 214.402 487.044 214.23 486.979 214.068C486.829 213.681 486.689 213.294 486.56 212.896C486.313 212.165 486.076 211.423 485.872 210.67C485.474 209.197 485.194 207.713 484.936 206.218C484.818 205.508 485.044 207.1 485.044 207.014C485.033 206.831 485.001 206.648 484.979 206.465C484.936 206.1 484.904 205.723 484.872 205.347C484.807 204.529 484.764 203.723 484.743 202.906C484.7 201.239 484.753 199.572 484.904 197.916C484.936 197.529 484.979 197.141 485.022 196.754C485.151 195.55 484.807 198.109 485.001 196.916C485.14 196.066 485.291 195.216 485.463 194.378C485.818 192.722 486.248 191.087 486.775 189.474C487.033 188.689 487.313 187.904 487.614 187.129C487.764 186.742 487.937 186.355 488.076 185.968C487.453 187.689 488.076 186 488.281 185.57C488.99 184.043 489.786 182.559 490.647 181.118C491.507 179.677 492.41 178.365 493.389 177.042C494.088 176.106 492.582 178.021 493.324 177.128C493.572 176.838 493.808 176.537 494.056 176.246C494.626 175.569 495.217 174.913 495.83 174.268C496.905 173.149 498.024 172.084 499.207 171.074C499.486 170.837 499.766 170.6 500.056 170.375C500.196 170.256 500.347 170.149 500.487 170.03C500.54 169.987 499.336 170.891 499.906 170.493C500.54 170.041 501.164 169.579 501.82 169.149C503.046 168.331 504.326 167.589 505.638 166.923C506.304 166.578 507.036 166.32 507.681 165.955C507.756 165.912 506.294 166.514 506.939 166.267C507.1 166.202 507.262 166.138 507.412 166.073C507.788 165.922 508.154 165.793 508.531 165.654C509.853 165.18 511.208 164.793 512.585 164.492C513.241 164.352 513.897 164.245 514.553 164.127C515.66 163.933 513.026 164.277 514.155 164.18C514.542 164.148 514.918 164.105 515.306 164.073C516.725 163.965 518.145 163.965 519.564 164.073C519.887 164.094 520.22 164.127 520.543 164.159C520.693 164.17 520.887 164.17 521.027 164.213C521.166 164.256 519.424 163.944 520.123 164.094C520.822 164.245 521.521 164.342 522.22 164.503C523.575 164.826 524.855 165.299 526.167 165.75C526.812 165.976 525.318 165.374 525.404 165.428C525.543 165.514 525.715 165.568 525.866 165.632C526.339 165.858 526.802 166.084 527.264 166.32C528.146 166.783 528.995 167.299 529.813 167.858C530.006 167.987 531.157 168.848 530.447 168.288C529.737 167.729 530.845 168.632 531.028 168.783C531.77 169.428 532.469 170.106 533.147 170.816C535.566 173.353 539.836 173.224 542.277 170.816C542.589 170.504 543.395 170.02 543.567 169.633C543.384 170.052 542.545 170.375 543.449 169.74C543.675 169.579 543.911 169.428 544.148 169.288C544.621 168.998 545.116 168.772 545.589 168.514C546.299 168.127 544.395 168.912 545.159 168.708C545.471 168.622 545.782 168.493 546.094 168.407C546.342 168.331 546.6 168.288 546.847 168.224C547.707 167.998 546.535 168.278 546.266 168.267C546.772 168.278 547.277 168.181 547.783 168.202C548.03 168.202 548.288 168.267 548.536 168.245C547.073 168.331 547.482 168.084 548.116 168.224C548.643 168.342 550.321 169.041 548.557 168.256C550.192 168.987 551.729 169.407 553.525 168.901C555.02 168.493 556.644 167.331 557.386 165.933C558.87 163.126 558.365 158.567 555.074 157.104V157.05Z" fill="#FA4008"/>
<path d="M773.212 694.56H715.141V519.807H747.94L773.212 694.56Z" fill="#FAF1E7"/>
<path d="M773.21 688.107H715.139L721.591 694.559V541.368C721.591 534.292 721.795 527.172 721.591 520.096C721.591 520 721.591 519.903 721.591 519.806L715.139 526.258H747.938L741.712 521.527C742.551 527.344 743.4 533.173 744.239 538.991C746.25 552.875 748.25 566.758 750.261 580.652C752.702 597.525 755.144 614.398 757.585 631.282C759.682 645.789 761.779 660.297 763.876 674.804C764.897 681.848 765.683 688.978 766.941 695.979C766.962 696.075 766.973 696.183 766.984 696.28C767.199 697.764 768.715 699.42 769.952 700.14C771.339 700.947 773.372 701.291 774.92 700.786C776.469 700.28 777.985 699.312 778.781 697.818C779.652 696.183 779.695 694.667 779.426 692.849C778.587 687.031 777.738 681.202 776.899 675.385C774.888 661.501 772.888 647.618 770.877 633.723C768.436 616.85 765.994 599.977 763.553 583.093C761.456 568.586 759.359 554.079 757.262 539.572C756.574 534.786 755.875 530.001 755.187 525.226C754.864 522.957 754.638 520.645 754.197 518.397C754.176 518.3 754.165 518.193 754.154 518.096C753.756 515.343 750.509 513.364 747.928 513.364H715.128C711.644 513.364 708.675 516.322 708.675 519.817V673.008C708.675 680.095 708.536 687.192 708.675 694.279C708.675 694.376 708.675 694.473 708.675 694.57C708.675 698.054 711.633 701.022 715.128 701.022H773.2C776.576 701.022 779.813 698.054 779.652 694.57C779.491 691.085 776.813 688.117 773.2 688.117L773.21 688.107Z" fill="#FA4008"/>
<path d="M818.956 703.701H723.159C718.75 703.701 715.137 700.087 715.137 695.678V674.084C715.137 669.675 718.75 666.062 723.159 666.062H797.362C813.654 666.062 826.979 679.386 826.979 695.678C826.979 700.087 823.365 703.701 818.956 703.701Z" fill="#FA4008"/>
<path d="M818.955 697.248C814.536 697.248 810.126 697.248 805.706 697.248C795.673 697.248 785.639 697.248 775.617 697.248H743.623C737.182 697.248 730.74 697.248 724.298 697.248C723.922 697.248 723.546 697.248 723.158 697.248C723.029 697.248 722.804 697.248 722.771 697.248C721.685 697.248 724.309 697.603 722.857 697.227C722.621 697.162 722.395 697.076 722.169 697.012C721.556 696.85 722.879 697.302 722.89 697.313C722.804 697.173 721.018 696.141 722.061 696.861C723.169 697.635 721.201 695.667 721.975 696.775C722.61 697.678 721.857 696.495 721.685 696.259C721.137 695.452 721.89 696.646 721.89 696.829C721.89 696.668 721.696 696.28 721.664 696.151C721.61 695.947 721.588 695.614 721.492 695.442C721.599 695.657 721.588 696.958 721.588 696.055C721.621 692.194 721.588 688.333 721.588 684.483V674.686C721.588 674.525 721.588 674.364 721.588 674.202C721.588 674.17 721.588 674.138 721.588 674.095C721.588 673.966 721.588 673.751 721.588 673.718C721.588 672.578 721.298 674.891 721.524 674.159C721.631 673.804 721.857 673.31 721.879 672.944C721.814 674.073 721.319 674.052 721.674 673.514C721.803 673.321 721.933 673.105 722.04 672.912C722.427 672.245 722.33 673.138 721.674 673.374C721.793 673.331 721.943 673.073 722.04 672.987C722.277 672.783 722.868 672.406 722.04 672.912C721.094 673.482 722.04 672.933 722.255 672.804C722.373 672.729 722.825 672.546 722.879 672.46C722.814 672.568 721.33 672.976 722.33 672.708C722.621 672.622 724.051 672.385 722.89 672.503C721.728 672.622 722.89 672.536 723.18 672.536C723.718 672.536 724.266 672.536 724.804 672.536H780.521C786.123 672.536 791.726 672.503 797.34 672.536C797.974 672.536 798.598 672.557 799.232 672.6C799.663 672.632 800.104 672.665 800.534 672.708C800.803 672.74 801.674 672.815 800.598 672.708C799.448 672.589 800.566 672.708 800.835 672.761C802.674 673.095 804.491 673.6 806.233 674.267C807.664 674.815 804.964 673.643 806.341 674.31C806.717 674.493 807.094 674.665 807.47 674.848C808.309 675.278 809.137 675.751 809.933 676.256C810.331 676.514 810.729 676.773 811.105 677.041C811.643 677.418 812.428 678.386 811.212 677.095C811.847 677.773 812.664 678.31 813.331 678.956C813.966 679.569 814.579 680.214 815.148 680.881C815.417 681.182 815.643 681.547 815.944 681.827C814.89 680.827 815.288 680.956 815.579 681.365C815.751 681.601 815.923 681.838 816.095 682.085C817.149 683.601 818.009 685.204 818.805 686.871C819.257 687.817 818.6 686.397 818.579 686.311C818.633 686.527 818.762 686.774 818.837 686.978C819.009 687.43 819.17 687.882 819.31 688.333C819.611 689.258 819.859 690.183 820.063 691.129C820.149 691.549 820.235 691.968 820.31 692.387C820.579 693.947 820.16 690.914 820.332 692.495C820.439 693.484 820.504 694.484 820.504 695.485C820.504 695.796 820.45 696.119 820.472 696.42C820.364 695.076 820.687 695.227 820.525 695.786C820.461 696.012 820.386 696.248 820.332 696.485C820.149 697.216 819.934 696.431 820.579 695.936C820.472 696.022 820.289 696.474 820.235 696.56C820.149 696.7 820.02 696.85 819.945 697.001C819.622 697.689 820.891 696.055 820.289 696.517C820.128 696.646 819.902 696.84 819.794 697.012C819.482 697.474 820.332 696.592 820.418 696.56C820.214 696.625 819.31 697.13 819.203 697.291C819.289 697.173 820.741 696.797 819.751 697.044C819.525 697.098 819.278 697.173 819.052 697.237C818.826 697.302 818.16 697.377 819.192 697.248C820.396 697.098 819.149 697.216 818.934 697.216C815.557 697.291 812.32 700.13 812.481 703.668C812.643 707.206 815.321 710.207 818.934 710.121C825.29 709.97 830.602 706.024 832.71 700.055C833.495 697.829 833.506 695.345 833.291 693.022C833.075 690.699 832.721 688.215 832.065 685.903C829.591 677.192 823.806 669.643 816.116 664.879C810.374 661.319 803.652 659.577 796.931 659.577C794.49 659.577 792.06 659.577 789.618 659.577H729.138C727.159 659.577 725.18 659.545 723.212 659.577C718.244 659.652 713.953 662.04 711.103 666.062C709.232 668.707 708.673 671.912 708.673 675.084V690.129C708.673 691.893 708.662 693.646 708.673 695.409C708.705 700.431 711.071 704.819 715.157 707.69C718.255 709.863 721.803 710.121 725.406 710.121C728.385 710.121 731.364 710.121 734.343 710.121C744.473 710.121 754.614 710.121 764.744 710.121C775.832 710.121 786.93 710.121 798.017 710.121C804.674 710.121 811.32 710.121 817.977 710.121H818.934C822.311 710.121 825.548 707.153 825.386 703.668C825.225 700.184 822.547 697.216 818.934 697.216L818.955 697.248Z" fill="#FA4008"/>
<path d="M629.105 694.56H687.177V519.807H654.377L629.105 694.56Z" fill="#FAF1E7"/>
<path d="M629.106 701.011C635.666 701.011 642.226 701.011 648.775 701.011C659.174 701.011 669.573 701.011 679.983 701.011C682.381 701.011 684.779 701.011 687.177 701.011C690.662 701.011 693.63 698.054 693.63 694.559C693.63 688.73 693.63 682.902 693.63 677.073C693.63 663.168 693.63 649.263 693.63 635.369V584.965C693.63 570.436 693.63 555.907 693.63 541.379C693.63 534.292 693.77 527.194 693.63 520.107C693.63 520.01 693.63 519.913 693.63 519.817C693.63 516.332 690.673 513.364 687.177 513.364C677.596 513.364 668.025 513.364 658.443 513.364C657.088 513.364 655.733 513.364 654.378 513.364C651.84 513.364 648.549 515.354 648.151 518.096C647.312 523.914 646.463 529.743 645.624 535.561L639.602 577.222C637.16 594.095 634.719 610.968 632.278 627.852C630.181 642.359 628.084 656.866 625.987 671.373C624.965 678.428 623.933 685.493 622.922 692.548C622.911 692.645 622.89 692.752 622.879 692.849C622.621 694.634 622.578 696.194 623.524 697.817C624.309 699.151 625.847 700.431 627.385 700.786C630.439 701.485 634.805 699.85 635.322 696.28C636.16 690.462 637.01 684.633 637.849 678.815C639.86 664.932 641.86 651.048 643.871 637.154C646.312 620.281 648.753 603.408 651.194 586.524C653.291 572.017 655.389 557.51 657.486 543.002C658.507 535.958 659.744 528.904 660.55 521.828C660.561 521.731 660.583 521.623 660.594 521.527L654.367 526.258C663.949 526.258 673.52 526.258 683.102 526.258C684.457 526.258 685.812 526.258 687.167 526.258L680.714 519.806C680.714 525.635 680.714 531.463 680.714 537.292C680.714 551.197 680.714 565.102 680.714 578.996C680.714 595.794 680.714 612.602 680.714 629.4C680.714 643.929 680.714 658.458 680.714 672.986C680.714 680.063 680.51 687.182 680.714 694.258C680.714 694.355 680.714 694.451 680.714 694.548L687.167 688.096C680.607 688.096 674.047 688.096 667.498 688.096C657.098 688.096 646.699 688.096 636.289 688.096C633.891 688.096 631.493 688.096 629.095 688.096C625.718 688.096 622.481 691.064 622.643 694.548C622.804 698.033 625.482 701.001 629.095 701.001L629.106 701.011Z" fill="#FA4008"/>
<path d="M583.355 703.701H679.151C683.561 703.701 687.174 700.087 687.174 695.678V674.084C687.174 669.675 683.561 666.062 679.151 666.062H604.949C588.656 666.062 575.332 679.386 575.332 695.678C575.332 700.087 578.945 703.701 583.355 703.701Z" fill="#FA4008"/>
<path d="M583.355 710.153C588.097 710.153 592.829 710.153 597.572 710.153C608.121 710.153 618.682 710.153 629.231 710.153C640.072 710.153 650.901 710.153 661.741 710.153C667.462 710.153 673.183 710.196 678.904 710.153C687.12 710.099 693.573 703.56 693.616 695.366C693.648 690.774 693.616 686.171 693.616 681.579C693.616 676.277 694.315 670.33 690.97 665.814C688.088 661.931 683.916 659.684 679.055 659.609C678.41 659.609 677.764 659.609 677.119 659.609H651.74C640.717 659.609 629.694 659.609 618.671 659.609C611.821 659.609 604.637 659.082 597.873 660.329C588.882 661.996 581.086 667.459 575.687 674.707C573.128 678.138 571.246 682.171 570.127 686.289C569.009 690.408 568.041 696.162 569.708 700.431C571.977 706.217 577.064 710.013 583.355 710.163C586.732 710.239 589.958 707.141 589.807 703.711C589.657 700.28 586.968 697.344 583.355 697.258C583.258 697.258 582.731 697.172 582.602 697.226C582.774 697.162 584.194 697.603 583.236 697.28C582.957 697.183 581.613 696.742 582.645 697.14C583.677 697.538 582.258 696.807 582.021 696.688C581.484 696.409 582.623 697.108 582.634 697.151C582.634 697.119 581.914 696.409 581.882 696.398C581.925 696.409 582.624 697.549 582.344 697.011C582.236 696.807 582.097 696.602 581.967 696.42C581.182 695.237 582.236 697.474 581.967 696.506C581.903 696.28 581.849 696.032 581.774 695.807C581.451 694.85 581.892 696.258 581.828 696.441C581.935 696.162 581.795 695.452 581.795 695.129C581.817 694.194 581.881 693.269 581.978 692.333C582.097 691.182 581.742 693.828 581.978 692.408C582.075 691.871 582.183 691.333 582.301 690.795C582.505 689.913 582.753 689.042 583.032 688.182C583.183 687.73 583.344 687.279 583.516 686.827C583.581 686.666 583.656 686.494 583.71 686.322C583.075 688.139 583.43 686.967 583.634 686.547C584.409 684.881 585.334 683.289 586.409 681.794C586.516 681.654 586.613 681.504 586.721 681.364C587.323 680.525 586.42 681.773 586.355 681.826C586.689 681.536 586.968 681.074 587.259 680.74C587.882 680.031 588.538 679.353 589.216 678.708C589.56 678.385 589.904 678.073 590.27 677.761C590.474 677.589 591.635 676.697 590.711 677.374C589.786 678.052 590.979 677.181 591.194 677.03C591.625 676.729 592.076 676.428 592.517 676.148C593.27 675.675 594.044 675.234 594.829 674.836C595.249 674.621 595.69 674.428 596.12 674.223C596.507 674.041 597.195 673.879 595.561 674.449C595.786 674.374 596.002 674.266 596.227 674.191C598.045 673.503 599.916 673.03 601.819 672.685C602.949 672.481 600.303 672.847 601.755 672.685C602.25 672.632 602.744 672.589 603.239 672.567C603.809 672.535 604.379 672.524 604.949 672.513C605.444 672.513 605.938 672.513 606.422 672.513H615.294C625.543 672.513 635.802 672.513 646.051 672.513C655.332 672.513 664.612 672.513 673.882 672.513C675.624 672.513 677.367 672.481 679.098 672.513C679.098 672.513 679.119 672.513 679.13 672.513C679.259 672.513 679.732 672.513 679.507 672.513C680.13 672.513 680.066 672.879 678.894 672.417C679.259 672.567 679.732 672.642 680.12 672.75C680.872 672.965 678.99 672.019 679.56 672.524C679.743 672.685 680.12 672.858 680.324 672.976C680.991 673.363 680.098 673.266 679.862 672.61C679.905 672.729 680.163 672.879 680.249 672.976C681.206 674.073 679.636 671.761 680.345 673.04C680.431 673.191 680.518 673.352 680.614 673.492C681.163 674.288 680.442 673.094 680.41 672.922C680.464 673.223 680.862 674.987 680.743 673.815C680.625 672.642 680.711 673.847 680.711 674.18C680.711 674.374 680.711 674.567 680.711 674.772V677.202C680.711 682.278 680.711 687.365 680.711 692.441C680.711 693.699 680.679 694.968 680.69 696.226C680.69 697.054 681.001 694.817 680.765 695.602C680.7 695.828 680.657 696.075 680.582 696.301C680.173 697.613 681.195 695.355 680.604 696.237C680.474 696.42 680.345 696.645 680.238 696.839C679.861 697.506 679.926 696.635 680.604 696.377C680.507 696.409 680.152 696.85 680.12 696.882C679.571 697.517 680.367 696.635 680.614 696.549C680.41 696.613 679.507 697.119 679.399 697.28C679.485 697.162 680.937 696.785 679.948 697.033C679.722 697.086 679.474 697.162 679.249 697.226C678.227 697.527 680.851 697.162 679.313 697.205C679.238 697.205 679.173 697.205 679.109 697.205C674.441 697.291 669.763 697.205 665.107 697.205C655.02 697.205 644.943 697.205 634.856 697.205C624.209 697.205 613.563 697.205 602.906 697.205C596.679 697.205 590.452 697.205 584.226 697.205H583.323C579.946 697.205 576.709 700.173 576.87 703.657C577.031 707.141 579.709 710.11 583.323 710.11L583.355 710.153Z" fill="#FA4008"/>
<path d="M869.717 392.553C869.717 408.684 826.325 417.749 821.604 432.3C816.711 447.387 846.306 480.198 837.176 492.748C827.949 505.427 787.535 487.36 774.856 496.587C762.306 505.728 767.049 549.787 751.971 554.681C737.421 559.402 715.418 521.117 699.298 521.117C683.178 521.117 661.175 559.402 646.625 554.681C631.537 549.787 636.29 505.717 623.74 496.587C611.061 487.36 570.648 505.427 561.421 492.748C552.28 480.198 581.886 447.377 576.992 432.3C572.271 417.749 528.879 408.673 528.879 392.553C528.879 376.432 572.271 367.356 576.992 352.806C581.886 337.718 552.29 304.907 561.421 292.357C570.648 279.678 611.061 297.745 623.74 288.518C636.29 279.377 631.548 235.318 646.625 230.425C661.175 225.704 683.178 263.988 699.298 263.988C715.418 263.988 737.421 225.704 751.971 230.425C767.059 235.318 762.306 279.388 774.856 288.518C787.535 297.745 827.949 279.678 837.176 292.357C846.317 304.907 816.711 337.729 821.604 352.806C826.325 367.356 869.717 376.432 869.717 392.553Z" fill="#FAF1E7"/>
<path d="M861.654 392.554C861.654 392.79 861.632 393.027 861.621 393.263C861.621 394.457 862.084 390.887 861.783 392.048C861.664 392.511 861.557 392.962 861.428 393.414C860.976 394.963 862.514 391.231 861.578 393.038C861.31 393.565 860.987 394.048 860.664 394.543C859.75 395.941 862.105 392.876 860.955 394.178C860.589 394.597 860.223 395.016 859.826 395.414C858.911 396.35 857.911 397.178 856.911 398.017C855.911 398.856 858.643 396.737 857.535 397.533C857.309 397.694 857.094 397.855 856.879 398.017C856.384 398.372 855.879 398.726 855.373 399.071C854.115 399.92 852.825 400.727 851.523 401.512C848.964 403.039 846.34 404.469 843.705 405.878C838.49 408.663 833.177 411.33 828.187 414.524C823.197 417.718 818.358 421.278 815.487 426.343C808.959 437.914 816.573 452.142 821.659 462.702C823.036 465.574 824.456 468.423 825.811 471.295C826.467 472.693 827.112 474.091 827.725 475.51C827.821 475.736 827.918 475.973 828.026 476.199C828.628 477.575 827.23 474.263 827.789 475.639C828.101 476.424 828.424 477.209 828.714 477.994C829.639 480.457 830.37 482.941 830.865 485.522C831.005 486.275 830.822 487.221 830.736 484.533C830.736 484.813 830.8 485.092 830.811 485.372C830.854 485.909 830.865 486.458 830.854 486.996C830.833 488.049 830.198 489.415 830.983 486.63C830.854 487.103 830.8 487.587 830.65 488.06C830.048 489.974 831.65 486.297 830.822 487.662C830.273 488.576 829.295 489.189 831.166 487.415C830.822 487.738 830.499 488.103 830.166 488.447C829.349 489.286 832.048 487.168 831.048 487.781C830.843 487.91 830.639 488.06 830.435 488.179C830.005 488.437 829.542 488.63 829.101 488.867C831.65 487.447 830.198 488.415 829.295 488.684C828.757 488.845 828.209 488.974 827.671 489.093C827.381 489.146 827.101 489.189 826.811 489.254C825.542 489.512 829.316 489.007 827.456 489.168C821.702 489.663 815.96 489.039 810.26 488.286C809.658 488.211 808.109 487.985 810.83 488.361C810.432 488.308 810.045 488.254 809.647 488.2C808.991 488.114 808.324 488.017 807.668 487.92C805.378 487.598 803.076 487.286 800.786 486.974C797.732 486.565 794.678 486.189 791.613 485.963C786.107 485.555 780.074 485.512 774.869 487.587C771.911 488.77 769.19 490.351 767.115 492.824C764.857 495.513 763.416 498.298 762.082 501.524C759.942 506.708 758.877 512.3 757.866 517.795C756.791 523.667 755.898 529.592 754.511 535.41C753.898 538.002 753.145 540.54 752.221 543.046C751.984 543.68 751.36 544.68 752.576 542.239C752.447 542.497 752.339 542.777 752.21 543.046C751.973 543.562 751.715 544.067 751.436 544.573C751.221 544.971 750.984 545.358 750.747 545.745C750.607 545.971 750.457 546.175 750.306 546.401C749.392 547.788 751.597 544.917 750.79 545.777C750.457 546.132 750.145 546.508 749.79 546.842C748.338 548.208 751.489 545.777 750.145 546.616C749.79 546.842 749.414 547.035 749.059 547.25C748.446 547.616 747.736 547.401 750.253 546.756C749.952 546.831 749.672 546.96 749.371 547.046C749.145 547.1 748.908 547.132 748.682 547.197C751.091 546.465 750.737 547.003 749.898 547.014C749.425 547.014 748.951 547.014 748.478 546.992C747.263 546.96 750.844 547.433 749.65 547.143C749.403 547.078 749.156 547.046 748.908 546.982C748.403 546.853 747.908 546.691 747.414 546.519C746.736 546.304 745.94 545.691 748.328 546.928C748.08 546.799 747.811 546.702 747.553 546.573C747.026 546.315 746.499 546.035 745.994 545.745C744.843 545.089 743.725 544.347 742.649 543.573C742.08 543.164 740.251 541.626 742.51 543.497C741.961 543.046 741.402 542.605 740.854 542.153C739.617 541.121 738.402 540.045 737.208 538.959C732.541 534.701 728.132 530.184 723.443 525.947C719.012 521.946 714.27 517.827 708.764 515.397C705.666 514.031 702.494 512.988 699.042 513.063C695.59 513.139 692.428 514.171 689.288 515.623C683.664 518.225 678.803 522.57 674.275 526.721C669.63 530.98 665.22 535.507 660.521 539.712C659.51 540.615 658.488 541.508 657.445 542.368C656.897 542.82 654.735 544.433 657.144 542.648C656.51 543.121 655.886 543.594 655.241 544.046C654.294 544.702 653.327 545.326 652.316 545.895C651.799 546.175 651.283 546.433 650.756 546.691C650.079 547.025 649.218 547.035 651.66 546.326C651.315 546.422 650.993 546.584 650.649 546.691C650.154 546.853 649.659 546.96 649.165 547.089C647.53 547.487 651.67 546.928 649.616 547.014C649.218 547.035 648.831 546.992 648.433 546.992C647.24 546.971 650.799 547.476 649.659 547.143C649.358 547.057 649.057 546.982 648.756 546.906C647.229 546.498 650.928 548.025 649.208 547.078C648.799 546.853 648.433 546.573 648.046 546.326C650.423 547.81 649.24 547.272 648.605 546.659C647.939 546.014 646.949 544.282 648.562 546.799C647.982 545.895 647.369 545.024 646.863 544.067C646.594 543.551 646.369 543.024 646.111 542.497C645.616 541.476 646.637 543.702 646.573 543.594C646.369 543.271 646.261 542.809 646.132 542.443C645.196 539.927 644.497 537.314 643.895 534.7C641.174 522.903 640.486 510.504 635.561 499.32C633.087 493.706 629.001 489.534 623.226 487.383C617.924 485.415 611.784 485.555 606.235 486.017C602.492 486.318 598.771 486.834 595.061 487.34C593.545 487.544 592.028 487.759 590.512 487.974C589.727 488.082 588.931 488.189 588.146 488.308C586.587 488.523 590.276 488.028 588.716 488.232C588.2 488.297 587.673 488.372 587.157 488.437C584.157 488.813 581.156 489.146 578.134 489.286C576.865 489.351 575.596 489.372 574.327 489.351C573.671 489.34 573.026 489.308 572.37 489.265C571.434 489.2 568.983 488.555 572.058 489.286C571.047 489.039 570.015 488.921 569.015 488.598C568.757 488.523 568.509 488.415 568.262 488.34C567.079 487.974 570.316 489.329 569.23 488.759C568.714 488.48 568.208 488.211 567.714 487.91C566.348 487.071 569.467 489.512 568.036 488.114C567.864 487.942 567.714 487.759 567.542 487.598C566.713 486.78 568.8 489.48 568.219 488.469C568.025 488.125 567.821 487.781 567.617 487.447C567.015 486.436 568.391 489.63 568.058 488.501C567.972 488.189 567.853 487.899 567.767 487.587C567.703 487.35 567.671 487.103 567.606 486.867C567.305 485.673 567.81 489.254 567.757 488.017C567.735 487.49 567.681 486.974 567.692 486.447C567.692 485.985 567.735 485.533 567.757 485.081C567.8 484.361 568.176 483.328 567.595 486.092C567.671 485.705 567.714 485.307 567.789 484.92C568.284 482.318 569.133 479.78 570.09 477.306C570.348 476.629 570.639 475.951 570.908 475.274C569.811 478.059 570.854 475.424 571.133 474.79C571.757 473.37 572.413 471.961 573.08 470.563C574.499 467.563 575.973 464.595 577.403 461.605C580.145 455.863 583.017 449.948 584.522 443.732C585.974 437.774 586.146 431.3 582.812 425.902C579.694 420.858 574.725 417.223 569.778 414.126C564.735 410.975 559.401 408.298 554.164 405.491C551.443 404.028 548.733 402.544 546.098 400.931C545.012 400.264 543.936 399.576 542.883 398.856C542.334 398.479 541.796 398.092 541.259 397.705C540.721 397.318 539.882 396.436 541.861 398.189C541.549 397.909 541.205 397.673 540.882 397.404C540.054 396.705 539.248 395.973 538.495 395.188C538.108 394.79 537.764 394.36 537.398 393.952C536.57 393.016 538.678 395.78 538.011 394.737C537.828 394.446 537.624 394.178 537.441 393.887C537.183 393.468 536.979 393.016 536.731 392.575C536.29 391.79 537.258 393.844 537.258 393.833C537.29 393.715 537.065 393.285 537.022 393.156C536.882 392.704 536.817 392.242 536.699 391.79C537.441 394.618 536.882 393.177 536.893 392.059C536.893 390.435 536.376 394.543 536.839 392.586C536.936 392.167 537.108 391.758 537.226 391.349C537.452 390.5 536.194 393.522 536.742 392.5C536.86 392.285 536.957 392.059 537.075 391.844C537.366 391.317 537.699 390.844 538.022 390.338C538.688 389.306 536.581 392.059 537.409 391.123C537.592 390.919 537.764 390.704 537.936 390.5C538.312 390.08 538.71 389.672 539.108 389.274C539.979 388.424 540.947 387.693 541.861 386.886C539.613 388.865 541.431 387.23 542.054 386.789C542.603 386.402 543.162 386.015 543.732 385.65C544.915 384.875 546.109 384.122 547.335 383.402C549.905 381.875 552.54 380.445 555.174 379.047C560.487 376.218 565.885 373.497 570.929 370.218C575.586 367.185 580.672 363.442 583.275 358.356C586.221 352.602 585.888 346.204 584.178 340.106C582.468 334.009 579.511 327.89 576.693 322.05C575.306 319.19 573.897 316.34 572.553 313.458C571.897 312.06 571.262 310.662 570.649 309.253C570.413 308.704 569.897 307.317 570.875 309.801C570.735 309.457 570.596 309.124 570.456 308.78C570.144 308.005 569.843 307.231 569.563 306.446C568.671 303.994 568.101 301.542 567.563 298.994C568.187 301.983 567.724 300.263 567.681 299.445C567.649 298.908 567.638 298.37 567.66 297.832C567.671 297.574 567.703 297.316 567.714 297.058C567.767 295.821 567.262 299.402 567.563 298.208C567.703 297.66 567.843 297.122 568.004 296.574C568.337 295.445 566.961 298.639 567.563 297.628C567.681 297.423 567.778 297.208 567.907 297.004C568.854 295.445 566.896 298.069 567.488 297.477C567.821 297.144 568.198 296.821 568.509 296.477C566.939 298.187 566.95 297.585 567.649 297.155C567.929 296.983 568.198 296.8 568.488 296.649C568.714 296.531 568.94 296.423 569.165 296.305C570.241 295.724 567.015 297.09 568.198 296.724C568.628 296.595 569.047 296.434 569.477 296.305C570.026 296.154 570.574 296.025 571.123 295.918C571.413 295.864 571.714 295.843 571.994 295.767C569.208 296.434 570.553 295.95 571.359 295.875C577.102 295.316 582.952 296.09 588.641 296.843C590.2 297.047 586.512 296.552 588.071 296.767C588.469 296.821 588.856 296.875 589.254 296.929C590.05 297.036 590.835 297.155 591.631 297.262C593.792 297.563 595.954 297.864 598.115 298.144C601.159 298.542 604.202 298.918 607.267 299.133C613.547 299.574 620.032 299.295 625.796 296.574C631.56 293.853 634.475 288.498 636.647 283.002C640.863 272.302 641.379 260.44 644.078 249.331C644.712 246.697 645.519 244.148 646.455 241.621C646.788 240.728 645.508 243.729 646.046 242.578C646.175 242.309 646.283 242.04 646.412 241.782C646.659 241.277 646.917 240.771 647.197 240.277C647.476 239.782 647.745 239.352 648.046 238.911C649.24 237.158 646.637 240.481 648.035 238.943C648.304 238.642 648.595 238.373 648.885 238.093C650.025 236.975 646.896 239.427 648.552 238.362C648.939 238.115 649.358 237.932 649.756 237.706C647.315 239.104 648.552 238.255 649.595 237.954C650.735 237.631 647.186 238.136 648.369 238.104C648.562 238.104 648.756 238.083 648.95 238.072C649.391 238.072 649.821 238.126 650.262 238.136C647.293 238.083 648.853 237.921 649.831 238.179C650.434 238.341 650.993 238.588 651.595 238.771C648.778 237.943 650.649 238.362 651.466 238.771C651.907 238.997 652.348 239.244 652.778 239.491C653.982 240.201 655.144 240.986 656.262 241.814C656.542 242.019 656.811 242.223 657.08 242.427C654.918 240.825 656.08 241.653 656.542 242.029C657.101 242.481 657.66 242.944 658.209 243.406C659.36 244.374 660.478 245.374 661.586 246.396C666.242 250.665 670.651 255.182 675.351 259.408C680.351 263.903 685.632 268.151 691.944 270.624C697.977 272.99 704.075 271.979 709.753 269.216C715.431 266.452 720.045 262.225 724.518 258.107C728.992 253.988 733.562 249.321 738.262 245.127C739.359 244.148 740.466 243.191 741.617 242.266C741.886 242.04 742.176 241.825 742.445 241.61C740.402 243.309 741.424 242.395 741.908 242.029C742.445 241.632 742.983 241.244 743.531 240.857C744.553 240.158 745.618 239.491 746.715 238.911C747.22 238.642 747.758 238.427 748.263 238.169C745.618 239.545 747.285 238.577 748.113 238.33C748.607 238.179 749.102 238.083 749.597 237.964C750.79 237.674 747.209 238.158 748.424 238.115C748.661 238.115 748.898 238.083 749.145 238.072C750.263 238.05 751.264 238.706 748.64 237.911C749.145 238.061 749.693 238.212 750.21 238.341C747.833 237.739 748.607 237.599 749.521 238.126C750.435 238.653 751.102 239.739 749.22 237.792C749.554 238.136 749.941 238.427 750.263 238.771C750.435 238.954 750.586 239.147 750.758 239.319C751.565 240.18 749.349 237.308 750.274 238.696C750.823 239.534 751.35 240.373 751.801 241.266C752.059 241.782 752.274 242.331 752.543 242.847C751.145 240.029 752.35 242.427 752.618 243.212C753.522 245.772 754.199 248.417 754.802 251.063C756.114 256.924 756.995 262.86 758.114 268.753C759.232 274.646 760.62 280.486 763.104 286.013C765.588 291.541 769.911 295.821 775.815 297.854C781.224 299.714 787.44 299.477 793.054 298.983C796.742 298.649 800.409 298.144 804.077 297.639C805.593 297.434 807.109 297.219 808.626 297.004C809.346 296.907 810.077 296.81 810.798 296.703C807.711 297.133 811.045 296.671 811.787 296.585C814.777 296.208 817.766 295.896 820.778 295.767C822.143 295.703 823.52 295.692 824.886 295.735C825.531 295.757 826.165 295.789 826.811 295.853C827.015 295.875 827.219 295.896 827.434 295.918C829.295 296.079 825.52 295.574 826.789 295.832C827.897 296.058 828.961 296.305 830.048 296.638C831.671 297.144 827.929 295.574 829.779 296.542C830.22 296.767 830.618 297.047 831.037 297.305C832.037 297.929 829.338 295.8 830.155 296.638C830.316 296.81 830.51 296.961 830.671 297.133C830.833 297.305 830.972 297.509 831.144 297.671C829.392 296.004 830.048 296.122 830.445 296.81C830.962 297.703 831.123 298.983 830.392 296.359C830.532 296.853 830.704 297.348 830.843 297.854C831.349 299.671 830.714 295.606 830.79 297.316C830.811 297.843 830.843 298.37 830.833 298.897C830.822 299.456 830.725 300.004 830.714 300.564C830.811 297.402 830.811 299.822 830.618 300.757C830.058 303.392 829.166 305.941 828.176 308.446C828.037 308.79 827.897 309.124 827.768 309.468C827.208 310.844 828.606 307.532 828.004 308.909C827.757 309.489 827.499 310.07 827.241 310.64C826.552 312.178 825.832 313.705 825.111 315.232C823.735 318.103 822.326 320.964 820.95 323.835C816.057 334.095 808.776 348.398 815.831 359.388C819.121 364.507 824.208 368.174 829.327 371.325C834.446 374.476 839.769 377.122 845.017 379.95C847.512 381.294 849.996 382.671 852.416 384.155C853.599 384.875 854.771 385.628 855.911 386.413C856.363 386.725 856.814 387.048 857.255 387.37C857.793 387.757 858.621 388.639 856.653 386.886C856.89 387.091 857.148 387.273 857.384 387.478C858.298 388.231 859.191 389.026 860.008 389.887C860.395 390.285 860.74 390.715 861.105 391.123C861.772 391.865 860.266 390.145 860.331 390.123C860.363 390.112 860.75 390.715 860.783 390.758C861.062 391.177 861.32 391.607 861.557 392.059C862.493 393.866 860.955 390.134 861.406 391.683C861.535 392.134 861.643 392.586 861.761 393.048C862.052 394.21 861.589 390.639 861.6 391.833C861.6 392.07 861.621 392.306 861.632 392.543C861.686 396.758 865.299 400.802 869.698 400.608C874.096 400.415 877.828 397.06 877.763 392.543C877.591 379.531 864.17 372.003 854.158 366.55C848.792 363.625 843.307 360.905 838.07 357.743C836.898 357.033 835.747 356.302 834.618 355.538C834.123 355.205 833.639 354.861 833.155 354.506C832.94 354.355 832.736 354.183 832.521 354.033C834.844 355.657 833.478 354.775 832.951 354.345C832.069 353.613 831.209 352.85 830.424 352.011C830.058 351.624 829.746 351.204 829.381 350.817C831.413 353 829.983 351.613 829.51 350.817C828.983 349.935 828.875 348.602 829.596 351.28C829.499 350.903 829.327 350.548 829.219 350.172C828.961 349.204 829.134 347.645 829.187 350.591C829.187 349.978 829.09 349.365 829.101 348.742C829.101 348.182 829.166 347.623 829.209 347.064C829.295 345.741 828.822 349.365 829.069 348.043C829.123 347.742 829.166 347.451 829.219 347.15C829.478 345.784 829.843 344.429 830.263 343.096C830.65 341.87 831.08 340.665 831.542 339.461C831.811 338.773 832.08 338.095 832.36 337.418C832.93 336.03 831.521 339.343 832.134 337.966C832.338 337.504 832.542 337.031 832.747 336.568C834.027 333.686 835.414 330.847 836.79 328.019C839.748 321.943 842.802 315.824 844.953 309.414C846.759 304.016 848.007 297.574 845.953 292.057C840.855 278.324 824.638 278.905 812.572 280.357C808.83 280.808 805.109 281.346 801.377 281.862C800.592 281.97 799.796 282.077 799.011 282.185C802.055 281.766 799.119 282.163 798.409 282.26C796.882 282.454 795.344 282.626 793.807 282.776C790.871 283.056 787.913 283.25 784.956 283.142C784.321 283.121 783.676 283.078 783.042 283.024C782.741 282.992 782.429 282.938 782.128 282.927C784.848 283.056 783.816 283.174 783.085 283.045C781.977 282.841 780.923 282.561 779.848 282.217C778.235 281.69 781.966 283.282 780.138 282.303C779.708 282.067 779.321 281.766 778.891 281.529C781.257 282.862 780.02 282.465 779.299 281.733C778.611 281.045 777.772 279.389 779.299 281.884C778.794 281.056 778.224 280.282 777.772 279.41C777.503 278.905 777.278 278.389 777.03 277.873C776.471 276.69 777.837 279.948 777.385 278.701C777.245 278.314 777.095 277.937 776.955 277.561C774.998 272.151 773.998 266.409 772.997 260.763C771.944 254.827 771.019 248.847 769.449 243.019C767.879 237.19 765.717 231.447 761.523 227.178C756.963 222.522 750.339 220.908 744.101 222.683C737.961 224.436 732.745 228.608 728.013 232.716C723.281 236.824 718.689 241.524 714.001 245.89C711.785 247.955 709.527 249.955 707.161 251.848C706.032 252.762 708.828 250.6 707.667 251.45C707.387 251.654 707.107 251.869 706.828 252.074C706.279 252.472 705.731 252.859 705.161 253.224C704.021 253.977 702.849 254.676 701.623 255.268C701.365 255.397 701.074 255.493 700.827 255.644C703.075 254.407 702.397 255.02 701.698 255.257C701.182 255.429 700.666 255.612 700.128 255.752C699.709 255.859 699.268 255.913 698.848 256.02C701.709 255.257 700.074 255.902 698.988 255.87C698.741 255.87 698.483 255.838 698.235 255.827C696.999 255.784 700.58 256.268 699.364 255.977C698.848 255.848 698.332 255.752 697.816 255.601C697.3 255.45 696.773 255.203 696.246 255.042C699.15 255.945 696.848 255.278 696.031 254.848C694.998 254.3 693.998 253.687 693.03 253.031C692.471 252.654 691.912 252.256 691.364 251.859C691.084 251.654 690.804 251.439 690.525 251.224C692.783 252.88 691.245 251.783 690.751 251.375C688.385 249.46 686.126 247.406 683.9 245.32C679.244 240.943 674.77 236.362 669.909 232.2C665.048 228.038 659.972 224.006 653.886 222.511C647.799 221.016 640.82 222.694 636.464 227.684C632.431 232.308 630.281 238.115 628.775 243.987C625.904 255.225 625.452 267.215 621.312 278.109C621.204 278.389 621.075 278.668 620.978 278.948C621.828 276.41 621.624 277.475 621.322 278.098C621.075 278.604 620.839 279.12 620.57 279.615C620.312 280.088 620.043 280.55 619.752 281.002C619.613 281.217 619.462 281.421 619.322 281.637C618.677 282.637 620.914 279.787 619.817 280.981C619.494 281.335 619.182 281.69 618.828 282.013C618.709 282.12 618.365 282.325 618.301 282.465C618.301 282.465 620.161 281.185 619.376 281.626C618.946 281.862 618.537 282.142 618.107 282.379C617.462 282.733 616.58 282.766 619.107 281.991C618.774 282.099 618.451 282.239 618.118 282.346C617.032 282.701 615.913 282.852 614.806 283.088C617.881 282.422 615.666 282.97 614.806 283.024C614.042 283.078 613.289 283.11 612.526 283.121C609.654 283.164 606.772 282.949 603.912 282.658C602.363 282.497 600.825 282.314 599.287 282.12C598.9 282.067 598.502 282.013 598.115 281.97C600.847 282.314 599.287 282.131 598.685 282.045C597.889 281.938 597.104 281.83 596.309 281.712C592.459 281.174 588.609 280.615 584.748 280.174C578.607 279.475 572.359 279.099 566.262 280.432C559.766 281.852 554.518 286.11 552.357 292.455C550.443 298.069 551.851 304.586 553.744 310.016C555.992 316.447 559.067 322.577 562.035 328.696C563.412 331.524 564.778 334.353 566.036 337.235C566.187 337.579 566.337 337.934 566.488 338.278C565.391 335.848 566.025 337.181 566.251 337.73C566.531 338.407 566.799 339.085 567.058 339.762C567.585 341.16 568.079 342.58 568.499 344.021C568.854 345.236 569.122 346.462 569.359 347.709C569.714 349.559 569.187 345.483 569.294 347.311C569.337 347.957 569.38 348.602 569.37 349.247C569.348 350.247 568.778 351.817 569.51 348.925C569.391 349.408 569.327 349.903 569.187 350.387C569.122 350.613 569.036 350.828 568.961 351.043C568.617 352.151 569.983 348.946 569.413 349.957C569.133 350.441 568.886 350.936 568.574 351.409C567.434 353.119 569.886 349.935 568.757 351.194C568.456 351.527 568.165 351.86 567.853 352.183C566.972 353.086 566.014 353.893 565.047 354.699C564.025 355.56 566.8 353.42 565.692 354.194C565.434 354.377 565.176 354.57 564.918 354.753C564.38 355.14 563.842 355.506 563.294 355.872C562.089 356.667 560.863 357.431 559.627 358.162C549.174 364.357 537.344 368.906 528.289 377.218C523.966 381.197 520.385 386.876 520.708 392.973C521.03 399.071 524.504 404.577 529.193 408.577C538.592 416.578 550.238 421.106 560.691 427.472C561.853 428.182 563.003 428.913 564.122 429.687C564.649 430.053 565.165 430.44 565.692 430.817C566.789 431.602 564.014 429.462 565.047 430.311C565.358 430.569 565.67 430.816 565.982 431.075C566.843 431.806 567.66 432.58 568.413 433.419C568.972 434.043 569.671 435.419 568.144 432.989C568.445 433.473 568.8 433.924 569.09 434.419C569.208 434.623 569.305 434.839 569.424 435.043C570.004 436.064 568.628 432.849 568.972 433.957C569.112 434.419 569.273 434.86 569.381 435.333C569.843 437.387 569.284 433.236 569.348 434.957C569.37 435.591 569.402 436.215 569.37 436.839C569.348 437.312 569.273 437.785 569.251 438.258C569.359 435.161 569.38 437.29 569.208 438.183C568.929 439.56 568.552 440.915 568.122 442.259C567.692 443.603 567.208 444.926 566.681 446.238C566.423 446.883 565.283 449.421 566.498 446.711C566.187 447.41 565.896 448.109 565.584 448.808C564.24 451.808 562.788 454.766 561.347 457.734C558.411 463.767 555.379 469.864 553.325 476.274C551.626 481.576 550.539 487.856 552.626 493.201C555.131 499.61 560.691 503.632 567.412 504.772C573.714 505.847 579.995 505.407 586.307 504.632C590.114 504.17 593.91 503.611 597.707 503.084C598.395 502.987 601.137 502.643 598.126 503.019C598.911 502.922 599.685 502.815 600.47 502.718C602.116 502.514 603.772 502.331 605.428 502.18C608.224 501.933 611.042 501.772 613.859 501.901C614.494 501.933 615.128 501.987 615.752 502.04C616.483 502.094 617.526 502.481 614.816 501.901C615.107 501.965 615.397 501.987 615.687 502.04C616.881 502.256 617.967 502.653 619.118 503.008C616.354 502.159 617.978 502.503 618.774 502.976C619.57 503.449 620.236 504.374 618.322 502.524C618.655 502.847 619.032 503.137 619.354 503.471C619.527 503.643 619.677 503.826 619.838 504.008C620.925 505.202 618.698 502.352 619.344 503.353C619.924 504.256 620.494 505.148 620.978 506.116C621.344 506.848 621.946 508.902 621 506.041C621.226 506.719 621.516 507.375 621.753 508.052C625.581 519.129 626.044 531.066 629.141 542.336C630.679 547.928 632.915 553.864 637.142 558.015C641.852 562.629 648.605 564.231 654.886 562.188C661.059 560.188 666.231 556.047 671.038 551.81C675.845 547.573 680.158 543.142 684.771 538.862C685.9 537.808 687.04 536.776 688.202 535.765C688.761 535.27 689.331 534.787 689.901 534.313C690.471 533.84 692.966 531.98 690.525 533.776C692.643 532.227 694.762 530.797 697.106 529.614C697.762 529.28 698.73 529.184 696.246 529.958C696.515 529.872 696.773 529.754 697.031 529.657C697.547 529.474 698.063 529.313 698.59 529.184C698.848 529.119 699.106 529.087 699.364 529.022C700.58 528.732 696.999 529.216 698.235 529.173C698.827 529.151 699.397 529.13 699.988 529.151C701.677 529.205 697.526 528.667 699.623 529.13C700.063 529.227 700.494 529.345 700.913 529.485C701.763 529.754 703.376 530.775 700.827 529.377C701.44 529.711 702.096 529.969 702.709 530.302C703.838 530.915 704.935 531.614 706 532.356C706.57 532.743 707.118 533.163 707.667 533.571C708.817 534.432 706.021 532.27 707.161 533.173C707.495 533.442 707.817 533.7 708.151 533.969C710.57 535.948 712.872 538.066 715.151 540.217C719.786 544.594 724.249 549.165 729.121 553.262C733.702 557.123 739.036 561.36 745.08 562.586C751.414 563.865 757.877 562.134 762.168 557.112C770.094 547.853 771.169 534.281 773.245 522.764C774.256 517.171 775.417 511.655 777.374 506.31C777.826 505.062 776.46 508.332 777.019 507.138C777.149 506.88 777.256 506.611 777.385 506.353C777.6 505.89 777.837 505.439 778.084 504.998C778.331 504.557 778.568 504.159 778.848 503.75C780.02 501.997 777.439 505.331 778.805 503.793C779.116 503.439 779.461 503.116 779.805 502.793C780.945 501.707 777.772 504.148 779.493 503.073C779.923 502.804 780.385 502.621 780.816 502.374C778.676 503.632 779.095 503.041 779.848 502.793C780.192 502.686 780.525 502.557 780.869 502.46C781.321 502.331 781.773 502.223 782.224 502.127C783.085 501.944 785.203 501.933 782.117 502.084C783.504 502.019 784.881 501.847 786.279 501.836C789.172 501.815 792.064 502.04 794.936 502.342C796.484 502.503 798.033 502.697 799.571 502.89C800.173 502.965 801.721 503.191 799.001 502.815C799.399 502.869 799.786 502.922 800.184 502.976C801.108 503.105 802.033 503.234 802.947 503.363C806.658 503.879 810.368 504.417 814.099 504.826C825.864 506.138 842.243 506.041 846.243 492.05C847.91 486.221 846.48 479.844 844.48 474.295C842.167 467.918 839.113 461.831 836.167 455.734C834.769 452.862 833.414 449.969 832.123 447.044C831.521 445.668 832.919 448.969 832.349 447.593C832.209 447.249 832.069 446.905 831.93 446.571C831.661 445.904 831.403 445.227 831.155 444.549C830.682 443.27 830.252 441.968 829.875 440.646C829.531 439.431 829.295 438.215 829.058 436.979C828.8 435.667 829.273 439.28 829.198 437.957C829.177 437.678 829.144 437.387 829.123 437.108C829.08 436.473 829.08 435.839 829.112 435.204C829.23 433.064 828.65 437.204 829.047 435.57C829.144 435.172 829.241 434.774 829.359 434.376C829.424 434.161 829.542 433.957 829.596 433.742C829.101 435.978 828.746 435.57 829.166 434.828C829.445 434.333 829.725 433.86 830.037 433.387C830.929 432.01 828.499 435.193 829.886 433.613C830.241 433.204 830.618 432.806 831.005 432.43C831.413 432.032 831.833 431.645 832.263 431.268C832.887 430.72 835.037 429.354 832.521 430.999C834.79 429.526 836.952 427.934 839.296 426.569C844.598 423.461 850.115 420.74 855.481 417.761C865.127 412.427 877.602 404.996 877.763 392.5C877.817 388.284 874.01 384.241 869.698 384.434C865.385 384.628 861.697 387.972 861.632 392.5L861.654 392.554Z" fill="#FA4008"/>
<path d="M629.334 317.866C629.334 317.866 621.021 360.657 632.41 363.517C653.144 368.711 647.724 360.194 667.156 325.953" fill="#FAF1E7"/>
<path d="M623.116 316.146C622.116 321.318 621.406 326.566 620.826 331.804C619.901 340.159 619.331 348.795 620.944 357.108C621.643 360.7 623.095 364.55 625.88 367.055C629.375 370.195 634.559 370.787 639.054 371.26C642.581 371.626 646.227 371.12 649.367 369.389C652.507 367.657 654.69 364.786 656.432 361.818C658.755 357.839 660.497 353.527 662.433 349.365C665.606 342.515 669.015 335.793 672.736 329.223C674.402 326.287 673.531 322.039 670.423 320.394C667.315 318.748 663.369 319.576 661.594 322.706C658.336 328.459 655.303 334.341 652.475 340.321C650.593 344.3 648.851 348.354 646.894 352.29C646.195 353.699 645.463 355.097 644.603 356.42C644.442 356.667 644.28 356.903 644.108 357.151C643.269 358.377 645.13 355.936 644.463 356.71C644.076 357.162 643.7 357.602 643.259 358C642.721 358.495 641.785 358.861 643.786 357.635C643.592 357.753 643.409 357.904 643.205 358.033C643.001 358.162 642.796 358.258 642.603 358.377C641.398 359.044 644.442 357.764 643.108 358.162C642.635 358.301 642.173 358.42 641.689 358.527C640.516 358.785 643.796 358.366 642.312 358.431C641.979 358.441 641.635 358.474 641.301 358.474C640.613 358.474 639.936 358.441 639.258 358.377C638.634 358.312 637.258 358.022 639.742 358.463C639.226 358.377 638.71 358.301 638.194 358.205C637.376 358.054 636.559 357.882 635.742 357.688C635.204 357.57 634.666 357.452 634.128 357.301C634.021 357.269 633.903 357.226 633.795 357.205C632.86 357 635.462 358.065 634.752 357.624C634.548 357.495 634.311 357.344 634.096 357.237C634.569 357.473 635.548 358.495 634.698 357.645C634.526 357.473 634.376 357.258 634.204 357.097C635.795 358.646 634.967 358.14 634.548 357.43C634.387 357.162 634.258 356.882 634.118 356.613C633.526 355.505 634.774 358.355 634.354 357.172C634.096 356.441 633.86 355.699 633.677 354.935C633.494 354.172 633.343 353.398 633.214 352.623C632.946 350.935 633.343 353.806 633.257 352.978C633.204 352.473 633.139 351.957 633.096 351.451C632.935 349.558 632.87 347.666 632.87 345.773C632.87 341.794 633.139 337.815 633.526 333.858C633.731 331.836 633.967 329.814 634.225 327.792C634.354 326.749 633.967 329.653 634.118 328.62C634.15 328.405 634.182 328.19 634.204 327.975C634.268 327.491 634.344 327.018 634.408 326.534C634.516 325.792 634.634 325.05 634.752 324.319C635 322.749 635.258 321.168 635.559 319.608C636.204 316.307 634.634 312.489 631.053 311.672C627.859 310.941 623.805 312.64 623.116 316.178V316.146Z" fill="#FA4008"/>
<path d="M689.682 328.116C689.682 328.116 681.369 370.907 692.757 373.767C713.491 378.961 708.071 370.444 727.504 336.203" fill="#FAF1E7"/>
<path d="M683.456 326.396C682.456 331.568 681.746 336.816 681.166 342.054C680.241 350.409 679.671 359.045 681.284 367.358C681.983 370.95 683.435 374.8 686.22 377.305C689.715 380.445 694.898 381.037 699.394 381.51C702.921 381.876 706.567 381.37 709.707 379.639C712.847 377.907 715.03 375.036 716.772 372.068C719.095 368.089 720.837 363.777 722.773 359.615C725.945 352.765 729.354 346.043 733.075 339.473C734.742 336.537 733.871 332.289 730.763 330.644C727.655 328.998 723.708 329.826 721.934 332.956C718.676 338.709 715.643 344.591 712.815 350.571C710.933 354.55 709.191 358.604 707.233 362.54C706.534 363.949 705.803 365.347 704.943 366.67C704.781 366.917 704.62 367.153 704.448 367.401C703.609 368.627 705.47 366.186 704.803 366.96C704.416 367.412 704.039 367.852 703.599 368.25C703.061 368.745 702.125 369.111 704.125 367.885C703.932 368.003 703.749 368.154 703.545 368.283C703.34 368.412 703.136 368.508 702.943 368.627C701.738 369.294 704.781 368.014 703.448 368.412C702.975 368.551 702.512 368.67 702.028 368.777C700.856 369.035 704.136 368.616 702.652 368.681C702.319 368.691 701.975 368.724 701.641 368.724C700.953 368.724 700.276 368.691 699.598 368.627C698.974 368.562 697.598 368.272 700.082 368.713C699.566 368.627 699.05 368.551 698.533 368.455C697.716 368.304 696.899 368.132 696.081 367.938C695.544 367.82 695.006 367.702 694.468 367.551C694.361 367.519 694.242 367.476 694.135 367.455C693.199 367.25 695.802 368.315 695.092 367.874C694.888 367.745 694.651 367.594 694.436 367.487C694.909 367.723 695.888 368.745 695.038 367.895C694.866 367.723 694.716 367.508 694.544 367.347C696.135 368.896 695.307 368.39 694.888 367.68C694.726 367.412 694.597 367.132 694.458 366.863C693.866 365.755 695.114 368.605 694.694 367.422C694.436 366.691 694.199 365.949 694.017 365.185C693.834 364.422 693.683 363.648 693.554 362.873C693.285 361.185 693.683 364.056 693.597 363.228C693.543 362.723 693.479 362.207 693.436 361.701C693.275 359.808 693.21 357.916 693.21 356.023C693.21 352.044 693.479 348.065 693.866 344.108C694.07 342.086 694.307 340.064 694.565 338.042C694.694 336.999 694.307 339.903 694.458 338.87C694.49 338.655 694.522 338.44 694.544 338.225C694.608 337.741 694.683 337.268 694.748 336.784C694.856 336.042 694.974 335.3 695.092 334.569C695.339 332.999 695.597 331.418 695.899 329.858C696.544 326.557 694.974 322.739 691.393 321.922C688.199 321.191 684.144 322.89 683.456 326.428V326.396Z" fill="#FA4008"/>
<path d="M603.305 392.554C603.305 392.554 699.543 451.518 747.936 407.427L603.305 392.554Z" fill="#FAF1E7"/>
<path d="M600.047 398.125C603.327 400.136 606.725 401.953 610.134 403.738C618.952 408.362 628.04 412.503 637.288 416.202C648.633 420.74 660.323 424.526 672.292 427.031C685.057 429.698 698.349 431.15 711.362 429.655C724.374 428.161 737.548 423.794 748.313 415.471C749.754 414.363 751.152 413.212 752.507 411.987C755.012 409.717 754.991 405.136 752.507 402.856C749.829 400.394 746.054 400.437 743.377 402.856C742.807 403.373 742.226 403.889 741.624 404.383C741.344 404.609 741.075 404.846 740.796 405.072C740.634 405.201 740.473 405.33 740.322 405.459C739.516 406.115 741.398 404.652 740.785 405.104C739.57 405.997 738.354 406.889 737.085 407.706C734.558 409.341 731.891 410.782 729.149 412.019C728.816 412.169 728.428 412.406 728.074 412.492C727.923 412.535 729.568 411.879 728.934 412.126C728.751 412.202 728.568 412.277 728.385 412.352C727.654 412.643 726.923 412.922 726.192 413.191C724.804 413.686 723.406 414.137 721.998 414.546C719.105 415.374 716.169 416.019 713.201 416.492C712.814 416.557 712.416 416.611 712.029 416.675C711.878 416.697 711.738 416.718 711.588 416.74C710.813 416.858 713.201 416.535 712.416 416.632C711.631 416.729 710.835 416.826 710.039 416.901C708.544 417.052 707.049 417.159 705.544 417.234C702.457 417.385 699.371 417.385 696.295 417.256C693.22 417.127 690.069 416.869 686.972 416.503C686.617 416.46 686.262 416.417 685.896 416.374C684.315 416.17 686.993 416.535 686.079 416.406C685.262 416.288 684.444 416.17 683.638 416.052C682.111 415.815 680.595 415.557 679.067 415.266C667.12 413.03 655.43 409.438 644.085 405.093C641.504 404.104 638.944 403.061 636.385 401.996C635.761 401.738 637.503 402.469 637.32 402.394C637.159 402.329 636.998 402.254 636.836 402.19C636.514 402.05 636.202 401.921 635.879 401.781C635.255 401.512 634.632 401.243 634.008 400.964C632.879 400.469 631.75 399.963 630.62 399.447C626.62 397.63 622.662 395.716 618.748 393.705C614.672 391.618 610.726 389.349 606.736 387.102C606.682 387.069 606.628 387.037 606.574 387.005C603.692 385.241 599.348 386.284 597.745 389.317C596.143 392.35 596.982 396.264 600.058 398.146L600.047 398.125Z" fill="#FA4008"/>
<path d="M745.203 387.349C744.74 393.672 744.375 400.426 747.515 405.942C750.504 411.18 756.279 414.374 762.205 415.524C768.13 416.675 774.239 416.04 780.207 415.202" fill="#FAF1E7"/>
<path d="M738.752 387.349C738.171 395.458 738.118 404.394 743.28 411.18C748.786 418.428 757.131 421.794 766.035 422.483C771.358 422.891 776.671 422.149 781.929 421.418C783.414 421.214 785.07 419.676 785.79 418.45C786.597 417.062 786.941 415.03 786.435 413.481C785.93 411.933 784.962 410.416 783.467 409.621C781.822 408.75 780.316 408.717 778.499 408.975C778.155 409.029 777.811 409.072 777.477 409.115C778.338 408.997 778.391 408.986 777.649 409.083C777.047 409.147 776.445 409.234 775.843 409.298C774.552 409.438 773.262 409.545 771.971 409.621C770.767 409.685 769.562 409.717 768.358 409.685C767.25 409.664 765.82 409.771 764.766 409.459C766.347 409.933 764.583 409.416 764.185 409.352C763.701 409.266 763.228 409.158 762.755 409.051C761.841 408.825 760.927 408.556 760.034 408.233C759.776 408.137 759.529 408.051 759.271 407.943C760.185 408.341 760.325 408.395 759.69 408.115C759.325 407.943 758.959 407.771 758.593 407.588C757.701 407.126 756.84 406.61 756.012 406.029C754.7 405.104 756.819 406.803 755.894 405.932C755.507 405.566 755.098 405.233 754.722 404.846C754.442 404.566 754.184 404.254 753.915 403.975C753.485 403.448 753.571 403.577 754.173 404.351C754.012 404.136 753.861 403.921 753.711 403.706C753.485 403.373 753.281 403.028 753.076 402.684C752.926 402.426 752.786 402.157 752.646 401.889C752.345 401.243 752.377 401.351 752.743 402.211C752.227 401.448 752.012 400.114 751.807 399.243C751.689 398.738 751.614 398.221 751.506 397.705C751.431 397.211 751.453 397.415 751.582 398.307C751.549 398.006 751.517 397.705 751.485 397.404C751.388 396.339 751.345 395.286 751.334 394.221C751.313 391.93 751.474 389.64 751.635 387.36C751.883 383.983 748.495 380.757 745.183 380.907C741.484 381.069 738.989 383.746 738.73 387.36L738.752 387.349Z" fill="#FA4008"/>
<path d="M666.706 371.434C659.082 366.756 648.898 362.142 641.875 367.681C635.487 372.714 636.864 383.543 642.714 389.178C648.564 394.813 657.167 396.415 665.276 396.985" fill="#FAF1E7"/>
<path d="M669.964 365.863C664.286 362.39 658.145 359.497 651.456 358.809C644.767 358.12 637.874 361.099 634.056 366.863C630.787 371.799 630.497 378.639 632.325 384.156C634.347 390.243 638.53 395.071 644.133 398.168C650.607 401.749 657.995 402.911 665.275 403.438C668.652 403.685 671.878 400.298 671.728 396.985C671.566 393.286 668.889 390.791 665.275 390.533C664.082 390.447 662.877 390.339 661.694 390.21C661.415 390.178 660.898 390.006 660.64 390.081C660.759 390.049 662.243 390.329 661.092 390.135C660.393 390.017 659.694 389.909 658.995 389.769C658.404 389.651 652.08 387.866 652.112 387.801C652.177 387.705 653.403 388.393 652.51 387.963C652.198 387.812 651.887 387.672 651.575 387.511C651.08 387.264 650.596 387.006 650.123 386.726C649.585 386.414 649.069 386.081 648.553 385.726C648.327 385.575 648.112 385.382 647.886 385.242L648.542 385.737C648.327 385.565 648.112 385.382 647.908 385.199C647.531 384.866 647.155 384.511 646.811 384.145C646.649 383.973 646.51 383.801 646.348 383.629C645.66 382.908 646.66 384.038 646.703 384.124C646.208 383.209 645.531 382.403 645.058 381.457C644.961 381.274 644.875 381.005 644.757 380.822C645.595 382.102 645.144 381.822 644.95 381.231C644.8 380.79 644.649 380.349 644.52 379.897C644.38 379.392 644.283 378.886 644.165 378.37C644.047 377.854 644.197 377.349 644.24 379.058C644.24 378.714 644.165 378.37 644.144 378.037C644.09 377.123 644.197 376.241 644.219 375.338C644.154 377.37 644.154 375.95 644.326 375.262C644.456 374.789 644.671 374.337 644.789 373.864C644.402 375.434 644.305 374.897 644.617 374.37C644.724 374.187 644.821 373.983 644.939 373.8C645.058 373.617 645.187 373.434 645.294 373.251C645.682 372.541 644.165 374.509 644.983 373.649C645.294 373.326 645.606 373.015 645.918 372.692C646.262 372.337 646.671 372.369 645.456 373.015C645.8 372.832 646.122 372.552 646.456 372.359C646.682 372.23 646.918 372.111 647.144 371.982C647.66 371.703 647.865 371.961 646.671 372.176C647.155 372.09 647.65 371.842 648.133 371.735C648.262 371.703 648.746 371.67 648.886 371.584C648.08 372.079 647.563 371.724 648.51 371.66C649.091 371.617 649.682 371.617 650.263 371.638C650.596 371.649 650.919 371.692 651.252 371.713C652.069 371.767 649.768 371.445 650.94 371.67C651.618 371.799 652.295 371.939 652.962 372.111C654.339 372.477 655.64 373.09 656.995 373.488C656.844 373.445 655.629 372.875 656.651 373.359C657.049 373.542 657.446 373.724 657.834 373.907C658.49 374.219 659.135 374.552 659.769 374.897C661.017 375.563 662.243 376.273 663.447 377.015C666.329 378.779 670.674 377.736 672.276 374.703C673.879 371.67 673.04 367.756 669.964 365.874V365.863Z" fill="#FA4008"/>
</svg>
