<svg width="688" height="779" viewBox="0 0 688 779" fill="none" xmlns="http://www.w3.org/2000/svg">
<rect width="688" height="779" fill="#FAF1E7"/>
<path d="M378.082 330.546H284.782C284.782 330.546 284.734 330.57 284.734 330.594V462.488H327.06C336.312 462.488 343.815 454.872 343.815 445.48V426.624C343.815 446.439 359.637 462.5 379.157 462.5H402.896V396.529H378.082C391.788 396.529 402.896 385.254 402.896 371.34V355.747C402.896 341.833 391.788 330.558 378.082 330.558V330.546ZM346.178 402.742C346.178 403.402 345.646 403.942 344.997 403.942H342.633C341.983 403.942 341.452 403.402 341.452 402.742V360.761C341.452 360.101 341.983 359.561 342.633 359.561H344.997C345.646 359.561 346.178 360.101 346.178 360.761V402.742Z" fill="#FF4409"/>
<path d="M239.129 338.942V408.488C239.129 409.148 238.598 409.687 237.948 409.687H235.585C234.935 409.687 234.403 409.148 234.403 408.488V343.476C234.403 336.855 229.523 331.062 223.024 330.582C222.705 330.558 222.386 330.546 222.067 330.546H212.082C211.763 330.546 211.444 330.546 211.125 330.582C204.626 331.062 199.746 336.855 199.746 343.476V408.488C199.746 409.148 199.215 409.687 198.565 409.687H196.202C195.552 409.687 195.02 409.148 195.02 408.488V338.271C195.02 334 191.617 330.546 187.41 330.546H158V422.906C158 423.121 158.024 423.325 158.035 423.541C158.035 423.757 158 423.961 158 424.177V462.5H192.267C200.822 462.5 208.337 458.098 212.791 451.405C214.127 449.39 214.871 447.015 215.107 444.604V444.496C215.58 440.466 216.112 436.052 216.773 432.058H217.364C218.038 436.04 218.569 440.466 219.03 444.496V444.52C219.255 446.967 219.999 449.366 221.358 451.393C225.813 458.086 233.328 462.488 241.883 462.488H276.149V424.165C276.149 423.841 276.114 423.517 276.102 423.205C276.114 422.882 276.149 422.57 276.149 422.246V330.558H247.401C242.828 330.558 239.129 334.312 239.129 338.954V338.942Z" fill="#FF4409"/>
<path d="M529.642 330.547H495.375C487.789 330.547 481.018 334.013 476.481 339.459C474.2 342.194 472.865 345.612 472.523 349.187C472.05 353.217 471.518 357.631 470.856 361.625H470.266C469.592 357.643 469.06 353.217 468.6 349.187V349.151C468.281 345.636 466.957 342.266 464.724 339.555C460.187 334.049 453.38 330.547 445.747 330.547H411.48V368.87C411.48 369.194 411.516 369.518 411.528 369.83C411.516 370.153 411.48 370.465 411.48 370.789V462.477H440.229C444.802 462.477 448.5 458.723 448.5 454.081V385.351C448.5 384.691 449.032 384.151 449.682 384.151H452.045C452.695 384.151 453.227 384.691 453.227 385.351V449.343C453.227 456.588 459.017 462.465 466.154 462.465H474.957C482.094 462.465 487.884 456.588 487.884 449.343V385.351C487.884 384.691 488.415 384.151 489.065 384.151H491.428C492.078 384.151 492.61 384.691 492.61 385.351V454.74C492.61 459.011 496.013 462.465 500.22 462.465H529.63V370.105C529.63 369.89 529.606 369.686 529.594 369.47C529.594 369.254 529.63 369.05 529.63 368.834V330.511V330.547H529.642Z" fill="#FF4409"/>
</svg>
