<svg width="688" height="779" viewBox="0 0 688 779" fill="none" xmlns="http://www.w3.org/2000/svg">
<rect width="688" height="779" fill="#FF4409"/>
<path d="M155.666 227H111.006V121.02H132.986V203.48H155.666V227ZM209.036 227H162.276V121.02H209.176V143.42H184.256V162.04H208.756V183.46H184.256V203.48H209.036V227ZM253.757 227H231.777V143.42H215.117V121.02H270.417V143.42H253.757V227ZM293.503 159.24H279.363L276.283 116.68H296.443L293.503 159.24ZM353.86 153.92H335.66C335.8 152.52 335.8 151.82 335.8 149.3C335.8 142.72 334.68 140.62 329.36 140.62C324.04 140.62 323.06 142.72 323.06 149.3C323.06 155.46 324.6 157.14 328.1 159.24C336.5 164.14 342.1 165.4 347.56 169.04C353.72 173.38 356.52 178.28 356.52 195.92C356.52 221.12 350.22 228.82 328.8 228.82C311.3 228.82 303.32 223.08 303.32 206.42C303.32 201.1 303.6 194.94 304.44 191.58H322.78C322.5 192.7 322.5 193.96 322.5 195.5C322.5 203.62 323.62 206.28 329.22 206.28C334.82 206.28 336.08 204.46 336.08 195.5C336.08 190.04 334.54 187.94 330.76 185.28C323.9 180.66 315.08 178.56 309.34 173.38C303.6 168.34 303.18 159.94 303.18 145.94C303.18 126.06 308.5 119.2 329.36 119.2C348.26 119.2 354.98 124.66 354.98 142.58C354.98 148.32 354.7 151.26 353.86 153.92ZM450.063 227H426.683C425.563 223.5 425.143 221.4 422.343 196.9C421.363 187.1 420.103 185.7 417.303 185.7H413.943V227H391.963V121.02H424.023C443.063 121.02 447.963 129.14 447.963 149.58C447.963 171.42 444.883 172.96 438.863 176.46V177.3C439.983 178.28 441.243 179.12 442.223 181.64C443.763 185 445.303 191.3 446.843 203.62C448.943 220.84 449.083 223.22 450.063 226.3V227ZM413.943 165.96H420.103C424.163 165.96 425.703 163.16 425.703 153.36C425.703 144.96 423.883 142.86 419.543 142.86H413.943V165.96ZM489.701 194.38V121.02H511.541V194.38C511.121 211.88 509.441 216.36 506.501 221.12C502.861 227 496.561 228.82 483.121 228.82C469.541 228.82 463.241 227 459.601 221.12C456.521 216.36 454.421 211.88 454.421 194.38V121.02H476.961V194.38C476.961 204.32 477.941 205.16 483.401 205.16C488.861 205.16 489.701 204.32 489.701 194.38ZM577.329 227H565.849L540.789 170.16H539.949V227H519.929V121.02H541.489L556.329 157.84H557.169V121.02H577.329V227ZM303.867 364H272.787L265.507 299.04H263.967L256.127 364H225.047L215.667 258.02H237.927L242.687 330.12H244.227L253.887 258.02H276.007L285.807 330.12H287.347L291.967 258.02H312.967L303.867 364ZM342.459 364H319.919V258.02H342.459V364ZM388.015 364H366.035V280.42H349.375V258.02H404.675V280.42H388.015V364ZM469.76 364H447.22V320.46H433.5V364H410.96V258.02H433.5V299.04H447.22V258.02H469.76V364ZM215.41 501H184.33L177.05 436.04H175.51L167.67 501H136.59L127.21 395.02H149.47L154.23 467.12H155.77L165.43 395.02H187.55L197.35 467.12H198.89L203.51 395.02H224.51L215.41 501ZM281.436 501H258.756L256.936 476.5H246.296L244.616 501H222.496L233.836 395.02H270.796L281.436 501ZM255.956 455.08L252.316 417.14H250.776L247.276 455.08H255.956ZM321.368 501H297.708V462.36L278.388 395.72V395.02H301.068C307.088 421.48 307.788 424.84 308.628 429.32H310.028C310.868 424.84 311.568 421.48 317.868 395.02H339.848V395.72L321.368 462.08V501ZM431.059 501H407.679C406.559 497.5 406.139 495.4 403.339 470.9C402.359 461.1 401.099 459.7 398.299 459.7H394.939V501H372.959V395.02H405.019C424.059 395.02 428.959 403.14 428.959 423.58C428.959 445.42 425.879 446.96 419.859 450.46V451.3C420.979 452.28 422.239 453.12 423.219 455.64C424.759 459 426.299 465.3 427.839 477.62C429.939 494.84 430.079 497.22 431.059 500.3V501ZM394.939 439.96H401.099C405.159 439.96 406.699 437.16 406.699 427.36C406.699 418.96 404.879 416.86 400.539 416.86H394.939V439.96ZM470.697 468.38V395.02H492.537V468.38C492.117 485.88 490.437 490.36 487.497 495.12C483.857 501 477.557 502.82 464.117 502.82C450.537 502.82 444.237 501 440.597 495.12C437.517 490.36 435.417 485.88 435.417 468.38V395.02H457.957V468.38C457.957 478.32 458.937 479.16 464.397 479.16C469.857 479.16 470.697 478.32 470.697 468.38ZM558.325 501H546.845L521.785 444.16H520.945V501H500.925V395.02H522.485L537.325 431.84H538.165V395.02H558.325V501ZM212.633 638H192.473V574.44H191.633L175.533 638H165.873L149.633 574.44H148.793V638H128.773V532.02H159.853L169.653 578.08H170.633L181.553 532.02H212.493L212.633 638ZM268.645 638H221.885V532.02H268.785V554.42H243.865V573.04H268.365V594.46H243.865V614.48H268.645V638ZM333.526 638H310.846L309.026 613.5H298.386L296.706 638H274.586L285.926 532.02H322.886L333.526 638ZM308.046 592.08L304.406 554.14H302.866L299.366 592.08H308.046ZM397.27 638H385.79L360.73 581.16H359.89V638H339.87V532.02H361.43L376.27 568.84H377.11V532.02H397.27V638ZM429.275 638H406.735V532.02H429.275V638ZM496.391 638H484.911L459.851 581.16H459.011V638H438.991V532.02H460.551L475.391 568.84H476.231V532.02H496.391V638ZM540.856 602.02V596.98H530.636V575.7H560.596C560.736 579.34 560.876 586.76 560.876 596.56C560.876 619.8 559.196 625.54 555.976 631.14C552.336 637.72 546.036 639.82 532.596 639.82C519.016 639.82 512.716 637.72 509.076 631.14C505.436 624.7 503.896 618.26 503.896 584.1C503.896 551.34 505.436 545.04 509.076 538.6C512.716 532.3 519.296 530.2 532.596 530.2C547.996 530.2 555.276 533.84 558.356 543.36C559.616 547.42 560.176 552.6 560.176 558.9C560.176 561.56 560.176 562.54 560.036 564.36H539.596C539.736 563.8 539.736 563.1 539.736 562.54C539.736 557.92 539.316 555.96 538.896 554.56C538.476 552.74 536.516 551.9 532.456 551.9C528.676 551.9 527.136 552.74 526.436 554.56C525.596 557.36 525.176 560.86 525.176 583.82C525.176 608.04 525.456 610.84 526.296 613.36C527.136 615.6 529.376 616.44 533.016 616.44C536.656 616.44 538.196 615.6 539.316 613.78C540.576 611.82 540.856 610.42 540.856 602.02Z" fill="#FAF1E7"/>
</svg>
