<svg width="1405" height="410" viewBox="0 0 1405 410" fill="none" xmlns="http://www.w3.org/2000/svg">
<rect width="1405" height="410" fill="#FF4409"/>
<path d="M318.878 212.464H323.162V214.312H318.878V228.2H316.862V202.356H318.878V212.464ZM311.178 223.944H299.082V204.428H311.178V223.944ZM309.19 206.276H301.07V222.096H309.19V206.276ZM346.296 228.2H344.28V202.356H346.296V228.2ZM332.212 224.756C328.572 224.756 325.576 222.32 325.576 216.188V212.324C325.576 206.192 328.572 203.756 332.212 203.756C335.852 203.756 338.848 206.192 338.848 212.324V216.188C338.848 222.32 335.852 224.756 332.212 224.756ZM332.212 222.908C334.872 222.908 336.86 220.976 336.86 216.16V212.324C336.86 207.508 334.872 205.604 332.212 205.604C329.552 205.604 327.592 207.508 327.592 212.324V216.16C327.592 220.976 329.552 222.908 332.212 222.908ZM370.635 228.2V202.356H372.595V228.2H370.635ZM361.703 212.744H365.231V202.776H367.163V227.724H365.231V214.564H361.703V212.744ZM360.247 206.276V221.732C361.311 221.62 362.347 221.508 363.355 221.368L363.579 223.132C360.499 223.636 356.635 223.916 353.443 223.916H350.223L350.139 222.068H352.603V206.276H350.279V204.428H362.543V206.276H360.247ZM358.371 221.872V206.276H354.451V222.068C355.627 222.04 356.971 221.984 358.371 221.872ZM398.278 228.2H396.262V202.356H398.278V228.2ZM384.194 224.756C380.554 224.756 377.558 222.32 377.558 216.188V212.324C377.558 206.192 380.554 203.756 384.194 203.756C387.834 203.756 390.83 206.192 390.83 212.324V216.188C390.83 222.32 387.834 224.756 384.194 224.756ZM384.194 222.908C386.854 222.908 388.842 220.976 388.842 216.16V212.324C388.842 207.508 386.854 205.604 384.194 205.604C381.534 205.604 379.574 207.508 379.574 212.324V216.16C379.574 220.976 381.534 222.908 384.194 222.908ZM422.253 228.2V202.356H424.241V228.2H422.253ZM411.837 206.388V207.844C411.837 209.944 411.557 211.904 411.025 213.752L418.949 222.992L417.493 224.336L410.269 215.88C409.009 218.96 406.965 221.76 404.249 224.616L402.793 223.244C407.217 218.652 409.849 214.228 409.849 207.844V206.388H403.829V204.568H417.913V206.388H411.837ZM449.784 212.576H431.808V206.948H447.236V204.484H431.668V202.86H449.252V208.516H433.796V211.008H449.784V212.576ZM452.612 216.3H428.42V214.676H452.612V216.3ZM450.204 228.34H431.556V222.516H447.488V220.052H431.416V218.428H449.504V224.14H433.544V226.688H450.204V228.34ZM482.499 228.2H480.483V202.356H482.499V228.2ZM468.415 224.756C464.775 224.756 461.779 222.32 461.779 216.188V212.324C461.779 206.192 464.775 203.756 468.415 203.756C472.055 203.756 475.051 206.192 475.051 212.324V216.188C475.051 222.32 472.055 224.756 468.415 224.756ZM468.415 222.908C471.075 222.908 473.063 220.976 473.063 216.16V212.324C473.063 207.508 471.075 205.604 468.415 205.604C465.755 205.604 463.795 207.508 463.795 212.324V216.16C463.795 220.976 465.755 222.908 468.415 222.908ZM503.842 211.68V214.872H510.842V216.636H486.65V214.872H493.678V211.68C491.13 211.036 489.646 209.608 489.646 207.368C489.646 204.26 492.474 202.72 496.954 202.72H500.566C505.046 202.72 507.874 204.26 507.874 207.368C507.874 209.608 506.39 211.036 503.842 211.68ZM491.634 207.368C491.634 209.272 493.622 210.308 497.29 210.308H500.23C503.87 210.308 505.858 209.216 505.858 207.368C505.858 205.492 503.87 204.484 500.23 204.484H497.29C493.622 204.484 491.634 205.492 491.634 207.368ZM495.61 211.96V214.872H501.91V211.96C501.49 212.044 496.03 212.044 495.61 211.96ZM495.918 219.268H501.574C505.802 219.268 508.014 221.228 508.014 223.86C508.014 226.52 505.802 228.48 501.574 228.48H495.918C491.718 228.48 489.506 226.52 489.506 223.86C489.506 221.228 491.718 219.268 495.918 219.268ZM496.366 226.688H501.126C504.43 226.688 505.998 225.568 505.998 223.86C505.998 222.152 504.43 221.06 501.126 221.06H496.366C493.062 221.06 491.494 222.152 491.494 223.86C491.494 225.568 493.062 226.688 496.366 226.688ZM521.265 205.268H527.761V207.004H512.781V205.268H519.277V202.02H521.265V205.268ZM533.025 202.356V210.28H537.337V212.156H533.025V222.236H531.037V202.356H533.025ZM526.557 213.584V214.06C526.557 217.14 523.813 218.904 520.313 218.904C516.813 218.904 514.041 217.14 514.041 214.06V213.584C514.041 210.504 516.813 208.796 520.313 208.796C523.813 208.796 526.557 210.504 526.557 213.584ZM516.029 213.64V214.032C516.029 215.936 517.905 217.14 520.313 217.14C522.693 217.14 524.597 215.936 524.597 214.032V213.64C524.597 211.736 522.693 210.532 520.313 210.532C517.905 210.532 516.029 211.736 516.029 213.64ZM516.953 221.228H518.969V226.352H534.509V228.172H516.953V221.228ZM567.028 215.012H564.256V202.328H567.028V215.012ZM552.748 214.424C548.828 214.424 545.776 212.548 545.776 208.796V208.376C545.776 204.596 548.828 202.748 552.748 202.748C556.612 202.748 559.692 204.596 559.692 208.376V208.796C559.692 212.548 556.612 214.424 552.748 214.424ZM552.748 211.96C555.128 211.96 556.892 210.868 556.892 208.74V208.432C556.892 206.304 555.128 205.212 552.748 205.212C550.34 205.212 548.576 206.304 548.576 208.432V208.74C548.576 210.868 550.34 211.96 552.748 211.96ZM568.008 228.452H549.864V221.312H564.256V218.96H549.724V216.636H567.028V223.608H552.664V226.072H568.008V228.452ZM585.151 210.364V207.956H590.219V202.328H593.019V216.496H590.219V210.364H585.151ZM585.683 216.356L578.627 211.708C577.311 213.584 575.211 215.236 572.355 216.776L571.039 214.536C575.519 212.016 577.675 209.496 577.675 206.052H572.075V203.56H586.075V206.052H580.391C580.391 207.284 580.195 208.404 579.803 209.468L587.083 214.06L585.683 216.356ZM581.483 217.868H587.139C590.947 217.868 593.355 220.108 593.355 223.216C593.355 226.352 590.947 228.592 587.139 228.592H581.483C577.703 228.592 575.295 226.352 575.295 223.216C575.295 220.108 577.703 217.868 581.483 217.868ZM581.931 226.072H586.719C589.295 226.072 590.555 224.868 590.555 223.216C590.555 221.564 589.295 220.36 586.719 220.36H581.931C579.355 220.36 578.067 221.564 578.067 223.216C578.067 224.868 579.355 226.072 581.931 226.072ZM617.805 202.328V210.196H621.585V212.744H617.805V222.348H615.005V202.328H617.805ZM610.217 213.64L607.557 213.304C608.033 210.616 608.341 207.844 608.341 206.052H598.037V203.644H611.057V204.988C611.057 207.844 610.721 210.868 610.217 213.64ZM612.849 215.236L613.157 217.7C609.265 218.26 604.309 218.568 600.613 218.568H596.497L596.357 216.02H600.837H601.677V209.86H604.477V215.936C607.137 215.796 610.217 215.572 612.849 215.236ZM600.893 221.256H603.693V225.764H619.177V228.312H600.893V221.256ZM645 228.312H642.228V202.328H645V228.312ZM629.04 224.616H624.14V213.052H633.828V206.752H624.14V204.232H636.628V215.516H626.94V222.096H629.544C632.512 222.096 636.208 221.788 639.4 221.284L639.736 223.72C636.712 224.28 632.764 224.616 629.04 224.616ZM674.55 202.328H677.322V216.496H674.55V202.328ZM656.322 203.448H669.202V214.284H656.322V203.448ZM659.066 211.876H666.486V205.856H659.066V211.876ZM669.846 222.908L678.918 226.184L677.994 228.592L668.166 224.952C666.29 226.492 663.266 227.696 659.234 228.592L658.478 226.184C663.742 224.952 667.018 223.356 667.354 221.34H659.878V218.904H667.41V216.104H670.266V218.904H677.602V221.34H670.266C670.21 221.872 670.07 222.404 669.846 222.908ZM708.132 212.1H712.164V214.648H708.132V228.312H705.332V202.328H708.132V212.1ZM690.772 221.536H692.928C695.784 221.536 699.424 221.228 702.672 220.724L703.008 223.216C699.9 223.72 696.064 224.084 692.424 224.084H687.944V204.232H700.572V206.808H690.772V221.536ZM738.155 205.128V207.536H734.123V210.42H738.155V212.828H734.123V216.496H731.323V202.328H734.123V205.128H738.155ZM727.151 209.048V209.496C727.151 213.612 724.155 215.628 720.375 215.628C716.539 215.628 713.515 213.612 713.515 209.496V209.048C713.515 204.904 716.539 202.888 720.375 202.888C724.155 202.888 727.151 204.904 727.151 209.048ZM716.315 209.076V209.44C716.315 211.932 718.051 213.192 720.375 213.192C722.643 213.192 724.379 211.932 724.379 209.44V209.076C724.379 206.584 722.643 205.352 720.375 205.352C718.051 205.352 716.315 206.584 716.315 209.076ZM723.091 217.868H728.579C732.331 217.868 734.711 220.108 734.711 223.216C734.711 226.352 732.331 228.592 728.579 228.592H723.091C719.339 228.592 716.931 226.352 716.931 223.216C716.931 220.108 719.339 217.868 723.091 217.868ZM723.539 226.072H728.131C730.651 226.072 731.939 224.868 731.939 223.216C731.939 221.564 730.651 220.36 728.131 220.36H723.539C720.991 220.36 719.731 221.564 719.731 223.216C719.731 224.868 720.991 226.072 723.539 226.072ZM748.382 204.904H754.57V207.256H739.366V204.904H745.554V202.02H748.382V204.904ZM760.114 202.328V209.916H764.146V212.464H760.114V222.04H757.314V202.328H760.114ZM753.422 213.668V214.088C753.422 217.252 750.594 218.988 747.01 218.988C743.398 218.988 740.57 217.252 740.57 214.088V213.668C740.57 210.476 743.398 208.796 747.01 208.796C750.594 208.796 753.422 210.476 753.422 213.668ZM743.314 213.724V214.032C743.314 215.656 744.91 216.636 747.01 216.636C749.082 216.636 750.706 215.656 750.706 214.032V213.724C750.706 212.128 749.082 211.148 747.01 211.148C744.91 211.148 743.314 212.128 743.314 213.724ZM743.454 221.116H746.254V225.764H761.458V228.312H743.454V221.116ZM791.568 212.1V202.328H794.284V228.312H791.568V214.648H788.236V227.78H785.604V202.72H788.236V212.1H791.568ZM775.412 221.536H776.56C778.772 221.536 781.012 221.396 783.588 221.004L783.868 223.496C781.376 223.944 779.024 224.084 776.168 224.084H772.612V204.232H782.356V206.808H775.412V221.536ZM817.055 228.312V202.328H819.855V228.312H817.055ZM807.647 205.296H813.919V207.62H798.575V205.296H804.847V202.356H807.647V205.296ZM807.647 219.408V222.376C810.027 222.236 812.603 222.012 814.871 221.732L815.179 224.224C811.203 224.784 806.107 225.092 802.299 225.092H797.987L797.847 222.544H802.551C803.251 222.544 804.035 222.516 804.875 222.488V219.408C801.935 219.016 799.779 217.336 799.779 214.536V214.116C799.779 210.924 802.635 209.188 806.275 209.188C809.859 209.188 812.743 210.924 812.743 214.116V214.536C812.743 217.336 810.559 219.016 807.647 219.408ZM802.495 214.144V214.508C802.495 216.244 804.147 217.252 806.275 217.252C808.347 217.252 809.999 216.244 809.999 214.508V214.144C809.999 212.436 808.347 211.428 806.275 211.428C804.147 211.428 802.495 212.436 802.495 214.144ZM852.149 215.012H849.377V202.328H852.149V215.012ZM837.869 214.424C833.949 214.424 830.897 212.548 830.897 208.796V208.376C830.897 204.596 833.949 202.748 837.869 202.748C841.733 202.748 844.813 204.596 844.813 208.376V208.796C844.813 212.548 841.733 214.424 837.869 214.424ZM837.869 211.96C840.249 211.96 842.013 210.868 842.013 208.74V208.432C842.013 206.304 840.249 205.212 837.869 205.212C835.461 205.212 833.697 206.304 833.697 208.432V208.74C833.697 210.868 835.461 211.96 837.869 211.96ZM853.129 228.452H834.985V221.312H849.377V218.96H834.845V216.636H852.149V223.608H837.785V226.072H853.129V228.452ZM870.272 210.364V207.956H875.34V202.328H878.14V216.496H875.34V210.364H870.272ZM870.804 216.356L863.748 211.708C862.432 213.584 860.332 215.236 857.476 216.776L856.16 214.536C860.64 212.016 862.796 209.496 862.796 206.052H857.196V203.56H871.196V206.052H865.512C865.512 207.284 865.316 208.404 864.924 209.468L872.204 214.06L870.804 216.356ZM866.604 217.868H872.26C876.068 217.868 878.476 220.108 878.476 223.216C878.476 226.352 876.068 228.592 872.26 228.592H866.604C862.824 228.592 860.416 226.352 860.416 223.216C860.416 220.108 862.824 217.868 866.604 217.868ZM867.052 226.072H871.84C874.416 226.072 875.676 224.868 875.676 223.216C875.676 221.564 874.416 220.36 871.84 220.36H867.052C864.476 220.36 863.188 221.564 863.188 223.216C863.188 224.868 864.476 226.072 867.052 226.072ZM896.178 210.952H892.006C887.666 210.952 884.726 209.692 884.726 206.668C884.726 203.7 887.666 202.468 892.006 202.468H896.178C900.518 202.468 903.43 203.7 903.43 206.668C903.43 209.692 900.518 210.952 896.178 210.952ZM892.538 208.74H895.646C898.894 208.74 900.658 208.068 900.658 206.696C900.658 205.324 898.894 204.708 895.646 204.708H892.538C889.29 204.708 887.526 205.324 887.526 206.696C887.526 208.096 889.29 208.74 892.538 208.74ZM906.286 215.096H881.87V212.828H906.286V215.096ZM903.99 228.452H884.866V221.676H900.518V219.464H884.726V217.252H903.318V223.888H887.666V226.156H903.99V228.452ZM923.236 204.904H929.424V207.256H914.22V204.904H920.408V202.02H923.236V204.904ZM934.968 202.328V209.916H939V212.464H934.968V222.04H932.168V202.328H934.968ZM928.276 213.668V214.088C928.276 217.252 925.448 218.988 921.864 218.988C918.252 218.988 915.424 217.252 915.424 214.088V213.668C915.424 210.476 918.252 208.796 921.864 208.796C925.448 208.796 928.276 210.476 928.276 213.668ZM918.168 213.724V214.032C918.168 215.656 919.764 216.636 921.864 216.636C923.936 216.636 925.56 215.656 925.56 214.032V213.724C925.56 212.128 923.936 211.148 921.864 211.148C919.764 211.148 918.168 212.128 918.168 213.724ZM918.308 221.116H921.108V225.764H936.312V228.312H918.308V221.116ZM946.203 210.588H961.463V213.136H943.403V202.888H946.203V210.588ZM940.155 218.428V215.852H964.571V218.428H953.763V222.964H950.991V218.428H940.155ZM943.291 220.78H946.091V225.708H961.995V228.312H943.291V220.78ZM986.082 228.312V202.328H988.826V228.312H986.082ZM977.514 212.352H980.454V202.72H983.114V227.78H980.454V214.9H977.514V216.216C977.514 222.46 975.134 224.924 972.082 224.924C968.974 224.924 966.594 222.46 966.594 216.216V212.268C966.594 206.024 968.974 203.56 972.082 203.56C975.134 203.56 977.514 206.024 977.514 212.268V212.352ZM974.854 216.188V212.296C974.854 207.76 973.678 206.108 972.054 206.108C970.43 206.108 969.254 207.76 969.254 212.296V216.188C969.254 220.696 970.43 222.376 972.054 222.376C973.678 222.376 974.854 220.696 974.854 216.188ZM1019.24 212.1H1023.28V214.648H1019.24V228.312H1016.44V202.328H1019.24V212.1ZM1010.82 206.808V221.088C1011.99 220.948 1013.2 220.808 1014.32 220.64L1014.62 223.16C1010.7 223.748 1006 224.112 1002.19 224.112H998.272L998.132 221.536H1001.16V206.808H998.468V204.232H1013.48V206.808H1010.82ZM1008.13 221.312V206.808H1003.87V221.508C1005.16 221.48 1006.62 221.424 1008.13 221.312ZM1045.23 208.012H1049.27V210.588H1045.23V216.916H1042.43V202.328H1045.23V208.012ZM1038.26 209.188V209.636C1038.26 213.864 1035.27 215.908 1031.49 215.908C1027.65 215.908 1024.63 213.864 1024.63 209.636V209.188C1024.63 204.932 1027.65 202.888 1031.49 202.888C1035.27 202.888 1038.26 204.932 1038.26 209.188ZM1027.43 209.216V209.58C1027.43 212.156 1029.16 213.444 1031.49 213.444C1033.75 213.444 1035.49 212.156 1035.49 209.58V209.216C1035.49 206.64 1033.75 205.352 1031.49 205.352C1029.16 205.352 1027.43 206.64 1027.43 209.216ZM1042.43 221.088H1028.32V218.54H1045.23V228.592H1042.43V221.088ZM1070.92 212.464H1075.23V214.312H1070.92V228.2H1068.93V202.356H1070.92V212.464ZM1057.17 202.384H1059.16V206.472H1065.65V208.292H1050.67V206.472H1057.17V202.384ZM1058.21 210.952C1061.68 210.952 1064.42 213.248 1064.42 217V218.484C1064.42 222.208 1061.68 224.56 1058.21 224.56C1054.71 224.56 1051.93 222.208 1051.93 218.484V217C1051.93 213.248 1054.71 210.952 1058.21 210.952ZM1062.43 218.4V217.084C1062.43 214.396 1060.56 212.8 1058.21 212.8C1055.8 212.8 1053.95 214.396 1053.95 217.084V218.4C1053.95 221.088 1055.8 222.74 1058.21 222.74C1060.56 222.74 1062.43 221.088 1062.43 218.4ZM1095.76 207.172V206.36H1079.24V204.54H1097.75V206.724C1097.75 210.364 1097.13 215.292 1096.32 219.716L1094.36 219.352C1095.17 215.012 1095.76 210 1095.76 207.172ZM1087.86 213.332V224.28H1100.72V226.128H1076.52V224.28H1085.88V213.332H1087.86ZM1104.76 231.616H1103.1L1103.69 224.196H1105.71L1104.76 231.616ZM476.042 251.568H484.75V253.22H465.15V251.568H474.054V248.964H476.042V251.568ZM472.346 255.068H477.554C481.278 255.068 483.546 256.524 483.546 258.932C483.546 261.312 481.278 262.796 477.554 262.796H472.346C468.65 262.796 466.354 261.312 466.354 258.932C466.354 256.524 468.65 255.068 472.346 255.068ZM481.558 258.932C481.558 257.56 480.018 256.748 477.106 256.748H472.794C469.882 256.748 468.342 257.56 468.342 258.932C468.342 260.276 469.882 261.116 472.794 261.116H477.106C480.018 261.116 481.558 260.276 481.558 258.932ZM462.854 267.08V265.344H487.046V267.08H475.958V271H473.97V267.08H462.854ZM466.102 269.012H468.118V273.352H484.358V275.172H466.102V269.012ZM510.712 269.236H508.724V260.416H503.936V258.736H508.724V255.012H503.964V253.332H508.724V249.356H510.712V269.236ZM504.328 262.516L504.58 264.28C501.752 264.784 498.168 265.12 494.444 265.12H490.384V256.972H499.736V252.688H490.384V250.896H501.752V258.764H492.4V263.3H494.836C497.86 263.3 501.332 262.992 504.328 262.516ZM496.096 267.892V273.352H511.916V275.2H494.108V267.892H496.096ZM540.908 260.024V249.356H542.924V275.2H540.908V261.844H533.32C531.304 265.82 527.888 269.236 523.548 272.064L522.372 270.524C526.432 267.948 529.596 264.672 531.472 261.088C528.924 261.368 525.452 261.536 522.848 261.564H522.316L522.232 259.716H522.764C525.256 259.688 529.596 259.492 532.312 259.212C532.956 257.504 533.292 255.74 533.292 253.948V253.388H522.792V251.568H535.308V253.584C535.308 255.852 534.888 258.008 534.132 260.024H540.908ZM550.211 250.728H568.159V261.592H550.211V250.728ZM552.199 259.8H566.143V252.548H552.199V259.8ZM547.075 265.736H571.267V267.556H564.799V275.508H562.783V267.556H555.587V275.508H553.571V267.556H547.075V265.736ZM594.905 275.2H592.917V249.356H594.905V275.2ZM578.833 270.888H574.885V251.428H576.873V269.068H579.197C582.333 269.068 586.477 268.704 589.837 268.172L590.061 269.936C586.953 270.496 582.641 270.888 578.833 270.888ZM618.908 275.2V249.356H620.896V275.2H618.908ZM602.584 269.628H605.3C608.464 269.628 612.552 269.292 615.8 268.76L616.052 270.496C613.028 271.084 608.772 271.448 604.964 271.448H600.596V251.428H613.028V253.248H602.584V260.388H612.748V262.208H602.584V269.628ZM638.151 265.736V271.28H649.239V273.128H625.047V271.28H636.163V265.736H628.183V257.56H644.115V253.08H628.043V251.26H646.131V259.352H630.171V263.944H646.691V265.736H638.151ZM677.138 249.356H679.126V262.012H677.138V249.356ZM672.91 261.592L665.126 257C663.782 258.932 661.598 260.612 658.518 262.152L657.594 260.5C662.27 258.12 664.762 255.432 664.762 251.736V250.252H666.75V251.736C666.75 253.024 666.526 254.2 666.05 255.32L673.89 259.996L672.91 261.592ZM664.51 270.384V273.576H680.19V275.34H662.522V268.648H677.138V265.568H662.382V263.86H679.126V270.384H664.51ZM703.129 252.94V249.384H705.117V264.448H703.129V259.464H698.369V257.784H703.129V254.592H698.369V252.94H703.129ZM698.761 260.948L698.985 262.684C696.157 263.16 692.601 263.524 688.877 263.524H684.817V256.132H694.197V252.52H684.817V250.756H696.157V257.896H686.777V261.732H689.241C692.265 261.732 695.737 261.424 698.761 260.948ZM703.129 268.116H688.233V266.268H705.117V275.452H703.129V268.116ZM723.184 257.924H719.544C715.092 257.924 712.264 256.664 712.264 253.724C712.264 250.812 715.092 249.58 719.544 249.58H723.184C727.664 249.58 730.492 250.812 730.492 253.724C730.492 256.664 727.664 257.924 723.184 257.924ZM719.88 256.216H722.876C726.516 256.216 728.476 255.376 728.476 253.724C728.476 252.072 726.516 251.288 722.876 251.288H719.88C716.24 251.288 714.252 252.072 714.252 253.724C714.252 255.432 716.24 256.216 719.88 256.216ZM733.46 261.844H709.268V260.136H733.46V261.844ZM731.052 275.34H712.404V268.956H728.336V266.044H712.264V264.364H730.352V270.636H714.392V273.632H731.052V275.34ZM750.131 251.988H756.627V253.696H741.647V251.988H748.143V249.02H750.131V251.988ZM766.203 253.22V254.984H761.891V258.344H766.203V260.136H761.891V264.336H759.903V249.356H761.891V253.22H766.203ZM755.423 259.492V259.884C755.423 262.656 752.679 264.14 749.179 264.14C745.679 264.14 742.907 262.656 742.907 259.884V259.492C742.907 256.748 745.679 255.264 749.179 255.264C752.679 255.264 755.423 256.748 755.423 259.492ZM744.895 259.576V259.856C744.895 261.48 746.771 262.46 749.179 262.46C751.559 262.46 753.463 261.48 753.463 259.856V259.576C753.463 257.98 751.559 256.944 749.179 256.944C746.771 256.944 744.895 257.98 744.895 259.576ZM751.307 265.876H756.515C760.295 265.876 762.535 267.92 762.535 270.692C762.535 273.464 760.295 275.452 756.515 275.452H751.307C747.527 275.452 745.259 273.464 745.259 270.692C745.259 267.92 747.527 265.876 751.307 265.876ZM751.671 273.66H756.123C759.091 273.66 760.519 272.428 760.519 270.664C760.519 268.928 759.091 267.696 756.123 267.696H751.671C748.731 267.696 747.275 268.928 747.275 270.664C747.275 272.428 748.731 273.66 751.671 273.66ZM787.882 249.384V255.152H792.166V256.972H787.882V263.496H785.866V249.384H787.882ZM781.694 262.74L774.358 257.644C773.07 259.744 770.97 261.592 768.03 263.272L767.022 261.648C771.53 258.988 773.938 255.992 773.938 252.016V250.28H775.898V252.016C775.898 253.416 775.674 254.704 775.198 255.936L782.786 261.144L781.694 262.74ZM777.27 265.064H782.506C786.286 265.064 788.526 267.36 788.526 270.272C788.526 273.212 786.286 275.452 782.506 275.452H777.27C773.518 275.452 771.25 273.212 771.25 270.272C771.25 267.36 773.518 265.064 777.27 265.064ZM777.662 273.66H782.114C785.082 273.66 786.51 272.204 786.51 270.244C786.51 268.368 785.082 266.856 782.114 266.856H777.662C774.694 266.856 773.266 268.368 773.266 270.244C773.266 272.204 774.694 273.66 777.662 273.66ZM819.533 275.2V249.356H821.549V275.2H819.533ZM808.865 250.952V254.172C808.865 256.412 808.585 258.54 808.025 260.556L816.061 270.02L814.577 271.336L807.297 262.74C806.037 265.876 803.993 268.788 801.137 271.616L799.737 270.244C804.497 265.568 806.905 260.696 806.905 254.172V250.952H808.865ZM845.552 255.936V249.356H847.568V275.2H845.552V265.904H838.916V264.056H845.552V257.784H839.392C838.02 263.496 833.96 268.34 828.22 272.064L827.016 270.524C831.048 267.948 834.212 264.672 836.06 261.088C833.54 261.368 830.068 261.536 827.492 261.564H826.96L826.876 259.716H827.408C829.872 259.688 834.212 259.492 836.9 259.212C837.544 257.504 837.88 255.74 837.88 253.948V253.388H827.436V251.568H839.868V253.584C839.868 254.396 839.812 255.18 839.728 255.936H845.552ZM864.823 265.064V271.28H875.911V273.128H851.719V271.28H862.835V265.064H854.855V251.12H856.843V256.328H870.787V251.12H872.803V265.064H864.823ZM870.787 258.176H856.843V263.244H870.787V258.176ZM897.898 275.2V249.356H899.858V275.2H897.898ZM887.762 258.652H892.326V249.776H894.258V274.724H892.326V260.5H887.762V258.652ZM884.822 250.952V254.256C884.822 256.468 884.598 258.54 884.178 260.528L890.282 270.132L888.658 271.308L883.45 263.104C882.47 266.1 880.93 268.9 878.83 271.616L877.346 270.328C880.958 265.652 882.862 260.668 882.862 254.256V250.952H884.822ZM917.672 264.364H913.948C909.244 264.364 906.36 261.452 906.36 257.588C906.36 253.752 909.244 250.84 913.948 250.84H917.672C922.348 250.84 925.288 253.752 925.288 257.588C925.288 261.452 922.348 264.364 917.672 264.364ZM917.336 252.66H914.284C910.476 252.66 908.348 254.788 908.348 257.588C908.348 260.444 910.476 262.572 914.284 262.572H917.336C921.116 262.572 923.272 260.444 923.272 257.588C923.272 254.788 921.116 252.66 917.336 252.66ZM921.396 265.932V271.28H927.892V273.1H903.7V271.28H910.224V265.932H912.212V271.28H919.408V265.932H921.396ZM933.303 266.884H931.399L931.231 250.504H933.471L933.303 266.884ZM932.351 274.136C931.483 274.136 930.783 273.436 930.783 272.568C930.783 271.7 931.483 271.028 932.351 271.028C933.219 271.028 933.919 271.7 933.919 272.568C933.919 273.436 933.219 274.136 932.351 274.136ZM940.427 266.884H938.523L938.355 250.504H940.595L940.427 266.884ZM939.475 274.136C938.607 274.136 937.907 273.436 937.907 272.568C937.907 271.7 938.607 271.028 939.475 271.028C940.343 271.028 941.043 271.7 941.043 272.568C941.043 273.436 940.343 274.136 939.475 274.136Z" fill="#FAF1E7"/>
<path d="M629.565 164.42C627.442 164.42 625.762 164.047 624.525 163.3C623.289 162.553 622.402 161.48 621.865 160.08C621.329 158.68 621.06 157.012 621.06 155.075V144.54C621.06 142.58 621.329 140.912 621.865 139.535C622.402 138.158 623.289 137.108 624.525 136.385C625.762 135.638 627.442 135.265 629.565 135.265C631.712 135.265 633.404 135.638 634.64 136.385C635.9 137.108 636.799 138.158 637.335 139.535C637.872 140.912 638.14 142.58 638.14 144.54V155.075C638.14 157.012 637.872 158.68 637.335 160.08C636.799 161.48 635.9 162.553 634.64 163.3C633.404 164.047 631.712 164.42 629.565 164.42ZM629.565 159.975C630.219 159.975 630.697 159.812 631 159.485C631.304 159.158 631.502 158.738 631.595 158.225C631.689 157.712 631.735 157.187 631.735 156.65V143C631.735 142.44 631.689 141.915 631.595 141.425C631.502 140.912 631.304 140.492 631 140.165C630.697 139.838 630.219 139.675 629.565 139.675C628.959 139.675 628.504 139.838 628.2 140.165C627.897 140.492 627.699 140.912 627.605 141.425C627.512 141.915 627.465 142.44 627.465 143V156.65C627.465 157.187 627.5 157.712 627.57 158.225C627.664 158.738 627.85 159.158 628.13 159.485C628.434 159.812 628.912 159.975 629.565 159.975ZM650.143 164.42C647.973 164.42 646.27 164.07 645.033 163.37C643.82 162.647 642.968 161.608 642.478 160.255C641.988 158.878 641.743 157.198 641.743 155.215V135.65H647.938V156.16C647.938 156.743 647.985 157.327 648.078 157.91C648.171 158.493 648.37 158.972 648.673 159.345C649 159.718 649.49 159.905 650.143 159.905C650.82 159.905 651.31 159.718 651.613 159.345C651.916 158.972 652.103 158.493 652.173 157.91C652.266 157.327 652.313 156.743 652.313 156.16V135.65H658.543V155.215C658.543 157.198 658.286 158.878 657.773 160.255C657.283 161.608 656.431 162.647 655.218 163.37C654.005 164.07 652.313 164.42 650.143 164.42ZM662.529 164V135.65H670.334C672.248 135.65 673.904 135.86 675.304 136.28C676.704 136.7 677.789 137.458 678.559 138.555C679.353 139.628 679.749 141.157 679.749 143.14C679.749 144.307 679.656 145.345 679.469 146.255C679.283 147.165 678.933 147.958 678.419 148.635C677.929 149.288 677.218 149.837 676.284 150.28L680.169 164H673.694L670.579 151.295H668.794V164H662.529ZM668.794 147.69H670.544C671.431 147.69 672.119 147.538 672.609 147.235C673.099 146.908 673.438 146.453 673.624 145.87C673.834 145.263 673.939 144.54 673.939 143.7C673.939 142.487 673.718 141.542 673.274 140.865C672.831 140.188 672.014 139.85 670.824 139.85H668.794V147.69ZM692.366 164L692.856 135.65H699.576L702.691 152.135L706.051 135.65H712.526L713.016 164H708.571L708.046 145.135L704.756 164H700.801L697.301 144.995L696.881 164H692.366ZM725.234 164.42C723.111 164.42 721.431 164.047 720.194 163.3C718.957 162.553 718.071 161.48 717.534 160.08C716.997 158.68 716.729 157.012 716.729 155.075V144.54C716.729 142.58 716.997 140.912 717.534 139.535C718.071 138.158 718.957 137.108 720.194 136.385C721.431 135.638 723.111 135.265 725.234 135.265C727.381 135.265 729.072 135.638 730.309 136.385C731.569 137.108 732.467 138.158 733.004 139.535C733.541 140.912 733.809 142.58 733.809 144.54V155.075C733.809 157.012 733.541 158.68 733.004 160.08C732.467 161.48 731.569 162.553 730.309 163.3C729.072 164.047 727.381 164.42 725.234 164.42ZM725.234 159.975C725.887 159.975 726.366 159.812 726.669 159.485C726.972 159.158 727.171 158.738 727.264 158.225C727.357 157.712 727.404 157.187 727.404 156.65V143C727.404 142.44 727.357 141.915 727.264 141.425C727.171 140.912 726.972 140.492 726.669 140.165C726.366 139.838 725.887 139.675 725.234 139.675C724.627 139.675 724.172 139.838 723.869 140.165C723.566 140.492 723.367 140.912 723.274 141.425C723.181 141.915 723.134 142.44 723.134 143V156.65C723.134 157.187 723.169 157.712 723.239 158.225C723.332 158.738 723.519 159.158 723.799 159.485C724.102 159.812 724.581 159.975 725.234 159.975ZM739.904 164V140.305H735.634V135.65H750.439V140.305H746.204V164H739.904ZM755.489 164V140.305H751.219V135.65H766.024V140.305H761.789V164H755.489ZM776.367 164.42C774.244 164.42 772.564 164.047 771.327 163.3C770.09 162.553 769.204 161.48 768.667 160.08C768.13 158.68 767.862 157.012 767.862 155.075V144.54C767.862 142.58 768.13 140.912 768.667 139.535C769.204 138.158 770.09 137.108 771.327 136.385C772.564 135.638 774.244 135.265 776.367 135.265C778.514 135.265 780.205 135.638 781.442 136.385C782.702 137.108 783.6 138.158 784.137 139.535C784.674 140.912 784.942 142.58 784.942 144.54V155.075C784.942 157.012 784.674 158.68 784.137 160.08C783.6 161.48 782.702 162.553 781.442 163.3C780.205 164.047 778.514 164.42 776.367 164.42ZM776.367 159.975C777.02 159.975 777.499 159.812 777.802 159.485C778.105 159.158 778.304 158.738 778.397 158.225C778.49 157.712 778.537 157.187 778.537 156.65V143C778.537 142.44 778.49 141.915 778.397 141.425C778.304 140.912 778.105 140.492 777.802 140.165C777.499 139.838 777.02 139.675 776.367 139.675C775.76 139.675 775.305 139.838 775.002 140.165C774.699 140.492 774.5 140.912 774.407 141.425C774.314 141.915 774.267 142.44 774.267 143V156.65C774.267 157.187 774.302 157.712 774.372 158.225C774.465 158.738 774.652 159.158 774.932 159.485C775.235 159.812 775.714 159.975 776.367 159.975Z" fill="#FAF1E7"/>
</svg>
