<svg width="682" height="488" viewBox="0 0 682 488" fill="none" xmlns="http://www.w3.org/2000/svg">
<rect width="682" height="488" fill="#FAF1E7"/>
<path d="M265.275 119.065V165.357H252.896V119.065H265.275ZM227.406 144.188C222.132 151.44 214.441 156.421 205.578 156.86V145.36C215.467 144.188 222.352 133.128 222.572 119.358L235.024 120.09C235.024 125.071 234.145 129.978 232.533 134.446L250.552 147.192L243.301 155.981L227.406 144.188ZM221.913 170.484H266.154V181.618H209.314V159.717H221.913V170.484ZM333.242 127.854H340.567V139.134H333.242V150.414H320.863V119.065H333.242V127.854ZM314.051 119.797V149.096H275.89V119.797H287.902V124.924H302.039V119.797H314.051ZM287.902 139.501H302.039V134.3H287.902V139.501ZM290.246 170.924V173.341H333.901V181.618H278.087V163.306H321.083V160.889H277.94V152.612H333.242V170.924H290.246ZM372.863 119.065V142.65H360.557V129.466H347.226V119.065H372.863ZM403.993 119.065V142.65H391.687V129.466H375.719V119.065H403.993ZM407.508 145.36V155.981H344.223V145.36H407.508ZM360.557 160.523V171.217H404.579V181.618H347.885V160.523H360.557ZM445.591 118.039C461.998 118.039 474.011 121.115 474.011 129.832C474.011 138.548 461.998 141.625 445.591 141.625C429.183 141.625 417.171 138.548 417.171 129.832C417.171 121.115 429.183 118.039 445.591 118.039ZM445.591 126.902C436.288 126.902 430.282 127.781 430.282 129.832C430.282 131.956 436.288 132.762 445.591 132.762C454.893 132.762 460.899 131.956 460.899 129.832C460.899 127.781 454.893 126.902 445.591 126.902ZM477.234 143.676V152.685H413.948V143.676H477.234ZM473.571 155.102V171.436H429.769V173.561H474.23V181.618H417.684V164.991H461.485V162.866H417.537V155.102H473.571ZM245.561 214.065H257.134V276.618H245.561V248.784H240.361V275.519H228.934V214.358H240.361V237.064H245.561V214.065ZM195.973 273.688V215.53H224.393V273.688H195.973ZM207.473 226.736V262.481H212.966V226.736H207.473ZM311.551 256.768V227.029H267.896V215.53H324.442V256.768H311.551ZM297.78 262.847H327.885V274.42H264.599V262.847H284.962V238.383H297.78V262.847ZM396.312 217.727V226.81H353.535V217.727H368.624V212.966H381.223V217.727H396.312ZM420.19 226.736V238.456H412.866V251.128H400.487V214.065H412.866V226.736H420.19ZM374.923 251.347C364.596 251.347 355.879 247.392 355.879 239.848C355.879 232.303 364.596 228.348 374.923 228.348C385.251 228.348 393.968 232.303 393.968 239.848C393.968 247.392 385.251 251.347 374.923 251.347ZM374.923 236.918C370.455 236.918 367.526 238.09 367.526 239.848C367.526 241.606 370.455 242.777 374.923 242.777C379.392 242.777 382.321 241.606 382.321 239.848C382.321 238.09 379.392 236.918 374.923 236.918ZM357.637 276.618V253.325H412.866V276.618H357.637ZM369.869 262.774V267.169H400.633V262.774H369.869ZM475.779 214.065H486.473V276.618H475.779V214.065ZM461.715 236.698V214.358H472.263V275.519H461.715V248.125H456.734C455.123 265.191 449.996 272.662 439.814 273.688V263.287C444.649 262.042 446.846 253.765 446.846 234.208V225.564H442.158V215.53H457.394V232.962V236.698H461.715ZM439.961 215.53V232.45C439.961 258.745 435.932 270.245 423.993 271.49V261.089C428.388 259.991 429.633 251.714 429.633 233.622V225.564H423.993V215.53H439.961ZM209.292 310.065V340.682H196.914V310.065H209.292ZM188.49 310.797V318.927C188.49 335.115 171.936 340.682 150.548 340.682V330.647C165.564 330.501 176.038 326.838 176.038 321.418V320.759H150.548V310.797H188.49ZM209.292 342.879V361.557H165.637V364.048H209.952V372.618H153.405V353.94H197.06V351.449H153.258V342.879H209.292ZM250.158 309.039C266.565 309.039 278.578 312.115 278.578 320.832C278.578 329.548 266.565 332.625 250.158 332.625C233.751 332.625 221.738 329.548 221.738 320.832C221.738 312.115 233.751 309.039 250.158 309.039ZM250.158 317.902C240.856 317.902 234.849 318.781 234.849 320.832C234.849 322.956 240.856 323.762 250.158 323.762C259.46 323.762 265.467 322.956 265.467 320.832C265.467 318.781 259.46 317.902 250.158 317.902ZM281.801 334.676V343.685H218.515V334.676H281.801ZM278.138 346.102V362.436H234.337V364.561H278.798V372.618H222.251V355.991H266.053V353.866H222.104V346.102H278.138ZM374.106 332.918V344.93H366.781V372.618H354.403V310.065H366.781V332.918H374.106ZM322.833 358.335H335.285C341.218 358.335 347.664 357.309 351.473 355.551V366.758C347.664 368.662 340.925 369.688 334.919 369.688H310.161V311.163H322.833V358.335ZM426.179 310.065H438.557V372.618H426.179V341.854H412.994V330.281H426.179V310.065ZM406.255 311.749C406.255 320.026 405.669 327.571 404.497 334.309L422.663 363.022L412.042 369.615L400.249 349.838C395.195 362.51 387.284 369.615 377.762 369.688V356.796C387.357 355.698 393.657 337.459 393.657 311.31L406.255 311.749ZM498.54 359.067H510.773V370.42H447.487V359.067H459.719V345.516C453.493 342 449.904 336.58 449.904 330.061C449.904 318.268 461.551 310.138 479.13 310.138C496.709 310.138 508.356 318.268 508.356 330.061C508.356 336.58 504.766 342 498.54 345.516V359.067ZM479.13 321.271C469.681 321.271 463.016 324.714 463.016 330.061C463.016 335.335 469.681 338.851 479.13 338.851C488.579 338.851 495.244 335.335 495.244 330.061C495.244 324.714 488.579 321.271 479.13 321.271ZM472.098 349.472V359.067H486.162V349.472C483.964 349.765 481.62 349.911 479.13 349.911C476.64 349.911 474.296 349.765 472.098 349.472ZM533.107 311.896L529.737 351.815H520.655L517.285 311.896H533.107ZM525.196 357.163C529.664 357.163 532.96 360.459 532.96 364.927C532.96 369.395 529.664 372.618 525.196 372.618C520.728 372.618 517.432 369.395 517.432 364.927C517.432 360.459 520.728 357.163 525.196 357.163Z" fill="#FF4409"/>
</svg>
