<svg width="691" height="494" viewBox="0 0 691 494" fill="none" xmlns="http://www.w3.org/2000/svg">
<rect width="691" height="494" fill="#FAF1E7"/>
<path d="M270.275 122.065V168.357H257.896V122.065H270.275ZM232.406 147.188C227.132 154.44 219.441 159.421 210.578 159.86V148.36C220.467 147.188 227.352 136.128 227.572 122.358L240.024 123.09C240.024 128.071 239.145 132.978 237.533 137.446L255.552 150.192L248.301 158.981L232.406 147.188ZM226.913 173.484H271.154V184.618H214.314V162.717H226.913V173.484ZM338.242 130.854H345.567V142.134H338.242V153.414H325.863V122.065H338.242V130.854ZM319.051 122.797V152.096H280.89V122.797H292.902V127.924H307.039V122.797H319.051ZM292.902 142.501H307.039V137.3H292.902V142.501ZM295.246 173.924V176.341H338.901V184.618H283.087V166.306H326.083V163.889H282.94V155.612H338.242V173.924H295.246ZM377.863 122.065V145.65H365.557V132.466H352.226V122.065H377.863ZM408.993 122.065V145.65H396.687V132.466H380.719V122.065H408.993ZM412.508 148.36V158.981H349.223V148.36H412.508ZM365.557 163.523V174.217H409.579V184.618H352.885V163.523H365.557ZM450.591 121.039C466.998 121.039 479.011 124.115 479.011 132.832C479.011 141.548 466.998 144.625 450.591 144.625C434.183 144.625 422.171 141.548 422.171 132.832C422.171 124.115 434.183 121.039 450.591 121.039ZM450.591 129.902C441.288 129.902 435.282 130.781 435.282 132.832C435.282 134.956 441.288 135.762 450.591 135.762C459.893 135.762 465.899 134.956 465.899 132.832C465.899 130.781 459.893 129.902 450.591 129.902ZM482.234 146.676V155.685H418.948V146.676H482.234ZM478.571 158.102V174.436H434.769V176.561H479.23V184.618H422.684V167.991H466.485V165.866H422.537V158.102H478.571ZM250.561 217.065H262.134V279.618H250.561V251.784H245.361V278.519H233.934V217.358H245.361V240.064H250.561V217.065ZM200.973 276.688V218.53H229.393V276.688H200.973ZM212.473 229.736V265.481H217.966V229.736H212.473ZM316.551 259.768V230.029H272.896V218.53H329.442V259.768H316.551ZM302.78 265.847H332.885V277.42H269.599V265.847H289.962V241.383H302.78V265.847ZM401.312 220.727V229.81H358.535V220.727H373.624V215.966H386.223V220.727H401.312ZM425.19 229.736V241.456H417.866V254.128H405.487V217.065H417.866V229.736H425.19ZM379.923 254.347C369.596 254.347 360.879 250.392 360.879 242.848C360.879 235.303 369.596 231.348 379.923 231.348C390.251 231.348 398.968 235.303 398.968 242.848C398.968 250.392 390.251 254.347 379.923 254.347ZM379.923 239.918C375.455 239.918 372.526 241.09 372.526 242.848C372.526 244.606 375.455 245.777 379.923 245.777C384.392 245.777 387.321 244.606 387.321 242.848C387.321 241.09 384.392 239.918 379.923 239.918ZM362.637 279.618V256.325H417.866V279.618H362.637ZM374.869 265.774V270.169H405.633V265.774H374.869ZM480.779 217.065H491.473V279.618H480.779V217.065ZM466.715 239.698V217.358H477.263V278.519H466.715V251.125H461.734C460.123 268.191 454.996 275.662 444.814 276.688V266.287C449.649 265.042 451.846 256.765 451.846 237.208V228.564H447.158V218.53H462.394V235.962V239.698H466.715ZM444.961 218.53V235.45C444.961 261.745 440.932 273.245 428.993 274.49V264.089C433.388 262.991 434.633 254.714 434.633 236.622V228.564H428.993V218.53H444.961ZM214.292 313.065V343.682H201.914V313.065H214.292ZM193.49 313.797V321.927C193.49 338.115 176.936 343.682 155.548 343.682V333.647C170.564 333.501 181.038 329.838 181.038 324.418V323.759H155.548V313.797H193.49ZM214.292 345.879V364.557H170.637V367.048H214.952V375.618H158.405V356.94H202.06V354.449H158.258V345.879H214.292ZM255.158 312.039C271.565 312.039 283.578 315.115 283.578 323.832C283.578 332.548 271.565 335.625 255.158 335.625C238.751 335.625 226.738 332.548 226.738 323.832C226.738 315.115 238.751 312.039 255.158 312.039ZM255.158 320.902C245.856 320.902 239.849 321.781 239.849 323.832C239.849 325.956 245.856 326.762 255.158 326.762C264.46 326.762 270.467 325.956 270.467 323.832C270.467 321.781 264.46 320.902 255.158 320.902ZM286.801 337.676V346.685H223.515V337.676H286.801ZM283.138 349.102V365.436H239.337V367.561H283.798V375.618H227.251V358.991H271.053V356.866H227.104V349.102H283.138ZM379.106 335.918V347.93H371.781V375.618H359.403V313.065H371.781V335.918H379.106ZM327.833 361.335H340.285C346.218 361.335 352.664 360.309 356.473 358.551V369.758C352.664 371.662 345.925 372.688 339.919 372.688H315.161V314.163H327.833V361.335ZM431.179 313.065H443.557V375.618H431.179V344.854H417.994V333.281H431.179V313.065ZM411.255 314.749C411.255 323.026 410.669 330.571 409.497 337.309L427.663 366.022L417.042 372.615L405.249 352.838C400.195 365.51 392.284 372.615 382.762 372.688V359.796C392.357 358.698 398.657 340.459 398.657 314.31L411.255 314.749ZM503.54 362.067H515.773V373.42H452.487V362.067H464.719V348.516C458.493 345 454.904 339.58 454.904 333.061C454.904 321.268 466.551 313.138 484.13 313.138C501.709 313.138 513.356 321.268 513.356 333.061C513.356 339.58 509.766 345 503.54 348.516V362.067ZM484.13 324.271C474.681 324.271 468.016 327.714 468.016 333.061C468.016 338.335 474.681 341.851 484.13 341.851C493.579 341.851 500.244 338.335 500.244 333.061C500.244 327.714 493.579 324.271 484.13 324.271ZM477.098 352.472V362.067H491.162V352.472C488.964 352.765 486.62 352.911 484.13 352.911C481.64 352.911 479.296 352.765 477.098 352.472ZM538.107 314.896L534.737 354.815H525.655L522.285 314.896H538.107ZM530.196 360.163C534.664 360.163 537.96 363.459 537.96 367.927C537.96 372.395 534.664 375.618 530.196 375.618C525.728 375.618 522.432 372.395 522.432 367.927C522.432 363.459 525.728 360.163 530.196 360.163Z" fill="#FF4409"/>
</svg>
