<svg width="1405" height="215" viewBox="0 0 1405 215" fill="none" xmlns="http://www.w3.org/2000/svg">
<rect width="1405" height="215" fill="#FF4409"/>
<path d="M239.35 107.212C212.331 116.708 204.634 124.406 195.138 151.424C185.642 124.406 177.944 116.708 150.926 107.212C177.944 97.7158 185.642 90.0185 195.138 63C204.634 90.0185 212.331 97.7158 239.35 107.212Z" fill="#FAF1E7"/>
<path d="M133.121 107.213C133.121 111.001 122.916 113.146 121.809 116.553C120.702 119.961 127.621 127.814 125.476 130.772C123.314 133.747 113.8 129.509 110.825 131.671C107.867 133.816 108.992 144.177 105.446 145.336C102.021 146.443 96.8488 137.449 93.0607 137.449C89.2725 137.449 84.1007 146.46 80.6758 145.336C77.2509 144.212 78.2368 133.816 75.2962 131.671C72.3557 129.526 62.8076 133.747 60.6454 130.772C58.4832 127.797 65.4541 120.099 64.3124 116.553C63.1708 113.007 53 111.001 53 107.213C53 103.425 63.2054 101.28 64.3124 97.8721C65.4195 94.4645 58.5005 86.6115 60.6454 83.6537C62.8076 80.6785 72.3211 84.9164 75.2962 82.7542C78.2541 80.6094 77.1298 70.2482 80.6758 69.0893C84.1007 67.9822 89.2725 76.9769 93.0607 76.9769C96.8488 76.9769 102.021 67.9649 105.446 69.0893C108.87 70.2136 107.885 80.6094 110.825 82.7542C113.766 84.8991 123.314 80.6785 125.476 83.6537C127.638 86.6288 120.667 94.3262 121.809 97.8721C122.951 101.418 133.121 103.425 133.121 107.213Z" fill="#FAF1E7"/>
<path d="M316.582 89.3094C348.08 92.9592 348.08 121.465 316.582 125.115C312.932 156.614 284.426 156.614 280.776 125.115C249.278 121.465 249.278 92.9592 280.776 89.3094C284.426 57.8109 312.932 57.8109 316.582 89.3094Z" fill="#FAF1E7"/>
<path d="M443.159 107.212C416.14 116.708 408.443 124.406 398.946 151.424C389.45 124.406 381.753 116.708 354.734 107.212C381.753 97.7158 389.45 90.0185 398.946 63C408.443 90.0185 416.14 97.7158 443.159 107.212Z" fill="#FAF1E7"/>
<path d="M540.961 107.213C540.961 111.001 530.756 113.146 529.649 116.553C528.542 119.961 535.461 127.814 533.316 130.772C531.171 133.73 521.64 129.509 518.665 131.671C515.69 133.833 516.831 144.177 513.285 145.336C509.861 146.443 504.689 137.449 500.901 137.449C497.112 137.449 491.941 146.46 488.516 145.336C485.091 144.212 486.077 133.816 483.136 131.671C480.196 129.526 470.648 133.747 468.485 130.772C466.323 127.797 473.294 120.099 472.152 116.553C471.011 113.007 460.84 111.001 460.84 107.213C460.84 103.425 471.045 101.28 472.152 97.8721C473.259 94.4645 466.34 86.6115 468.485 83.6537C470.648 80.6785 480.161 84.9164 483.136 82.7542C486.094 80.6094 484.97 70.2482 488.516 69.0893C491.941 67.9822 497.112 76.9769 500.901 76.9769C504.689 76.9769 509.861 67.9649 513.285 69.0893C516.71 70.2136 515.724 80.6094 518.665 82.7542C521.605 84.8991 531.154 80.6785 533.316 83.6537C535.478 86.6288 528.507 94.3262 529.649 97.8721C530.79 101.418 540.961 103.425 540.961 107.213Z" fill="#FAF1E7"/>
<path d="M618 89.3094C649.498 92.9592 649.498 121.465 618 125.115C614.35 156.614 585.844 156.614 582.194 125.115C550.696 121.465 550.696 92.9592 582.194 89.3094C585.844 57.8109 614.35 57.8109 618 89.3094Z" fill="#FAF1E7"/>
<path d="M1250.35 107.212C1223.33 116.708 1215.63 124.406 1206.14 151.424C1196.64 124.406 1188.94 116.708 1161.93 107.212C1188.94 97.7158 1196.64 90.0185 1206.14 63C1215.63 90.0185 1223.33 97.7158 1250.35 107.212Z" fill="#FAF1E7"/>
<path d="M1144.12 107.213C1144.12 111.001 1133.92 113.146 1132.81 116.553C1131.7 119.961 1138.62 127.814 1136.48 130.772C1134.31 133.747 1124.8 129.509 1121.83 131.671C1118.87 133.816 1119.99 144.177 1116.45 145.336C1113.02 146.443 1107.85 137.449 1104.06 137.449C1100.27 137.449 1095.1 146.46 1091.68 145.336C1088.25 144.212 1089.24 133.816 1086.3 131.671C1083.36 129.526 1073.81 133.747 1071.65 130.772C1069.48 127.797 1076.45 120.099 1075.31 116.553C1074.17 113.007 1064 111.001 1064 107.213C1064 103.425 1074.21 101.28 1075.31 97.8721C1076.42 94.4645 1069.5 86.6115 1071.65 83.6537C1073.81 80.6785 1083.32 84.9164 1086.3 82.7542C1089.25 80.6094 1088.13 70.2482 1091.68 69.0893C1095.1 67.9822 1100.27 76.9769 1104.06 76.9769C1107.85 76.9769 1113.02 67.9649 1116.45 69.0893C1119.87 70.2136 1118.88 80.6094 1121.83 82.7542C1124.77 84.8991 1134.31 80.6785 1136.48 83.6537C1138.64 86.6288 1131.67 94.3262 1132.81 97.8721C1133.95 101.418 1144.12 103.425 1144.12 107.213Z" fill="#FAF1E7"/>
<path d="M1327.58 89.3094C1359.08 92.9592 1359.08 121.465 1327.58 125.115C1323.93 156.614 1295.43 156.614 1291.78 125.115C1260.28 121.465 1260.28 92.9592 1291.78 89.3094C1295.43 57.8109 1323.93 57.8109 1327.58 89.3094Z" fill="#FAF1E7"/>
<path d="M747.264 107.212C720.245 116.708 712.548 124.406 703.052 151.424C693.556 124.406 685.858 116.708 658.84 107.212C685.858 97.7158 693.556 90.0185 703.052 63C712.548 90.0185 720.245 97.7158 747.264 107.212Z" fill="#FAF1E7"/>
<path d="M845.047 107.213C845.047 111.001 834.842 113.146 833.735 116.553C832.628 119.961 839.547 127.814 837.402 130.772C835.257 133.73 825.726 129.509 822.751 131.671C819.776 133.833 820.917 144.177 817.372 145.336C813.947 146.443 808.775 137.449 804.987 137.449C801.198 137.449 796.026 146.46 792.602 145.336C789.177 144.212 790.163 133.816 787.222 131.671C784.282 129.526 774.733 133.747 772.571 130.772C770.409 127.797 777.38 120.099 776.238 116.553C775.097 113.007 764.926 111.001 764.926 107.213C764.926 103.425 775.131 101.28 776.238 97.8721C777.345 94.4645 770.426 86.6115 772.571 83.6537C774.716 80.6958 784.247 84.9164 787.222 82.7542C790.18 80.6094 789.056 70.2482 792.602 69.0893C796.026 67.9822 801.198 76.9769 804.987 76.9769C808.775 76.9769 813.947 67.9649 817.372 69.0893C820.796 70.2136 819.81 80.6094 822.751 82.7542C825.692 84.8991 835.24 80.6785 837.402 83.6537C839.564 86.6288 832.593 94.3262 833.735 97.8721C834.876 101.418 845.047 103.425 845.047 107.213Z" fill="#FAF1E7"/>
<path d="M922.105 89.3094C953.604 92.9592 953.604 121.465 922.105 125.115C918.455 156.614 889.949 156.614 886.3 125.115C854.801 121.465 854.801 92.9592 886.3 89.3094C889.949 57.8109 918.455 57.8109 922.105 89.3094Z" fill="#FAF1E7"/>
<path d="M1049 107.212C1021.98 116.708 1014.28 124.406 1004.79 151.424C995.29 124.406 987.593 116.708 960.574 107.212C987.593 97.7158 995.29 90.0185 1004.79 63C1014.28 90.0185 1021.98 97.7158 1049 107.212Z" fill="#FAF1E7"/>
</svg>
