<svg width="1490" height="437" viewBox="0 0 1490 437" fill="none" xmlns="http://www.w3.org/2000/svg">
<rect width="1490" height="437" rx="10" fill="black"/>
<path d="M127.256 128.24C124.16 128.24 121.304 127.232 119.816 124.88L122.072 122.24C123.152 124.256 125.48 125.144 127.4 125.144C128.792 125.144 129.8 124.712 129.8 123.608C129.8 122.36 128.744 121.952 126.608 121.52L125.048 121.184C122.552 120.68 120.2 119.576 120.2 116.528C120.2 113.384 122.912 111.728 126.176 111.728C129.2 111.728 131.624 112.88 132.968 114.8L130.64 117.416C129.584 115.736 127.712 114.824 125.864 114.824C124.64 114.824 123.752 115.352 123.752 116.288C123.752 117.464 124.784 117.896 126.464 118.28L128.288 118.712C131.288 119.408 133.328 120.632 133.328 123.512C133.328 126.584 130.736 128.24 127.256 128.24ZM138.726 128H135.294V111.92H138.726V118.304L138.558 121.376L140.718 118.784L143.19 116.24H147.246L142.638 120.944L147.222 128H143.31L140.334 122.984L138.726 124.664V128ZM152.109 114.848H148.677V111.92H152.109V114.848ZM152.109 128H148.677V116.24H152.109V128ZM157.968 128H154.536V111.92H157.968V128ZM163.827 128H160.395V111.92H163.827V128Z" fill="#D387FF"/>
<path d="M103.368 113.95C100.768 111.35 96.5527 111.35 93.9496 113.95C91.3501 116.549 91.3501 120.765 93.9496 123.368C94.0605 123.479 94.1749 123.582 94.2893 123.683L98.6516 128.045L102.964 123.733C102.982 123.718 103 123.704 103.017 123.686C103.135 123.582 103.253 123.479 103.364 123.364C105.964 120.765 105.964 116.549 103.364 113.946L103.368 113.95Z" fill="#D387FF"/>
<path d="M111.048 123.758C113.648 121.158 113.648 116.942 111.048 114.339C108.449 111.74 104.233 111.74 101.63 114.339C101.519 114.45 101.416 114.565 101.315 114.679L96.9531 119.041L101.265 123.353C101.28 123.371 101.294 123.389 101.312 123.407C101.416 123.525 101.519 123.643 101.634 123.754C104.233 126.353 108.449 126.353 111.052 123.754L111.048 123.758Z" fill="#D387FF"/>
<path fill-rule="evenodd" clip-rule="evenodd" d="M133.086 178.19C132.289 176.833 130.833 176 129.259 176H96.4386C93.9872 176 92 177.987 92 180.439V187.245V192.867V271.577C92 274.029 93.9872 276.016 96.4386 276.016H202.372C204.824 276.016 206.811 274.029 206.811 271.577V191.683C206.811 189.232 204.824 187.245 202.372 187.245H140.948C139.374 187.245 137.918 186.412 137.121 185.055L133.086 178.19Z" fill="#FF794E"/>
<path d="M110.586 223.715V203.292H105.804V200.642H113.61V223.715H110.586ZM120.685 224.089C119.533 224.089 118.64 223.196 118.64 222.044C118.64 220.892 119.533 219.999 120.685 219.999C121.837 219.999 122.701 220.892 122.701 222.044C122.701 223.196 121.837 224.089 120.685 224.089Z" fill="black"/>
<path d="M140.193 249.337H144.105V263.452H140.193V258.048H135.959V263.452H132.027V249.337H135.959V254.439H140.193V249.337ZM157.42 249.337V252.846H153.589V263.452H149.677V252.846H145.846V249.337H157.42ZM176.494 263.452H172.562L171.474 255.326L167.723 263.492H166.574L162.844 255.346L161.755 263.452H157.803L159.94 249.337H163.832L167.159 257.02L170.506 249.337H174.377L176.494 263.452ZM182.37 259.903H187.391V263.452H178.418V249.337H182.37V259.903ZM193.405 254.64C196.389 254.64 198.465 256.475 198.465 259.117C198.465 261.839 196.368 263.774 193.445 263.774C190.521 263.774 188.465 261.839 188.465 259.137H191.912C191.912 260.044 192.558 260.689 193.445 260.689C194.332 260.689 194.977 260.024 194.977 259.096C194.977 258.149 194.292 257.483 193.324 257.483H189.15L188.807 257.04L189.553 250.043H197.498V253.108H192.316L192.154 254.64H193.405Z" fill="black"/>
<circle cx="102.795" cy="183.921" r="2.88046" fill="#33FF00"/>
<circle cx="110.716" cy="183.921" r="2.88046" fill="#33FF00"/>
<circle cx="118.638" cy="183.921" r="2.88046" fill="#33FF00"/>
<circle cx="126.56" cy="183.921" r="2.88046" fill="#D4D4D4"/>
<path fill-rule="evenodd" clip-rule="evenodd" d="M263.008 178.191C262.211 176.834 260.755 176.001 259.181 176.001H226.36C223.909 176.001 221.922 177.988 221.922 180.44V187.246V192.868V271.578C221.922 274.03 223.909 276.017 226.36 276.017H332.294C334.745 276.017 336.733 274.03 336.733 271.578V191.684C336.733 189.233 334.745 187.246 332.294 187.246H270.869C269.296 187.246 267.84 186.413 267.043 185.056L263.008 178.191Z" fill="#3DC5FF"/>
<path d="M284.446 263.815C280.151 263.815 276.945 260.629 276.945 256.415C276.945 252.181 280.151 248.995 284.446 248.995C288.136 248.995 290.999 251.435 291.584 255.004H287.632C287.148 253.572 285.938 252.625 284.446 252.625C282.45 252.625 280.978 254.238 280.978 256.415C280.978 258.593 282.45 260.186 284.446 260.186C286.019 260.186 287.249 259.157 287.652 257.585H291.624C291.08 261.295 288.196 263.815 284.446 263.815ZM298.483 263.815C295.035 263.815 292.797 261.98 292.797 258.895H296.81C296.81 259.903 297.596 260.408 298.483 260.408C299.29 260.408 300.076 259.964 300.076 259.198C300.076 258.311 298.967 258.048 297.616 257.726C295.58 257.222 292.979 256.597 292.979 253.391C292.979 250.608 295.015 249.015 298.342 249.015C301.73 249.015 303.685 250.749 303.685 253.633H299.774C299.774 252.725 299.108 252.302 298.302 252.302C297.616 252.302 296.951 252.604 296.951 253.27C296.951 254.076 298.019 254.338 299.33 254.681C301.427 255.205 304.129 255.911 304.129 259.117C304.129 262.202 301.77 263.815 298.483 263.815ZM311.164 263.815C307.716 263.815 305.478 261.98 305.478 258.895H309.49C309.49 259.903 310.277 260.408 311.164 260.408C311.971 260.408 312.757 259.964 312.757 259.198C312.757 258.311 311.648 258.048 310.297 257.726C308.26 257.222 305.659 256.597 305.659 253.391C305.659 250.608 307.696 249.015 311.023 249.015C314.41 249.015 316.366 250.749 316.366 253.633H312.454C312.454 252.725 311.789 252.302 310.983 252.302C310.297 252.302 309.632 252.604 309.632 253.27C309.632 254.076 310.7 254.338 312.011 254.681C314.108 255.205 316.81 255.911 316.81 259.117C316.81 262.202 314.451 263.815 311.164 263.815ZM325.014 254.984C326.93 255.468 328.16 257.02 328.16 259.097C328.16 261.819 326.043 263.775 323.099 263.775C320.236 263.775 318.239 261.9 318.159 259.117H321.607C321.647 260.065 322.232 260.69 323.119 260.69C324.026 260.69 324.671 260.024 324.671 259.036C324.671 258.048 324.006 257.444 322.958 257.444H320.82V256.697L322.998 253.108H318.502V250.044H327.696V250.669L325.014 254.984Z" fill="black"/>
<circle cx="232.005" cy="183.922" r="2.88046" fill="#33FF00"/>
<circle cx="239.927" cy="183.922" r="2.88046" fill="#33FF00"/>
<circle cx="247.849" cy="183.922" r="2.88046" fill="#33FF00"/>
<circle cx="255.771" cy="183.922" r="2.88046" fill="#D4D4D4"/>
<path d="M233.765 223.715V221.757L241.945 213.547C244.883 210.581 246.036 208.708 246.036 207.066C246.036 204.359 244.192 202.775 241.312 202.775C238.201 202.775 236.53 205.137 236.53 207.7H233.506C233.506 203.523 236.53 200.096 241.34 200.096C245.978 200.096 249.031 202.89 249.031 207.038C249.031 209.515 247.62 211.618 244.163 215.161L238.114 221.094H249.809V223.715H233.765ZM254.972 224.09C253.82 224.09 252.927 223.197 252.927 222.045C252.927 220.893 253.82 220 254.972 220C256.124 220 256.988 220.893 256.988 222.045C256.988 223.197 256.124 224.09 254.972 224.09Z" fill="black"/>
<path fill-rule="evenodd" clip-rule="evenodd" d="M392.934 178.191C392.136 176.834 390.68 176.001 389.107 176.001H356.286C353.835 176.001 351.848 177.988 351.848 180.44V187.246V192.868V271.578C351.848 274.03 353.835 276.017 356.286 276.017H462.22C464.671 276.017 466.658 274.03 466.658 271.578V191.684C466.658 189.233 464.671 187.246 462.22 187.246H400.795C399.222 187.246 397.766 186.413 396.969 185.056L392.934 178.191Z" fill="#FFE145"/>
<path d="M412.523 242.492C409.277 242.492 406.998 240.375 406.998 237.29V236.745H410.91V237.108C410.91 238.177 411.555 238.883 412.523 238.883C413.43 238.883 414.075 238.197 414.075 237.108V228.015H417.987V237.29C417.987 240.355 415.789 242.492 412.523 242.492ZM429.061 231.241H431.864V242.129H428.961L428.638 241.363C427.751 242.089 426.622 242.492 425.351 242.492C422.024 242.492 419.645 240.072 419.645 236.685C419.645 233.318 422.024 230.918 425.351 230.918C426.642 230.918 427.791 231.342 428.678 232.088L429.061 231.241ZM425.855 239.185C427.267 239.185 428.295 238.116 428.295 236.685C428.295 235.273 427.267 234.225 425.855 234.225C424.444 234.225 423.416 235.273 423.416 236.685C423.416 238.116 424.444 239.185 425.855 239.185ZM441.268 231.241H445.26L440.885 242.129H437.497L433.061 231.241H437.175L439.231 237.693L441.268 231.241ZM454.777 231.241H457.58V242.129H454.676L454.354 241.363C453.467 242.089 452.338 242.492 451.067 242.492C447.74 242.492 445.361 240.072 445.361 236.685C445.361 233.318 447.74 230.918 451.067 230.918C452.358 230.918 453.507 231.342 454.394 232.088L454.777 231.241ZM451.571 239.185C452.983 239.185 454.011 238.116 454.011 236.685C454.011 235.273 452.983 234.225 451.571 234.225C450.16 234.225 449.132 235.273 449.132 236.685C449.132 238.116 450.16 239.185 451.571 239.185ZM402.296 262.492C398.848 262.492 396.61 260.657 396.61 257.572H400.622C400.622 258.58 401.409 259.084 402.296 259.084C403.103 259.084 403.889 258.641 403.889 257.874C403.889 256.987 402.78 256.725 401.429 256.403C399.392 255.898 396.791 255.273 396.791 252.067C396.791 249.285 398.828 247.692 402.155 247.692C405.542 247.692 407.498 249.426 407.498 252.309H403.586C403.586 251.402 402.921 250.979 402.115 250.979C401.429 250.979 400.764 251.281 400.764 251.946C400.764 252.753 401.832 253.015 403.143 253.358C405.24 253.882 407.942 254.588 407.942 257.794C407.942 260.879 405.583 262.492 402.296 262.492ZM415.178 262.492C411.69 262.492 409.17 260.052 409.17 256.685C409.17 253.318 411.67 250.918 415.199 250.918C418.263 250.918 420.542 252.834 420.965 255.737H417.296C416.993 254.85 416.166 254.265 415.178 254.265C413.868 254.265 412.92 255.273 412.92 256.685C412.92 258.116 413.868 259.145 415.178 259.145C416.187 259.145 417.013 258.52 417.316 257.552H421.006C420.582 260.496 418.243 262.492 415.178 262.492ZM428.703 251.2H429.711V254.628H428.239C426.928 254.628 426.364 255.213 426.364 256.604V262.129H422.613V251.241H425.134L425.719 252.451C426.485 251.563 427.412 251.2 428.703 251.2ZM431.14 249.89V246.704H434.85V249.89H431.14ZM431.12 262.129V251.241H434.87V262.129H431.12ZM443.595 250.898C446.922 250.898 449.302 253.297 449.302 256.685C449.302 260.092 446.922 262.512 443.595 262.512C442.607 262.512 441.7 262.25 440.934 261.786V266.061H437.224V251.241H439.785L440.248 252.108C441.135 251.342 442.285 250.898 443.595 250.898ZM443.091 259.185C444.483 259.185 445.531 258.116 445.531 256.685C445.531 255.273 444.483 254.205 443.091 254.205C441.68 254.205 440.652 255.273 440.652 256.685C440.652 258.116 441.68 259.185 443.091 259.185ZM456.758 258.862H458.189V262.129H455.608C453.209 262.129 451.737 260.657 451.737 258.237V254.144H449.741V253.257L454.62 248.075H455.407V251.241H458.129V254.144H455.487V257.612C455.487 258.379 455.971 258.862 456.758 258.862Z" fill="black"/>
<circle cx="361.939" cy="183.921" r="2.88046" fill="#33FF00"/>
<circle cx="369.861" cy="183.921" r="2.88046" fill="#33FF00"/>
<circle cx="377.783" cy="183.921" r="2.88046" fill="#33FF00"/>
<circle cx="385.705" cy="183.921" r="2.88046" fill="#D4D4D4"/>
<path d="M371.674 224.233C366.72 224.233 363.666 221.237 363.494 217.205H366.489C366.576 219.682 368.419 221.612 371.674 221.612C374.9 221.612 376.83 219.768 376.83 217.464C376.83 214.872 374.756 213.345 371.271 213.345H368.736V210.839H371.271C374.209 210.839 376.196 209.168 376.196 206.777C376.196 204.531 374.41 202.687 371.357 202.687C368.246 202.687 366.547 204.876 366.547 207.325H363.522C363.522 203.263 366.633 200.095 371.357 200.095C376.11 200.095 379.192 203.062 379.192 206.691C379.192 209.514 377.205 211.473 375.073 211.991C377.406 212.423 379.797 214.238 379.797 217.435C379.797 221.295 376.513 224.233 371.674 224.233ZM384.93 224.089C383.778 224.089 382.885 223.196 382.885 222.044C382.885 220.892 383.778 219.999 384.93 219.999C386.082 219.999 386.946 220.892 386.946 222.044C386.946 223.196 386.082 224.089 384.93 224.089Z" fill="black"/>
<path fill-rule="evenodd" clip-rule="evenodd" d="M522.879 178.191C522.082 176.835 520.626 176.001 519.052 176.001H486.232C483.78 176.001 481.793 177.989 481.793 180.44V192.868C481.793 192.868 481.793 192.868 481.793 192.868C481.793 192.868 481.793 192.868 481.793 192.868V271.579C481.793 274.03 483.78 276.017 486.232 276.017H592.165C594.617 276.017 596.604 274.03 596.604 271.579V191.684C596.604 189.233 594.617 187.246 592.165 187.246H530.74C529.167 187.246 527.711 186.413 526.914 185.056L522.879 178.191Z" fill="#C1C1C1"/>
<path d="M524.6 255.911H532.342C532.342 260.528 529.318 263.815 524.902 263.815C520.587 263.815 517.381 260.709 517.381 256.415C517.381 252.12 520.527 248.995 524.862 248.995C528.572 248.995 531.596 251.313 532.201 254.58H528.108C527.604 253.39 526.334 252.624 524.902 252.624C522.785 252.624 521.374 254.156 521.374 256.415C521.374 258.653 522.765 260.185 524.902 260.185C526.394 260.185 527.664 259.459 528.108 258.371H524.6V255.911ZM534.072 251.213V248.027H537.782V251.213H534.072ZM534.052 263.452V252.564H537.803V263.452H534.052ZM546.064 260.185H547.496V263.452H544.915C542.515 263.452 541.044 261.98 541.044 259.56V255.467H539.047V254.58L543.927 249.398H544.713V252.564H547.435V255.467H544.794V258.935C544.794 259.701 545.278 260.185 546.064 260.185ZM557.601 249.337H561.513V263.452H557.601V258.048H553.367V263.452H549.435V249.337H553.367V254.439H557.601V249.337ZM569.106 263.815C565.9 263.815 563.742 261.839 563.742 258.794V252.564H567.493V258.633C567.493 259.782 568.118 260.447 569.106 260.447C570.114 260.447 570.719 259.762 570.719 258.633V252.564H574.469V258.794C574.469 261.839 572.332 263.815 569.106 263.815ZM583.094 252.241C586.441 252.241 588.821 254.64 588.821 258.028C588.821 261.415 586.441 263.815 583.094 263.815C581.824 263.815 580.695 263.391 579.808 262.645L579.465 263.452H576.682V248.632H580.392V252.987C581.179 252.503 582.086 252.241 583.094 252.241ZM582.59 260.488C583.982 260.488 585.03 259.439 585.03 258.028C585.03 256.596 584.002 255.548 582.59 255.548C581.199 255.548 580.151 256.596 580.151 258.028C580.151 259.439 581.199 260.488 582.59 260.488Z" fill="black"/>
<circle cx="491.869" cy="183.921" r="2.88046" fill="#33FF00"/>
<circle cx="499.791" cy="183.921" r="2.88046" fill="#33FF00"/>
<circle cx="507.712" cy="183.921" r="2.88046" fill="#33FF00"/>
<circle cx="515.634" cy="183.921" r="2.88046" fill="#D4D4D4"/>
<path d="M505.974 223.715V218.501H494.337V215.937L505.282 200.642H508.854V215.937H512.628V218.501H508.854V223.715H505.974ZM497.448 215.937H505.974V203.955L497.448 215.937ZM516.347 224.089C515.195 224.089 514.302 223.196 514.302 222.044C514.302 220.892 515.195 219.999 516.347 219.999C517.499 219.999 518.364 220.892 518.364 222.044C518.364 223.196 517.499 224.089 516.347 224.089Z" fill="black"/>
<path fill-rule="evenodd" clip-rule="evenodd" d="M652.816 178.191C652.019 176.834 650.563 176.001 648.99 176.001H616.169C613.718 176.001 611.73 177.988 611.73 180.44V187.246V192.868V271.578C611.73 274.03 613.718 276.017 616.169 276.017H722.103C724.554 276.017 726.541 274.03 726.541 271.578V191.684C726.541 189.233 724.554 187.246 722.103 187.246H660.678C659.105 187.246 657.649 186.413 656.851 185.056L652.816 178.191Z" fill="#7C9CB9"/>
<path d="M667.235 263.452H663.303L662.214 255.326L658.464 263.492H657.315L653.584 255.347L652.496 263.452H648.544L650.681 249.338H654.572L657.899 257.02L661.246 249.338H665.118L667.235 263.452ZM675.845 252.564H679.877L675.3 262.968C673.828 266.315 672.498 267.505 669.675 267.505H668.384V264.299H669.433C670.864 264.299 671.288 263.916 671.792 262.565L667.296 252.564H671.369L673.687 258.573L675.845 252.564ZM686.171 263.815C682.723 263.815 680.485 261.98 680.485 258.895H684.497C684.497 259.903 685.283 260.408 686.171 260.408C686.977 260.408 687.764 259.964 687.764 259.198C687.764 258.311 686.655 258.048 685.304 257.726C683.267 257.222 680.666 256.597 680.666 253.391C680.666 250.608 682.703 249.015 686.03 249.015C689.417 249.015 691.373 250.749 691.373 253.633H687.461C687.461 252.725 686.796 252.302 685.989 252.302C685.304 252.302 684.638 252.604 684.638 253.27C684.638 254.076 685.707 254.338 687.018 254.681C689.114 255.205 691.816 255.911 691.816 259.117C691.816 262.202 689.457 263.815 686.171 263.815ZM709.276 265.388H705.142L703.57 263.432C702.743 263.674 701.836 263.815 700.888 263.815C696.351 263.815 693.125 260.71 693.125 256.395C693.125 252.1 696.351 248.995 700.888 248.995C705.425 248.995 708.651 252.08 708.651 256.395C708.651 258.633 707.804 260.508 706.352 261.839L709.276 265.388ZM697.158 256.395C697.158 258.593 698.751 260.206 700.888 260.206C703.045 260.206 704.598 258.613 704.598 256.395C704.598 254.197 703.045 252.604 700.888 252.604C698.751 252.604 697.158 254.217 697.158 256.395ZM714.599 259.903H719.62V263.452H710.647V249.338H714.599V259.903Z" fill="black"/>
<circle cx="621.087" cy="183.922" r="2.88046" fill="#33FF00"/>
<circle cx="629.009" cy="183.922" r="2.88046" fill="#33FF00"/>
<circle cx="636.931" cy="183.922" r="2.88046" fill="#33FF00"/>
<circle cx="644.853" cy="183.922" r="2.88046" fill="#D4D4D4"/>
<path d="M630.579 224.234C625.596 224.234 622.6 221.209 622.427 217.206H625.423C625.509 219.683 627.324 221.613 630.579 221.613C633.776 221.613 635.764 219.366 635.764 216.342C635.764 213.375 633.69 211.185 630.636 211.185C628.102 211.185 626.633 212.482 625.855 213.922H622.888L623.551 200.643H637.55V203.264H626.316L625.913 210.811C626.777 209.745 628.476 208.593 631.126 208.593C635.504 208.593 638.731 211.733 638.731 216.342C638.731 220.921 635.418 224.234 630.579 224.234ZM643.301 224.09C642.149 224.09 641.256 223.197 641.256 222.045C641.256 220.893 642.149 220 643.301 220C644.453 220 645.317 220.893 645.317 222.045C645.317 223.197 644.453 224.09 643.301 224.09Z" fill="black"/>
<path fill-rule="evenodd" clip-rule="evenodd" d="M805.086 178.191C804.289 176.834 802.833 176.001 801.259 176.001H768.439C765.987 176.001 764 177.988 764 180.44V187.246V192.868V271.578C764 274.03 765.987 276.017 768.439 276.017H874.372C876.824 276.017 878.811 274.03 878.811 271.578V191.684C878.811 189.233 876.824 187.246 874.372 187.246H812.948C811.374 187.246 809.918 186.413 809.121 185.056L805.086 178.191Z" fill="#DF7DFC"/>
<path d="M817.978 252.866H812.917V255.105H817.453V258.512H812.917V263.452H808.985V249.338H817.978V252.866ZM819.771 251.213V248.027H823.481V251.213H819.771ZM819.751 263.452V252.564H823.502V263.452H819.751ZM834.586 252.564L837.106 252.584V262.263C837.106 265.67 834.868 267.787 831.279 267.787C828.194 267.787 826.037 266.235 825.533 263.654H829.142C829.404 264.38 830.332 264.783 831.239 264.783C832.509 264.783 833.517 263.976 833.517 262.686V262.363C832.691 262.867 831.723 263.17 830.674 263.17C827.549 263.17 825.23 260.851 825.23 257.706C825.23 254.601 827.549 252.221 830.674 252.221C831.985 252.221 833.175 252.705 834.102 253.492L834.586 252.564ZM831.299 260.085C832.65 260.085 833.618 259.097 833.618 257.706C833.618 256.335 832.65 255.326 831.299 255.326C829.949 255.326 828.961 256.335 828.961 257.706C828.961 259.097 829.928 260.085 831.299 260.085ZM852.305 252.262C854.644 252.262 856.176 254.076 856.176 256.637V263.452H852.426V257.101C852.426 255.951 852.023 255.407 851.216 255.407C850.188 255.407 849.664 256.113 849.664 257.484V263.452H846.014V257.101C846.014 255.992 845.591 255.407 844.804 255.407C843.796 255.407 843.232 256.133 843.232 257.484V263.452H839.481V252.564H842.123L842.647 253.754C843.433 252.826 844.583 252.262 845.833 252.262C847.163 252.262 848.272 252.846 848.958 253.854C849.744 252.866 850.954 252.262 852.305 252.262ZM867.215 252.564H870.017V263.452H867.114L866.791 262.686C865.904 263.412 864.775 263.815 863.505 263.815C860.178 263.815 857.799 261.396 857.799 258.008C857.799 254.641 860.178 252.241 863.505 252.241C864.795 252.241 865.945 252.665 866.832 253.411L867.215 252.564ZM864.009 260.508C865.42 260.508 866.449 259.44 866.449 258.008C866.449 256.597 865.42 255.548 864.009 255.548C862.597 255.548 861.569 256.597 861.569 258.008C861.569 259.44 862.597 260.508 864.009 260.508Z" fill="black"/>
<circle cx="772.646" cy="183.922" r="2.88046" fill="#33FF00"/>
<circle cx="780.568" cy="183.922" r="2.88046" fill="#33FF00"/>
<circle cx="788.49" cy="183.922" r="2.88046" fill="#33FF00"/>
<circle cx="796.412" cy="183.922" r="2.88046" fill="#D4D4D4"/>
<path d="M781.051 209.112C781.598 208.852 782.52 208.564 783.528 208.564C788.022 208.564 791.651 211.646 791.651 216.342C791.651 221.152 787.935 224.234 783.298 224.234C778.631 224.234 774.915 221.152 774.915 216.342C774.915 213.98 775.722 212.136 777.162 210.005L783.413 200.643H786.869L781.051 209.112ZM783.298 221.613C786.61 221.613 788.684 219.308 788.684 216.37C788.684 213.403 786.61 211.099 783.298 211.099C779.956 211.099 777.882 213.432 777.882 216.37C777.882 219.308 779.956 221.613 783.298 221.613ZM795.367 224.09C794.215 224.09 793.322 223.197 793.322 222.045C793.322 220.893 794.215 220 795.367 220C796.52 220 797.384 220.893 797.384 222.045C797.384 223.197 796.52 224.09 795.367 224.09Z" fill="black"/>
<path fill-rule="evenodd" clip-rule="evenodd" d="M935.109 178.191C934.312 176.834 932.856 176.001 931.283 176.001H898.462C896.011 176.001 894.023 177.988 894.023 180.44V187.246V192.868V271.578C894.023 274.03 896.011 276.017 898.462 276.017H1004.4C1006.85 276.017 1008.83 274.03 1008.83 271.578V191.684C1008.83 189.233 1006.85 187.246 1004.4 187.246H942.971C941.398 187.246 939.942 186.413 939.144 185.056L935.109 178.191Z" fill="#4399FF"/>
<path d="M910.226 249.338C913.23 249.338 915.468 251.495 915.468 254.439C915.468 257.403 913.23 259.561 910.226 259.561H908.108V263.452H904.217V249.338H910.226ZM909.762 256.173C910.79 256.173 911.456 255.468 911.456 254.459C911.456 253.451 910.79 252.745 909.762 252.745H908.108V256.173H909.762ZM923.685 252.262C926.185 252.262 927.798 254.076 927.798 256.899V263.452H924.048V257.343C924.048 256.093 923.604 255.447 922.616 255.447C921.487 255.447 920.782 256.254 920.782 257.645V263.452H917.031V248.632H920.782V253.29C921.588 252.645 922.596 252.262 923.685 252.262ZM935.856 260.186H937.288V263.452H934.707C932.307 263.452 930.836 261.98 930.836 259.561V255.468H928.839V254.58L933.719 249.398H934.505V252.564H937.227V255.468H934.586V258.936C934.586 259.702 935.07 260.186 935.856 260.186ZM944.411 263.815C940.862 263.815 938.322 261.375 938.322 258.008C938.322 254.641 940.862 252.221 944.411 252.221C947.96 252.221 950.521 254.641 950.521 258.008C950.521 261.375 947.96 263.815 944.411 263.815ZM944.411 260.448C945.782 260.448 946.77 259.46 946.77 258.028C946.77 256.597 945.782 255.589 944.411 255.589C943.06 255.589 942.072 256.576 942.072 258.028C942.072 259.46 943.06 260.448 944.411 260.448ZM956.452 263.815C953.488 263.815 951.693 262.242 951.653 259.883H955.262C955.262 260.69 955.827 261.053 956.532 261.053C957.077 261.053 957.601 260.77 957.601 260.206C957.601 259.581 956.774 259.399 955.726 259.238C954.032 258.956 951.794 258.452 951.794 255.81C951.794 253.633 953.669 252.221 956.452 252.221C959.214 252.221 961.029 253.693 961.069 255.891H957.541C957.541 255.205 957.077 254.883 956.411 254.883C955.807 254.883 955.403 255.185 955.403 255.689C955.403 256.294 956.23 256.456 957.258 256.637C958.992 256.939 961.271 257.302 961.271 260.045C961.271 262.323 959.355 263.815 956.452 263.815ZM969.682 252.262C972.183 252.262 973.796 254.076 973.796 256.899V263.452H970.045V257.343C970.045 256.093 969.602 255.447 968.614 255.447C967.485 255.447 966.779 256.254 966.779 257.645V263.452H963.029V248.632H966.779V253.29C967.585 252.645 968.594 252.262 969.682 252.262ZM981.489 263.815C977.94 263.815 975.399 261.375 975.399 258.008C975.399 254.641 977.94 252.221 981.489 252.221C985.037 252.221 987.598 254.641 987.598 258.008C987.598 261.375 985.037 263.815 981.489 263.815ZM981.489 260.448C982.86 260.448 983.848 259.46 983.848 258.028C983.848 256.597 982.86 255.589 981.489 255.589C980.138 255.589 979.15 256.576 979.15 258.028C979.15 259.46 980.138 260.448 981.489 260.448ZM995.707 252.221C999.034 252.221 1001.41 254.621 1001.41 258.008C1001.41 261.416 999.034 263.835 995.707 263.835C994.719 263.835 993.811 263.573 993.045 263.109V267.384H989.335V252.564H991.896L992.36 253.431C993.247 252.665 994.396 252.221 995.707 252.221ZM995.203 260.508C996.594 260.508 997.642 259.44 997.642 258.008C997.642 256.597 996.594 255.528 995.203 255.528C993.791 255.528 992.763 256.597 992.763 258.008C992.763 259.44 993.791 260.508 995.203 260.508Z" fill="black"/>
<path d="M976.71 246.65H975.723L977.917 240.541H978.989L981.191 246.65H980.204L979.647 245.039H977.267L976.71 246.65ZM977.537 244.262H979.377L978.474 241.655H978.432L977.537 244.262ZM983.529 246.743C982.423 246.743 981.613 245.849 981.613 244.372C981.613 242.878 982.432 242.009 983.537 242.009C984.39 242.009 984.702 242.524 984.862 242.811H984.904V240.541H985.807V246.65H984.93V245.933H984.862C984.693 246.237 984.364 246.743 983.529 246.743ZM983.731 245.975C984.499 245.975 984.93 245.317 984.93 244.355C984.93 243.401 984.508 242.777 983.731 242.777C982.93 242.777 982.533 243.452 982.533 244.355C982.533 245.275 982.947 245.975 983.731 245.975ZM988.921 246.743C987.622 246.743 986.778 245.798 986.778 244.38C986.778 242.954 987.622 242.009 988.921 242.009C990.212 242.009 991.056 242.954 991.056 244.38C991.056 245.798 990.212 246.743 988.921 246.743ZM988.921 245.992C989.748 245.992 990.145 245.258 990.145 244.38C990.145 243.503 989.748 242.752 988.921 242.752C988.077 242.752 987.681 243.503 987.681 244.38C987.681 245.258 988.077 245.992 988.921 245.992ZM992.018 246.65V240.541H992.913V242.811H992.964C993.132 242.524 993.436 242.009 994.28 242.009C995.385 242.009 996.212 242.878 996.212 244.372C996.212 245.849 995.402 246.743 994.288 246.743C993.453 246.743 993.132 246.237 992.964 245.933H992.896V246.65H992.018ZM992.896 244.355C992.896 245.317 993.326 245.975 994.086 245.975C994.879 245.975 995.293 245.275 995.293 244.355C995.293 243.452 994.888 242.777 994.086 242.777C993.318 242.777 992.896 243.401 992.896 244.355ZM999.082 246.743C997.731 246.743 996.904 245.815 996.904 244.389C996.904 242.979 997.748 242.009 999.023 242.009C1000.07 242.009 1001.06 242.659 1001.06 244.313V244.634H997.799C997.824 245.503 998.335 246.001 999.09 246.001C999.605 246.001 999.934 245.781 1000.09 245.503H1001C1000.79 246.245 1000.09 246.743 999.082 246.743ZM997.807 243.958H1000.17C1000.17 243.258 999.723 242.752 999.031 242.752C998.31 242.752 997.841 243.309 997.807 243.958Z" fill="black"/>
<circle cx="904.111" cy="183.921" r="2.88046" fill="#33FF00"/>
<circle cx="912.033" cy="183.921" r="2.88046" fill="#33FF00"/>
<circle cx="919.955" cy="183.921" r="2.88046" fill="#33FF00"/>
<circle cx="927.873" cy="183.921" r="2.88046" fill="#D4D4D4"/>
<path d="M908.164 223.715L917.555 203.292H905.226V200.642H921.04V202.658L911.362 223.715H908.164ZM922.253 224.089C921.101 224.089 920.208 223.196 920.208 222.044C920.208 220.892 921.101 219.999 922.253 219.999C923.405 219.999 924.269 220.892 924.269 222.044C924.269 223.196 923.405 224.089 922.253 224.089Z" fill="black"/>
<path fill-rule="evenodd" clip-rule="evenodd" d="M1065.05 178.191C1064.26 176.835 1062.8 176.001 1061.23 176.001H1028.41C1025.96 176.001 1023.97 177.989 1023.97 180.44V192.868C1023.97 192.868 1023.97 192.868 1023.97 192.868C1023.97 192.868 1023.97 192.868 1023.97 192.868V271.579C1023.97 274.03 1025.96 276.017 1028.41 276.017H1134.34C1136.79 276.017 1138.78 274.03 1138.78 271.579V191.684C1138.78 189.233 1136.79 187.246 1134.34 187.246H1072.92C1071.34 187.246 1069.89 186.413 1069.09 185.056L1065.05 178.191Z" fill="#FFA654"/>
<path d="M1027.98 263.452V249.338H1031.93V263.452H1027.98ZM1034.41 263.452V248.632H1038.16V263.452H1034.41ZM1040.52 263.452V248.632H1044.27V263.452H1040.52ZM1051.84 263.815C1048.64 263.815 1046.48 261.839 1046.48 258.794V252.564H1050.23V258.633C1050.23 259.782 1050.85 260.448 1051.84 260.448C1052.85 260.448 1053.46 259.762 1053.46 258.633V252.564H1057.21V258.794C1057.21 261.839 1055.07 263.815 1051.84 263.815ZM1063.61 263.815C1060.65 263.815 1058.85 262.242 1058.81 259.883H1062.42C1062.42 260.69 1062.99 261.053 1063.69 261.053C1064.24 261.053 1064.76 260.77 1064.76 260.206C1064.76 259.581 1063.94 259.399 1062.89 259.238C1061.19 258.956 1058.96 258.452 1058.96 255.81C1058.96 253.633 1060.83 252.221 1063.61 252.221C1066.38 252.221 1068.19 253.693 1068.23 255.891H1064.7C1064.7 255.205 1064.24 254.883 1063.57 254.883C1062.97 254.883 1062.56 255.185 1062.56 255.689C1062.56 256.294 1063.39 256.456 1064.42 256.637C1066.15 256.939 1068.43 257.302 1068.43 260.045C1068.43 262.323 1066.52 263.815 1063.61 263.815ZM1076 260.186H1077.43V263.452H1074.85C1072.45 263.452 1070.98 261.98 1070.98 259.561V255.468H1068.98V254.58L1073.86 249.398H1074.65V252.564H1077.37V255.468H1074.73V258.936C1074.73 259.702 1075.21 260.186 1076 260.186ZM1085.28 252.524H1086.29V255.951H1084.81C1083.5 255.951 1082.94 256.536 1082.94 257.927V263.452H1079.19V252.564H1081.71L1082.29 253.774C1083.06 252.887 1083.99 252.524 1085.28 252.524ZM1096.31 252.564H1099.11V263.452H1096.21L1095.89 262.686C1095 263.412 1093.87 263.815 1092.6 263.815C1089.27 263.815 1086.89 261.396 1086.89 258.008C1086.89 254.641 1089.27 252.241 1092.6 252.241C1093.89 252.241 1095.04 252.665 1095.93 253.411L1096.31 252.564ZM1093.1 260.508C1094.51 260.508 1095.54 259.44 1095.54 258.008C1095.54 256.597 1094.51 255.548 1093.1 255.548C1091.69 255.548 1090.66 256.597 1090.66 258.008C1090.66 259.44 1091.69 260.508 1093.1 260.508ZM1107.39 260.186H1108.82V263.452H1106.24C1103.84 263.452 1102.37 261.98 1102.37 259.561V255.468H1100.37V254.58L1105.25 249.398H1106.04V252.564H1108.76V255.468H1106.12V258.936C1106.12 259.702 1106.6 260.186 1107.39 260.186ZM1115.94 263.815C1112.39 263.815 1109.85 261.375 1109.85 258.008C1109.85 254.641 1112.39 252.221 1115.94 252.221C1119.49 252.221 1122.05 254.641 1122.05 258.008C1122.05 261.375 1119.49 263.815 1115.94 263.815ZM1115.94 260.448C1117.31 260.448 1118.3 259.46 1118.3 258.028C1118.3 256.597 1117.31 255.589 1115.94 255.589C1114.59 255.589 1113.6 256.576 1113.6 258.028C1113.6 259.46 1114.59 260.448 1115.94 260.448ZM1129.88 252.524H1130.89V255.951H1129.41C1128.1 255.951 1127.54 256.536 1127.54 257.927V263.452H1123.79V252.564H1126.31L1126.89 253.774C1127.66 252.887 1128.59 252.524 1129.88 252.524Z" fill="black"/>
<path d="M1106.64 246.65H1105.66L1107.85 240.541H1108.92L1111.12 246.65H1110.14L1109.58 245.039H1107.2L1106.64 246.65ZM1107.47 244.262H1109.31L1108.41 241.655H1108.37L1107.47 244.262ZM1113.46 246.743C1112.36 246.743 1111.55 245.849 1111.55 244.372C1111.55 242.878 1112.37 242.009 1113.47 242.009C1114.32 242.009 1114.64 242.524 1114.8 242.811H1114.84V240.541H1115.74V246.65H1114.86V245.933H1114.8C1114.63 246.237 1114.3 246.743 1113.46 246.743ZM1113.67 245.975C1114.43 245.975 1114.86 245.317 1114.86 244.355C1114.86 243.401 1114.44 242.777 1113.67 242.777C1112.86 242.777 1112.47 243.452 1112.47 244.355C1112.47 245.275 1112.88 245.975 1113.67 245.975ZM1118.85 246.743C1117.56 246.743 1116.71 245.798 1116.71 244.38C1116.71 242.954 1117.56 242.009 1118.85 242.009C1120.15 242.009 1120.99 242.954 1120.99 244.38C1120.99 245.798 1120.15 246.743 1118.85 246.743ZM1118.85 245.992C1119.68 245.992 1120.08 245.258 1120.08 244.38C1120.08 243.503 1119.68 242.752 1118.85 242.752C1118.01 242.752 1117.61 243.503 1117.61 244.38C1117.61 245.258 1118.01 245.992 1118.85 245.992ZM1121.95 246.65V240.541H1122.85V242.811H1122.9C1123.07 242.524 1123.37 242.009 1124.21 242.009C1125.32 242.009 1126.15 242.878 1126.15 244.372C1126.15 245.849 1125.34 246.743 1124.22 246.743C1123.39 246.743 1123.07 246.237 1122.9 245.933H1122.83V246.65H1121.95ZM1122.83 244.355C1122.83 245.317 1123.26 245.975 1124.02 245.975C1124.81 245.975 1125.23 245.275 1125.23 244.355C1125.23 243.452 1124.82 242.777 1124.02 242.777C1123.25 242.777 1122.83 243.401 1122.83 244.355ZM1129.02 246.743C1127.67 246.743 1126.84 245.815 1126.84 244.389C1126.84 242.979 1127.68 242.009 1128.96 242.009C1130 242.009 1130.99 242.659 1130.99 244.313V244.634H1127.73C1127.76 245.503 1128.27 246.001 1129.02 246.001C1129.54 246.001 1129.87 245.781 1130.02 245.503H1130.93C1130.73 246.245 1130.02 246.743 1129.02 246.743ZM1127.74 243.958H1130.1C1130.1 243.258 1129.66 242.752 1128.96 242.752C1128.24 242.752 1127.77 243.309 1127.74 243.958Z" fill="black"/>
<circle cx="1034.05" cy="183.921" r="2.88046" fill="#33FF00"/>
<circle cx="1041.97" cy="183.921" r="2.88046" fill="#33FF00"/>
<circle cx="1049.89" cy="183.921" r="2.88046" fill="#33FF00"/>
<circle cx="1057.81" cy="183.921" r="2.88046" fill="#D4D4D4"/>
<path d="M1042.86 224.233C1038.02 224.233 1034.67 221.526 1034.67 217.666C1034.67 214.181 1037.44 212.251 1039.51 211.761C1037.73 211.214 1035.48 209.342 1035.48 206.403C1035.48 202.947 1038.45 200.095 1042.86 200.095C1047.23 200.095 1050.2 202.976 1050.2 206.403C1050.2 209.342 1047.95 211.214 1046.17 211.761C1048.27 212.251 1051.01 214.181 1051.01 217.666C1051.01 221.526 1047.67 224.233 1042.86 224.233ZM1042.86 210.407C1045.48 210.407 1047.32 208.679 1047.32 206.49C1047.32 204.358 1045.56 202.63 1042.86 202.63C1040.15 202.63 1038.39 204.301 1038.39 206.432C1038.39 208.65 1040.23 210.407 1042.86 210.407ZM1042.86 221.699C1046.02 221.699 1048.07 219.884 1048.07 217.493C1048.07 215.074 1045.85 213.201 1042.86 213.201C1039.83 213.201 1037.61 215.074 1037.61 217.493C1037.61 219.884 1039.66 221.699 1042.86 221.699ZM1055.6 224.089C1054.45 224.089 1053.56 223.197 1053.56 222.044C1053.56 220.892 1054.45 219.999 1055.6 219.999C1056.76 219.999 1057.62 220.892 1057.62 222.044C1057.62 223.197 1056.76 224.089 1055.6 224.089Z" fill="black"/>
<path fill-rule="evenodd" clip-rule="evenodd" d="M1194.99 178.191C1194.19 176.834 1192.74 176.001 1191.17 176.001H1158.34C1155.89 176.001 1153.91 177.988 1153.91 180.44V187.246V192.868V271.578C1153.91 274.03 1155.89 276.017 1158.34 276.017H1264.28C1266.73 276.017 1268.72 274.03 1268.72 271.578V191.684C1268.72 189.233 1266.73 187.246 1264.28 187.246H1202.85C1201.28 187.246 1199.82 186.413 1199.03 185.056L1194.99 178.191Z" fill="#FF889D"/>
<path d="M1172.74 263.452V249.338H1176.69V263.452H1172.74ZM1185.67 252.262C1188.19 252.262 1189.86 254.056 1189.86 256.818V263.452H1186.11V257.343C1186.11 256.072 1185.63 255.447 1184.68 255.447C1183.51 255.447 1182.85 256.254 1182.85 257.645V263.452H1179.1V252.564H1181.74L1182.24 253.693C1183.05 252.786 1184.26 252.262 1185.67 252.262ZM1199.88 248.632H1203.59V263.452H1200.82L1200.46 262.646C1199.57 263.392 1198.44 263.835 1197.17 263.835C1193.85 263.835 1191.47 261.396 1191.47 258.008C1191.47 254.641 1193.85 252.221 1197.17 252.221C1198.18 252.221 1199.11 252.483 1199.88 252.967V248.632ZM1197.68 260.508C1199.09 260.508 1200.12 259.44 1200.12 258.028C1200.12 256.597 1199.09 255.528 1197.68 255.528C1196.29 255.528 1195.24 256.597 1195.24 258.028C1195.24 259.44 1196.29 260.508 1197.68 260.508ZM1217.15 257.907C1217.15 258.25 1217.13 258.573 1217.09 258.915H1209C1209.24 260.166 1210.03 260.811 1211.22 260.811C1212.09 260.811 1212.83 260.428 1213.17 259.782H1216.92C1216.16 262.263 1213.94 263.815 1211.22 263.815C1207.81 263.815 1205.31 261.335 1205.31 258.008C1205.31 254.681 1207.79 252.221 1211.22 252.221C1214.73 252.221 1217.15 254.721 1217.15 257.907ZM1211.22 255.165C1210.13 255.165 1209.36 255.75 1209.06 256.839H1213.46C1213.13 255.75 1212.35 255.165 1211.22 255.165ZM1223.05 263.815C1220.08 263.815 1218.29 262.242 1218.25 259.883H1221.86C1221.86 260.69 1222.42 261.053 1223.13 261.053C1223.67 261.053 1224.2 260.77 1224.2 260.206C1224.2 259.581 1223.37 259.399 1222.32 259.238C1220.63 258.956 1218.39 258.452 1218.39 255.81C1218.39 253.633 1220.26 252.221 1223.05 252.221C1225.81 252.221 1227.62 253.693 1227.66 255.891H1224.14C1224.14 255.205 1223.67 254.883 1223.01 254.883C1222.4 254.883 1222 255.185 1222 255.689C1222 256.294 1222.82 256.456 1223.85 256.637C1225.59 256.939 1227.87 257.302 1227.87 260.045C1227.87 262.323 1225.95 263.815 1223.05 263.815ZM1229.64 251.213V248.027H1233.35V251.213H1229.64ZM1229.62 263.452V252.564H1233.37V263.452H1229.62ZM1244.46 252.564L1246.98 252.584V262.263C1246.98 265.67 1244.74 267.787 1241.15 267.787C1238.07 267.787 1235.91 266.235 1235.4 263.654H1239.01C1239.28 264.38 1240.2 264.783 1241.11 264.783C1242.38 264.783 1243.39 263.976 1243.39 262.686V262.363C1242.56 262.867 1241.59 263.17 1240.55 263.17C1237.42 263.17 1235.1 260.851 1235.1 257.706C1235.1 254.601 1237.42 252.221 1240.55 252.221C1241.86 252.221 1243.05 252.705 1243.97 253.492L1244.46 252.564ZM1241.17 260.085C1242.52 260.085 1243.49 259.097 1243.49 257.706C1243.49 256.335 1242.52 255.326 1241.17 255.326C1239.82 255.326 1238.83 256.335 1238.83 257.706C1238.83 259.097 1239.8 260.085 1241.17 260.085ZM1255.93 252.262C1258.45 252.262 1260.12 254.056 1260.12 256.818V263.452H1256.37V257.343C1256.37 256.072 1255.89 255.447 1254.94 255.447C1253.77 255.447 1253.1 256.254 1253.1 257.645V263.452H1249.35V252.564H1251.99L1252.5 253.693C1253.31 252.786 1254.52 252.262 1255.93 252.262Z" fill="black"/>
<path d="M1236.58 246.65H1235.59L1237.78 240.541H1238.86L1241.06 246.65H1240.07L1239.51 245.039H1237.13L1236.58 246.65ZM1237.4 244.262H1239.24L1238.34 241.655H1238.3L1237.4 244.262ZM1243.4 246.743C1242.29 246.743 1241.48 245.849 1241.48 244.372C1241.48 242.878 1242.3 242.009 1243.4 242.009C1244.26 242.009 1244.57 242.524 1244.73 242.811H1244.77V240.541H1245.67V246.65H1244.8V245.933H1244.73C1244.56 246.237 1244.23 246.743 1243.4 246.743ZM1243.6 245.975C1244.37 245.975 1244.8 245.317 1244.8 244.355C1244.8 243.401 1244.37 242.777 1243.6 242.777C1242.8 242.777 1242.4 243.452 1242.4 244.355C1242.4 245.275 1242.81 245.975 1243.6 245.975ZM1248.79 246.743C1247.49 246.743 1246.65 245.798 1246.65 244.38C1246.65 242.954 1247.49 242.009 1248.79 242.009C1250.08 242.009 1250.92 242.954 1250.92 244.38C1250.92 245.798 1250.08 246.743 1248.79 246.743ZM1248.79 245.992C1249.62 245.992 1250.01 245.258 1250.01 244.38C1250.01 243.503 1249.62 242.752 1248.79 242.752C1247.94 242.752 1247.55 243.503 1247.55 244.38C1247.55 245.258 1247.94 245.992 1248.79 245.992ZM1251.89 246.65V240.541H1252.78V242.811H1252.83C1253 242.524 1253.3 242.009 1254.15 242.009C1255.25 242.009 1256.08 242.878 1256.08 244.372C1256.08 245.849 1255.27 246.743 1254.16 246.743C1253.32 246.743 1253 246.237 1252.83 245.933H1252.76V246.65H1251.89ZM1252.76 244.355C1252.76 245.317 1253.19 245.975 1253.95 245.975C1254.75 245.975 1255.16 245.275 1255.16 244.355C1255.16 243.452 1254.75 242.777 1253.95 242.777C1253.19 242.777 1252.76 243.401 1252.76 244.355ZM1258.95 246.743C1257.6 246.743 1256.77 245.815 1256.77 244.389C1256.77 242.979 1257.62 242.009 1258.89 242.009C1259.94 242.009 1260.92 242.659 1260.92 244.313V244.634H1257.67C1257.69 245.503 1258.2 246.001 1258.96 246.001C1259.47 246.001 1259.8 245.781 1259.95 245.503H1260.86C1260.66 246.245 1259.95 246.743 1258.95 246.743ZM1257.67 243.958H1260.04C1260.04 243.258 1259.59 242.752 1258.9 242.752C1258.18 242.752 1257.71 243.309 1257.67 243.958Z" fill="black"/>
<circle cx="1163.98" cy="183.921" r="2.88046" fill="#33FF00"/>
<circle cx="1171.9" cy="183.921" r="2.88046" fill="#33FF00"/>
<circle cx="1179.83" cy="183.921" r="2.88046" fill="#33FF00"/>
<circle cx="1187.75" cy="183.921" r="2.88046" fill="#D4D4D4"/>
<path d="M1175.76 215.217C1175.21 215.476 1174.29 215.764 1173.28 215.764C1168.79 215.764 1165.16 212.682 1165.16 207.987C1165.16 203.177 1168.88 200.095 1173.51 200.095C1178.18 200.095 1181.9 203.177 1181.9 207.987C1181.9 210.349 1181.06 212.221 1179.65 214.324L1173.4 223.686H1169.94L1175.76 215.217ZM1173.51 202.716C1170.2 202.716 1168.13 205.02 1168.13 207.958C1168.13 210.925 1170.2 213.23 1173.51 213.23C1176.86 213.23 1178.93 210.896 1178.93 207.958C1178.93 205.02 1176.86 202.716 1173.51 202.716ZM1183.99 224.089C1182.84 224.089 1181.94 223.196 1181.94 222.044C1181.94 220.892 1182.84 219.999 1183.99 219.999C1185.14 219.999 1186.01 220.892 1186.01 222.044C1186.01 223.196 1185.14 224.089 1183.99 224.089Z" fill="black"/>
<path fill-rule="evenodd" clip-rule="evenodd" d="M1324.91 178.19C1324.12 176.833 1322.66 176 1321.09 176H1288.27C1285.82 176 1283.83 177.987 1283.83 180.439V187.245V192.867V271.577C1283.83 274.029 1285.82 276.016 1288.27 276.016H1394.2C1396.65 276.016 1398.64 274.029 1398.64 271.577V191.683C1398.64 189.232 1396.65 187.245 1394.2 187.245H1332.78C1331.2 187.245 1329.75 186.412 1328.95 185.055L1324.91 178.19Z" fill="#D0CBBD"/>
<path d="M1333.87 256.161C1335.2 256.786 1336.03 258.057 1336.03 259.589C1336.03 261.888 1334.05 263.622 1331.45 263.622H1324.94V249.507H1331.31C1333.81 249.507 1335.64 251.02 1335.64 253.117C1335.64 254.367 1334.94 255.496 1333.87 256.161ZM1331.95 253.762C1331.95 253.016 1331.45 252.532 1330.64 252.532H1328.67V254.992H1330.64C1331.45 254.992 1331.95 254.488 1331.95 253.762ZM1330.78 260.416C1331.63 260.416 1332.17 259.892 1332.17 259.125C1332.17 258.379 1331.63 257.855 1330.78 257.855H1328.67V260.416H1330.78ZM1343.98 252.673H1344.99V256.101H1343.51C1342.2 256.101 1341.64 256.686 1341.64 258.077V263.602H1337.89V252.713H1340.41L1340.99 253.923C1341.76 253.036 1342.69 252.673 1343.98 252.673ZM1346.41 251.363V248.177H1350.12V251.363H1346.41ZM1346.39 263.602V252.713H1350.15V263.602H1346.39ZM1360.28 248.782H1363.99V263.602H1361.23L1360.87 262.795C1359.98 263.541 1358.85 263.985 1357.58 263.985C1354.25 263.985 1351.87 261.545 1351.87 258.157C1351.87 254.79 1354.25 252.371 1357.58 252.371C1358.59 252.371 1359.52 252.633 1360.28 253.117V248.782ZM1358.08 260.658C1359.5 260.658 1360.52 259.589 1360.52 258.178C1360.52 256.746 1359.5 255.677 1358.08 255.677C1356.69 255.677 1355.64 256.746 1355.64 258.178C1355.64 259.589 1356.69 260.658 1358.08 260.658ZM1375.07 252.713L1377.59 252.734V262.412C1377.59 265.82 1375.35 267.937 1371.77 267.937C1368.68 267.937 1366.52 266.384 1366.02 263.803H1369.63C1369.89 264.529 1370.82 264.932 1371.72 264.932C1373 264.932 1374 264.126 1374 262.835V262.513C1373.18 263.017 1372.21 263.319 1371.16 263.319C1368.04 263.319 1365.72 261.001 1365.72 257.855C1365.72 254.75 1368.04 252.371 1371.16 252.371C1372.47 252.371 1373.66 252.855 1374.59 253.641L1375.07 252.713ZM1371.79 260.234C1373.14 260.234 1374.1 259.246 1374.1 257.855C1374.1 256.484 1373.14 255.476 1371.79 255.476C1370.43 255.476 1369.45 256.484 1369.45 257.855C1369.45 259.246 1370.41 260.234 1371.79 260.234ZM1391.18 258.057C1391.18 258.399 1391.16 258.722 1391.12 259.065H1383.03C1383.27 260.315 1384.06 260.96 1385.25 260.96C1386.12 260.96 1386.86 260.577 1387.21 259.932H1390.96C1390.19 262.412 1387.97 263.965 1385.25 263.965C1381.84 263.965 1379.34 261.484 1379.34 258.157C1379.34 254.831 1381.82 252.371 1385.25 252.371C1388.76 252.371 1391.18 254.871 1391.18 258.057ZM1385.25 255.314C1384.16 255.314 1383.4 255.899 1383.09 256.988H1387.49C1387.17 255.899 1386.38 255.314 1385.25 255.314Z" fill="black"/>
<path d="M1366.51 246.65H1365.52L1367.71 240.54H1368.79L1370.99 246.65H1370L1369.44 245.038H1367.06L1366.51 246.65ZM1367.33 244.262H1369.17L1368.27 241.654H1368.23L1367.33 244.262ZM1373.33 246.743C1372.22 246.743 1371.41 245.848 1371.41 244.371C1371.41 242.878 1372.23 242.009 1373.33 242.009C1374.19 242.009 1374.5 242.523 1374.66 242.81H1374.7V240.54H1375.6V246.65H1374.73V245.933H1374.66C1374.49 246.236 1374.16 246.743 1373.33 246.743ZM1373.53 245.975C1374.3 245.975 1374.73 245.317 1374.73 244.355C1374.73 243.401 1374.3 242.776 1373.53 242.776C1372.73 242.776 1372.33 243.452 1372.33 244.355C1372.33 245.274 1372.74 245.975 1373.53 245.975ZM1378.72 246.743C1377.42 246.743 1376.57 245.798 1376.57 244.38C1376.57 242.954 1377.42 242.009 1378.72 242.009C1380.01 242.009 1380.85 242.954 1380.85 244.38C1380.85 245.798 1380.01 246.743 1378.72 246.743ZM1378.72 245.992C1379.55 245.992 1379.94 245.257 1379.94 244.38C1379.94 243.502 1379.55 242.751 1378.72 242.751C1377.87 242.751 1377.48 243.502 1377.48 244.38C1377.48 245.257 1377.87 245.992 1378.72 245.992ZM1381.82 246.65V240.54H1382.71V242.81H1382.76C1382.93 242.523 1383.23 242.009 1384.08 242.009C1385.18 242.009 1386.01 242.878 1386.01 244.371C1386.01 245.848 1385.2 246.743 1384.09 246.743C1383.25 246.743 1382.93 246.236 1382.76 245.933H1382.69V246.65H1381.82ZM1382.69 244.355C1382.69 245.317 1383.12 245.975 1383.88 245.975C1384.68 245.975 1385.09 245.274 1385.09 244.355C1385.09 243.452 1384.68 242.776 1383.88 242.776C1383.11 242.776 1382.69 243.401 1382.69 244.355ZM1388.88 246.743C1387.53 246.743 1386.7 245.814 1386.7 244.388C1386.7 242.979 1387.55 242.009 1388.82 242.009C1389.87 242.009 1390.85 242.658 1390.85 244.312V244.633H1387.6C1387.62 245.502 1388.13 246 1388.89 246C1389.4 246 1389.73 245.781 1389.88 245.502H1390.79C1390.59 246.245 1389.88 246.743 1388.88 246.743ZM1387.6 243.958H1389.97C1389.97 243.257 1389.52 242.751 1388.83 242.751C1388.11 242.751 1387.64 243.308 1387.6 243.958Z" fill="black"/>
<circle cx="1293.19" cy="183.921" r="2.88046" fill="#33FF00"/>
<circle cx="1301.11" cy="183.921" r="2.88046" fill="#33FF00"/>
<circle cx="1309.03" cy="183.921" r="2.88046" fill="#33FF00"/>
<circle cx="1316.95" cy="183.921" r="2.88046" fill="#D4D4D4"/>
<path d="M1299.42 223.715V203.293H1294.64V200.643H1302.45V223.715H1299.42ZM1316.36 224.233C1311.5 224.233 1307.84 220.23 1307.84 212.164C1307.84 204.099 1311.5 200.095 1316.36 200.095C1321.2 200.095 1324.86 204.099 1324.86 212.164C1324.86 220.23 1321.2 224.233 1316.36 224.233ZM1316.36 221.555C1319.47 221.555 1321.95 218.444 1321.95 212.164C1321.95 205.914 1319.47 202.774 1316.36 202.774C1313.22 202.774 1310.75 205.914 1310.75 212.164C1310.75 218.444 1313.22 221.555 1316.36 221.555ZM1328.34 224.089C1327.19 224.089 1326.3 223.197 1326.3 222.044C1326.3 220.892 1327.19 219.999 1328.34 219.999C1329.49 219.999 1330.36 220.892 1330.36 222.044C1330.36 223.197 1329.49 224.089 1328.34 224.089Z" fill="black"/>
<path d="M92.6953 294.987V293.502H101.461V294.987H97.9453V304.815H96.2266V294.987H92.6953ZM105.492 304.987C102.992 304.987 101.461 303.268 101.461 300.627C101.461 298.018 103.023 296.221 105.383 296.221C107.32 296.221 109.148 297.424 109.148 300.487V301.081H103.117C103.164 302.69 104.109 303.612 105.508 303.612C106.461 303.612 107.07 303.206 107.352 302.69H109.039C108.664 304.065 107.352 304.987 105.492 304.987ZM103.133 299.831H107.508C107.508 298.534 106.68 297.596 105.398 297.596C104.062 297.596 103.195 298.627 103.133 299.831ZM114.398 304.987C111.93 304.987 110.43 303.159 110.43 300.612C110.43 298.018 111.977 296.221 114.367 296.221C116.305 296.221 117.711 297.362 117.883 299.081H116.258C116.086 298.284 115.445 297.612 114.398 297.612C113.023 297.612 112.102 298.752 112.102 300.565C112.102 302.424 113.008 303.565 114.398 303.565C115.336 303.565 116.055 303.049 116.258 302.127H117.883C117.695 303.768 116.398 304.987 114.398 304.987ZM121.133 299.784V304.815H119.461V293.502H121.102V297.721H121.211C121.617 296.799 122.398 296.221 123.727 296.221C125.477 296.221 126.633 297.299 126.633 299.424V304.815H124.961V299.627C124.961 298.377 124.289 297.659 123.164 297.659C121.992 297.659 121.133 298.424 121.133 299.784ZM130.32 299.784V304.815H128.648V296.331H130.258V297.721H130.352C130.758 296.815 131.586 296.221 132.852 296.221C134.602 296.221 135.742 297.315 135.742 299.424V304.815H134.086V299.627C134.086 298.393 133.414 297.659 132.289 297.659C131.148 297.659 130.32 298.424 130.32 299.784ZM141.367 304.987C138.961 304.987 137.398 303.237 137.398 300.612C137.398 297.971 138.961 296.221 141.367 296.221C143.758 296.221 145.32 297.971 145.32 300.612C145.32 303.237 143.758 304.987 141.367 304.987ZM141.367 303.596C142.898 303.596 143.633 302.237 143.633 300.612C143.633 298.987 142.898 297.596 141.367 297.596C139.805 297.596 139.07 298.987 139.07 300.612C139.07 302.237 139.805 303.596 141.367 303.596ZM148.633 293.502V304.815H146.961V293.502H148.633ZM154.258 304.987C151.852 304.987 150.289 303.237 150.289 300.612C150.289 297.971 151.852 296.221 154.258 296.221C156.648 296.221 158.211 297.971 158.211 300.612C158.211 303.237 156.648 304.987 154.258 304.987ZM154.258 303.596C155.789 303.596 156.523 302.237 156.523 300.612C156.523 298.987 155.789 297.596 154.258 297.596C152.695 297.596 151.961 298.987 151.961 300.612C151.961 302.237 152.695 303.596 154.258 303.596ZM163.414 308.174C161.273 308.174 159.867 307.221 159.711 305.643H161.414C161.57 306.44 162.32 306.831 163.43 306.831C164.758 306.831 165.602 306.268 165.602 304.94V303.268H165.492C165.195 303.815 164.586 304.69 163.023 304.69C161.023 304.69 159.477 303.19 159.477 300.487C159.477 297.784 160.992 296.221 163.039 296.221C164.617 296.221 165.195 297.174 165.508 297.706H165.617V296.331H167.242V305.002C167.242 307.174 165.602 308.174 163.414 308.174ZM163.398 303.315C164.82 303.315 165.617 302.268 165.617 300.518C165.617 298.799 164.836 297.643 163.398 297.643C161.914 297.643 161.18 298.893 161.18 300.518C161.18 302.174 161.945 303.315 163.398 303.315ZM170.305 308.002C169.961 308.002 169.633 307.987 169.414 307.956V306.565C169.602 306.581 169.93 306.596 170.164 306.596C170.68 306.596 171.117 306.549 171.508 305.487L171.711 304.924L168.602 296.331H170.383L172.523 302.909H172.617L174.758 296.331H176.555L173.055 305.94C172.57 307.284 171.695 308.002 170.305 308.002Z" fill="#D1ABE7"/>
<path d="M769.117 304.815H765.445V293.502H769.227C772.555 293.502 774.555 295.627 774.555 299.143C774.555 302.674 772.555 304.815 769.117 304.815ZM767.164 303.315H769.023C771.586 303.315 772.852 301.815 772.852 299.143C772.852 296.487 771.586 295.002 769.117 295.002H767.164V303.315ZM780.008 304.987C777.508 304.987 775.977 303.268 775.977 300.627C775.977 298.018 777.539 296.221 779.898 296.221C781.836 296.221 783.664 297.424 783.664 300.487V301.081H777.633C777.68 302.69 778.625 303.612 780.023 303.612C780.977 303.612 781.586 303.206 781.867 302.69H783.555C783.18 304.065 781.867 304.987 780.008 304.987ZM777.648 299.831H782.023C782.023 298.534 781.195 297.596 779.914 297.596C778.578 297.596 777.711 298.627 777.648 299.831ZM790.086 298.643C789.93 297.971 789.398 297.534 788.477 297.534C787.523 297.534 786.836 298.034 786.852 298.674C786.836 299.174 787.242 299.534 788.18 299.752L789.523 300.065C791.086 300.409 791.836 301.159 791.852 302.362C791.836 303.893 790.555 304.987 788.383 304.987C786.352 304.987 785.133 304.081 784.93 302.502H786.633C786.773 303.268 787.367 303.643 788.367 303.643C789.445 303.643 790.133 303.206 790.148 302.487C790.133 301.94 789.727 301.581 788.836 301.377L787.508 301.096C785.977 300.752 785.18 299.94 785.18 298.768C785.18 297.252 786.492 296.221 788.461 296.221C790.352 296.221 791.523 297.19 791.695 298.643H790.086ZM793.477 304.815V296.331H795.148V304.815H793.477ZM794.32 295.018C793.742 295.018 793.258 294.581 793.258 294.034C793.258 293.487 793.742 293.049 794.32 293.049C794.883 293.049 795.367 293.487 795.367 294.034C795.367 294.581 794.883 295.018 794.32 295.018ZM800.742 308.174C798.602 308.174 797.195 307.221 797.039 305.643H798.742C798.898 306.44 799.648 306.831 800.758 306.831C802.086 306.831 802.93 306.268 802.93 304.94V303.268H802.82C802.523 303.815 801.914 304.69 800.352 304.69C798.352 304.69 796.805 303.19 796.805 300.487C796.805 297.784 798.32 296.221 800.367 296.221C801.945 296.221 802.523 297.174 802.836 297.706H802.945V296.331H804.57V305.002C804.57 307.174 802.93 308.174 800.742 308.174ZM800.727 303.315C802.148 303.315 802.945 302.268 802.945 300.518C802.945 298.799 802.164 297.643 800.727 297.643C799.242 297.643 798.508 298.893 798.508 300.518C798.508 302.174 799.273 303.315 800.727 303.315ZM808.273 299.784V304.815H806.602V296.331H808.211V297.721H808.305C808.711 296.815 809.539 296.221 810.805 296.221C812.555 296.221 813.695 297.315 813.695 299.424V304.815H812.039V299.627C812.039 298.393 811.367 297.659 810.242 297.659C809.102 297.659 808.273 298.424 808.273 299.784Z" fill="#D1ABE7"/>
</svg>
