<svg width="668" height="350" viewBox="0 0 668 350" fill="none" xmlns="http://www.w3.org/2000/svg">
<rect opacity="0.9" width="668" height="350" rx="10" fill="#5DFF5C"/>
<path d="M130.49 177.45C123.65 177.45 119.105 173.94 117.845 169.44L122.66 165.165C123.56 169.08 125.99 171.33 130.31 171.33C133.37 171.33 135.08 170.025 135.08 167.775C135.08 165.3 132.965 164.49 129.815 164.49H125.18V159.315H130.13C132.83 159.315 134.54 158.37 134.54 156.12C134.54 154.005 133.01 152.565 130.31 152.565C126.8 152.565 124.1 154.41 123.335 158.055L118.52 153.87C119.87 149.73 124.145 146.4 130.535 146.4C137.51 146.4 141.065 150.36 141.065 154.68C141.065 159.225 137.42 161.43 133.28 161.655C139.22 161.835 142.055 165.03 142.055 169.26C142.055 174.39 137.105 177.45 130.49 177.45ZM168.993 177H146.223V172.14L157.428 161.88C159.813 159.63 161.253 157.965 161.253 155.85C161.253 153.96 159.948 152.565 157.608 152.565C153.873 152.565 151.218 154.905 150.768 160.485L145.773 156.48C146.268 150.36 151.398 146.4 158.283 146.4C164.628 146.4 168.093 150.045 168.093 155.445C168.093 160.17 164.358 163.815 160.533 166.605L156.798 169.53L152.928 172.005L158.553 171.285H168.993V177ZM192.557 177H186.122V170.79H171.047V165.795L185.357 146.85H192.557V165.21H197.192V170.79H192.557V177ZM177.887 165.21H186.122V154.455L177.887 165.21ZM208.708 177H201.553C201.553 164.13 207.988 157.29 212.488 152.655H197.098V146.85H218.653V152.88C213.523 158.28 208.708 164.67 208.708 177ZM232.183 177.45C225.838 177.45 221.428 174.345 219.943 170.34L225.028 165.75C226.018 169.305 228.628 171.105 232.048 171.105C235.198 171.105 236.998 169.395 236.998 166.245C236.998 162.915 234.838 161.34 231.868 161.34C229.438 161.34 227.683 162.24 227.233 164.13L227.188 164.4L221.068 163.77L222.103 146.85H241.903V152.655H228.133L227.458 162.06C228.448 159.36 230.968 157.245 235.018 157.245C240.373 157.245 243.973 160.62 243.973 166.83C243.973 173.22 239.248 177.45 232.183 177.45ZM258.745 177.45C250.51 177.45 246.55 173.94 246.55 169.035C246.55 165.93 248.395 162.78 253.66 161.7C249.52 161.025 247.585 158.19 247.585 154.77C247.585 150.18 251.455 146.4 258.745 146.4C265.99 146.4 269.905 150.18 269.905 154.725C269.905 158.235 267.745 161.025 263.605 161.7C268.87 162.78 270.94 165.93 270.94 169.035C270.94 173.94 266.98 177.45 258.745 177.45ZM258.745 159.54C261.4 159.54 262.975 157.965 262.975 155.895C262.975 154.005 261.76 152.34 258.745 152.34C255.73 152.34 254.515 154.005 254.515 155.895C254.515 157.965 255.73 159.54 258.745 159.54ZM258.745 171.51C262.435 171.51 263.56 169.665 263.56 167.595C263.56 165.39 261.94 163.59 258.745 163.59C255.55 163.59 253.93 165.39 253.93 167.595C253.93 169.665 255.055 171.51 258.745 171.51ZM286.455 177.45C280.11 177.45 275.7 174.345 274.215 170.34L279.3 165.75C280.29 169.305 282.9 171.105 286.32 171.105C289.47 171.105 291.27 169.395 291.27 166.245C291.27 162.915 289.11 161.34 286.14 161.34C283.71 161.34 281.955 162.24 281.505 164.13L281.46 164.4L275.34 163.77L276.375 146.85H296.175V152.655H282.405L281.73 162.06C282.72 159.36 285.24 157.245 289.29 157.245C294.645 157.245 298.245 160.62 298.245 166.83C298.245 173.22 293.52 177.45 286.455 177.45ZM315.027 181.905C307.827 181.905 301.482 177.9 301.482 168.675C301.482 156.615 310.122 149.1 322.002 149.1C330.822 149.1 336.132 153.825 336.132 162.24C336.132 169.845 332.172 174.525 326.502 174.525C322.137 174.525 320.517 171.78 320.832 168.99C320.067 171.735 318.222 174.165 314.847 174.165C311.697 174.165 309.582 172.005 309.582 167.82C309.582 161.565 313.002 157.155 317.457 157.155C320.742 157.155 321.912 159.54 321.822 162.555L322.632 157.515H328.077L326.367 167.82C326.097 169.485 326.412 170.16 327.447 170.16C329.607 170.16 331.137 166.65 331.137 162.33C331.137 156.795 327.987 153.69 321.282 153.69C312.102 153.69 306.792 159.405 306.792 168C306.792 174.345 310.482 177.18 315.792 177.18C318.627 177.18 321.102 176.595 322.992 175.74L321.642 181.005C319.887 181.59 317.547 181.905 315.027 181.905ZM317.907 170.34C319.842 170.34 320.787 168.99 321.057 167.28L321.507 164.58C321.912 161.925 320.742 160.98 319.032 160.98C316.737 160.98 315.207 163.59 315.207 167.145C315.207 169.305 316.287 170.34 317.907 170.34ZM346.257 177H339.822V154.95H346.257V161.34C346.977 157.74 349.092 154.5 353.637 154.5C357.822 154.5 360.387 157.065 360.387 161.61V177H353.952V163.86C353.952 161.16 353.232 159.495 350.307 159.495C347.247 159.495 346.257 161.205 346.257 164.805V177ZM369.597 177.495C366.177 177.495 363.792 175.65 363.792 172.095C363.792 168.765 365.907 166.83 370.092 165.39L376.842 162.87C376.617 161.025 375.762 159.99 373.332 159.99C370.542 159.99 367.977 161.565 366.447 163.77L363.207 159.09C365.412 156.705 369.057 154.5 373.782 154.5C379.362 154.5 382.602 157.47 382.602 163.005V170.565C382.602 171.555 382.962 171.87 383.772 171.87H385.077V177H381.297C378.912 177 376.752 175.92 376.752 172.77V171.285C376.032 174.165 374.097 177.495 369.597 177.495ZM369.732 171.15C369.732 172.185 370.452 172.77 371.982 172.77C375.042 172.77 376.752 171.24 376.752 168.54V167.01L372.072 168.945C370.317 169.665 369.732 170.295 369.732 171.15ZM400.923 177H392.778L385.038 154.95H392.148L395.208 165.525L396.918 173.265L398.583 165.525L401.643 154.95H408.663L400.923 177ZM420.132 177.45C413.112 177.45 408.837 172.77 408.837 165.975C408.837 159.18 413.112 154.5 419.592 154.5C426.612 154.5 430.122 159.18 430.122 164.94C430.122 165.885 430.032 167.145 429.897 167.64H414.867C415.272 170.745 417.342 172.23 420.222 172.23C423.327 172.23 424.992 170.88 425.802 168.99L429.717 172.905C428.052 175.29 425.082 177.45 420.132 177.45ZM419.637 159.45C416.892 159.45 415.182 160.98 414.867 163.95H424.317C424.092 161.025 422.517 159.45 419.637 159.45ZM440.256 177H433.821V154.95H440.256V161.88C440.976 158.19 443.136 154.5 447.366 154.5C450.606 154.5 452.406 156.57 452.406 160.035C452.406 162.42 451.686 164.31 451.146 165.165H444.936C445.746 164.355 446.511 162.78 446.511 161.52C446.511 160.26 445.926 159.315 444.531 159.315C442.326 159.315 440.256 161.7 440.256 165.345V177ZM458.223 177H451.383V170.025H458.223V177ZM471.674 177.45C464.879 177.45 460.604 172.725 460.604 165.975C460.604 159.27 464.879 154.5 471.674 154.5C476.939 154.5 480.584 157.38 481.934 161.16L476.579 164.265C476.039 161.52 474.599 159.855 471.899 159.855C469.064 159.855 467.174 161.925 467.174 165.975C467.174 170.025 469.064 172.095 471.899 172.095C474.644 172.095 476.039 170.43 476.579 167.685L481.934 170.79C480.584 174.57 476.939 177.45 471.674 177.45ZM494.302 177.45C487.597 177.45 483.277 172.725 483.277 165.975C483.277 159.27 487.597 154.5 494.302 154.5C501.187 154.5 505.552 159.27 505.552 165.975C505.552 172.725 501.187 177.45 494.302 177.45ZM494.392 172.23C497.137 172.23 499.027 170.475 499.027 165.975C499.027 161.43 497.137 159.72 494.392 159.72C491.692 159.72 489.802 161.43 489.802 165.975C489.802 170.475 491.692 172.23 494.392 172.23ZM515.535 177H509.1V154.95H515.535V161.295C516.21 157.695 518.19 154.5 522.735 154.5C526.785 154.5 529.035 157.065 529.035 161.34C529.71 157.695 531.69 154.5 536.235 154.5C540.285 154.5 542.535 157.065 542.535 161.61V177H536.1V163.86C536.1 160.98 535.2 159.495 532.59 159.495C530.025 159.495 529.035 161.205 529.035 164.805V177H522.6V163.86C522.6 160.98 521.7 159.495 519.09 159.495C516.525 159.495 515.535 161.205 515.535 164.805V177ZM127.925 226.62H122.93V221.4H117.71V216.405H122.93V211.23H127.925V216.405H133.1V221.4H127.925V226.62ZM148.399 234.45C140.164 234.45 136.204 230.94 136.204 226.035C136.204 222.93 138.049 219.78 143.314 218.7C139.174 218.025 137.239 215.19 137.239 211.77C137.239 207.18 141.109 203.4 148.399 203.4C155.644 203.4 159.559 207.18 159.559 211.725C159.559 215.235 157.399 218.025 153.259 218.7C158.524 219.78 160.594 222.93 160.594 226.035C160.594 230.94 156.634 234.45 148.399 234.45ZM148.399 216.54C151.054 216.54 152.629 214.965 152.629 212.895C152.629 211.005 151.414 209.34 148.399 209.34C145.384 209.34 144.169 211.005 144.169 212.895C144.169 214.965 145.384 216.54 148.399 216.54ZM148.399 228.51C152.089 228.51 153.214 226.665 153.214 224.595C153.214 222.39 151.594 220.59 148.399 220.59C145.204 220.59 143.584 222.39 143.584 224.595C143.584 226.665 144.709 228.51 148.399 228.51ZM187.451 234H164.681V229.14L175.886 218.88C178.271 216.63 179.711 214.965 179.711 212.85C179.711 210.96 178.406 209.565 176.066 209.565C172.331 209.565 169.676 211.905 169.226 217.485L164.231 213.48C164.726 207.36 169.856 203.4 176.741 203.4C183.086 203.4 186.551 207.045 186.551 212.445C186.551 217.17 182.816 220.815 178.991 223.605L175.256 226.53L171.386 229.005L177.011 228.285H187.451V234ZM210.699 234H204.264V211.455H198.594V206.55C201.249 206.55 203.274 205.83 204.804 203.85H210.699V234ZM228.373 234.405C219.778 234.405 215.008 227.88 215.008 218.88C215.008 209.925 219.778 203.4 228.373 203.4C236.968 203.4 241.693 209.925 241.693 218.88C241.693 227.88 236.968 234.405 228.373 234.405ZM228.373 228.15C233.008 228.15 234.943 224.55 234.943 218.88C234.943 213.255 233.008 209.61 228.373 209.61C223.738 209.61 221.803 213.255 221.803 218.88C221.803 224.55 223.738 228.15 228.373 228.15ZM265.643 224.82H253.493V219.555H265.643V224.82ZM290.099 234.45C283.259 234.45 278.714 230.94 277.454 226.44L282.269 222.165C283.169 226.08 285.599 228.33 289.919 228.33C292.979 228.33 294.689 227.025 294.689 224.775C294.689 222.3 292.574 221.49 289.424 221.49H284.789V216.315H289.739C292.439 216.315 294.149 215.37 294.149 213.12C294.149 211.005 292.619 209.565 289.919 209.565C286.409 209.565 283.709 211.41 282.944 215.055L278.129 210.87C279.479 206.73 283.754 203.4 290.144 203.4C297.119 203.4 300.674 207.36 300.674 211.68C300.674 216.225 297.029 218.43 292.889 218.655C298.829 218.835 301.664 222.03 301.664 226.26C301.664 231.39 296.714 234.45 290.099 234.45ZM314.748 234H307.593C307.593 221.13 314.028 214.29 318.528 209.655H303.138V203.85H324.693V209.88C319.563 215.28 314.748 221.67 314.748 234ZM339.291 234.405C330.696 234.405 325.926 227.88 325.926 218.88C325.926 209.925 330.696 203.4 339.291 203.4C347.886 203.4 352.611 209.925 352.611 218.88C352.611 227.88 347.886 234.405 339.291 234.405ZM339.291 228.15C343.926 228.15 345.861 224.55 345.861 218.88C345.861 213.255 343.926 209.61 339.291 209.61C334.656 209.61 332.721 213.255 332.721 218.88C332.721 224.55 334.656 228.15 339.291 228.15ZM367.686 234.45C359.451 234.45 355.491 230.94 355.491 226.035C355.491 222.93 357.336 219.78 362.601 218.7C358.461 218.025 356.526 215.19 356.526 211.77C356.526 207.18 360.396 203.4 367.686 203.4C374.931 203.4 378.846 207.18 378.846 211.725C378.846 215.235 376.686 218.025 372.546 218.7C377.811 219.78 379.881 222.93 379.881 226.035C379.881 230.94 375.921 234.45 367.686 234.45ZM367.686 216.54C370.341 216.54 371.916 214.965 371.916 212.895C371.916 211.005 370.701 209.34 367.686 209.34C364.671 209.34 363.456 211.005 363.456 212.895C363.456 214.965 364.671 216.54 367.686 216.54ZM367.686 228.51C371.376 228.51 372.501 226.665 372.501 224.595C372.501 222.39 370.881 220.59 367.686 220.59C364.491 220.59 362.871 222.39 362.871 224.595C362.871 226.665 363.996 228.51 367.686 228.51ZM403.631 224.82H391.481V219.555H403.631V224.82ZM426.018 234H418.863C418.863 221.13 425.298 214.29 429.798 209.655H414.408V203.85H435.963V209.88C430.833 215.28 426.018 221.67 426.018 234ZM449.492 234.45C443.147 234.45 438.737 231.345 437.252 227.34L442.337 222.75C443.327 226.305 445.937 228.105 449.357 228.105C452.507 228.105 454.307 226.395 454.307 223.245C454.307 219.915 452.147 218.34 449.177 218.34C446.747 218.34 444.992 219.24 444.542 221.13L444.497 221.4L438.377 220.77L439.412 203.85H459.212V209.655H445.442L444.767 219.06C445.757 216.36 448.277 214.245 452.327 214.245C457.682 214.245 461.282 217.62 461.282 223.83C461.282 230.22 456.557 234.45 449.492 234.45ZM476.055 234.45C467.82 234.45 463.86 230.94 463.86 226.035C463.86 222.93 465.705 219.78 470.97 218.7C466.83 218.025 464.895 215.19 464.895 211.77C464.895 207.18 468.765 203.4 476.055 203.4C483.3 203.4 487.215 207.18 487.215 211.725C487.215 215.235 485.055 218.025 480.915 218.7C486.18 219.78 488.25 222.93 488.25 226.035C488.25 230.94 484.29 234.45 476.055 234.45ZM476.055 216.54C478.71 216.54 480.285 214.965 480.285 212.895C480.285 211.005 479.07 209.34 476.055 209.34C473.04 209.34 471.825 211.005 471.825 212.895C471.825 214.965 473.04 216.54 476.055 216.54ZM476.055 228.51C479.745 228.51 480.87 226.665 480.87 224.595C480.87 222.39 479.25 220.59 476.055 220.59C472.86 220.59 471.24 222.39 471.24 224.595C471.24 226.665 472.365 228.51 476.055 228.51ZM503.765 234.45C497.42 234.45 493.01 231.345 491.525 227.34L496.61 222.75C497.6 226.305 500.21 228.105 503.63 228.105C506.78 228.105 508.58 226.395 508.58 223.245C508.58 219.915 506.42 218.34 503.45 218.34C501.02 218.34 499.265 219.24 498.815 221.13L498.77 221.4L492.65 220.77L493.685 203.85H513.485V209.655H499.715L499.04 219.06C500.03 216.36 502.55 214.245 506.6 214.245C511.955 214.245 515.555 217.62 515.555 223.83C515.555 230.22 510.83 234.45 503.765 234.45Z" fill="#201B00"/>
<path d="M124.832 101.192C119.792 101.192 116.84 97.568 116.84 92.936C116.84 88.304 119.792 84.68 124.832 84.68C128.312 84.68 130.808 86.432 132.032 89.264L129.104 91.616C128.624 89.6 127.256 87.968 124.808 87.968C122 87.968 120.536 90.008 120.536 92.936C120.536 95.864 122 97.904 124.808 97.904C127.256 97.904 128.624 96.272 129.104 94.256L132.032 96.608C130.808 99.44 128.312 101.192 124.832 101.192ZM138.957 101.24C135.381 101.24 133.077 98.72 133.077 95.12C133.077 91.544 135.381 89 138.957 89C142.629 89 144.957 91.544 144.957 95.12C144.957 98.72 142.629 101.24 138.957 101.24ZM139.005 98.456C140.469 98.456 141.477 97.52 141.477 95.12C141.477 92.696 140.469 91.784 139.005 91.784C137.565 91.784 136.557 92.696 136.557 95.12C136.557 97.52 137.565 98.456 139.005 98.456ZM150.28 101H146.848V89.24H150.28V92.648C150.664 90.728 151.792 89 154.216 89C156.448 89 157.816 90.368 157.816 92.792V101H154.384V93.992C154.384 92.552 154 91.664 152.44 91.664C150.808 91.664 150.28 92.576 150.28 94.496V101ZM164.536 101.24C161.944 101.24 160.72 99.704 160.72 97.52V91.856H158.968V89.24H160.72V87.848L164.152 86.048V89.24H167.416V91.856H164.152V96.896C164.152 97.856 164.632 98.192 165.304 98.192C166.048 98.192 166.696 97.592 167.056 96.944L168.04 99.752C167.536 100.4 166.336 101.24 164.536 101.24ZM171.822 101.264C169.998 101.264 168.726 100.28 168.726 98.384C168.726 96.608 169.854 95.576 172.086 94.808L175.686 93.464C175.566 92.48 175.11 91.928 173.814 91.928C172.326 91.928 170.958 92.768 170.142 93.944L168.414 91.448C169.59 90.176 171.534 89 174.054 89C177.03 89 178.758 90.584 178.758 93.536V97.568C178.758 98.096 178.95 98.264 179.382 98.264H180.078V101H178.062C176.79 101 175.638 100.424 175.638 98.744V97.952C175.254 99.488 174.222 101.264 171.822 101.264ZM171.894 97.88C171.894 98.432 172.278 98.744 173.094 98.744C174.726 98.744 175.638 97.928 175.638 96.488V95.672L173.142 96.704C172.206 97.088 171.894 97.424 171.894 97.88ZM187.005 101.24C183.381 101.24 181.101 98.72 181.101 95.12C181.101 91.544 183.381 89 187.005 89C189.813 89 191.757 90.536 192.477 92.552L189.621 94.208C189.333 92.744 188.565 91.856 187.125 91.856C185.613 91.856 184.605 92.96 184.605 95.12C184.605 97.28 185.613 98.384 187.125 98.384C188.589 98.384 189.333 97.496 189.621 96.032L192.477 97.688C191.757 99.704 189.813 101.24 187.005 101.24ZM198.731 101.24C196.139 101.24 194.915 99.704 194.915 97.52V91.856H193.163V89.24H194.915V87.848L198.347 86.048V89.24H201.611V91.856H198.347V96.896C198.347 97.856 198.827 98.192 199.499 98.192C200.243 98.192 200.891 97.592 201.251 96.944L202.235 99.752C201.731 100.4 200.531 101.24 198.731 101.24Z" fill="black"/>
<path d="M96.3679 86.9496C93.7684 84.3501 89.5527 84.3501 86.9496 86.9496C84.3501 89.5491 84.3501 93.7648 86.9496 96.3679C87.0605 96.4787 87.1749 96.5824 87.2893 96.6825L91.6516 101.045L95.9638 96.7326C95.9817 96.7183 95.9996 96.704 96.0174 96.6861C96.1354 96.5824 96.2534 96.4787 96.3643 96.3643C98.9638 93.7648 98.9638 89.5491 96.3643 86.946L96.3679 86.9496Z" fill="black"/>
<path d="M104.048 96.7575C106.648 94.158 106.648 89.9423 104.048 87.3393C101.449 84.7398 97.2331 84.7398 94.6301 87.3393C94.5192 87.4501 94.4155 87.5645 94.3154 87.679L89.9531 92.0412L94.2653 96.3535C94.2797 96.3713 94.294 96.3892 94.3118 96.4071C94.4155 96.5251 94.5192 96.6431 94.6336 96.7539C97.2331 99.3534 101.449 99.3534 104.052 96.7539L104.048 96.7575Z" fill="black"/>
</svg>
