<svg width="400" height="350" viewBox="0 0 400 350" fill="none" xmlns="http://www.w3.org/2000/svg">
<rect opacity="0.9" width="400" height="350" rx="10" fill="#FC70FF"/>
<path d="M162.4 208.4C151.9 208.4 145.75 200.85 145.75 191.2C145.75 181.55 151.9 174 162.4 174C169.65 174 174.85 177.65 177.4 183.55L171.3 188.45C170.3 184.25 167.45 180.85 162.35 180.85C156.5 180.85 153.45 185.1 153.45 191.2C153.45 197.3 156.5 201.55 162.35 201.55C167.45 201.55 170.3 198.15 171.3 193.95L177.4 198.85C174.85 204.75 169.65 208.4 162.4 208.4ZM188.269 208H181.119V174.5H188.269V208ZM200.476 180.6H193.326V174.5H200.476V180.6ZM200.476 208H193.326V183.5H200.476V208ZM216.683 208.5C209.133 208.5 204.383 203.25 204.383 195.75C204.383 188.3 209.133 183 216.683 183C222.533 183 226.583 186.2 228.083 190.4L222.133 193.85C221.533 190.8 219.933 188.95 216.933 188.95C213.783 188.95 211.683 191.25 211.683 195.75C211.683 200.25 213.783 202.55 216.933 202.55C219.983 202.55 221.533 200.7 222.133 197.65L228.083 201.1C226.583 205.3 222.533 208.5 216.683 208.5ZM238.562 208H231.412V174.5H238.562V187.8L238.212 194.2L242.712 188.8L247.862 183.5H256.312L246.712 193.3L256.262 208H248.112L241.912 197.55L238.562 201.05V208Z" fill="#201B00"/>
<path d="M123.736 101H119.104L115.24 84.92H119.2L120.904 93.704L121.504 98.576L122.344 94.088L124.432 84.92H128.968L131.032 94.088L131.848 98.576L132.472 93.704L134.2 84.92H138.136L134.248 101H129.616L127.552 92.576L126.688 87.368L125.824 92.576L123.736 101ZM143.798 101.24C140.054 101.24 137.774 98.744 137.774 95.12C137.774 91.496 140.054 89 143.51 89C147.254 89 149.126 91.496 149.126 94.568C149.126 95.072 149.078 95.744 149.006 96.008H140.99C141.206 97.664 142.31 98.456 143.846 98.456C145.502 98.456 146.39 97.736 146.822 96.728L148.91 98.816C148.022 100.088 146.438 101.24 143.798 101.24ZM143.534 91.64C142.07 91.64 141.158 92.456 140.99 94.04H146.03C145.91 92.48 145.07 91.64 143.534 91.64ZM154.577 101H151.145V84.92H154.577V92.6C154.913 90.704 155.873 89 158.321 89C161.057 89 162.857 91.232 162.857 95.12C162.857 99.032 161.057 101.264 158.177 101.264C155.729 101.264 154.889 99.584 154.577 97.688V101ZM154.577 95.768C154.577 97.688 155.369 98.576 156.809 98.576C158.369 98.576 159.353 97.376 159.353 95.12C159.353 92.888 158.369 91.664 156.809 91.664C155.369 91.664 154.577 92.576 154.577 94.496V95.768ZM172.837 101H169.405V84.92H176.077C179.773 84.92 182.605 86.624 182.605 90.68C182.605 94.64 179.821 96.344 176.077 96.344H172.837V101ZM175.957 87.968H172.837V93.296H175.957C177.733 93.296 179.005 92.576 179.005 90.68C179.005 88.664 177.733 87.968 175.957 87.968ZM189.425 101.24C185.849 101.24 183.545 98.72 183.545 95.12C183.545 91.544 185.849 89 189.425 89C193.097 89 195.425 91.544 195.425 95.12C195.425 98.72 193.097 101.24 189.425 101.24ZM189.473 98.456C190.937 98.456 191.945 97.52 191.945 95.12C191.945 92.696 190.937 91.784 189.473 91.784C188.033 91.784 187.025 92.696 187.025 95.12C187.025 97.52 188.033 98.456 189.473 98.456ZM200.749 101H197.317V89.24H200.749V92.936C201.133 90.968 202.285 89 204.541 89C206.269 89 207.229 90.104 207.229 91.952C207.229 93.224 206.845 94.232 206.557 94.688H203.245C203.677 94.256 204.085 93.416 204.085 92.744C204.085 92.072 203.773 91.568 203.029 91.568C201.853 91.568 200.749 92.84 200.749 94.784V101ZM213.411 101.24C210.819 101.24 209.595 99.704 209.595 97.52V91.856H207.843V89.24H209.595V87.848L213.027 86.048V89.24H216.291V91.856H213.027V96.896C213.027 97.856 213.507 98.192 214.179 98.192C214.923 98.192 215.571 97.592 215.931 96.944L216.915 99.752C216.411 100.4 215.211 101.24 213.411 101.24ZM221.862 101H218.43V91.856H216.798V89.24H218.43V88.952C218.43 86.408 219.942 84.68 222.75 84.68C224.31 84.68 225.438 85.352 225.99 85.832L224.814 88.28C224.382 87.752 223.758 87.32 223.038 87.32C222.222 87.32 221.862 87.776 221.862 88.544V89.24H224.814V91.856H221.862V101ZM231.168 101.24C227.592 101.24 225.288 98.72 225.288 95.12C225.288 91.544 227.592 89 231.168 89C234.84 89 237.168 91.544 237.168 95.12C237.168 98.72 234.84 101.24 231.168 101.24ZM231.216 98.456C232.68 98.456 233.688 97.52 233.688 95.12C233.688 92.696 232.68 91.784 231.216 91.784C229.776 91.784 228.768 92.696 228.768 95.12C228.768 97.52 229.776 98.456 231.216 98.456ZM242.538 101H239.106V84.92H242.538V101ZM248.398 87.848H244.966V84.92H248.398V87.848ZM248.398 101H244.966V89.24H248.398V101ZM256.105 101.24C252.529 101.24 250.225 98.72 250.225 95.12C250.225 91.544 252.529 89 256.105 89C259.777 89 262.105 91.544 262.105 95.12C262.105 98.72 259.777 101.24 256.105 101.24ZM256.153 98.456C257.617 98.456 258.625 97.52 258.625 95.12C258.625 92.696 257.617 91.784 256.153 91.784C254.713 91.784 253.705 92.696 253.705 95.12C253.705 97.52 254.713 98.456 256.153 98.456Z" fill="black"/>
<path d="M89.3679 86.9496C86.7684 84.3501 82.5527 84.3501 79.9496 86.9496C77.3501 89.5491 77.3501 93.7648 79.9496 96.3679C80.0605 96.4787 80.1749 96.5824 80.2893 96.6825L84.6516 101.045L88.9638 96.7326C88.9817 96.7183 88.9996 96.704 89.0174 96.6861C89.1354 96.5824 89.2534 96.4787 89.3643 96.3643C91.9638 93.7648 91.9638 89.5491 89.3643 86.946L89.3679 86.9496Z" fill="black"/>
<path d="M97.0483 96.7575C99.6478 94.158 99.6478 89.9423 97.0483 87.3393C94.4488 84.7398 90.2331 84.7398 87.6301 87.3393C87.5192 87.4501 87.4155 87.5645 87.3154 87.679L82.9531 92.0412L87.2653 96.3535C87.2797 96.3713 87.294 96.3892 87.3118 96.4071C87.4155 96.5251 87.5192 96.6431 87.6336 96.7539C90.2331 99.3534 94.4488 99.3534 97.0519 96.7539L97.0483 96.7575Z" fill="black"/>
</svg>
