<svg width="400" height="350" viewBox="0 0 400 350" fill="none" xmlns="http://www.w3.org/2000/svg">
<rect opacity="0.9" width="400" height="350" rx="10" fill="#5AB0FF"/>
<path d="M162.4 208.4C151.9 208.4 145.75 200.85 145.75 191.2C145.75 181.55 151.9 174 162.4 174C169.65 174 174.85 177.65 177.4 183.55L171.3 188.45C170.3 184.25 167.45 180.85 162.35 180.85C156.5 180.85 153.45 185.1 153.45 191.2C153.45 197.3 156.5 201.55 162.35 201.55C167.45 201.55 170.3 198.15 171.3 193.95L177.4 198.85C174.85 204.75 169.65 208.4 162.4 208.4ZM188.269 208H181.119V174.5H188.269V208ZM200.476 180.6H193.326V174.5H200.476V180.6ZM200.476 208H193.326V183.5H200.476V208ZM216.683 208.5C209.133 208.5 204.383 203.25 204.383 195.75C204.383 188.3 209.133 183 216.683 183C222.533 183 226.583 186.2 228.083 190.4L222.133 193.85C221.533 190.8 219.933 188.95 216.933 188.95C213.783 188.95 211.683 191.25 211.683 195.75C211.683 200.25 213.783 202.55 216.933 202.55C219.983 202.55 221.533 200.7 222.133 197.65L228.083 201.1C226.583 205.3 222.533 208.5 216.683 208.5ZM238.562 208H231.412V174.5H238.562V187.8L238.212 194.2L242.712 188.8L247.862 183.5H256.312L246.712 193.3L256.262 208H248.112L241.912 197.55L238.562 201.05V208Z" fill="#201B00"/>
<path d="M121.256 101.24C118.16 101.24 115.304 100.232 113.816 97.88L116.072 95.24C117.152 97.256 119.48 98.144 121.4 98.144C122.792 98.144 123.8 97.712 123.8 96.608C123.8 95.36 122.744 94.952 120.608 94.52L119.048 94.184C116.552 93.68 114.2 92.576 114.2 89.528C114.2 86.384 116.912 84.728 120.176 84.728C123.2 84.728 125.624 85.88 126.968 87.8L124.64 90.416C123.584 88.736 121.712 87.824 119.864 87.824C118.64 87.824 117.752 88.352 117.752 89.288C117.752 90.464 118.784 90.896 120.464 91.28L122.288 91.712C125.288 92.408 127.328 93.632 127.328 96.512C127.328 99.584 124.736 101.24 121.256 101.24ZM133.364 101.24C130.772 101.24 129.548 99.704 129.548 97.52V91.856H127.796V89.24H129.548V87.848L132.98 86.048V89.24H136.244V91.856H132.98V96.896C132.98 97.856 133.46 98.192 134.132 98.192C134.876 98.192 135.524 97.592 135.884 96.944L136.868 99.752C136.364 100.4 135.164 101.24 133.364 101.24ZM141.494 101.24C139.262 101.24 137.87 99.872 137.87 97.448V89.24H141.302V96.248C141.302 97.688 141.686 98.576 143.27 98.576C144.902 98.576 145.406 97.664 145.406 95.744V89.24H148.838V101H145.406V97.712C144.998 99.584 143.87 101.24 141.494 101.24ZM155.24 101.264C152.384 101.264 150.584 99.032 150.584 95.12C150.584 91.232 152.384 89 155.096 89C157.544 89 158.504 90.704 158.84 92.6V84.92H162.272V101H158.84V97.688C158.528 99.584 157.688 101.264 155.24 101.264ZM154.064 95.12C154.064 97.376 155.048 98.576 156.608 98.576C158.048 98.576 158.84 97.688 158.84 95.768V94.496C158.84 92.576 158.024 91.664 156.56 91.664C155.048 91.664 154.064 92.888 154.064 95.12ZM167.637 105.32C165.861 105.32 164.349 104.552 163.533 103.712L164.901 100.832C165.645 101.696 166.509 102.296 167.541 102.296C168.453 102.296 168.981 101.984 169.365 100.856L169.605 100.232H167.517L163.701 89.24H167.493L169.173 94.784L170.037 98.72L170.925 94.784L172.581 89.24H176.445L172.221 101.72C171.309 104.336 169.845 105.32 167.637 105.32ZM190.252 101H182.452V84.92H190.348C193.9 84.92 195.316 86.72 195.316 89C195.316 91.736 192.868 92.624 190.372 92.744C194.452 92.888 195.892 94.52 195.892 96.8C195.892 99.8 193.66 101 190.252 101ZM189.436 87.968H185.884V91.424H189.484C190.828 91.424 191.692 90.992 191.692 89.696C191.692 88.424 190.804 87.968 189.436 87.968ZM189.796 94.184H185.884V97.952H189.748C191.572 97.952 192.364 97.352 192.364 96.056C192.364 94.76 191.428 94.184 189.796 94.184ZM201.304 101H197.872V84.92H201.304V101ZM209.011 101.24C205.435 101.24 203.131 98.72 203.131 95.12C203.131 91.544 205.435 89 209.011 89C212.683 89 215.011 91.544 215.011 95.12C215.011 98.72 212.683 101.24 209.011 101.24ZM209.059 98.456C210.523 98.456 211.531 97.52 211.531 95.12C211.531 92.696 210.523 91.784 209.059 91.784C207.619 91.784 206.611 92.696 206.611 95.12C206.611 97.52 207.619 98.456 209.059 98.456ZM221.9 97.592C220.868 97.592 219.956 97.4 219.188 97.04C219.02 97.304 218.876 97.664 218.876 98C218.876 98.552 219.164 98.864 220.1 98.864H224.228C226.844 98.864 228.02 99.944 228.02 101.672C228.02 103.88 225.884 105.704 221.204 105.704C217.58 105.704 215.684 104.624 215.684 103.232C215.684 102.104 216.86 101.528 218.276 101.36C217.292 101.144 216.524 100.616 216.524 99.584C216.524 98.384 217.58 97.4 218.708 96.776C217.484 96.032 216.764 94.808 216.764 93.296C216.764 90.752 218.828 89 221.9 89C222.596 89 223.244 89.096 223.844 89.264L224.372 86.432L227.42 87.464L225.14 89.84C226.34 90.608 227.06 91.808 227.06 93.296C227.06 95.84 224.972 97.592 221.9 97.592ZM221.9 95.288C223.004 95.288 223.844 94.616 223.844 93.296C223.844 91.976 223.004 91.304 221.9 91.304C220.82 91.304 219.956 91.976 219.956 93.296C219.956 94.616 220.82 95.288 221.9 95.288ZM221.492 103.304C223.868 103.304 225.068 102.848 225.068 102.08C225.068 101.552 224.636 101.384 223.724 101.384H218.756C218.612 101.552 218.444 101.792 218.444 102.08C218.444 102.848 219.284 103.304 221.492 103.304Z" fill="black"/>
<path d="M87.3679 86.9496C84.7684 84.3501 80.5527 84.3501 77.9496 86.9496C75.3501 89.5491 75.3501 93.7648 77.9496 96.3679C78.0605 96.4787 78.1749 96.5824 78.2893 96.6825L82.6516 101.045L86.9638 96.7326C86.9817 96.7183 86.9996 96.704 87.0174 96.6861C87.1354 96.5824 87.2534 96.4787 87.3643 96.3643C89.9638 93.7648 89.9638 89.5491 87.3643 86.946L87.3679 86.9496Z" fill="black"/>
<path d="M95.0483 96.7575C97.6478 94.158 97.6478 89.9423 95.0483 87.3393C92.4488 84.7398 88.2331 84.7398 85.6301 87.3393C85.5192 87.4501 85.4155 87.5645 85.3154 87.679L80.9531 92.0412L85.2653 96.3535C85.2797 96.3713 85.294 96.3892 85.3118 96.4071C85.4155 96.5251 85.5192 96.6431 85.6336 96.7539C88.2331 99.3534 92.4488 99.3534 95.0519 96.7539L95.0483 96.7575Z" fill="black"/>
</svg>
