<svg width="1490" height="276" viewBox="0 0 1490 276" fill="none" xmlns="http://www.w3.org/2000/svg">
<rect opacity="0.9" width="1490" height="276" rx="10" fill="#D387FF"/>
<path d="M366.55 152.6C356.95 152.6 350.4 146.05 350.4 136.45C350.4 126.8 356.95 120.3 366.55 120.3C375.75 120.3 382.6 126.8 382.6 136.45C382.6 146.05 375.75 152.6 366.55 152.6ZM366.5 148.15C373 148.15 377.8 143.7 377.8 136.45C377.8 129.2 373 124.7 366.5 124.7C360 124.7 355.25 129.2 355.25 136.45C355.25 143.7 360 148.15 366.5 148.15ZM366.8 145.9C361.5 145.9 357.65 142 357.65 136.35C357.65 130.75 361.5 126.8 366.8 126.8C371 126.8 374.1 129.2 375.15 132.45L371.45 135.25C370.95 133.05 369.4 131.45 366.9 131.45C364.35 131.45 362.7 133 362.7 136.35C362.7 139.7 364.35 141.3 366.9 141.3C369.4 141.3 370.95 139.65 371.45 137.45L375.15 140.25C374.1 143.5 371 145.9 366.8 145.9ZM423.141 153H397.841V147.6L410.291 136.2C412.941 133.7 414.541 131.85 414.541 129.5C414.541 127.4 413.091 125.85 410.491 125.85C406.341 125.85 403.391 128.45 402.891 134.65L397.341 130.2C397.891 123.4 403.591 119 411.241 119C418.291 119 422.141 123.05 422.141 129.05C422.141 134.3 417.991 138.35 413.741 141.45L409.591 144.7L405.291 147.45L411.541 146.65H423.141V153ZM441.267 153.45C431.717 153.45 426.417 146.2 426.417 136.2C426.417 126.25 431.717 119 441.267 119C450.817 119 456.067 126.25 456.067 136.2C456.067 146.2 450.817 153.45 441.267 153.45ZM441.267 146.5C446.417 146.5 448.567 142.5 448.567 136.2C448.567 129.95 446.417 125.9 441.267 125.9C436.117 125.9 433.967 129.95 433.967 136.2C433.967 142.5 436.117 146.5 441.267 146.5ZM485.739 153H460.439V147.6L472.889 136.2C475.539 133.7 477.139 131.85 477.139 129.5C477.139 127.4 475.689 125.85 473.089 125.85C468.939 125.85 465.989 128.45 465.489 134.65L459.939 130.2C460.489 123.4 466.189 119 473.839 119C480.889 119 484.739 123.05 484.739 129.05C484.739 134.3 480.589 138.35 476.339 141.45L472.189 144.7L467.889 147.45L474.139 146.65H485.739V153ZM511.921 153H504.771V146.1H488.021V140.55L503.921 119.5H511.921V139.9H517.071V146.1H511.921V153ZM495.621 139.9H504.771V127.95L495.621 139.9ZM544.936 153.5C538.486 153.5 532.536 151.4 529.436 146.5L534.136 141C536.386 145.2 541.236 147.05 545.236 147.05C548.136 147.05 550.236 146.15 550.236 143.85C550.236 141.25 548.036 140.4 543.586 139.5L540.336 138.8C535.136 137.75 530.236 135.45 530.236 129.1C530.236 122.55 535.886 119.1 542.686 119.1C548.986 119.1 554.036 121.5 556.836 125.5L551.986 130.95C549.786 127.45 545.886 125.55 542.036 125.55C539.486 125.55 537.636 126.65 537.636 128.6C537.636 131.05 539.786 131.95 543.286 132.75L547.086 133.65C553.336 135.1 557.586 137.65 557.586 143.65C557.586 150.05 552.186 153.5 544.936 153.5ZM572.682 153.5C565.232 153.5 560.432 148.25 560.432 140.75C560.432 133.3 565.232 128 572.682 128C580.332 128 585.182 133.3 585.182 140.75C585.182 148.25 580.332 153.5 572.682 153.5ZM572.782 147.7C575.832 147.7 577.932 145.75 577.932 140.75C577.932 135.7 575.832 133.8 572.782 133.8C569.782 133.8 567.682 135.7 567.682 140.75C567.682 145.75 569.782 147.7 572.782 147.7ZM596.371 153H589.221V119.5H596.371V135.6C597.171 131.6 599.521 128 604.571 128C609.221 128 612.071 130.85 612.071 135.9V153H604.921V138.4C604.921 135.4 604.121 133.55 600.871 133.55C597.471 133.55 596.371 135.45 596.371 139.45V153ZM622.52 162C618.82 162 615.67 160.4 613.97 158.65L616.82 152.65C618.37 154.45 620.17 155.7 622.32 155.7C624.22 155.7 625.32 155.05 626.12 152.7L626.62 151.4H622.27L614.32 128.5H622.22L625.72 140.05L627.52 148.25L629.37 140.05L632.82 128.5H640.87L632.07 154.5C630.17 159.95 627.12 162 622.52 162ZM650.039 153.5C645.389 153.5 642.489 150.65 642.489 145.6V128.5H649.639V143.1C649.639 146.1 650.439 147.95 653.739 147.95C657.139 147.95 658.189 146.05 658.189 142.05V128.5H665.339V153H658.189V146.15C657.339 150.05 654.989 153.5 650.039 153.5ZM677.523 153H670.373V128.5H677.523V135.6C678.323 131.6 680.673 128 685.723 128C690.373 128 693.223 130.85 693.223 135.9V153H686.073V138.4C686.073 135.4 685.273 133.55 682.023 133.55C678.623 133.55 677.523 135.45 677.523 139.45V153ZM704.907 153H697.307V145.25H704.907V153ZM724.014 153H716.414L728.964 119.5H738.164L750.714 153H742.864L740.214 145.55H726.714L724.014 153ZM731.464 132.3L728.864 139.5H738.014L735.464 132.3L733.464 125.2L731.464 132.3ZM760.629 153H753.479V119.5H760.629V153ZM772.836 153H765.686V119.5H772.836V153ZM794.613 153H787.463V128.5H794.613V136.2C795.413 132.1 797.813 128 802.513 128C806.113 128 808.113 130.3 808.113 134.15C808.113 136.8 807.313 138.9 806.713 139.85H799.813C800.713 138.95 801.563 137.2 801.563 135.8C801.563 134.4 800.913 133.35 799.363 133.35C796.913 133.35 794.613 136 794.613 140.05V153ZM818.197 125.6H811.047V119.5H818.197V125.6ZM818.197 153H811.047V128.5H818.197V153ZM834.054 145.9C831.904 145.9 830.004 145.5 828.404 144.75C828.054 145.3 827.754 146.05 827.754 146.75C827.754 147.9 828.354 148.55 830.304 148.55H838.904C844.354 148.55 846.804 150.8 846.804 154.4C846.804 159 842.354 162.8 832.604 162.8C825.054 162.8 821.104 160.55 821.104 157.65C821.104 155.3 823.554 154.1 826.504 153.75C824.454 153.3 822.854 152.2 822.854 150.05C822.854 147.55 825.054 145.5 827.404 144.2C824.854 142.65 823.354 140.1 823.354 136.95C823.354 131.65 827.654 128 834.054 128C835.504 128 836.854 128.2 838.104 128.55L839.204 122.65L845.554 124.8L840.804 129.75C843.304 131.35 844.804 133.85 844.804 136.95C844.804 142.25 840.454 145.9 834.054 145.9ZM834.054 141.1C836.354 141.1 838.104 139.7 838.104 136.95C838.104 134.2 836.354 132.8 834.054 132.8C831.804 132.8 830.004 134.2 830.004 136.95C830.004 139.7 831.804 141.1 834.054 141.1ZM833.204 157.8C838.154 157.8 840.654 156.85 840.654 155.25C840.654 154.15 839.754 153.8 837.854 153.8H827.504C827.204 154.15 826.854 154.65 826.854 155.25C826.854 156.85 828.604 157.8 833.204 157.8ZM856.918 153H849.768V119.5H856.918V135.6C857.718 131.6 860.068 128 865.118 128C869.768 128 872.618 130.85 872.618 135.9V153H865.468V138.4C865.468 135.4 864.668 133.55 861.418 133.55C858.018 133.55 856.918 135.45 856.918 139.45V153ZM886.616 153.5C881.216 153.5 878.666 150.3 878.666 145.75V133.95H875.016V128.5H878.666V125.6L885.816 121.85V128.5H892.616V133.95H885.816V144.45C885.816 146.45 886.816 147.15 888.216 147.15C889.766 147.15 891.116 145.9 891.866 144.55L893.916 150.4C892.866 151.75 890.366 153.5 886.616 153.5ZM907.103 153.5C901.653 153.5 896.803 151.5 894.703 148.55L898.003 143.7C900.053 145.9 903.603 148.05 907.303 148.05C909.253 148.05 910.403 147.45 910.403 146.15C910.403 144.85 909.003 144.35 906.403 143.7L903.103 142.9C898.703 141.75 895.503 140 895.503 135.7C895.503 130.9 899.403 128.05 905.403 128.05C910.703 128.05 914.553 130.35 916.253 132.5L913.053 137.3C910.653 134.8 907.653 133.45 904.803 133.45C903.053 133.45 902.003 134.1 902.003 135.3C902.003 136.6 903.053 137.1 906.303 138L909.053 138.75C914.453 140.2 916.803 142.3 916.803 146.05C916.803 150.8 912.803 153.5 907.103 153.5ZM937.191 153H930.041V128.5H937.191V136.2C937.991 132.1 940.391 128 945.091 128C948.691 128 950.691 130.3 950.691 134.15C950.691 136.8 949.891 138.9 949.291 139.85H942.391C943.291 138.95 944.141 137.2 944.141 135.8C944.141 134.4 943.491 133.35 941.941 133.35C939.491 133.35 937.191 136 937.191 140.05V153ZM964.733 153.5C956.933 153.5 952.183 148.3 952.183 140.75C952.183 133.2 956.933 128 964.133 128C971.933 128 975.833 133.2 975.833 139.6C975.833 140.65 975.733 142.05 975.583 142.6H958.883C959.333 146.05 961.633 147.7 964.833 147.7C968.283 147.7 970.133 146.2 971.033 144.1L975.383 148.45C973.533 151.1 970.233 153.5 964.733 153.5ZM964.183 133.5C961.133 133.5 959.233 135.2 958.883 138.5H969.383C969.133 135.25 967.383 133.5 964.183 133.5ZM990.355 153.5C984.905 153.5 980.055 151.5 977.955 148.55L981.255 143.7C983.305 145.9 986.855 148.05 990.555 148.05C992.505 148.05 993.655 147.45 993.655 146.15C993.655 144.85 992.255 144.35 989.655 143.7L986.355 142.9C981.955 141.75 978.755 140 978.755 135.7C978.755 130.9 982.655 128.05 988.655 128.05C993.955 128.05 997.805 130.35 999.505 132.5L996.305 137.3C993.905 134.8 990.905 133.45 988.055 133.45C986.305 133.45 985.255 134.1 985.255 135.3C985.255 136.6 986.305 137.1 989.555 138L992.305 138.75C997.705 140.2 1000.06 142.3 1000.06 146.05C1000.06 150.8 996.055 153.5 990.355 153.5ZM1014.73 153.5C1006.93 153.5 1002.18 148.3 1002.18 140.75C1002.18 133.2 1006.93 128 1014.13 128C1021.93 128 1025.83 133.2 1025.83 139.6C1025.83 140.65 1025.73 142.05 1025.58 142.6H1008.88C1009.33 146.05 1011.63 147.7 1014.83 147.7C1018.28 147.7 1020.13 146.2 1021.03 144.1L1025.38 148.45C1023.53 151.1 1020.23 153.5 1014.73 153.5ZM1014.18 133.5C1011.13 133.5 1009.23 135.2 1008.88 138.5H1019.38C1019.13 135.25 1017.38 133.5 1014.18 133.5ZM1037.09 153H1029.94V128.5H1037.09V136.2C1037.89 132.1 1040.29 128 1044.99 128C1048.59 128 1050.59 130.3 1050.59 134.15C1050.59 136.8 1049.79 138.9 1049.19 139.85H1042.29C1043.19 138.95 1044.04 137.2 1044.04 135.8C1044.04 134.4 1043.39 133.35 1041.84 133.35C1039.39 133.35 1037.09 136 1037.09 140.05V153ZM1068.68 153H1059.63L1051.03 128.5H1058.93L1062.33 140.25L1064.23 148.85L1066.08 140.25L1069.48 128.5H1077.28L1068.68 153ZM1090.03 153.5C1082.23 153.5 1077.48 148.3 1077.48 140.75C1077.48 133.2 1082.23 128 1089.43 128C1097.23 128 1101.13 133.2 1101.13 139.6C1101.13 140.65 1101.03 142.05 1100.88 142.6H1084.18C1084.63 146.05 1086.93 147.7 1090.13 147.7C1093.58 147.7 1095.43 146.2 1096.33 144.1L1100.68 148.45C1098.83 151.1 1095.53 153.5 1090.03 153.5ZM1089.48 133.5C1086.43 133.5 1084.53 135.2 1084.18 138.5H1094.68C1094.43 135.25 1092.68 133.5 1089.48 133.5ZM1114.12 153.55C1108.17 153.55 1104.42 148.9 1104.42 140.75C1104.42 132.65 1108.17 128 1113.82 128C1118.92 128 1120.92 131.55 1121.62 135.5V119.5H1128.77V153H1121.62V146.1C1120.97 150.05 1119.22 153.55 1114.12 153.55ZM1111.67 140.75C1111.67 145.45 1113.72 147.95 1116.97 147.95C1119.97 147.95 1121.62 146.1 1121.62 142.1V139.45C1121.62 135.45 1119.92 133.55 1116.87 133.55C1113.72 133.55 1111.67 136.1 1111.67 140.75ZM1140.55 153H1132.95V145.25H1140.55V153Z" fill="black"/>
</svg>
