<?xml version="1.0" encoding="UTF-8"?>
<svg id="_레이어_1" data-name="레이어 1" xmlns="http://www.w3.org/2000/svg" version="1.1" viewBox="0 0 59 45">
  <defs>
    <style>
      .cls-1 {
        fill: #ce7aff;
        stroke-width: 0px;
      }
    </style>
  </defs>
  <path class="cls-1" d="M31.9,5.47C24.63-1.8,12.84-1.8,5.57,5.47c-7.27,7.27-7.27,19.06,0,26.34.31.31.63.6.95.88h0s12.2,12.2,12.2,12.2l12.06-12.06c.05-.04.1-.08.15-.13.33-.29.66-.58.97-.9,7.27-7.27,7.27-19.06,0-26.34Z"/>
  <path class="cls-1" d="M53.39,32.9c7.27-7.27,7.27-19.06,0-26.34-7.27-7.27-19.06-7.27-26.34,0-.31.31-.6.63-.88.95h0s-12.2,12.2-12.2,12.2l12.06,12.06c.04.05.08.1.13.15.29.33.58.66.9.97,7.27,7.27,19.06,7.27,26.34,0Z"/>
</svg>