<?xml version="1.0" encoding="UTF-8"?>
<svg id="_레이어_1" data-name="레이어 1" xmlns="http://www.w3.org/2000/svg" version="1.1" viewBox="0 0 388.76 26.19">
  <defs>
    <style>
      .cls-1 {
        fill: #000;
        stroke-width: 0px;
      }

      .cls-2 {
        fill: none;
        stroke: #000;
        stroke-width: 2px;
      }
    </style>
  </defs>
  <g>
    <path class="cls-1" d="M72.44,15.4c1.83-1.83,1.83-4.81,0-6.65-1.83-1.83-4.81-1.83-6.65,0-.08.08-.15.16-.22.24l-3.08,3.08,3.04,3.04s.02.03.03.04c.07.08.15.17.23.24,1.83,1.83,4.81,1.83,6.65,0h0Z"/>
    <path class="cls-1" d="M6.86,12.42l-2.8-.46-.27-1.21,1.02-.93,2.37.15.65,1.48,2.24.13-.08-2-1.16-1.41-3.35-1-3.38.69-1.62,2.85.32,1.43.72,1.48,1.8,1.34h2.4s1.37.86,1.37.86l.24,1.33-1.08.76-1.11.2-1.68-.71-.58-1.25-1.46-.15-1.43.18.92,2.12,1.78,1.69,2.81.54,3.51-.98,1.63-2.76-.57-2.04-1.52-1.77-1.69-.57Z"/>
    <path class="cls-1" d="M21.77,8.03l-3.31-.74-3.26.83-2.43,2.3-.85,3.26,1.13,3.09,2.05,2.67,3.37.55,3.36-.57,2.45-2.42.65-3.32-.83-3.22-2.31-2.44h0ZM21.08,16.35l-2.63,1.28-2.78-1.14-.92-2.81.99-2.74,2.7-1.15,2.72,1.13,1.04,2.75-1.14,2.66h0Z"/>
    <path class="cls-1" d="M37.49,10.68l.02-2.89-2.58-.14-.09,2.41-.02,2.24-2.53.17-2.74.06.27-2.47-.09-2.49-2.71.17-.25,2.94.2,3.01-.23,3.01.14,3.07,2.67-.17.23-2.33-.23-2.54,2.75.14,2.68-.07-.07,2.48.12,2.37,2.7.14.19-3.08-.52-3.01.11-3.01Z"/>
    <path class="cls-1" d="M98.1,8.37v3.23s-.03,3.19-.03,3.19l-.42,2.29-2.2.66-2.03-.8-.71-2.16.23-3.19-.17-3.2-2.78-.16.47,3.35-.34,3.2.51,2.81,2.13,1.85,2.68.95,2.63-1.06,2.23-1.72.28-2.84.37-3.19-.31-3.17-2.57-.06Z"/>
    <path class="cls-1" d="M113.29,16.97l.34-3.2-.51-2.81-2.13-1.85-2.68-.95-2.63,1.06-2.23,1.73-.29,2.83-.36,3.19.31,3.17,2.57.06v-3.23s.03-3.19.03-3.19l.42-2.29,2.2-.66,2.03.8.72,2.16-.23,3.19.17,3.2,2.78.16-.47-3.35Z"/>
    <path class="cls-1" d="M87.7,10.72l-.29-3.04v-.06s-2.61-.06-2.61-.06v3.17s-.03,3.06-.03,3.06l-.39,2.16-2.06.62-1.9-.75-.68-2.03.22-3.07-.17-3.14-2.81-.17.46,3.3-.33,3.09.5,2.74,2.07,1.8,2.6.93h.03s2.55-1.02,2.55-1.02l.03-.02-.05,1.04.05,1.73-.36,2-2.11.64-1.96-.77-.63-1.9h-2.52l.47,2.54,2.05,1.78,2.59.92,2.53-1.02,2.15-1.66.2-1.98h.04l.12-2.29-.21-2.16v-2.38s.08-.91.08-.91l.35-3.09Z"/>
    <line class="cls-2" x1="41" y1="19.15" x2="74" y2="19.15"/>
    <g>
      <path class="cls-1" d="M48.48,12.66v.64s2.97-.05,2.97-.05l-.03,1.16-1.94.16-1.98-.04h-1.97s0,.45,0,.45l2,.06,2.02.04,2-.02v1.17s-2.56-.03-2.56-.03l-2.58.13-2.6-.02.07-3.06,2.94-.03v-.48s-3.5.06-3.5.06l.02-1.36,2.16.09,2.16-.03,2.16-.13,2.13.12.02,1.24-3.48-.06ZM51.38,10.98l-2.46-.03-2.53.05h-2.47s-.14-3.28-.14-3.28h2.6s2.53,0,2.53,0l2.58.03-.11,3.25ZM49.81,8.96h-2.16s-2.14.04-2.14.04v.83s2.14-.17,2.14-.17l2.11.04.04-.74Z"/>
      <path class="cls-1" d="M61.58,14.43l-.05,1.49-2.1.14-2.16.03-2.16-.02h-2.2s.06-1.62.06-1.62l2.71-.07.13-3.25h1.6s.04,3.32.04,3.32l2.09.06,2.05-.07ZM59.37,9.52l-1.99-.09-1.99.16h-2.04s.02-1.68.02-1.68l2.6-.02,2.57.1,2.63-.08-.14,2.86v2.77s-1.65.02-1.65.02l.05-2-.07-2.04Z"/>
    </g>
  </g>
  <g>
    <path class="cls-1" d="M213.11,6.51c-1.83-1.83-4.81-1.83-6.65,0-1.83,1.83-1.83,4.81,0,6.65.08.08.16.15.24.22l3.08,3.08,3.04-3.04s.02-.02.04-.03c.08-.07.17-.15.24-.23,1.83-1.83,1.83-4.81,0-6.65h0Z"/>
    <path class="cls-1" d="M139.86,12.42l-2.8-.46-.27-1.21,1.02-.93,2.37.15.65,1.48,2.24.13-.08-2-1.16-1.41-3.35-1-3.38.69-1.62,2.85.32,1.43.72,1.48,1.8,1.34h2.4s1.37.86,1.37.86l.24,1.33-1.08.76-1.11.2-1.68-.71-.58-1.25-1.46-.15-1.43.18.92,2.12,1.78,1.69,2.81.54,3.51-.98,1.63-2.76-.57-2.04-1.52-1.77-1.69-.57Z"/>
    <path class="cls-1" d="M154.77,8.03l-3.31-.74-3.26.83-2.43,2.3-.85,3.26,1.13,3.09,2.05,2.67,3.37.55,3.36-.57,2.45-2.42.65-3.32-.83-3.22-2.31-2.44h0ZM154.08,16.35l-2.63,1.28-2.78-1.14-.92-2.81.99-2.74,2.7-1.15,2.72,1.13,1.04,2.75-1.14,2.66h0Z"/>
    <path class="cls-1" d="M170.49,10.68l.02-2.89-2.58-.14-.09,2.41-.02,2.24-2.53.17-2.74.06.27-2.47-.09-2.49-2.71.17-.25,2.94.2,3.01-.23,3.01.14,3.07,2.67-.17.23-2.33-.23-2.54,2.75.14,2.68-.07-.07,2.48.12,2.37,2.7.14.19-3.08-.52-3.01.11-3.01Z"/>
    <g>
      <path class="cls-1" d="M239.1,8.37v3.23s-.03,3.19-.03,3.19l-.42,2.29-2.2.66-2.03-.8-.71-2.16.23-3.19-.17-3.2-2.78-.16.47,3.35-.34,3.2.51,2.81,2.13,1.85,2.68.95,2.63-1.06,2.23-1.72.28-2.84.37-3.19-.31-3.17-2.57-.06Z"/>
      <path class="cls-1" d="M254.29,16.97l.34-3.2-.51-2.81-2.13-1.85-2.68-.95-2.63,1.06-2.23,1.73-.29,2.83-.36,3.19.31,3.17,2.57.06v-3.23s.03-3.19.03-3.19l.42-2.29,2.2-.66,2.03.8.72,2.16-.23,3.19.17,3.2,2.78.16-.47-3.35Z"/>
      <path class="cls-1" d="M228.7,10.72l-.29-3.04v-.06s-2.61-.06-2.61-.06v3.17s-.03,3.06-.03,3.06l-.39,2.16-2.06.62-1.9-.75-.68-2.03.22-3.07-.17-3.14-2.81-.17.46,3.3-.33,3.09.5,2.74,2.07,1.8,2.6.93h.03s2.55-1.02,2.55-1.02l.03-.02-.05,1.04.05,1.73-.36,2-2.11.64-1.96-.77-.63-1.9h-2.52l.47,2.54,2.05,1.78,2.59.92,2.53-1.02,2.15-1.66.2-1.98h.04l.12-2.29-.21-2.16v-2.38s.08-.91.08-.91l.35-3.09Z"/>
    </g>
    <line class="cls-2" x1="174" y1="19.15" x2="215.49" y2="19.15"/>
    <g>
      <path class="cls-1" d="M179.22,11.96h-1.85s-1.77-.01-1.77-.01v-2.01s-.05-2.05-.05-2.05l2.6.02,2.66-.11-.02,1.47-1.8.06-1.76-.07-.02,1.4,2.09.09,2.02-.4.03,1.39-2.13.22ZM181.71,12.53h1.59s-.05,1.86-.05,1.86l.06,1.86-2.47.02h-2.51s-2.56.1-2.56.1l.02-1.97-.04-1.96,1.73.03v.6s2.1.09,2.1.09l2.1-.16.03-.45ZM181.7,15.01v-.73s-2.12-.03-2.12-.03l-2.13.04v.7s2.13.01,2.13.01h2.12ZM184.3,10.68h-1.01s0,1.42,0,1.42l-1.57.04-.02-2.17v-2.18s1.7-.09,1.7-.09l-.02,1.38,1.05-.03-.12,1.62Z"/>
      <path class="cls-1" d="M188.75,8.83l1.9-.02-.02,1.44-2.73.16-2.77-.07.03-1.52h1.9s0-1.05,0-1.05h1.67s0,1.06,0,1.06ZM190.33,13.34l-.63,1.87-1.8.7-1.89-.63-.6-1.94.69-1.86,1.79-.77,1.79.77.64,1.86ZM188.82,13.34l-.92-1.24-.96,1.24.96,1.13.92-1.13ZM193.93,12.5h-.99s-.06,1.91-.06,1.91l.15,1.94-1.76-.05.05-2.14v-2.13s0-2.14,0-2.14v-2.1s1.58,0,1.58,0l-.04,3.12h1.04s.01,1.58.01,1.58Z"/>
      <path class="cls-1" d="M203.17,13.13h-2.12s-2.16-.05-2.16-.05l-2.16.07h-2.13s0-1.35,0-1.35l2.14.06,2.16-.16,2.16.07,2.14.04v1.32ZM196.76,14.94h2.04s2.01.05,2.01.05l1.99-.07v1.34s-2.55,0-2.55,0l-2.58-.05-2.64.14.05-2.71,1.7.04v1.26ZM196.75,9.83h2.04s1.99.06,1.99.06l1.97-.07v1.33s-2.53,0-2.53,0l-2.56-.05-2.62.13.06-3.52,1.68.03v2.09Z"/>
    </g>
  </g>
  <g>
    <g>
      <path class="cls-1" d="M281.86,12.42l-2.8-.46-.27-1.21,1.02-.93,2.37.15.65,1.48,2.24.13-.08-2-1.16-1.41-3.35-1-3.38.69-1.62,2.85.32,1.43.72,1.48,1.8,1.34h2.4s1.37.86,1.37.86l.24,1.33-1.08.76-1.11.2-1.68-.71-.58-1.25-1.46-.15-1.43.18.92,2.12,1.78,1.69,2.81.54,3.51-.98,1.63-2.76-.57-2.04-1.52-1.77-1.69-.57Z"/>
      <path class="cls-1" d="M296.77,8.03l-3.31-.74-3.26.83-2.43,2.3-.85,3.26,1.13,3.09,2.05,2.67,3.37.55,3.36-.57,2.45-2.42.65-3.32-.83-3.22-2.31-2.44h0ZM296.08,16.35l-2.63,1.28-2.78-1.14-.92-2.81.99-2.74,2.7-1.15,2.72,1.13,1.04,2.75-1.14,2.66h0Z"/>
      <path class="cls-1" d="M312.49,10.68l.02-2.89-2.58-.14-.09,2.41-.02,2.24-2.53.17-2.74.06.27-2.47-.09-2.49-2.71.17-.25,2.94.2,3.01-.23,3.01.14,3.07,2.67-.17.23-2.33-.23-2.54,2.75.14,2.68-.07-.07,2.48.12,2.37,2.7.14.19-3.08-.52-3.01.11-3.01Z"/>
      <path class="cls-1" d="M373.1,8.37v3.23s-.03,3.19-.03,3.19l-.42,2.29-2.2.66-2.03-.8-.71-2.16.23-3.19-.17-3.2-2.78-.16.47,3.35-.34,3.2.51,2.81,2.13,1.85,2.68.95,2.63-1.06,2.23-1.72.28-2.84.37-3.19-.31-3.17-2.57-.06Z"/>
      <path class="cls-1" d="M388.29,16.97l.34-3.2-.51-2.81-2.13-1.85-2.68-.95-2.63,1.06-2.23,1.73-.29,2.83-.36,3.19.31,3.17,2.57.06v-3.23s.03-3.19.03-3.19l.42-2.29,2.2-.66,2.03.8.72,2.16-.23,3.19.17,3.2,2.78.16-.47-3.35Z"/>
      <path class="cls-1" d="M362.7,10.72l-.29-3.04v-.06s-2.61-.06-2.61-.06v3.17s-.03,3.06-.03,3.06l-.39,2.16-2.06.62-1.9-.75-.68-2.03.22-3.07-.17-3.14-2.81-.17.46,3.3-.33,3.09.5,2.74,2.07,1.8,2.6.93h.03s2.55-1.02,2.55-1.02l.03-.02-.05,1.04.05,1.73-.36,2-2.11.64-1.96-.77-.63-1.9h-2.52l.47,2.54,2.05,1.78,2.59.92,2.53-1.02,2.15-1.66.2-1.98h.04l.12-2.29-.21-2.16v-2.38s.08-.91.08-.91l.35-3.09Z"/>
      <line class="cls-2" x1="316" y1="19.15" x2="349" y2="19.15"/>
    </g>
    <path class="cls-1" d="M334.65,2.05c-2.74-2.74-7.18-2.74-9.92,0-2.74,2.74-2.74,7.18,0,9.92.12.12.24.23.36.33l4.6,4.59,4.54-4.54s.04-.03.06-.05c.12-.11.25-.22.37-.34,2.74-2.74,2.74-7.18,0-9.92h0Z"/>
    <path class="cls-1" d="M342.75,12.38c2.74-2.74,2.74-7.18,0-9.92-2.74-2.74-7.18-2.74-9.92,0-.12.12-.23.24-.33.36l-4.59,4.59,4.54,4.54s.03.04.05.06c.11.12.22.25.34.37,2.74,2.74,7.18,2.74,9.92,0h0Z"/>
  </g>
</svg>