<svg width="275" height="202" viewBox="0 0 275 202" fill="none" xmlns="http://www.w3.org/2000/svg">
<path d="M130.797 4.888L130.363 5.784C128.459 5.462 126.611 4.398 125.813 2.956C125.043 4.426 123.181 5.49 121.249 5.812L120.801 4.916C123.027 4.58 125.225 3.096 125.225 1.416V0.8H126.401V1.416C126.401 3.054 128.613 4.552 130.797 4.888ZM122.705 9.144V11.818H130.251V12.756H121.557V9.144H122.705ZM120.101 6.876H131.497V7.8H126.471V10.334H125.323V7.8H120.101V6.876ZM138.076 5.56V3.684H134.52V5.56H138.076ZM139.196 0.996V6.484H133.386V0.996H134.52V2.802H138.076V0.996H139.196ZM135.794 10.614V11.986H143.074V12.896H134.674V9.76H141.478V8.472H134.632V7.562H142.612V10.614H135.794ZM142.612 3.18H144.474V4.132H142.612V6.974H141.464V0.492H142.612V3.18ZM152.243 6.4L152.355 7.324C150.815 7.59 149.541 7.632 147.035 7.632H146.139V3.908H150.395V2.172H146.097V1.234H151.515V4.79H147.259V6.694C149.583 6.694 150.787 6.638 152.243 6.4ZM147.539 9.816V8.878H155.953V13.05H154.791V9.816H147.539ZM154.791 0.492H155.953V8.206H154.791V5.882H152.341V4.958H154.791V3.278H152.341V2.34H154.791V0.492Z" fill="white"/>
<path d="M247.046 69.0477V78.3157H245.898V69.0477H247.046ZM244.47 75.6697L243.924 76.5657C242.468 76.1037 241.32 75.1097 240.746 73.8217C240.2 75.2077 239.052 76.2997 237.568 76.8037L237.008 75.9077C238.884 75.2917 240.158 73.7097 240.158 71.9597V71.6377H237.302V70.7137H240.158V69.0897H241.306V70.7137H244.134V71.6377H241.292V71.9597C241.292 73.6117 242.608 75.0957 244.47 75.6697ZM240.116 80.3737H247.424V81.3117H238.968V77.4617H240.116V80.3737ZM257.055 70.5597V71.4697H249.551V70.5597H252.743V69.0477H253.891V70.5597H257.055ZM251.441 74.5357C251.441 75.4037 252.197 75.9637 253.317 75.9637C254.437 75.9637 255.193 75.4037 255.193 74.5357C255.193 73.6677 254.437 73.0937 253.317 73.0937C252.197 73.0937 251.441 73.6677 251.441 74.5357ZM253.891 76.8317V78.1617C255.025 78.1057 256.187 78.0217 257.265 77.8537L257.335 78.7077C254.647 79.1837 251.693 79.2117 249.495 79.2117L249.341 78.2457C250.349 78.2457 251.525 78.2457 252.743 78.2037V76.8317C251.301 76.6497 250.349 75.7817 250.349 74.5357C250.349 73.1217 251.567 72.2117 253.317 72.2117C255.067 72.2117 256.285 73.1217 256.285 74.5357C256.285 75.7817 255.333 76.6497 253.891 76.8317ZM261.115 74.3677V75.3337H259.155V81.5917H258.007V69.0337H259.155V74.3677H261.115ZM268.856 74.9557L268.968 75.8797C267.428 76.1457 266.154 76.1877 263.648 76.1877H262.752V72.4637H267.008V70.7277H262.71V69.7897H268.128V73.3457H263.872V75.2497C266.196 75.2497 267.4 75.1937 268.856 74.9557ZM264.152 78.3717V77.4337H272.566V81.6057H271.404V78.3717H264.152ZM271.404 69.0477H272.566V76.7617H271.404V74.4377H268.954V73.5137H271.404V71.8337H268.954V70.8957H271.404V69.0477Z" fill="white"/>
<path d="M2.002 79.651V78.713H10.724V82.969H9.562V79.651H2.002ZM7 76.571H12.11V77.495H0.742V76.571H5.852V75.073H2.17V70.817H10.696V71.741H3.318V74.149H10.808V75.073H7V76.571ZM20.8309 76.473L20.2989 77.369C18.8709 76.921 17.7649 76.011 17.2049 74.821C16.6729 76.151 15.5389 77.187 14.0689 77.691L13.4949 76.781C15.3569 76.207 16.6169 74.695 16.6169 73.015V72.763H13.8309V71.839H16.6169V70.243H17.7649V71.839H20.5369V72.763H17.7649V73.015C17.7649 74.541 18.9829 75.927 20.8309 76.473ZM19.2349 81.961C21.0829 81.961 22.2169 81.457 22.2169 80.589C22.2169 79.721 21.0829 79.217 19.2349 79.217C17.3589 79.217 16.2389 79.721 16.2389 80.589C16.2389 81.457 17.3589 81.961 19.2349 81.961ZM19.2349 78.321C21.7969 78.321 23.3649 79.133 23.3649 80.589C23.3649 82.031 21.7969 82.843 19.2349 82.843C16.6449 82.843 15.0909 82.031 15.0909 80.589C15.0909 79.133 16.6449 78.321 19.2349 78.321ZM23.2249 73.561H25.0869V74.513H23.2249V78.013H22.0769V70.313H23.2249V73.561ZM35.4038 77.747V73.925H32.6738V72.987H35.4038V70.327H36.5658V77.747H35.4038ZM33.5838 76.263L32.9678 77.159C31.5958 76.641 30.5318 75.647 29.9858 74.345C29.4538 75.829 28.3198 76.963 26.8078 77.537L26.2058 76.599C28.1378 75.913 29.3838 74.233 29.3838 72.315V71.027H30.5318V72.273C30.5318 74.065 31.7498 75.619 33.5838 76.263ZM32.4218 81.947C34.3118 81.947 35.4598 81.401 35.4598 80.491C35.4598 79.567 34.3118 79.021 32.4218 79.021C30.5318 79.021 29.3838 79.567 29.3838 80.491C29.3838 81.401 30.5318 81.947 32.4218 81.947ZM32.4218 78.125C34.9978 78.125 36.6078 78.979 36.6078 80.491C36.6078 81.989 34.9978 82.857 32.4218 82.857C29.8458 82.857 28.2358 81.989 28.2358 80.491C28.2358 78.979 29.8458 78.125 32.4218 78.125Z" fill="white"/>
<path d="M190.334 200.788C192.322 200.788 193.526 200.256 193.526 199.36C193.526 198.45 192.322 197.918 190.334 197.918C188.332 197.918 187.128 198.45 187.128 199.36C187.128 200.256 188.332 200.788 190.334 200.788ZM190.334 196.994C193.022 196.994 194.674 197.848 194.674 199.36C194.674 200.858 193.022 201.712 190.334 201.712C187.632 201.712 185.98 200.858 185.98 199.36C185.98 197.848 187.632 196.994 190.334 196.994ZM194.24 194.558H196.06V195.496H184.664V194.558H193.078C193.456 192.948 193.456 191.772 193.456 190.778H186.12V189.854H194.59V190.778C194.59 191.772 194.59 192.976 194.24 194.558ZM204.109 192.444H206.587V189.196H207.749V196.672H206.587V193.382H204.109V192.444ZM204.809 195.3L204.235 196.196C202.835 195.692 201.757 194.656 201.211 193.368C200.679 194.824 199.517 196 198.047 196.56L197.445 195.65C199.321 194.964 200.609 193.27 200.609 191.464V191.03H197.809V190.106H204.515V191.03H201.757V191.464C201.757 193.074 202.989 194.656 204.809 195.3ZM203.605 200.844C205.495 200.844 206.643 200.312 206.643 199.402C206.643 198.492 205.495 197.946 203.605 197.946C201.715 197.946 200.567 198.492 200.567 199.402C200.567 200.312 201.715 200.844 203.605 200.844ZM203.605 197.064C206.181 197.064 207.791 197.918 207.791 199.402C207.791 200.886 206.181 201.74 203.605 201.74C201.029 201.74 199.419 200.886 199.419 199.402C199.419 197.918 201.029 197.064 203.605 197.064Z" fill="white"/>
<path d="M77.926 196.616V192.794H75.196V191.856H77.926V189.196H79.088V196.616H77.926ZM76.106 195.132L75.49 196.028C74.118 195.51 73.054 194.516 72.508 193.214C71.976 194.698 70.842 195.832 69.33 196.406L68.728 195.468C70.66 194.782 71.906 193.102 71.906 191.184V189.896H73.054V191.142C73.054 192.934 74.272 194.488 76.106 195.132ZM74.944 200.816C76.834 200.816 77.982 200.27 77.982 199.36C77.982 198.436 76.834 197.89 74.944 197.89C73.054 197.89 71.906 198.436 71.906 199.36C71.906 200.27 73.054 200.816 74.944 200.816ZM74.944 196.994C77.52 196.994 79.13 197.848 79.13 199.36C79.13 200.858 77.52 201.726 74.944 201.726C72.368 201.726 70.758 200.858 70.758 199.36C70.758 197.848 72.368 196.994 74.944 196.994ZM91.7709 189.196V195.692H90.6229V189.196H91.7709ZM89.0829 194.432L88.5089 195.328C87.0669 194.824 85.9189 193.774 85.3449 192.444C84.7989 193.886 83.6369 195.034 82.1529 195.566L81.5649 194.67C83.4549 194.012 84.7569 192.332 84.7569 190.512V189.56H85.9049V190.512C85.9049 192.248 87.2209 193.816 89.0829 194.432ZM84.8129 200.69H92.2049V201.6H83.6789V198.478H90.6509V197.218H83.6509V196.322H91.7849V199.346H84.8129V200.69Z" fill="white"/>
<path d="M135.875 17.5596L48.5156 77.7591L82.6754 177.438H194.675L230.234 77.7591L135.875 17.5596Z" stroke="#DAE2F6" stroke-width="0.559996"/>
<path d="M138.344 76.3594L115.461 92.1736L124.409 118.359H153.746L163.061 92.1736L138.344 76.3594Z" stroke="#DAE2F6" stroke-width="0.559996"/>
<path d="M136.332 37.1602L70.1055 82.7052L96.0016 158.119H180.907L207.864 82.7052L136.332 37.1602Z" stroke="#DAE2F6" stroke-width="0.559996"/>
<path d="M137.237 57.8799L93.625 87.8215L110.679 137.399H166.592L184.344 87.8215L137.237 57.8799Z" stroke="#DAE2F6" stroke-width="0.559996"/>
<circle cx="48.2662" cy="78.0397" r="3.35998" fill="#58FFFF"/>
<circle cx="136.985" cy="37.7193" r="3.35998" fill="#58FFFF"/>
<circle cx="207.864" cy="83.0797" r="3.35998" fill="#58FFFF"/>
<path d="M207.304 82.5194L194.145 177.719H82.7054L48.2656 78.0394L136.745 37.7197L207.304 82.5194Z" fill="#58FFFF" fill-opacity="0.3" stroke="#58FFFF" stroke-width="1.11999"/>
<circle cx="194.422" cy="176.969" r="3.35998" fill="#58FFFF"/>
<circle cx="83.5436" cy="176.969" r="3.35998" fill="#58FFFF"/>
</svg>
