<svg width="1443" height="320" viewBox="0 0 1443 320" fill="none" xmlns="http://www.w3.org/2000/svg">
<rect y="0.648438" width="73" height="319" fill="#953533"/>
<rect x="86" y="0.648438" width="73" height="319" fill="#953533"/>
<rect x="172" y="0.648438" width="73" height="319" fill="#953533"/>
<rect x="256" y="0.648438" width="73" height="319" fill="#953533"/>
<rect x="342" y="0.648438" width="73" height="319" fill="#953533"/>
<rect x="428" y="0.648438" width="73" height="319" fill="#953533"/>
<rect x="514" y="0.648438" width="73" height="319" fill="#953533"/>
<rect x="600" y="0.648438" width="73" height="319" fill="#953533"/>
<rect x="686" y="0.648438" width="71" height="319" fill="#953533"/>
<rect x="770" y="0.648438" width="73" height="319" fill="#953533"/>
<rect x="856" y="0.648438" width="73" height="319" fill="#953533"/>
<rect x="942" y="0.648438" width="73" height="319" fill="#953533"/>
<rect x="1028" y="0.648438" width="73" height="319" fill="#953533"/>
<rect x="1114" y="0.648438" width="73" height="319" fill="#953533"/>
<rect x="1198" y="0.648438" width="73" height="319" fill="#953533"/>
<rect x="1284" y="0.648438" width="73" height="319" fill="#953533"/>
<rect x="1370" y="0.648438" width="73" height="319" fill="#953533"/>
</svg>
