<svg width="1398" height="174" viewBox="0 0 1398 174" fill="none" xmlns="http://www.w3.org/2000/svg">
<path fill-rule="evenodd" clip-rule="evenodd" d="M102.566 142.52C112.736 147.342 126.125 142.36 138.366 130.773C138.855 142.845 143.108 152.218 150.967 155.945C166.383 163.255 189.841 146.067 203.361 117.555C216.881 89.0424 215.344 60.0023 199.927 52.692C191.276 48.5897 180.092 52.2021 169.554 61.2011C169.773 46.3566 165.117 34.6542 155.807 30.2396C146.361 25.7605 134.139 29.7389 122.638 39.6124C120.361 35.1762 117.157 31.8045 113.045 29.8546C102.584 24.8941 88.7176 30.3069 76.1971 42.6121C73.8648 32.6896 68.8798 25.4693 61.5834 22.979C45.436 17.4677 24.083 37.2095 13.8901 67.0736C3.69721 96.9376 8.52432 125.615 24.6717 131.126C31.7485 133.542 39.8252 131.107 47.524 125.095C49.5533 133.149 53.6676 139.225 59.8039 142.135C69.2499 146.614 81.4719 142.635 92.9728 132.762C95.2499 137.198 98.454 140.57 102.566 142.52Z" fill="#3E60F2"/>
<path fill-rule="evenodd" clip-rule="evenodd" d="M690.566 142.52C700.736 147.342 714.125 142.36 726.366 130.773C726.855 142.845 731.108 152.218 738.967 155.945C754.383 163.255 777.841 146.067 791.361 117.555C804.881 89.0423 803.344 60.0023 787.927 52.692C779.276 48.5897 768.092 52.2021 757.554 61.2011C757.773 46.3566 753.117 34.6542 743.807 30.2396C734.361 25.7605 722.139 29.7389 710.638 39.6124C708.361 35.1762 705.157 31.8045 701.045 29.8546C690.584 24.8941 676.718 30.3069 664.197 42.6121C661.865 32.6896 656.88 25.4693 649.583 22.979C633.436 17.4677 612.083 37.2095 601.89 67.0736C591.697 96.9376 596.524 125.615 612.672 131.126C619.749 133.542 627.825 131.107 635.524 125.095C637.553 133.149 641.668 139.225 647.804 142.135C657.25 146.614 669.472 142.635 680.973 132.762C683.25 137.198 686.454 140.57 690.566 142.52Z" fill="#3E60F2"/>
<path fill-rule="evenodd" clip-rule="evenodd" d="M1278.57 142.52C1288.74 147.342 1302.12 142.36 1314.37 130.773C1314.86 142.845 1319.11 152.218 1326.97 155.945C1342.38 163.255 1365.84 146.067 1379.36 117.555C1392.88 89.0423 1391.34 60.0023 1375.93 52.692C1367.28 48.5897 1356.09 52.2021 1345.55 61.2011C1345.77 46.3566 1341.12 34.6542 1331.81 30.2396C1322.36 25.7605 1310.14 29.7389 1298.64 39.6124C1296.36 35.1762 1293.16 31.8045 1289.04 29.8546C1278.58 24.8941 1264.72 30.3069 1252.2 42.6121C1249.86 32.6896 1244.88 25.4693 1237.58 22.979C1221.44 17.4677 1200.08 37.2095 1189.89 67.0736C1179.7 96.9376 1184.52 125.615 1200.67 131.126C1207.75 133.542 1215.83 131.107 1223.52 125.095C1225.55 133.149 1229.67 139.225 1235.8 142.135C1245.25 146.614 1257.47 142.635 1268.97 132.762C1271.25 137.198 1274.45 140.57 1278.57 142.52Z" fill="#3E60F2"/>
<path fill-rule="evenodd" clip-rule="evenodd" d="M400.835 11.8631C386.262 8.30334 370.124 18.4077 357.261 36.8271C353.375 21.1996 345.303 10.1069 334.041 7.35608C311.949 1.95999 285.95 30.7072 275.97 71.5648C265.99 112.422 275.809 149.918 297.901 155.314C310.298 158.343 323.925 150.619 335.262 136.037C338.969 155.474 348.194 169.498 361.535 172.757C375.071 176.063 389.956 167.582 402.314 151.599C406.48 156.778 411.57 160.318 417.463 161.757C432.453 165.419 449.098 154.623 462.133 135.192C467.846 147.517 476.296 155.602 486.491 156.89C509.052 159.741 531.617 128.226 536.89 86.499C542.163 44.772 528.147 8.6344 505.586 5.78333C495.698 4.53381 485.81 9.88507 477.376 19.8038C472.561 9.83537 465.556 3.01098 456.763 0.863187C443.227 -2.44312 428.342 6.03832 415.984 22.0214C411.818 16.8424 406.728 13.3025 400.835 11.8631Z" fill="#3E60F2"/>
<path fill-rule="evenodd" clip-rule="evenodd" d="M988.835 11.8631C974.262 8.30333 958.124 18.4077 945.261 36.8271C941.375 21.1996 933.303 10.1069 922.041 7.35609C899.949 1.95999 873.95 30.7072 863.97 71.5648C853.99 112.422 863.809 149.918 885.901 155.314C898.298 158.343 911.925 150.619 923.262 136.037C926.969 155.474 936.194 169.498 949.535 172.757C963.071 176.063 977.956 167.582 990.314 151.599C994.48 156.778 999.57 160.318 1005.46 161.757C1020.45 165.419 1037.1 154.623 1050.13 135.192C1055.85 147.517 1064.3 155.602 1074.49 156.89C1097.05 159.741 1119.62 128.226 1124.89 86.499C1130.16 44.772 1116.15 8.6344 1093.59 5.78332C1083.7 4.53381 1073.81 9.88507 1065.38 19.8038C1060.56 9.83537 1053.56 3.01098 1044.76 0.863183C1031.23 -2.44312 1016.34 6.03832 1003.98 22.0214C999.818 16.8424 994.728 13.3025 988.835 11.8631Z" fill="#3E60F2"/>
</svg>
