<svg width="292" height="50" viewBox="0 0 292 50" fill="none" xmlns="http://www.w3.org/2000/svg">
<path d="M0 0H292V50H0V0Z" fill="#CE7AFF"/>
<path d="M34.9158 15.0726C30.819 10.9758 24.1751 10.9758 20.0726 15.0726C15.9758 19.1694 15.9758 25.8134 20.0726 29.9158C20.2473 30.0905 20.4276 30.2539 20.608 30.4117L27.4829 37.2867L34.279 30.4906C34.3072 30.4681 34.3354 30.4455 34.3636 30.4174C34.5495 30.2539 34.7355 30.0905 34.9102 29.9102C39.007 25.8134 39.007 19.1694 34.9102 15.067L34.9158 15.0726Z" fill="black"/>
<path d="M47.0227 30.5296C51.1195 26.4328 51.1195 19.7888 47.0227 15.6864C42.9259 11.5896 36.2819 11.5896 32.1795 15.6864C32.0048 15.8611 31.8414 16.0414 31.6836 16.2217L24.8086 23.0967L31.6047 29.8928C31.6272 29.921 31.6498 29.9492 31.6779 29.9773C31.8414 30.1633 32.0048 30.3493 32.1851 30.524C36.2819 34.6208 42.9259 34.6208 47.0283 30.524L47.0227 30.5296Z" fill="black"/>
<path d="M71.72 18H74.32V32H71.72V18ZM64.48 32H61.88V18H64.48V32ZM71.92 26H64.26V23.78H71.92V26ZM82.4514 32.14C81.2647 32.14 80.2247 31.9067 79.3314 31.44C78.4514 30.96 77.7647 30.3067 77.2714 29.48C76.7914 28.6533 76.5514 27.7133 76.5514 26.66C76.5514 25.5933 76.7847 24.6533 77.2514 23.84C77.7314 23.0133 78.3847 22.3667 79.2114 21.9C80.0514 21.4333 81.0047 21.2 82.0714 21.2C83.1114 21.2 84.0381 21.4267 84.8514 21.88C85.6647 22.3333 86.3047 22.9733 86.7714 23.8C87.2381 24.6267 87.4714 25.6 87.4714 26.72C87.4714 26.8267 87.4647 26.9467 87.4514 27.08C87.4514 27.2133 87.4447 27.34 87.4314 27.46H78.5314V25.8H86.1114L85.1314 26.32C85.1447 25.7067 85.0181 25.1667 84.7514 24.7C84.4847 24.2333 84.1181 23.8667 83.6514 23.6C83.1981 23.3333 82.6714 23.2 82.0714 23.2C81.4581 23.2 80.9181 23.3333 80.4514 23.6C79.9981 23.8667 79.6381 24.24 79.3714 24.72C79.1181 25.1867 78.9914 25.74 78.9914 26.38V26.78C78.9914 27.42 79.1381 27.9867 79.4314 28.48C79.7247 28.9733 80.1381 29.3533 80.6714 29.62C81.2047 29.8867 81.8181 30.02 82.5114 30.02C83.1114 30.02 83.6514 29.9267 84.1314 29.74C84.6114 29.5533 85.0381 29.26 85.4114 28.86L86.7514 30.4C86.2714 30.96 85.6647 31.3933 84.9314 31.7C84.2114 31.9933 83.3847 32.14 82.4514 32.14ZM89.4728 32V17.16H91.9728V32H89.4728ZM94.8541 32V17.16H97.3541V32H94.8541ZM105.035 32.14C103.942 32.14 102.969 31.9067 102.115 31.44C101.262 30.96 100.589 30.3067 100.095 29.48C99.602 28.6533 99.3553 27.7133 99.3553 26.66C99.3553 25.5933 99.602 24.6533 100.095 23.84C100.589 23.0133 101.262 22.3667 102.115 21.9C102.969 21.4333 103.942 21.2 105.035 21.2C106.142 21.2 107.122 21.4333 107.975 21.9C108.842 22.3667 109.515 23.0067 109.995 23.82C110.489 24.6333 110.735 25.58 110.735 26.66C110.735 27.7133 110.489 28.6533 109.995 29.48C109.515 30.3067 108.842 30.96 107.975 31.44C107.122 31.9067 106.142 32.14 105.035 32.14ZM105.035 30C105.649 30 106.195 29.8667 106.675 29.6C107.155 29.3333 107.529 28.9467 107.795 28.44C108.075 27.9333 108.215 27.34 108.215 26.66C108.215 25.9667 108.075 25.3733 107.795 24.88C107.529 24.3733 107.155 23.9867 106.675 23.72C106.195 23.4533 105.655 23.32 105.055 23.32C104.442 23.32 103.895 23.4533 103.415 23.72C102.949 23.9867 102.575 24.3733 102.295 24.88C102.015 25.3733 101.875 25.9667 101.875 26.66C101.875 27.34 102.015 27.9333 102.295 28.44C102.575 28.9467 102.949 29.3333 103.415 29.6C103.895 29.8667 104.435 30 105.035 30ZM112.886 27.36L112.406 18H115.366L114.866 27.36H112.886ZM113.886 32.14C113.419 32.14 113.033 31.9867 112.726 31.68C112.419 31.3733 112.266 31.0067 112.266 30.58C112.266 30.1533 112.419 29.7933 112.726 29.5C113.033 29.1933 113.419 29.04 113.886 29.04C114.353 29.04 114.733 29.1933 115.026 29.5C115.319 29.7933 115.466 30.1533 115.466 30.58C115.466 31.0067 115.319 31.3733 115.026 31.68C114.733 31.9867 114.353 32.14 113.886 32.14ZM123.26 32V18H125.86V32H123.26ZM128.346 23.22L129.506 18.78L129.846 20.28C129.38 20.28 128.986 20.1333 128.666 19.84C128.36 19.5467 128.206 19.1533 128.206 18.66C128.206 18.1667 128.36 17.7733 128.666 17.48C128.986 17.1733 129.373 17.02 129.826 17.02C130.293 17.02 130.68 17.1733 130.986 17.48C131.293 17.7867 131.446 18.18 131.446 18.66C131.446 18.8067 131.433 18.96 131.406 19.12C131.393 19.2667 131.353 19.44 131.286 19.64C131.233 19.8267 131.14 20.0733 131.006 20.38L129.966 23.22H128.346ZM146.969 21.2C147.823 21.2 148.576 21.3667 149.229 21.7C149.896 22.0333 150.416 22.5467 150.789 23.24C151.163 23.92 151.349 24.8 151.349 25.88V32H148.849V26.2C148.849 25.2533 148.643 24.5467 148.229 24.08C147.816 23.6133 147.223 23.38 146.449 23.38C145.903 23.38 145.416 23.5 144.989 23.74C144.576 23.98 144.249 24.3333 144.009 24.8C143.783 25.2667 143.669 25.86 143.669 26.58V32H141.169V26.2C141.169 25.2533 140.963 24.5467 140.549 24.08C140.136 23.6133 139.543 23.38 138.769 23.38C138.223 23.38 137.736 23.5 137.309 23.74C136.896 23.98 136.569 24.3333 136.329 24.8C136.103 25.2667 135.989 25.86 135.989 26.58V32H133.489V21.32H135.869V24.16L135.449 23.32C135.809 22.6267 136.329 22.1 137.009 21.74C137.703 21.38 138.489 21.2 139.369 21.2C140.369 21.2 141.236 21.4467 141.969 21.94C142.716 22.4333 143.209 23.18 143.449 24.18L142.469 23.84C142.816 23.04 143.389 22.4 144.189 21.92C144.989 21.44 145.916 21.2 146.969 21.2Z" fill="black"/>
<path d="M221.269 14.6145C219.117 12.4618 215.626 12.4618 213.47 14.6145C211.317 16.7671 211.317 20.2581 213.47 22.4137C213.562 22.5055 213.656 22.5914 213.751 22.6743L217.364 26.2867L220.935 22.7157C220.949 22.7039 220.964 22.6921 220.979 22.6773C221.077 22.5914 221.174 22.5055 221.266 22.4108C223.419 20.2581 223.419 16.7671 221.266 14.6115L221.269 14.6145Z" fill="black"/>
<path d="M227.633 22.7365C229.786 20.5838 229.786 17.0928 227.633 14.9372C225.481 12.7846 221.99 12.7846 219.834 14.9372C219.742 15.029 219.656 15.1238 219.573 15.2185L215.961 18.8309L219.532 22.4019C219.544 22.4167 219.556 22.4315 219.57 22.4463C219.656 22.544 219.742 22.6417 219.837 22.7335C221.99 24.8862 225.481 24.8862 227.636 22.7335L227.633 22.7365Z" fill="black"/>
<path d="M168.863 23.264L166.063 22.8022L165.792 21.5901L166.814 20.6551L169.186 20.8051L169.838 22.2828L172.078 22.4155L171.997 20.4127L170.837 19.0043L167.483 18L164.107 18.6926L162.491 21.544L162.814 22.9754L163.53 24.4588L165.33 25.7979L167.732 25.7921L169.099 26.6579L169.342 27.9854L168.257 28.7473L167.143 28.9493L165.463 28.2394L164.886 26.9926L163.431 26.8426L162 27.0273L162.918 29.1513L164.695 30.8425L167.501 31.3851L171.01 30.4038L172.643 27.6449L172.078 25.6016L170.554 23.8354L168.863 23.264Z" fill="black"/>
<path d="M183.769 18.8833L180.456 18.1445L177.194 18.9699L174.764 21.2729L173.91 24.5283L175.036 27.622L177.085 30.2886L180.456 30.837L183.815 30.2655L186.262 27.8471L186.914 24.5283L186.083 21.3133L183.769 18.8776V18.8833ZM183.082 27.1949L180.456 28.4763L177.679 27.3392L176.761 24.534L177.748 21.7982L180.45 20.6495L183.168 21.7808L184.213 24.534L183.076 27.1949H183.082Z" fill="black"/>
<path d="M199.485 21.5266L199.503 18.6406L196.928 18.5021L196.836 20.909L196.819 23.1485L194.285 23.3159L191.549 23.3794L191.815 20.909L191.722 18.4155L189.015 18.5887L188.761 21.5324L188.957 24.5453L188.727 27.5525L188.865 30.6231L191.532 30.45L191.763 28.1181L191.537 25.5785L194.285 25.717L196.969 25.642L196.894 28.1181L197.009 30.4904L199.711 30.6289L199.901 27.5467L199.376 24.5395L199.485 21.5266Z" fill="black"/>
<path d="M260.098 19.2197L260.092 22.4519L260.069 25.6438L259.654 27.9353L257.454 28.599L255.423 27.8025L254.713 25.6438L254.944 22.4519L254.776 19.2485L252 19.0869L252.468 22.4404L252.127 25.6438L252.641 28.4547L254.771 30.3075L257.454 31.2599L260.086 30.2036L262.32 28.4836L262.603 25.6438L262.972 22.4519L262.666 19.2832L260.098 19.2197Z" fill="black"/>
<path d="M275.29 27.8195L275.631 24.6161L275.117 21.8051L272.987 19.9524L270.303 19L267.671 20.0563L265.437 21.7821L265.149 24.6161L264.785 27.8079L265.091 30.9767L267.66 31.0402L267.665 27.8079L267.688 24.6161L268.104 22.3246L270.303 21.6609L272.329 22.4574L273.045 24.6161L272.814 27.8079L272.981 31.0113L275.758 31.173L275.29 27.8195Z" fill="black"/>
<path d="M249.701 21.5672L249.413 18.5254L249.407 18.4619L246.804 18.3984L246.798 21.5729L246.775 24.6378L246.388 26.8023L244.333 27.4256L242.429 26.6753L241.753 24.6436L241.978 21.5729L241.811 18.433L239 18.2656L239.462 21.5614L239.133 24.6494L239.635 27.391L241.701 29.1861L244.304 30.1154L244.333 30.1269L246.884 29.0995L246.913 29.0764L246.861 30.1154L246.913 31.8412L246.55 33.844L244.437 34.4847L242.48 33.7113L241.851 31.8065H239.335L239.802 34.3462L241.851 36.1239L244.437 37.0416L246.965 36.0258L249.118 34.3693L249.314 32.3895H249.355L249.476 30.1038L249.268 27.9393V25.7691L249.257 25.5613L249.349 24.6551L249.701 21.5672Z" fill="black"/>
<line x1="203" y1="30" x2="236" y2="30" stroke="black" stroke-width="2"/>
</svg>
