<?xml version="1.0" encoding="UTF-8"?>
<svg id="_레이어_1" data-name="레이어 1" xmlns="http://www.w3.org/2000/svg" version="1.1" viewBox="0 0 100 100">
  <defs>
    <style>
      .cls-1 {
        fill: #d387ff;
      }

      .cls-1, .cls-2 {
        stroke-width: 0px;
      }

      .cls-2 {
        fill: #000;
      }
    </style>
  </defs>
  <rect class="cls-1" width="100" height="100"/>
  <g>
    <path class="cls-2" d="M51.86,36.29c-7.06-7.06-18.5-7.06-25.56,0-7.06,7.06-7.06,18.5,0,25.56.3.3.61.58.92.85l11.84,11.84,11.7-11.7s.1-.08.15-.13c.32-.28.64-.56.94-.87,7.06-7.06,7.06-18.5,0-25.56h0Z"/>
    <path class="cls-2" d="M72.71,62.91c7.06-7.06,7.06-18.5,0-25.56-7.06-7.06-18.5-7.06-25.56,0-.3.3-.58.61-.85.92l-11.84,11.84,11.71,11.7s.08.1.13.15c.28.32.56.64.87.94,7.06,7.06,18.5,7.06,25.56,0h0Z"/>
  </g>
</svg>